<?xml version="1.0" encoding="utf-8"?>
<!-- Generator: Adobe Illustrator 28.2.0, SVG Export Plug-In . SVG Version: 6.00 Build 0)  -->
<svg version="1.1" id="Layer_1" xmlns="http://www.w3.org/2000/svg" xmlns:xlink="http://www.w3.org/1999/xlink" x="0px" y="0px"
	 viewBox="0 0 512 512" style="enable-background:new 0 0 512 512;" xml:space="preserve">
<style type="text/css">
	.st0{fill:url(#SVGID_1_);}
	.st1{fill:url(#SVGID_00000170988312489129190280000013700984827578841991_);}
	.st2{fill:url(#SVGID_00000098909126673759522050000000663562528869654422_);}
	.st3{fill:url(#SVGID_00000180355656646671369360000010387919630562749616_);}
	.st4{fill:url(#SVGID_00000036939583245259499460000005820441528231020988_);}
	.st5{fill:url(#SVGID_00000094601783975100058270000016851801379819516298_);}
	.st6{fill:url(#SVGID_00000023253952784153618140000009821792823879441588_);}
	.st7{fill:url(#SVGID_00000088112257816594370510000010323757746290680996_);}
	.st8{fill:url(#SVGID_00000123426910623679806060000005264636523602929836_);}
	.st9{fill:url(#SVGID_00000086674810992524661170000007346871568644874683_);}
	.st10{fill:url(#SVGID_00000179625965095599025860000011420414266078186160_);}
	.st11{fill:url(#SVGID_00000012438529730495822070000001483530999258729600_);}
	.st12{fill:url(#SVGID_00000088093791935259762000000006401182450929630648_);}
	.st13{fill:url(#SVGID_00000047775850219457542850000017816678710436885685_);}
	.st14{fill:url(#SVGID_00000167359282282871278070000017708938224196390070_);}
	.st15{fill:url(#SVGID_00000029019748438029350290000017127782543257252020_);}
	.st16{fill:url(#SVGID_00000106118232540691596800000016905049717572272004_);}
	.st17{fill:url(#SVGID_00000026862901449528089180000016166853203166561412_);}
	.st18{fill:url(#SVGID_00000055683327443570077580000011043978039854342032_);}
	.st19{fill:url(#SVGID_00000070084155501889740340000009819472187609742726_);}
	.st20{fill:url(#SVGID_00000000223572785521319360000011533398556646027414_);}
	.st21{fill:url(#SVGID_00000113340247788398813320000006593482582016773031_);}
	.st22{fill:url(#SVGID_00000011015238226614648810000012297999445079173256_);}
	.st23{fill:url(#SVGID_00000165225888599830206270000001152913269949004946_);}
	.st24{fill:url(#SVGID_00000015321862961245175630000000956847152034804392_);}
	.st25{fill:url(#SVGID_00000174572524175450504620000003096928643607248792_);}
	.st26{fill:url(#SVGID_00000170262739174395067760000018391050329040923045_);}
	.st27{fill:url(#SVGID_00000168083130551099926450000005086291983130405765_);}
	.st28{fill:url(#SVGID_00000013897941471383143480000005890475630058157976_);}
	.st29{fill:url(#SVGID_00000059290117115933944080000002662891930689809849_);}
	.st30{fill:url(#SVGID_00000069360810852532598960000012831810699801764513_);}
	.st31{fill:url(#SVGID_00000058577884496711950350000017709273623469375876_);}
	.st32{fill:url(#SVGID_00000068677020566530949070000005047582196494534572_);}
	.st33{fill:url(#SVGID_00000113316598971101812010000003168442968584806795_);}
	.st34{fill:url(#SVGID_00000048472136092498693940000012032675121723184043_);}
	.st35{fill:url(#SVGID_00000018214860124338543930000013343683194584039057_);}
	.st36{fill:url(#SVGID_00000009576818528553559390000016003655670823992476_);}
	.st37{fill:url(#SVGID_00000072958358190797378700000009640936299024687505_);}
	.st38{fill:url(#SVGID_00000086677613408560853320000009290018298727320495_);}
</style>
<linearGradient id="SVGID_1_" gradientUnits="userSpaceOnUse" x1="275.159" y1="455.7325" x2="328.4995" y2="455.7325">
	<stop  offset="0" style="stop-color:#6AA2BC"/>
	<stop  offset="1" style="stop-color:#38668D"/>
</linearGradient>
<path class="st0" d="M320.9,447c-12.9,3.8-26.3,5.7-39.7,5.6c-3.3,0-6,2.7-6,6s2.7,6,6,6c14.6,0,29.1-2,43.1-6.1
	c3.2-1,4.9-4.3,4-7.5C327.3,447.9,324,446.2,320.9,447z"/>
<linearGradient id="SVGID_00000075160882507107460390000011950421152155060128_" gradientUnits="userSpaceOnUse" x1="119.723" y1="123.9428" x2="145.3547" y2="123.9428">
	<stop  offset="0" style="stop-color:#6AA2BC"/>
	<stop  offset="1" style="stop-color:#38668D"/>
</linearGradient>
<path style="fill:url(#SVGID_00000075160882507107460390000011950421152155060128_);" d="M122.4,137.2c2.8,1.8,6.5,1,8.3-1.7
	c3.7-5.6,8-10.7,12.8-15.4c2.4-2.3,2.4-6.1,0.1-8.5c-2.3-2.3-6-2.4-8.4-0.2c-5.5,5.2-10.4,11.1-14.5,17.5
	C118.9,131.6,119.7,135.3,122.4,137.2z"/>
<linearGradient id="SVGID_00000083048722068545066350000002009894861157106350_" gradientUnits="userSpaceOnUse" x1="152.3897" y1="91.4065" x2="240.5514" y2="91.4065">
	<stop  offset="0" style="stop-color:#6AA2BC"/>
	<stop  offset="1" style="stop-color:#38668D"/>
</linearGradient>
<path style="fill:url(#SVGID_00000083048722068545066350000002009894861157106350_);" d="M158.4,107.2c1.1,0,2.2-0.3,3.1-0.9
	c8.5-5.1,17.5-9.2,27-12.2c14.8-4.7,30.3-6.8,45.8-6.4h0.1c3.3,0,6-2.6,6.1-5.9s-2.6-6-5.9-6.1l0,0c-16.9-0.5-33.7,1.9-49.8,6.9
	c-10.4,3.3-20.3,7.8-29.6,13.4c-2.8,1.7-3.7,5.4-2,8.2C154.4,106.1,156.3,107.2,158.4,107.2L158.4,107.2z"/>
<linearGradient id="SVGID_00000151522646485076819390000006938172367122862779_" gradientUnits="userSpaceOnUse" x1="10" y1="309.7195" x2="33.2815" y2="309.7195">
	<stop  offset="0" style="stop-color:#6AA2BC"/>
	<stop  offset="1" style="stop-color:#38668D"/>
</linearGradient>
<path style="fill:url(#SVGID_00000151522646485076819390000006938172367122862779_);" d="M22,289.9c0-3.3-2.7-6-6-6s-6,2.7-6,6
	c0,15.1,4.3,29.9,12.2,42.8c1.8,2.8,5.5,3.7,8.3,1.9c2.7-1.7,3.6-5.3,2-8.1C25.7,315.5,22,302.8,22,289.9L22,289.9z"/>
<linearGradient id="SVGID_00000180355657409193934620000015731613601432468885_" gradientUnits="userSpaceOnUse" x1="38.0011" y1="358.5244" x2="74.7333" y2="358.5244">
	<stop  offset="0" style="stop-color:#6AA2BC"/>
	<stop  offset="1" style="stop-color:#38668D"/>
</linearGradient>
<path style="fill:url(#SVGID_00000180355657409193934620000015731613601432468885_);" d="M71.5,361.9c-8.5-4.4-16.4-9.9-23.4-16.3
	c-2.4-2.3-6.2-2.2-8.5,0.3c-2.3,2.4-2.2,6.2,0.3,8.5c0,0,0,0,0.1,0.1c7.8,7.2,16.6,13.3,26,18.2c2.9,1.5,6.6,0.4,8.1-2.5
	C75.6,367,74.4,363.4,71.5,361.9L71.5,361.9z"/>
<linearGradient id="SVGID_00000141426163985009221940000001542517563123575224_" gradientUnits="userSpaceOnUse" x1="98.2205" y1="381.1555" x2="140.072" y2="381.1555">
	<stop  offset="0" style="stop-color:#6AA2BC"/>
	<stop  offset="1" style="stop-color:#38668D"/>
</linearGradient>
<path style="fill:url(#SVGID_00000141426163985009221940000001542517563123575224_);" d="M105.4,373.8c-3.2-0.7-6.4,1.4-7.1,4.7
	c-0.7,3.2,1.4,6.4,4.7,7.1c10.2,2.1,20.6,3.1,31.1,3.1c3.3,0,6-2.7,6-6s-2.7-6-6-6C124.5,376.7,114.9,375.7,105.4,373.8L105.4,373.8
	z"/>
<linearGradient id="SVGID_00000011740765277839335550000005474031278209306032_" gradientUnits="userSpaceOnUse" x1="424.4815" y1="173.4314" x2="460.0962" y2="173.4314">
	<stop  offset="0" style="stop-color:#6AA2BC"/>
	<stop  offset="1" style="stop-color:#38668D"/>
</linearGradient>
<path style="fill:url(#SVGID_00000011740765277839335550000005474031278209306032_);" d="M428.3,172.9c7.9,3.1,15.4,7,22.5,11.6
	c2.8,1.8,6.5,1.1,8.3-1.7c1.8-2.8,1.1-6.5-1.7-8.3c-7.8-5.1-16.1-9.4-24.7-12.8c-3.1-1.2-6.6,0.3-7.8,3.4
	C423.7,168.2,425.2,171.7,428.3,172.9L428.3,172.9L428.3,172.9z"/>
<linearGradient id="SVGID_00000004525966424388121090000001149048220655937413_" gradientUnits="userSpaceOnUse" x1="478.3216" y1="231.6979" x2="501.9834" y2="231.6979">
	<stop  offset="0" style="stop-color:#6AA2BC"/>
	<stop  offset="1" style="stop-color:#38668D"/>
</linearGradient>
<path style="fill:url(#SVGID_00000004525966424388121090000001149048220655937413_);" d="M481.2,205c-2.8,1.7-3.7,5.4-2,8.3
	c0,0,0,0,0,0c7.5,11.9,11.2,25.7,10.7,39.7c-0.1,3.3,2.4,6.1,5.8,6.2c0,0,0,0,0,0h0.2c3.2,0,5.9-2.5,6-5.8
	c0.5-16.4-3.8-32.6-12.5-46.5C487.7,204.2,484,203.3,481.2,205C481.2,205,481.2,205,481.2,205z"/>
<linearGradient id="SVGID_00000052095764016114692540000016555693678532994711_" gradientUnits="userSpaceOnUse" x1="98.0208" y1="423.4669" x2="129.1166" y2="423.4669">
	<stop  offset="0" style="stop-color:#6AA2BC"/>
	<stop  offset="1" style="stop-color:#38668D"/>
</linearGradient>
<path style="fill:url(#SVGID_00000052095764016114692540000016555693678532994711_);" d="M125.9,424.2c-6.4-3.3-12.4-7.1-18.1-11.5
	c-2.6-2.1-6.4-1.7-8.4,0.9c-2.1,2.6-1.7,6.4,0.9,8.4c0,0,0.1,0.1,0.1,0.1c6.3,4.9,13,9.2,20,12.8c3,1.5,6.6,0.3,8.1-2.7
	C130,429.3,128.8,425.8,125.9,424.2L125.9,424.2z"/>
<linearGradient id="SVGID_00000075157664049719027520000008054071590586801584_" gradientUnits="userSpaceOnUse" x1="150.994" y1="443.2145" x2="193.2293" y2="443.2145">
	<stop  offset="0" style="stop-color:#6AA2BC"/>
	<stop  offset="1" style="stop-color:#38668D"/>
</linearGradient>
<path style="fill:url(#SVGID_00000075157664049719027520000008054071590586801584_);" d="M187.2,438.6c-4.4,0-8.8-0.2-13.1-0.6
	c-5.4-0.5-10.7-1.3-16-2.4c-3.2-0.7-6.4,1.4-7.1,4.7c-0.7,3.2,1.4,6.4,4.6,7.1c5.7,1.3,11.5,2.2,17.3,2.8c4.7,0.4,9.4,0.9,14.1,0.9
	h0c3.4-0.1,6.1-3,6-6.4C193.1,441.3,190.5,438.7,187.2,438.6z"/>
<linearGradient id="SVGID_00000115473072476016117560000017540352838093678231_" gradientUnits="userSpaceOnUse" x1="200.2814" y1="185.2386" x2="232.6172" y2="185.2386">
	<stop  offset="0" style="stop-color:#6AA2BC"/>
	<stop  offset="1" style="stop-color:#38668D"/>
</linearGradient>
<path style="fill:url(#SVGID_00000115473072476016117560000017540352838093678231_);" d="M214.1,143.1
	c-16.9,26.1-18.4,56.7-4.1,83.8c0,0,0,0,0,0c0.1,0.2,0.2,0.4,0.4,0.6c0,0,0,0,0,0c0.1,0.1,0.1,0.2,0.2,0.3c0.1,0.1,0.2,0.2,0.3,0.3
	c0.1,0.1,0.2,0.2,0.3,0.3c0.1,0.1,0.2,0.2,0.3,0.3c0.1,0.1,0.2,0.1,0.3,0.2c0.1,0.1,0.2,0.2,0.3,0.2c0.1,0.1,0.2,0.1,0.3,0.2
	c0.1,0.1,0.2,0.1,0.4,0.2c0.1,0,0.2,0.1,0.3,0.1c0.1,0.1,0.3,0.1,0.4,0.1s0.2,0.1,0.3,0.1s0.2,0.1,0.4,0.1s0.3,0.1,0.4,0.1
	c0.1,0,0.2,0,0.3,0c0.1,0,0.3,0,0.4,0c0.3,0,0.6,0,0.8-0.1c0.1,0,0.1,0,0.2,0c0.2,0,0.4-0.1,0.7-0.2c0.1,0,0.1,0,0.2-0.1
	c0.2-0.1,0.4-0.2,0.6-0.2c0.1,0,0.1-0.1,0.2-0.1c0,0,0.1,0,0.1-0.1c0.2-0.1,0.4-0.2,0.6-0.4l0,0c3.2-2.3,6.7-4.2,10.3-5.9
	c3-1.4,4.3-5,2.9-8s-5-4.3-8-2.9c-2.1,1-4.2,2-6.2,3.2c-9.2-21.6-7-45.3,6.3-65.8c1.8-2.8,1-6.5-1.8-8.3
	C219.7,139.5,216,140.3,214.1,143.1L214.1,143.1L214.1,143.1z"/>
<linearGradient id="SVGID_00000048495467286123701320000005696057373444751803_" gradientUnits="userSpaceOnUse" x1="241.1026" y1="108.9728" x2="296.7985" y2="108.9728">
	<stop  offset="0" style="stop-color:#6AA2BC"/>
	<stop  offset="1" style="stop-color:#38668D"/>
</linearGradient>
<path style="fill:url(#SVGID_00000048495467286123701320000005696057373444751803_);" d="M247.1,124.4c1.2,0,2.4-0.4,3.4-1
	c5.7-3.9,11.8-7.2,18.1-10c7.6-3.4,15.5-6,23.6-7.9c3.2-0.8,5.2-4,4.5-7.2c-0.8-3.2-4-5.2-7.2-4.5l0,0c-8.9,2.1-17.5,4.9-25.8,8.6
	c-7,3.1-13.6,6.8-19.9,11.1c-2.7,1.9-3.4,5.6-1.6,8.3C243.3,123.4,245.1,124.4,247.1,124.4L247.1,124.4z"/>
<linearGradient id="SVGID_00000104676286060074671790000012473429622089620644_" gradientUnits="userSpaceOnUse" x1="373.2115" y1="115.6191" x2="416.4467" y2="115.6191">
	<stop  offset="0" style="stop-color:#6AA2BC"/>
	<stop  offset="1" style="stop-color:#38668D"/>
</linearGradient>
<path style="fill:url(#SVGID_00000104676286060074671790000012473429622089620644_);" d="M376.9,111.8c10.8,4.4,20.8,10.3,29.7,17.7
	c2.5,2.1,6.3,1.8,8.5-0.8s1.8-6.3-0.8-8.5c-9.9-8.2-21-14.8-32.9-19.6c-3.1-1.2-6.6,0.3-7.8,3.4
	C372.4,107.1,373.9,110.5,376.9,111.8L376.9,111.8z"/>
<linearGradient id="SVGID_00000055690987573082611830000001076861554072890513_" gradientUnits="userSpaceOnUse" x1="30.4014" y1="174.148" x2="74.5045" y2="174.148">
	<stop  offset="0" style="stop-color:#6AA2BC"/>
	<stop  offset="1" style="stop-color:#38668D"/>
</linearGradient>
<path style="fill:url(#SVGID_00000055690987573082611830000001076861554072890513_);" d="M34.9,203.3c3.2,0.9,6.5-1,7.3-4.2
	c0,0,0,0,0,0c1.6-6.1,4-12,7.2-17.5c1.9-3.4,4.1-6.6,6.5-9.7c4.8-6.1,10.3-11.6,16.4-16.3c2.6-2,3.1-5.8,1-8.4s-5.8-3.1-8.4-1l0,0
	c-6.9,5.4-13.1,11.5-18.4,18.4c-2.7,3.5-5.2,7.2-7.4,11.1c-3.6,6.4-6.5,13.2-8.4,20.3C29.8,199.1,31.7,202.4,34.9,203.3z"/>
<linearGradient id="SVGID_00000155829473266114899890000014871047682326239142_" gradientUnits="userSpaceOnUse" x1="30.9952" y1="243.4361" x2="47.5989" y2="243.4361">
	<stop  offset="0" style="stop-color:#6AA2BC"/>
	<stop  offset="1" style="stop-color:#38668D"/>
</linearGradient>
<path style="fill:url(#SVGID_00000155829473266114899890000014871047682326239142_);" d="M44.2,254.8c3-1.4,4.2-5,2.8-8
	c-1.7-3.5-3.1-7.2-4.2-11c-0.9-3.2-4.3-5-7.5-4c-3.2,0.9-5,4.3-4,7.5l0,0c1.3,4.4,3,8.7,5,12.8C37.6,255,41.2,256.2,44.2,254.8
	C44.2,254.8,44.2,254.8,44.2,254.8L44.2,254.8z"/>
<linearGradient id="SVGID_00000019661590030952239400000017449084950070924438_" gradientUnits="userSpaceOnUse" x1="97.4593" y1="240.6067" x2="217.439" y2="240.6067">
	<stop  offset="0" style="stop-color:#6AA2BC"/>
	<stop  offset="1" style="stop-color:#38668D"/>
</linearGradient>
<path style="fill:url(#SVGID_00000019661590030952239400000017449084950070924438_);" d="M101.2,308.8c36.1,14.2,76.3,14.2,112.5,0
	c0,0,0.1,0,0.1-0.1c0.1,0,0.2-0.1,0.3-0.1c0.1,0,0.2-0.1,0.3-0.1s0.2-0.1,0.3-0.2s0.2-0.1,0.3-0.2c0.1-0.1,0.1-0.1,0.2-0.2
	c0.1-0.1,0.2-0.2,0.3-0.3c0,0,0.1-0.1,0.1-0.1c0.2-0.2,0.3-0.5,0.4-0.5h0c0-0.2,0.3-0.3,0.4-0.5c0.1-0.1,0.1-0.2,0.2-0.2
	s0.1-0.2,0.2-0.3c0.1-0.1,0.1-0.2,0.2-0.3c0-0.1,0.1-0.1,0.1-0.2c0-0.1,0.1-0.2,0.1-0.3c0-0.1,0.1-0.1,0.1-0.2
	c0-0.1,0.1-0.2,0.1-0.3c0-0.1,0-0.2,0.1-0.2s0-0.2,0-0.3s0-0.2,0-0.3c0-0.1,0-0.1,0-0.2c0-0.1,0-0.2,0-0.4c0-0.1,0-0.1,0-0.2
	c0-0.1,0-0.3,0-0.4c0-0.1,0-0.1,0-0.2c0-0.1,0-0.3-0.1-0.4c0-0.1,0-0.1-0.1-0.2c0-0.1,0-0.2-0.1-0.3c0-0.2-0.1-0.3-0.2-0.5
	c0,0,0-0.1,0-0.1c-0.1-0.2-0.2-0.4-0.3-0.6c0,0,0,0,0-0.1c-0.1-0.1-0.2-0.3-0.3-0.4c-0.1-0.1-0.2-0.2-0.2-0.3c0,0-0.1-0.1-0.1-0.1
	c-0.3-0.3-0.5-0.6-0.9-0.9c-3-2.4-5.6-5.1-8-8.1c-12.4-14.8-12.3-36.4,0.3-51c2.1-2.6,1.6-6.4-1-8.4c-2.6-2-6.3-1.6-8.4,0.9
	c-5.3,6.5-9.1,14.1-11,22.3c-20.4-6.7-38-18.1-50.3-32.6c-6.3-7.3-11.2-15.8-14.4-24.9c-3.2-9.1-4.4-18.9-3.5-28.5
	c0.3-3.3-2.1-6.2-5.4-6.5c-3.3-0.3-6.2,2.1-6.5,5.4c-1,11.3,0.4,22.8,4.1,33.5c3.7,10.5,9.3,20.2,16.6,28.7
	c14.2,16.8,34.7,29.8,58.2,37.1c0.4,11.5,4.5,22.5,11.8,31.4c0.8,1,1.6,2,2.5,3c-30.4,9.8-65.1,8.7-94.6-3.2
	c-3.1-1.2-6.6,0.2-7.8,3.3C96.7,304,98.1,307.5,101.2,308.8L101.2,308.8L101.2,308.8z"/>
<linearGradient id="SVGID_00000067220115235571153720000007737159327917654167_" gradientUnits="userSpaceOnUse" x1="150.5977" y1="299.4375" x2="413.5559" y2="299.4375">
	<stop  offset="0" style="stop-color:#6AA2BC"/>
	<stop  offset="1" style="stop-color:#38668D"/>
</linearGradient>
<path style="fill:url(#SVGID_00000067220115235571153720000007737159327917654167_);" d="M405,359.9c0-37.2-26.3-71.2-67.6-88
	c0.3-2.2,0.5-4.5,0.5-6.7c0-8.8-2.3-17.4-6.7-25.1c24.8-5.1,50.4-3.5,74.4,4.6c3.1,1.1,6.6-0.6,7.6-3.7s-0.6-6.6-3.7-7.6
	c-27.7-9.4-57.5-10.7-85.9-3.8c-10-11.1-24.5-19.5-41.7-23.2c-0.1,0-0.2,0-0.4-0.1c9.4-12.3,22.6-22.6,38.5-30
	c19.9-9.3,42.7-13.6,65.9-12.2c3.3,0.2,6.1-2.4,6.3-5.7c0.2-3.3-2.3-6.1-5.6-6.3c-25.2-1.4-50,3.2-71.7,13.4
	c-20,9.4-36.1,22.8-46.9,39.1c-2-0.1-4.1-0.2-6.1-0.2c-3.3,0-6,2.7-6,6s2.7,6,6,6c5.8,0,11.7,0.6,17.4,1.8
	c27.5,5.9,46.6,25.3,46.6,47.2c0,16.6-10.9,31.3-27.5,40.2c0,0-0.1,0-0.1,0s0,0-0.1,0c-11.2,5.8-23.7,8.8-36.4,8.7
	c-2.6,0-5.2-0.1-7.7-0.4c0,0-0.1,0-0.1,0c-4.3-0.4-8.6-1.1-12.7-2.2c-3.2-0.9-6.5,1-7.4,4.2c-0.9,3.2,1,6.5,4.2,7.4c0,0,0.1,0,0.1,0
	c2,0.5,4.1,1,6.1,1.4c-15.7,27.7-49.4,47.6-88.5,51.4c-3.3,0.3-5.7,3.3-5.4,6.6c0.3,3.1,2.9,5.4,6,5.4c0.2,0,0.4,0,0.6,0
	c44.9-4.4,83.6-28.5,100.1-61.9c1.6,0.1,3.1,0.1,4.7,0.1c12.6,0.1,25.1-2.5,36.6-7.6c14.4,31.2,4.6,65.9-25.8,89.8l-5.5,4.3
	c-13.7,10.8-30.8,18.6-49.4,22.6c-3.2,0.7-5.3,3.9-4.6,7.1c0.7,3.2,3.9,5.3,7.1,4.6c0,0,0,0,0.1,0c20.4-4.4,39.2-13.1,54.3-24.9
	l5.5-4.3c18.2-14.3,30.2-32.4,34.8-52.3c4.1-17.7,2.1-36.3-5.8-52.7c11.7-7.5,20.5-17.6,25.1-29.3c35.9,15.1,58.7,44.5,58.7,76.3
	v6.1c0,21.8-10.5,42.7-29.7,58.8c-2.5,2.2-2.8,6-0.7,8.5c1.1,1.3,2.8,2.1,4.6,2.1c1.4,0,2.7-0.5,3.8-1.4c22-18.4,34-42.6,34-68
	V359.9z"/>
<linearGradient id="SVGID_00000012465970890709430980000006687326863461178035_" gradientUnits="userSpaceOnUse" x1="451.4622" y1="295.6521" x2="483.9585" y2="295.6521">
	<stop  offset="0" style="stop-color:#6AA2BC"/>
	<stop  offset="1" style="stop-color:#38668D"/>
</linearGradient>
<path style="fill:url(#SVGID_00000012465970890709430980000006687326863461178035_);" d="M473.2,283.3c-3.2-5.6-6.9-10.9-11.2-15.7
	c-2.2-2.5-6-2.8-8.5-0.6s-2.8,6-0.6,8.5c3.7,4.2,7,8.8,9.8,13.7c5.4,9.4,8.6,20,9.2,30.9c0.2,3.2,2.8,5.7,6,5.7c0.1,0,0.2,0,0.3,0
	c3.3-0.2,5.8-3,5.7-6.3C483.2,306.7,479.5,294.4,473.2,283.3L473.2,283.3z"/>
<linearGradient id="SVGID_00000020401039411046839410000006134027298178358427_" gradientUnits="userSpaceOnUse" x1="434.832" y1="369.7336" x2="480.0416" y2="369.7336">
	<stop  offset="0" style="stop-color:#6AA2BC"/>
	<stop  offset="1" style="stop-color:#38668D"/>
</linearGradient>
<path style="fill:url(#SVGID_00000020401039411046839410000006134027298178358427_);" d="M476,342.3c-3.1-1.1-6.5,0.6-7.6,3.7
	c0,0,0,0,0,0c-5.3,15.5-16,29.5-31,40.6c-2.7,1.9-3.3,5.7-1.4,8.4c1.9,2.7,5.7,3.3,8.4,1.4c0,0,0.1,0,0.1-0.1
	c17-12.6,29.2-28.6,35.3-46.4C480.8,346.8,479.1,343.4,476,342.3L476,342.3z"/>
<linearGradient id="SVGID_00000123416266338778431130000012870239068343138944_" gradientUnits="userSpaceOnUse" x1="234" y1="212.154" x2="250" y2="212.154">
	<stop  offset="0" style="stop-color:#E1C495"/>
	<stop  offset="1" style="stop-color:#EE8A66"/>
</linearGradient>
<circle style="fill:url(#SVGID_00000123416266338778431130000012870239068343138944_);" cx="242" cy="212.2" r="8"/>
<linearGradient id="SVGID_00000005956941020058789690000008890729032264743816_" gradientUnits="userSpaceOnUse" x1="215" y1="313.154" x2="231" y2="313.154">
	<stop  offset="0" style="stop-color:#E1C495"/>
	<stop  offset="1" style="stop-color:#EE8A66"/>
</linearGradient>
<circle style="fill:url(#SVGID_00000005956941020058789690000008890729032264743816_);" cx="223" cy="313.2" r="8"/>
<linearGradient id="SVGID_00000157309421753823482260000016136741283527723198_" gradientUnits="userSpaceOnUse" x1="223" y1="130.154" x2="239" y2="130.154">
	<stop  offset="0" style="stop-color:#E1C495"/>
	<stop  offset="1" style="stop-color:#EE8A66"/>
</linearGradient>
<circle style="fill:url(#SVGID_00000157309421753823482260000016136741283527723198_);" cx="231" cy="130.2" r="8"/>
<linearGradient id="SVGID_00000167380221746751729130000009168246948816660656_" gradientUnits="userSpaceOnUse" x1="25" y1="217.154" x2="41" y2="217.154">
	<stop  offset="0" style="stop-color:#E1C495"/>
	<stop  offset="1" style="stop-color:#EE8A66"/>
</linearGradient>
<circle style="fill:url(#SVGID_00000167380221746751729130000009168246948816660656_);" cx="33" cy="217.2" r="8"/>
<linearGradient id="SVGID_00000047768870860770519630000001300410528724178094_" gradientUnits="userSpaceOnUse" x1="79" y1="376.154" x2="95" y2="376.154">
	<stop  offset="0" style="stop-color:#E1C495"/>
	<stop  offset="1" style="stop-color:#EE8A66"/>
</linearGradient>
<circle style="fill:url(#SVGID_00000047768870860770519630000001300410528724178094_);" cx="87" cy="376.2" r="8"/>
<linearGradient id="SVGID_00000043431150264381643940000002051247040567099797_" gradientUnits="userSpaceOnUse" x1="108" y1="149.154" x2="124" y2="149.154">
	<stop  offset="0" style="stop-color:#E1C495"/>
	<stop  offset="1" style="stop-color:#EE8A66"/>
</linearGradient>
<circle style="fill:url(#SVGID_00000043431150264381643940000002051247040567099797_);" cx="116" cy="149.2" r="8"/>
<linearGradient id="SVGID_00000023986041316045657130000004827413417172301996_" gradientUnits="userSpaceOnUse" x1="131" y1="436.154" x2="147" y2="436.154">
	<stop  offset="0" style="stop-color:#E1C495"/>
	<stop  offset="1" style="stop-color:#EE8A66"/>
</linearGradient>
<circle style="fill:url(#SVGID_00000023986041316045657130000004827413417172301996_);" cx="139" cy="436.2" r="8"/>
<linearGradient id="SVGID_00000056413035012940176100000003218723760832502660_" gradientUnits="userSpaceOnUse" x1="254" y1="460.154" x2="270" y2="460.154">
	<stop  offset="0" style="stop-color:#E1C495"/>
	<stop  offset="1" style="stop-color:#EE8A66"/>
</linearGradient>
<circle style="fill:url(#SVGID_00000056413035012940176100000003218723760832502660_);" cx="262" cy="460.2" r="8"/>
<linearGradient id="SVGID_00000063603873352789224180000005573119271892787623_" gradientUnits="userSpaceOnUse" x1="330.142" y1="443.4987" x2="362.147" y2="443.4987">
	<stop  offset="0" style="stop-color:#6AA2BC"/>
	<stop  offset="1" style="stop-color:#38668D"/>
</linearGradient>
<path style="fill:url(#SVGID_00000063603873352789224180000005573119271892787623_);" d="M358,437.8c-2.9-1-5.2-3.3-6.2-6.2
	c-0.8-2.5-3.1-4.1-5.7-4.1c-2.6,0-4.9,1.7-5.7,4.1c-1,2.9-3.3,5.2-6.2,6.2c-3.1,1-4.8,4.4-3.8,7.6c0.6,1.8,2,3.2,3.8,3.8
	c2.9,1,5.2,3.3,6.2,6.2c1,3.1,4.4,4.8,7.6,3.8c1.8-0.6,3.2-2,3.8-3.8c1-2.9,3.3-5.2,6.2-6.2c3.1-1,4.8-4.4,3.8-7.6
	C361.2,439.8,359.8,438.4,358,437.8L358,437.8z"/>
<linearGradient id="SVGID_00000175280905404892586690000017154382237978833561_" gradientUnits="userSpaceOnUse" x1="70.142" y1="136.5007" x2="102.147" y2="136.5007">
	<stop  offset="0" style="stop-color:#6AA2BC"/>
	<stop  offset="1" style="stop-color:#38668D"/>
</linearGradient>
<path style="fill:url(#SVGID_00000175280905404892586690000017154382237978833561_);" d="M91.8,124.6c-0.8-2.5-3.1-4.1-5.7-4.1
	c-2.6,0-4.9,1.7-5.7,4.1c-1,2.9-3.3,5.2-6.2,6.2c-3.1,1-4.8,4.4-3.8,7.6c0.6,1.8,2,3.2,3.8,3.8c2.9,1,5.2,3.3,6.2,6.2
	c1,3.1,4.4,4.8,7.6,3.8c1.8-0.6,3.2-2,3.8-3.8c1-2.9,3.3-5.2,6.2-6.2c3.1-1,4.8-4.4,3.8-7.6c-0.6-1.8-2-3.2-3.8-3.8
	C95.1,129.8,92.8,127.5,91.8,124.6z"/>
<linearGradient id="SVGID_00000062877911216009316980000005780630157726078610_" gradientUnits="userSpaceOnUse" x1="225.0316" y1="243.1383" x2="259.6058" y2="243.1383">
	<stop  offset="0" style="stop-color:#E1C495"/>
	<stop  offset="1" style="stop-color:#EE8A66"/>
</linearGradient>
<path style="fill:url(#SVGID_00000062877911216009316980000005780630157726078610_);" d="M252.5,231c-10.7,2-20,7.1-26.1,14.5
	c-2.1,2.6-1.8,6.3,0.8,8.4c2.6,2.1,6.3,1.8,8.4-0.8c4.3-5.2,11.2-9,19-10.4c3.3-0.6,5.4-3.7,4.8-7
	C258.9,232.6,255.8,230.4,252.5,231L252.5,231z"/>
<linearGradient id="SVGID_00000127017577656856345540000017089268501290626728_" gradientUnits="userSpaceOnUse" x1="219.091" y1="279.654" x2="268" y2="279.654">
	<stop  offset="0" style="stop-color:#E1C495"/>
	<stop  offset="1" style="stop-color:#EE8A66"/>
</linearGradient>
<path style="fill:url(#SVGID_00000127017577656856345540000017089268501290626728_);" d="M268,294.2c0-3.3-2.7-6-6-6
	c-10.1,0-19.5-3.7-25.4-9.9c-3.5-3.5-5.5-8.2-5.6-13.1c0-3.3-2.7-6-6-6s-6,2.7-6,6c0.1,8,3.2,15.6,8.8,21.3
	c8.2,8.7,20.6,13.7,34.1,13.7C265.3,300.2,268,297.5,268,294.2z"/>
<linearGradient id="SVGID_00000078739354336281423580000018165963564636515724_" gradientUnits="userSpaceOnUse" x1="270.2893" y1="263.075" x2="304.909" y2="263.075">
	<stop  offset="0" style="stop-color:#E1C495"/>
	<stop  offset="1" style="stop-color:#EE8A66"/>
</linearGradient>
<path style="fill:url(#SVGID_00000078739354336281423580000018165963564636515724_);" d="M281.9,282.7c-2.8,1.8-3.6,5.5-1.9,8.3
	c1.8,2.8,5.5,3.6,8.3,1.9c10.5-6.7,16.5-16.7,16.5-27.7c0-14.3-10.5-27-26.7-32.4c-3.1-1.1-6.5,0.6-7.6,3.7
	c-1.1,3.1,0.6,6.5,3.7,7.6c0.1,0,0.1,0,0.2,0.1c11.2,3.7,18.4,12,18.4,21C292.9,271.9,288.9,278.3,281.9,282.7L281.9,282.7z"/>
<linearGradient id="SVGID_00000162345665817183935150000008462995972767391664_" gradientUnits="userSpaceOnUse" x1="401.707" y1="444.501" x2="458.581" y2="444.501">
	<stop  offset="0" style="stop-color:#6AA2BC"/>
	<stop  offset="1" style="stop-color:#38668D"/>
</linearGradient>
<path style="fill:url(#SVGID_00000162345665817183935150000008462995972767391664_);" d="M454.5,438.8c-8.8-3-15.7-9.9-18.6-18.7
	c-1-3.1-4.4-4.8-7.6-3.8c-1.8,0.6-3.2,2-3.8,3.8c-3,8.8-9.8,15.7-18.6,18.7c-3.1,1-4.8,4.4-3.8,7.6c0.6,1.8,2,3.2,3.8,3.8
	c8.8,3,15.7,9.9,18.6,18.7c1,3.1,4.4,4.8,7.6,3.8c1.8-0.6,3.2-2,3.8-3.8c3-8.8,9.8-15.7,18.6-18.7c3.1-1,4.8-4.4,3.8-7.6
	C457.7,440.8,456.3,439.4,454.5,438.8L454.5,438.8z M430.1,454c-2.6-3.6-5.8-6.8-9.4-9.5c3.6-2.6,6.8-5.8,9.4-9.5
	c2.6,3.6,5.8,6.8,9.4,9.5C436,447.1,432.8,450.3,430.1,454z"/>
<linearGradient id="SVGID_00000127038971121391823420000007395077935056450466_" gradientUnits="userSpaceOnUse" x1="40.707" y1="67.5005" x2="97.581" y2="67.5005">
	<stop  offset="0" style="stop-color:#6AA2BC"/>
	<stop  offset="1" style="stop-color:#38668D"/>
</linearGradient>
<path style="fill:url(#SVGID_00000127038971121391823420000007395077935056450466_);" d="M44.8,73.2c8.8,3,15.7,9.9,18.6,18.7
	c1,3.1,4.4,4.8,7.6,3.8c1.8-0.6,3.2-2,3.8-3.8c3-8.8,9.8-15.7,18.6-18.7c3.1-1,4.8-4.4,3.8-7.6c-0.6-1.8-2-3.2-3.8-3.8
	c-8.8-3-15.7-9.9-18.6-18.7c-1-3.1-4.4-4.8-7.6-3.8c-1.8,0.6-3.2,2-3.8,3.8c-3,8.8-9.8,15.7-18.6,18.7c-3.1,1-4.8,4.4-3.8,7.6
	C41.6,71.2,43,72.6,44.8,73.2L44.8,73.2z M69.1,58c2.6,3.6,5.8,6.8,9.4,9.5c-3.6,2.6-6.8,5.8-9.4,9.5c-2.6-3.6-5.8-6.8-9.4-9.5
	C63.3,64.9,66.5,61.7,69.1,58z"/>
<linearGradient id="SVGID_00000092422023071968904690000006683890116691870616_" gradientUnits="userSpaceOnUse" x1="413" y1="251.154" x2="455" y2="251.154">
	<stop  offset="0" style="stop-color:#E1C495"/>
	<stop  offset="1" style="stop-color:#EE8A66"/>
</linearGradient>
<path style="fill:url(#SVGID_00000092422023071968904690000006683890116691870616_);" d="M434,272.2c11.6,0,21-9.4,21-21
	c0-11.6-9.4-21-21-21s-21,9.4-21,21C413,262.7,422.4,272.1,434,272.2z M434,242.2c5,0,9,4,9,9c0,5-4,9-9,9s-9-4-9-9
	C425,246.2,429,242.2,434,242.2z"/>
<linearGradient id="SVGID_00000132055071013046805950000005028705597296756387_" gradientUnits="userSpaceOnUse" x1="39" y1="280.154" x2="95" y2="280.154">
	<stop  offset="0" style="stop-color:#E1C495"/>
	<stop  offset="1" style="stop-color:#EE8A66"/>
</linearGradient>
<path style="fill:url(#SVGID_00000132055071013046805950000005028705597296756387_);" d="M67,252.2c-15.5,0-28,12.5-28,28
	c0,15.5,12.5,28,28,28s28-12.5,28-28c0,0,0,0,0,0C95,264.7,82.5,252.2,67,252.2L67,252.2z M67,296.2c-8.8,0-16-7.2-16-16
	s7.2-16,16-16s16,7.2,16,16C83,289,75.8,296.1,67,296.2z"/>
<linearGradient id="SVGID_00000093898818763359723170000013846349552578521223_" gradientUnits="userSpaceOnUse" x1="297.4665" y1="90.4481" x2="368.5915" y2="90.4481">
	<stop  offset="0" style="stop-color:#E1C495"/>
	<stop  offset="1" style="stop-color:#EE8A66"/>
</linearGradient>
<path style="fill:url(#SVGID_00000093898818763359723170000013846349552578521223_);" d="M303.5,78c-0.4,0.9-0.8,1.7-1.1,2.6
	c-6.5,17,1.9,36,18.9,42.5c6.6,2.6,13.9,2.9,20.8,1c5.8,4.4,11.9,7.7,17,7.7c2.1,0,4.1-0.6,5.8-1.8c6.5-4.8,3.3-15.7-1.2-25
	c0.1-0.3,0.3-0.6,0.4-0.9c6.5-17-2.1-36.1-19.1-42.6c-5.5-2.1-11.4-2.7-17.1-1.7c-12.1-10.3-21.1-13.2-26.7-8.6
	c-1.8,1.5-7.3,6,0.3,22.5C302,75.1,302.7,76.5,303.5,78z M325.8,112c-8.3-3.1-13.7-11.1-13.5-19.9c2.2,3.2,4.7,6.4,7.3,9.6
	c1.6,2,5.4,6.5,10.2,11.4C328.4,112.8,327,112.4,325.8,112L325.8,112z M356.2,118.9c-0.6-0.3-1.3-0.7-2-1.1c0.5-0.4,0.9-0.8,1.3-1.1
	C355.7,117.5,356,118.3,356.2,118.9z M324.6,73.2c10.6-4.8,23-0.1,27.8,10.5c4.4,9.7,0.8,21.1-8.2,26.6c-5.5-5-10.7-10.4-15.3-16.2
	c-4.1-5-7.8-10.2-11.3-15.7C319.5,76.1,321.9,74.4,324.6,73.2z M314.9,64.9c-1.1,0.7-2.2,1.5-3.2,2.4c-0.8-1.8-1.4-3.6-1.9-5.5
	C311.5,62.7,313.3,63.7,314.9,64.9z"/>
<linearGradient id="SVGID_00000034792571409098773220000015660531213039118266_" gradientUnits="userSpaceOnUse" x1="630.5117" y1="90.4481" x2="902.5117" y2="90.4481">
	<stop  offset="0" style="stop-color:#6AA2BC"/>
	<stop  offset="1" style="stop-color:#38668D"/>
</linearGradient>
<path style="fill:url(#SVGID_00000034792571409098773220000015660531213039118266_);" d="M862.2-88.4c-4.3-9.2-13.5-15.1-23.6-15.2
	h-66v-51c0-3.3-2.7-6-6-6c-3.3,0-6,2.7-6,6v51h-66c-10.1,0.1-19.3,6-23.6,15.2l-36,77c-2.9,6.2-4.3,12.8-4.4,19.6v297.1
	c0,20,16.2,36.1,36.2,36.2h199.7c20,0,36.1-16.2,36.2-36.2V8.2c0-6.8-1.5-13.5-4.4-19.6L862.2-88.4z M766.5-54.7
	c15,0,27.2,12.2,27.2,27.2c0,15-12.2,27.2-27.2,27.2s-27.2-12.2-27.2-27.2C739.4-42.5,751.5-54.7,766.5-54.7z M890.5,305.3
	c0,13.3-10.8,24.1-24.2,24.2H666.7c-13.3,0-24.1-10.8-24.2-24.2v-12.8h248V305.3z M890.5,280.4h-248V8.2c0-5,1.1-10,3.2-14.5l36-77
	c2.3-5,7.3-8.2,12.8-8.2h66v25.3c-21.4,3.3-36,23.3-32.7,44.7s23.3,36,44.7,32.7c21.4-3.3,36-23.3,32.7-44.7
	c-2.6-16.9-15.8-30.1-32.7-32.7v-25.3h66c5.5,0.1,10.5,3.3,12.8,8.2l36,77c2.1,4.6,3.2,9.5,3.2,14.5V280.4z"/>
<linearGradient id="SVGID_00000090264196427652579110000013370238982764284060_" gradientUnits="userSpaceOnUse" x1="745.2028" y1="-27.5049" x2="787.8207" y2="-27.5049">
	<stop  offset="0" style="stop-color:#E1C495"/>
	<stop  offset="1" style="stop-color:#EE8A66"/>
</linearGradient>
<path style="fill:url(#SVGID_00000090264196427652579110000013370238982764284060_);" d="M766.5-6.2c11.8,0,21.3-9.5,21.3-21.3
	s-9.5-21.3-21.3-21.3c-11.8,0-21.3,9.5-21.3,21.3c0,0,0,0,0,0C745.2-15.7,754.7-6.2,766.5-6.2z M766.5-36.8c5.1,0,9.3,4.2,9.3,9.3
	s-4.2,9.3-9.3,9.3c-5.1,0-9.3-4.2-9.3-9.3C757.2-32.6,761.4-36.8,766.5-36.8z"/>
</svg>
