<?xml version="1.0" encoding="UTF-8"?><svg id="uuid-3487e2bf-de95-427a-b08f-c4aabb99b396" xmlns="http://www.w3.org/2000/svg" viewBox="0 0 318.52828 337.00031"><defs><style>.uuid-9124bc9f-b5d6-4f02-94ba-eab16fa9c56d{fill:#387d5a;}.uuid-9124bc9f-b5d6-4f02-94ba-eab16fa9c56d,.uuid-5e081f04-080d-474e-873f-a761c843ad29,.uuid-5d5d39b2-47e6-40e7-8e66-4a2a451f5ca8,.uuid-79ce8d43-baad-4cf2-aaa6-70abea6ac417,.uuid-bd5306c9-5572-4f16-a452-fb0fb6d91d8e,.uuid-5bc0f9fa-e279-4e59-92d7-7d4e90b0091c,.uuid-2a7e6ac5-090b-4729-9499-18e3dfecd992,.uuid-a5590d80-6d5e-4142-8d39-000051be58bc,.uuid-8bb77632-8532-458d-ba80-e3724bd038af,.uuid-36070d92-f68f-4d09-85e3-aa94ed5c1973,.uuid-c746e53b-af64-414c-acce-bca763a50656,.uuid-2354555d-f0f3-477f-a621-8f40922e0dc6,.uuid-b5466c8f-a795-420a-9991-1b812d5d14fb,.uuid-67849138-0f29-4640-b17b-ea3df8f4c1a1,.uuid-5f7a6cae-1c06-4480-836d-217d6c510e21,.uuid-eeef8d7c-687a-478d-9922-eae8ff059a59,.uuid-a7241ea8-1dd2-458a-b00a-3b119b096553,.uuid-1ac3d748-6497-4810-928d-3323639bae27,.uuid-e4a39881-8ea4-43b5-af32-e81a0215eb04,.uuid-27dbfb8e-69dc-48f7-9e30-a12b8ba35abe,.uuid-548cb1c9-025b-4bc6-ba99-95f8d5c15e44{stroke-width:0px;}.uuid-5e081f04-080d-474e-873f-a761c843ad29{fill:#77965d;}.uuid-5d5d39b2-47e6-40e7-8e66-4a2a451f5ca8{fill:#e1ebcb;}.uuid-79ce8d43-baad-4cf2-aaa6-70abea6ac417{fill:#183226;}.uuid-bd5306c9-5572-4f16-a452-fb0fb6d91d8e{fill:#26332b;}.uuid-5bc0f9fa-e279-4e59-92d7-7d4e90b0091c{fill:#354235;}.uuid-2a7e6ac5-090b-4729-9499-18e3dfecd992{fill:#bdd297;}.uuid-a5590d80-6d5e-4142-8d39-000051be58bc{fill:#ade7bf;}.uuid-8bb77632-8532-458d-ba80-e3724bd038af{fill:#0c1110;}.uuid-36070d92-f68f-4d09-85e3-aa94ed5c1973{fill:#201f1c;}.uuid-c746e53b-af64-414c-acce-bca763a50656{fill:#9ab683;}.uuid-2354555d-f0f3-477f-a621-8f40922e0dc6{fill:#dde5ce;}.uuid-b5466c8f-a795-420a-9991-1b812d5d14fb{fill:#191e1b;}.uuid-67849138-0f29-4640-b17b-ea3df8f4c1a1{fill:#deeccc;}.uuid-5f7a6cae-1c06-4480-836d-217d6c510e21{fill:#f3f8ed;}.uuid-eeef8d7c-687a-478d-9922-eae8ff059a59{fill:#8ad99f;}.uuid-a7241ea8-1dd2-458a-b00a-3b119b096553{fill:#2a7253;}.uuid-1ac3d748-6497-4810-928d-3323639bae27{fill:#54b586;}.uuid-e4a39881-8ea4-43b5-af32-e81a0215eb04{fill:#d2d7c9;}.uuid-27dbfb8e-69dc-48f7-9e30-a12b8ba35abe{fill:#408663;}.uuid-548cb1c9-025b-4bc6-ba99-95f8d5c15e44{fill:#24523f;}</style></defs><g id="uuid-078ad91a-498e-4a1b-9369-9c3dcf6e82a9"><path class="uuid-2354555d-f0f3-477f-a621-8f40922e0dc6" d="M278.00628,217.25665c-4.77952,19.56275-13.65928,72.56831-16.49762,93.73645-.97087,7.24081-2.86091,18.12275,0,16.74758-14.77686,3.61489-35.33898,6.7922-50.4927,7.99884-29.86104,2.37771-75.33294,1.40028-104.98483-2.99957.12358-1.46494-.17483-3.05461,0-4.49935.00619-.05117.96167.16517.99986-.24996.63982-6.95426-.33674-24.40007-.99986-32.24534-.16927-2.00258.12735-4.01688-.49993-5.99913,13.76742-5.63709,26.40902-15.15238,40.49415-19.99711,5.75346-1.97896,13.91272-3.67992,19.99711-4.49935,6.01253-1.56328,12.18452-.6145,18.24736-.99986.38584-.02453.11433-.9763.49993-.99986,4.0931-.24996,11.87652,1.02536,17.24751.49993,3.14078-.30727,2.80865-.51168,4.49935-.99986,2.64949-.76503,4.5998-2.36071,6.99899-3.49949,2.07947-.98704,2.73029-1.59315,3.49949-1.99971,17.975-9.50089,34.03015-21.79281,42.49386-40.99407,6.05357-.93248,12.44138.22,18.49733.99986Z"/><path class="uuid-5f7a6cae-1c06-4480-836d-217d6c510e21" d="M318.50043,124.77001c.30681,26.29025-1.97957,55.60125-3.99942,81.98815-4.20273,1.09988-30.81705-5.80531-32.24534-4.99928-1.32595,5.01295-2.99828,9.96819-4.24939,14.99783-.03906.15699.03842.34275,0,.49993-6.05595-.77986-12.44376-1.93234-18.49733-.99986,1.82258-4.13481,3.058-8.58454,3.99942-12.99812,1.06174-5.27521.25887-10.6848.49993-15.99769.16007-3.52839.45635-6.93732.49993-10.49848.22989-18.7845-.43838-45.24157-3.99942-63.49082,4.24737-4.09241,8.69085-7.97304,12.99812-11.99827,7.9896,2.34329,15.13227,6.80068,22.74671,9.99855,2.88282,1.21072,19.69414,6.27226,20.49704,6.99899,1.94146,1.75728-.55992,6.60935,1.74975,6.49906Z"/><path class="uuid-5f7a6cae-1c06-4480-836d-217d6c510e21" d="M226.0138,1.78779c2.26994,24.12752,4.86749,47.57921,8.49877,71.48967-17.13784-6.96622-34.43124-7.58568-52.74238-8.49877-10.46208-14.96228-47.80303-51.24179-54.74209-60.74122-.49845-.68237-1.15125-1.82112-.99986-2.7496,30.59746-1.58857,69.64368-2.01202,99.98555.49993Z"/><path class="uuid-2354555d-f0f3-477f-a621-8f40922e0dc6" d="M126.02825,1.28786c-.15139.92849.50141,2.06723.99986,2.7496,6.93906,9.49943,44.28001,45.77894,54.74209,60.74122,18.31114.91309,35.60453,1.53255,52.74238,8.49877,2.37023.96345,4.96355,1.88709,7.24895,2.99957,2.96304,1.44233,8.50164,7.18339,9.24866,2.49964.18702.79716.30773,1.68352.49993,2.49964-19.09163,9.92877-36.37667,22.94621-54.49212,34.49501-3.13474-15.59853-9.91937-34.58318-15.74772-49.49285-1.56084-.22069-4.03842.0253-4.24939,0-19.49422-2.33809-42.16348,2.80259-59.99133,10.49848l5.49921-3.74946c-6.08091-23.39797-11.62254-46.95835-15.99769-70.73978,6.42404-.57242,13.04475-.66486,19.49718-.99986Z"/><path class="uuid-5f7a6cae-1c06-4480-836d-217d6c510e21" d="M106.53107,2.28772c4.37515,23.78142,9.91678,47.34181,15.99769,70.73978l-5.49921,3.74946c-3.63639,1.56975-6.88612,3.93762-10.49848,5.49921-1.56392.67607-3.15984,1.38629-4.74931,1.99971-13.91692-14.62948-51.68828-45.51222-61.74108-58.99147-.60299-.8085-.73807-1.66648-1.24982-2.49964-.79064.38347.13214,2.00253.24996,2.99957.15527,14.8828,4.72202,29.89396,4.74931,44.9935-4.39203-14.09689-14.23789-23.3389-21.74686-35.49487.95937-1.60841,2.2454-4.42466,2.49964-4.74931C37.3577,14.16948,86.26459,4.09356,106.53107,2.28772Z"/><path class="uuid-5f7a6cae-1c06-4480-836d-217d6c510e21" d="M54.03866,128.26951c.84775,5.83146,1.63668,11.66599,2.49964,17.49747-18.45305-5.99125-37.163-10.85201-56.49183-12.99812.05815-10.43913.33284-20.60383,1.49978-30.99552,1.10145-9.80847,2.89446-18.98259,5.49921-28.49588,12.13644,15.52071,23.89294,31.50684,36.99465,46.24332,2.02867,2.28179,8.59042,10.11138,9.99855,8.74874Z"/><path class="uuid-2354555d-f0f3-477f-a621-8f40922e0dc6" d="M54.03866,128.26951c-1.40814,1.36264-7.96989-6.46695-9.99855-8.74874-13.10171-14.73647-24.85821-30.72261-36.99465-46.24332,2.75766-10.07177,9.77975-29.24629,14.99783-37.99451,7.50897,12.15597,17.35482,21.39798,21.74686,35.49487-.02729-15.09953-4.59405-30.1107-4.74931-44.9935,4.04541,34.22979,10.03802,68.36797,14.99783,102.48519Z"/><path class="uuid-5f7a6cae-1c06-4480-836d-217d6c510e21" d="M318.50043,124.77001c-2.30966.11029.19171-4.74178-1.74975-6.49906-.80289-.72673-17.61421-5.78827-20.49704-6.99899-7.61444-3.19787-14.75711-7.65527-22.74671-9.99855,7.95851-7.43736,29.53846-27.23483,34.49501-32.99523.17878-.20778,2.89509-2.29381,3.99942-3.74946-.86404-2.49476-.70208-6.65929-.99986-8.49877-.06518-.40268-.9316-.09659-.99986-.49993-.0544-.32158.0422-3.80395,0-3.99942-.08916-.41303-.90484-.08579-.99986-.49993-.15845-.69076.67053-.82396.49993-1.49978-.10463-.41441-.8887-.08422-.99986-.49993-.18-.67311.68795-.83678.49993-1.49978-.09563-.33717-2.25315-4.33961-2.49964-4.99928-.02035-.05445.72228-.42802.49993-.99986-.24725-.63589-6.06846-11.46906-6.49906-11.99827-8.45575-10.3918-24.1159-17.10714-36.74469-20.747-4.47213-1.28895-6.89317-.91451-7.24895-.99986-.30034-.07204-.55674-1.02363-2.7496-1.49978-4.80219-1.04274-19.82651-3.85244-17.24751-1.49978-.0386-.13719-1.93643.45885-.49993-1.99971,20.33971,2.51628,53.10557,9.09951,65.99046,26.74613,12.79246,17.52,16.23719,72.92087,16.49762,95.23623Z"/><path class="uuid-5f7a6cae-1c06-4480-836d-217d6c510e21" d="M236.01235,2.78765c-1.4365,2.45856.46133,1.86252.49993,1.99971.84589,3.00555,3.74732,26.2025,5.49921,35.24491,2.51868,13.0003,5.97555,25.85726,8.9987,38.7444-.74702,4.68376-6.28562-1.05731-9.24866-2.49964-2.28541-1.11248-4.87872-2.03611-7.24895-2.99957-3.63128-23.91045-6.22884-47.36214-8.49877-71.48967,3.41714.2829,6.58938.57809,9.99855.99986Z"/><path class="uuid-2354555d-f0f3-477f-a621-8f40922e0dc6" d="M313.00123,225.25549c-1.32928,14.98111-6.39257,75.4013-11.99827,84.73775-5.33492,8.8855-29.49412,15.30107-39.49429,17.74743-2.86091,1.37517-.97087-9.50677,0-16.74758,2.83833-21.16814,11.71809-74.1737,16.49762-93.73645.03842-.15717-.03906-.34294,0-.49993,4.78984,1.41587,32.99306,3.59949,34.49501,5.74917.29287.41916-.54149,2.59508.49993,2.7496Z"/><path class="uuid-2354555d-f0f3-477f-a621-8f40922e0dc6" d="M314.50101,206.75816c-.47198,6.16595-.95323,12.33748-1.49978,18.49733-1.04141-.15452-.20706-2.33044-.49993-2.7496-1.50195-2.14968-29.70518-4.3333-34.49501-5.74917,1.2511-5.02964,2.92344-9.98488,4.24939-14.99783,1.42829-.80604,28.04261,6.09916,32.24534,4.99928Z"/><path class="uuid-5e081f04-080d-474e-873f-a761c843ad29" d="M132.52731,271.74877c4.58891-.38874,8.9102-1.71707,13.49805-1.99971-14.08512,4.84473-26.72673,14.36002-40.49415,19.99711-12.02675-4.02878-24.76218-7.62878-34.99494-15.49776.01263-.16569-.01242-.33421,0-.49993.01094-.14588.71833-2.3443.99986-2.7496-.44026-5.08856.37179-10.19646.49993-15.2478,18.48555,10.01265,39.18766,17.80233,60.49126,15.99769Z"/><path class="uuid-67849138-0f29-4640-b17b-ea3df8f4c1a1" d="M106.03114,328.24061c1.72828-4.40943-19.65077-.26427-19.99711-2.7496,7.49828-9.351,13.96949-19.40778,19.99711-29.7457.66311,7.84527,1.63967,25.29108.99986,32.24534-.03819.41513-.99366.19879-.99986.24996Z"/><path class="uuid-2a7e6ac5-090b-4729-9499-18e3dfecd992" d="M60.03779,170.26344l.49993,7.49892c-8.55501,8.4458-16.59553,17.40633-24.99639,25.99624-8.55684,8.74941-17.5589,17.11633-25.99624,25.99624C4.16247,202.73168.65488,172.79811.04646,145.26705c19.82053,3.60179,39.06026,9.49091,57.74165,16.99754l2.24967,7.99884Z"/><path class="uuid-67849138-0f29-4640-b17b-ea3df8f4c1a1" d="M60.03779,267.24942c-11.13397,7.0176-21.54613,15.20221-32.4953,22.49675-6.9567-14.97611-10.16369-27.6186-13.99798-43.49371,14.94564,8.09755,31.80015,12.96669,46.49328,20.99697Z"/><path class="uuid-67849138-0f29-4640-b17b-ea3df8f4c1a1" d="M56.53829,145.76698c1.02028,6.8946,1.44509,15.24133,3.99942,21.49689.0948.84421-.47936,1.01755-.49993,1.99971-.00697.33302.00322.66668,0,.99986l-2.24967-7.99884c-18.6814-7.50664-37.92112-13.39575-57.74165-16.99754-.09182-4.15507-.02316-8.34079,0-12.49819,19.32883,2.14611,38.03878,7.00688,56.49183,12.99812Z"/><path class="uuid-67849138-0f29-4640-b17b-ea3df8f4c1a1" d="M68.03663,272.2487l-6.49906,49.49285c-14.153-5.24015-16.93685-4.76231-25.99624-17.49747q15.74772-16.24765,31.49545-32.4953c1.15851-.18427.95494.46667.99986.49993Z"/><path class="uuid-c746e53b-af64-414c-acce-bca763a50656" d="M67.03678,271.74877q-15.74772,16.24765-31.49545,32.4953c-3.55973-5.00407-5.46028-9.03297-7.99884-14.4979,10.94918-7.29454,21.36134-15.47915,32.4953-22.49675,2.13011-1.34258,4.51009-2.39031,6.49906-3.99942.11531,2.85612.54954,5.63966.49993,8.49877Z"/><path class="uuid-e4a39881-8ea4-43b5-af32-e81a0215eb04" d="M66.03692,259.7505c.02499.51564.41223,1.3272.49993,3.49949-1.98897,1.60911-4.36895,2.65684-6.49906,3.99942-14.69313-8.03027-31.54764-12.89941-46.49328-20.99697-.98087-4.06109-1.64529-7.94548-2.49964-11.99827,18.0453,9.11367,36.15156,18.12436,54.99205,25.49631Z"/><path class="uuid-2a7e6ac5-090b-4729-9499-18e3dfecd992" d="M105.53121,289.74617c.62727,1.98226.33066,3.99655.49993,5.99913-6.02762,10.33792-12.49883,20.3947-19.99711,29.7457.34634,2.48533,21.72539-1.65982,19.99711,2.7496-.17483,1.44474.12358,3.03441,0,4.49935-13.87911-2.05943-27.71183-5.01978-40.99407-9.49863,2.15499-16.23761,4.25444-32.66639,5.49921-48.99292,10.23276,7.86898,22.96819,11.46898,34.99494,15.49776Z"/><path class="uuid-c746e53b-af64-414c-acce-bca763a50656" d="M70.53627,273.74848c-.01242.16572.01263.33424,0,.49993-1.24477,16.32653-3.34421,32.75531-5.49921,48.99292-1.20027-.40473-2.33244-1.06769-3.49949-1.49978l6.49906-49.49285c.77801.57615,1.5941,1.13076,2.49964,1.49978Z"/><path class="uuid-2354555d-f0f3-477f-a621-8f40922e0dc6" d="M106.53107,82.27616c-21.68914,14.92413-26.99492,23.15669-36.49473,46.49328-1.97754,4.85791-4.3836,9.49976-5.99913,14.4979-.7851.38315-2.31888-5.98861-2.99957-9.24866-3.7227-17.82944-5.5281-36.12385-8.9987-53.9922-3.56301-18.34407-8.64049-36.35624-11.99827-54.74209,10.05279,13.47925,47.82416,44.362,61.74108,58.99147,1.58948-.61342,3.18539-1.32365,4.74931-1.99971Z"/><path class="uuid-1ac3d748-6497-4810-928d-3323639bae27" d="M40.04068,25.28439c3.35778,18.38585,8.43526,36.39801,11.99827,54.74209,3.4706,17.86834,5.276,36.16276,8.9987,53.9922.68069,3.26006,2.21446,9.63182,2.99957,9.24866l-3.49949,23.99653c-2.55433-6.25557-2.97914-14.60229-3.99942-21.49689-.86296-5.83148-1.65189-11.66601-2.49964-17.49747-4.95981-34.11722-10.95243-68.25539-14.99783-102.48519-.11783-.99703-1.04061-2.6161-.24996-2.99957.51175.83316.64683,1.69114,1.24982,2.49964Z"/><path class="uuid-a5590d80-6d5e-4142-8d39-000051be58bc" d="M256.50939,7.78692q5.74917,28.87083,11.49834,57.74165,19.99711,1.3748,39.99422,2.7496c-4.95656,5.7604-26.53651,25.55788-34.49501,32.99523-4.30727,4.02522-8.75075,7.90585-12.99812,11.99827-2.09766-10.74976-6.47819-21.29317-8.9987-31.99538-.1922-.81612-.31291-1.70248-.49993-2.49964-3.02315-12.88714-6.48002-25.7441-8.9987-38.7444-1.75188-9.04241-4.65332-32.23936-5.49921-35.24491-2.579-2.35266,12.44531.45704,17.24751,1.49978,2.19286.47615,2.44926,1.42774,2.7496,1.49978Z"/><path class="uuid-a5590d80-6d5e-4142-8d39-000051be58bc" d="M308.00195,68.27818q-19.99711-1.3748-39.99422-2.7496-5.74917-28.87083-11.49834-57.74165c.35578.08535,2.77682-.2891,7.24895.99986,12.62879,3.63986,28.28894,10.3552,36.74469,20.747.4306.52921,6.25181,11.36237,6.49906,11.99827.22235.57183-.52028.9454-.49993.99986.24649.65966,2.40401,4.66211,2.49964,4.99928.18802.66301-.67992.82668-.49993,1.49978.11116.41571.89523.08551.99986.49993.1706.67582-.65838.80903-.49993,1.49978.09502.41414.9107.0869.99986.49993.0422.19547-.0544,3.67784,0,3.99942.06826.40334.93468.09725.99986.49993.29778,1.83949.13581,6.00402.99986,8.49877-1.10433,1.45565-3.82065,3.54168-3.99942,3.74946Z"/><path class="uuid-c746e53b-af64-414c-acce-bca763a50656" d="M65.53699,249.25202c.20059,3.48518.33079,7.00829.49993,10.49848-18.84049-7.37195-36.94675-16.38264-54.99205-25.49631-.04891-.23202-.68704-.41901-1.49978-4.49935,8.43734-8.87991,17.4394-17.24684,25.99624-25.99624,6.78927,11.69176,15.28488,22.35184,22.49675,33.74512,2.3405,3.69749,5.03164,10.11649,7.49892,11.7483Z"/><path class="uuid-5e081f04-080d-474e-873f-a761c843ad29" d="M65.53699,249.25202c-2.46728-1.63181-5.15842-8.05081-7.49892-11.7483-7.21186-11.39328-15.70748-22.05336-22.49675-33.74512,8.40085-8.58991,16.44138-17.55044,24.99639-25.99624,2.32704,23.76204,3.62774,47.66096,4.99928,71.48967Z"/><path class="uuid-eeef8d7c-687a-478d-9922-eae8ff059a59" d="M164.02276,215.25694c5.7557,9.92355,29.47194,36.50379,37.99451,48.49299-5.37099.52544-13.15441-.74989-17.24751-.49993-.38559.02356-.11409.97532-.49993.99986-6.06284.38535-12.23483-.56343-18.24736.99986-7.08476-1.26755-14.39146-.02282-21.49689-.49993q-6.2491-19.62216-12.49819-39.24433c7.13161-2.56442,14.60504-4.237,21.74686-6.74902,3.81535-1.342,8.8037-4.36454,10.24852-3.49949Z"/><path class="uuid-27dbfb8e-69dc-48f7-9e30-a12b8ba35abe" d="M263.50838,203.25867c-.94142,4.41358-2.17684,8.86331-3.99942,12.99812-8.46371,19.20127-24.51886,31.49319-42.49386,40.99407-1.26526-10.16024-4.59403-19.78037-8.9987-28.99581.44867-2.69996,8.2287-6.40795,13.24809-10.99841,1.62019-1.48175,10.97324-11.87374,11.24837-12.99812q6.62404.24996,13.24809.49993c.42822-.30385.43841-9.37905.24996-10.49848q8.74874,4.49935,17.49747,8.9987Z"/><path class="uuid-8bb77632-8532-458d-ba80-e3724bd038af" d="M138.52644,147.26676c-3.84734,29.59161-5.58122,57.47887,33.99509,50.99263-3.81482,2.3893-12.81992,8.39649-16.99754,8.49877-4.61524.11302,1.75588-.8515-.74989-1.49978-1.32476-.34275-14.74027,2.47807-24.49646-8.9987-1.79823-.13224,2.70945,6.912,4.99928,8.49877,5.07211,3.51481,14.22435,3.08268,20.24707,2.99957,12.82804-.17707,25.17825.47958,31.99538-11.49834,1.92401,7.43484,2.52283,15.3412,4.49935,22.74671,3.1417,11.77116,11.00491,30.17438,16.74758,41.74397,2.92951-1.5966,5.26294-3.29094,4.74931-1.49978-2.39919,1.13878-4.3495,2.73447-6.99899,3.49949-5.11465-11.68465-19.6009-43.39982-31.24548-47.99306-3.9896-1.57372-8.07009-1.44028-12.24823-1.49978-14.24454-.20285-19.41092,3.03377-31.74541,8.9987-3.60916-12.76491-6.80535-25.89253-6.74902-39.24433-.58067-1.31017-3.37299-.5507-4.49935-.74989-.88839-.15711-3.09532.44635-3.49949-.74989-.07695-.22775.55339-4.61081.74989-4.74931.60312-.42508,13.18829.5384,13.74801-.24996,1.15701-13.00843-1.97236-8.21649-2.49964-9.99855-.30769-1.0399,8.46562-17.19901,9.99855-19.24722Z"/><path class="uuid-79ce8d43-baad-4cf2-aaa6-70abea6ac417" d="M208.0164,228.25506c4.40467,9.21543,7.73344,18.83556,8.9987,28.99581-.76921.40656-1.42002,1.01267-3.49949,1.99971.51363-1.79115-1.81981-.09682-4.74931,1.49978-5.74267-11.56959-13.60588-29.97281-16.74758-41.74397-1.97652-7.40552-2.57534-15.31187-4.49935-22.74671,1.02655-1.80366,1.59721-4.11821,2.49964-5.99913,6.06257,12.18437,10.73829,24.93783,16.49762,37.24462.10323.22061,1.42323.58973,1.49978.74989Z"/><path class="uuid-a7241ea8-1dd2-458a-b00a-3b119b096553" d="M206.51662,262.75007c-1.6907.48818-1.35857.69259-4.49935.99986-8.52257-11.9892-32.23881-38.56944-37.99451-48.49299-.35066-.60459-.86096-1.30282-.99986-1.99971,4.17814.0595,8.25863-.07393,12.24823,1.49978,11.64459,4.59324,26.13084,36.30841,31.24548,47.99306Z"/><path class="uuid-9124bc9f-b5d6-4f02-94ba-eab16fa9c56d" d="M144.52558,264.74978c7.10543.4771,14.41213-.76762,21.49689.49993-6.08439.81943-14.24365,2.52039-19.99711,4.49935-4.58785.28264-8.90914,1.61097-13.49805,1.99971-9.03998-3.74763-16.31557-11.39688-21.99682-15.49776,11.26627,3.79318,22.03399,7.6956,33.99509,8.49877Z"/><path class="uuid-1ac3d748-6497-4810-928d-3323639bae27" d="M251.51011,81.2763c2.52051,10.7022,6.90104,21.24562,8.9987,31.99538,3.56104,18.24925,4.22931,44.70632,3.99942,63.49082l-17.9974-.24996,1.49978-49.49285c-5.09991-1.40643-10.50703-2.0855-15.2478.74989-1.13768.68043-16.67947,16.46134-18.74729,18.74729-21.88548,24.19423-14.10486,22.15409-20.99697,39.24433-.10689.26501-.07332-1.59987-2.99957,4.49935-.90243,1.88092-1.47308,4.19547-2.49964,5.99913-6.81713,11.97791-19.16733,11.32127-31.99538,11.49834v-.99986c4.17762-.10228,13.18273-6.10947,16.99754-8.49877,5.11654-3.20461,12.07537-5.2432,14.99783-16.24765,2.6678-10.04542,1.00828-27.48704,1.49978-38.49444,2.01131,1.08998,9.35146,15.61016,10.99841,13.24809,1.32851-13.65177-.30309-27.57626-2.99957-40.99407,18.11545-11.54881,35.40049-24.56624,54.49212-34.49501Z"/><path class="uuid-1ac3d748-6497-4810-928d-3323639bae27" d="M264.00831,187.26098c-.24105,5.31289.56181,10.72248-.49993,15.99769q-8.74874-4.49935-17.49747-8.9987c-.05209-.3095.06917-.71096,0-.99986,3.74262-2.27762,10.42202-3.61819,12.99812-6.49906,2.6064.00507,5.0383-.28862,4.99928.49993Z"/><path class="uuid-1ac3d748-6497-4810-928d-3323639bae27" d="M177.02088,66.27847l7.99884,61.99104c-25.50699-15.29421-35.79509-1.62823-51.49256,15.99769-5.21708,5.85801-10.25317,11.94586-15.2478,17.9974-.65254-.3203.6108-6.38737.74989-7.49892,1.30589-10.43584,2.64929-20.97889,4.99928-31.24548-10.40829-3.73399-20.43288,2.02496-28.74585,7.74888-5.52783,3.80621-25.66803,21.92016-28.24592,26.9961l2.99957-29.49574c9.4998-23.33659,14.80558-31.56915,36.49473-46.49328,3.61236-1.56159,6.86209-3.92946,10.49848-5.49921,17.82785-7.69589,40.49711-12.83657,59.99133-10.49848Z"/><path class="uuid-8bb77632-8532-458d-ba80-e3724bd038af" d="M197.01799,115.77131c2.69648,13.41781,4.32808,27.3423,2.99957,40.99407l-14.99783-28.49588-7.99884-61.99104c.21097.0253,2.68855-.22069,4.24939,0,5.82835,14.90966,12.61298,33.89432,15.74772,49.49285Z"/><path class="uuid-27dbfb8e-69dc-48f7-9e30-a12b8ba35abe" d="M163.0229,213.25722c.1389.69689.6492,1.39512.99986,1.99971-1.44481-.86505-6.43317,2.15749-10.24852,3.49949-7.14182,2.51203-14.61524,4.18461-21.74686,6.74902q6.2491,19.62216,12.49819,39.24433c-11.9611-.80317-22.72882-4.70559-33.99509-8.49877-5.91559-4.27004-12.12743-8.17814-17.9974-12.49819-4.90081-4.51494-10.26625-8.59467-14.4979-13.74801-.07328-.66119,1.07785-1.6009,1.49978-2.24967,2.1949-3.37479,22.22562-22.3782,26.9961-30.99552l13.99798-.74989-.49993-13.74801c1.12636.19919,3.91868-.56028,4.49935.74989-.05633,13.3518,3.13987,26.47942,6.74902,39.24433,12.33449-5.96493,17.50087-9.20155,31.74541-8.9987Z"/><path class="uuid-8bb77632-8532-458d-ba80-e3724bd038af" d="M193.01857,185.7612h39.24433l.24996,18.49733c-.27514,1.12438-9.62819,11.51637-11.24837,12.99812-5.01939,4.59046-12.79942,8.29845-13.24809,10.99841-.07656-.16016-1.39656-.52928-1.49978-.74989-5.75933-12.30678-10.43505-25.06025-16.49762-37.24462,2.92624-6.09922,2.89268-4.23434,2.99957-4.49935Z"/><path class="uuid-548cb1c9-025b-4bc6-ba99-95f8d5c15e44" d="M155.52399,206.75816v.99986c-6.02272.08312-15.17496.51525-20.24707-2.99957-2.28983-1.58678-6.79751-8.63102-4.99928-8.49877,9.75619,11.47677,23.1717,8.65594,24.49646,8.9987,2.50577.64828-3.86535,1.6128.74989,1.49978Z"/><path class="uuid-8bb77632-8532-458d-ba80-e3724bd038af" d="M65.53699,177.26243c3.16054.78788,32.28534-.58985,40.24418,0l.74989,19.49718c-4.77047,8.61732-24.80119,27.62073-26.9961,30.99552-3.81576-6.01088-8.52213-47.67597-9.99855-49.74281-.27061-.37882-2.63196-.33339-2.7496-.24996-2.21063,1.56761,6.21042,47.44294,4.74931,53.9922-.63383,7.96873.70113,16.06515.49993,23.99653-.12814,5.05133-.94019,10.15924-.49993,15.2478-.28153.40531-.98892,2.60372-.99986,2.7496-.90554-.36903-1.72163-.92363-2.49964-1.49978-.04492-.03326.15865-.6842-.99986-.49993.04961-2.85911-.38462-5.64265-.49993-8.49877-.08769-2.17229-.47494-2.98385-.49993-3.49949-.16913-3.49019-.29933-7.0133-.49993-10.49848-1.37154-23.82871-2.67224-47.72763-4.99928-71.48967l-.49993-7.49892c.00322-.33317-.00697-.66683,0-.99986,1.69163.47805.71744-3.89661,1.74975-4.49935,4.03524-2.35609,1.69708,11.19672,2.24967,12.24823.34739.49828,1.03261.1335,1.49978.24996Z"/><path class="uuid-5bc0f9fa-e279-4e59-92d7-7d4e90b0091c" d="M92.53309,243.75282c5.86997,4.32005,12.08181,8.22815,17.9974,12.49819,5.68125,4.10088,12.95684,11.75013,21.99682,15.49776-21.30359,1.80464-42.00571-5.98504-60.49126-15.99769.2012-7.93138-1.13376-16.0278-.49993-23.99653,7.89562-3.16275,10.57516,5.11105,17.74743,10.49848.78945.59299,2.69108,1.08877,3.24953,1.49978Z"/><path class="uuid-b5466c8f-a795-420a-9991-1b812d5d14fb" d="M67.03678,158.26517c-.8613,1.69591-1.28097,3.66236-1.49978,5.49921-.45361,3.80804.33423,9.37917,0,13.49805-.46717-.11647-1.15239.24832-1.49978-.24996-.55259-1.05151,1.78557-14.60432-2.24967-12.24823-1.03231.60274-.05811,4.9774-1.74975,4.49935.02057-.98216.59473-1.1555.49993-1.99971l3.49949-23.99653c1.61553-4.99815,4.02159-9.63999,5.99913-14.4979l-2.99957,29.49574Z"/><path class="uuid-5d5d39b2-47e6-40e7-8e66-4a2a451f5ca8" d="M264.50823,176.7625c-.04357,3.56116-.33986,6.97009-.49993,10.49848.03903-.78855-2.39287-.49486-4.99928-.49993-24.21461-.04711-14.52021.14161-12.99812,6.49906.06917.2889-.05209.69036,0,.99986.18845,1.11944.17826,10.19463-.24996,10.49848q-6.62404-.24996-13.24809-.49993l-.24996-18.49733h-39.24433c6.8921-17.09024-.88851-15.0501,20.99697-39.24433,2.06782-2.28595,17.60961-18.06686,18.74729-18.74729,4.74077-2.83539,10.14789-2.15632,15.2478-.74989l-1.49978,49.49285,17.9974.24996Z"/><path class="uuid-36070d92-f68f-4d09-85e3-aa94ed5c1973" d="M233.76268,140.7677c-.10762,1.20587-.08245,4.76434-.24996,5.24924-.60511,1.75149-17.48517,19.36003-20.24707,21.74686-12.34068,10.66475-1.88458-2.22267,2.24967-7.24895,5.65662-6.87715,12.31655-13.09851,18.24736-19.74715Z"/><path class="uuid-8bb77632-8532-458d-ba80-e3724bd038af" d="M232.76282,153.76582q.12498,11.12339.24996,22.24678l-10.24852.24996q4.99928-11.24837,9.99855-22.49675Z"/><path class="uuid-8bb77632-8532-458d-ba80-e3724bd038af" d="M259.00903,186.76105c-2.5761,2.88087-9.2555,4.22144-12.99812,6.49906-1.52209-6.35745-11.21649-6.54617,12.99812-6.49906Z"/><path class="uuid-bd5306c9-5572-4f16-a452-fb0fb6d91d8e" d="M79.53497,227.75513c-.42194.64877-1.57306,1.58849-1.49978,2.24967,4.23166,5.15334,9.59709,9.23307,14.4979,13.74801-.55845-.41101-2.46008-.90679-3.24953-1.49978-7.17227-5.38744-9.85182-13.66123-17.74743-10.49848,1.46111-6.54925-6.95995-52.42458-4.74931-53.9922.11764-.08342,2.479-.12886,2.7496.24996,1.47643,2.06684,6.18279,43.73193,9.99855,49.74281Z"/><path class="uuid-5d5d39b2-47e6-40e7-8e66-4a2a451f5ca8" d="M185.01972,128.26951l14.99783,28.49588c-1.64695,2.36207-8.9871-12.15811-10.99841-13.24809-.49151,11.0074,1.16801,28.44901-1.49978,38.49444-2.92246,11.00445-9.88129,13.04304-14.99783,16.24765-39.57631,6.48625-37.84243-21.40102-33.99509-50.99263.013-.09992,1.07698-.03768.24996-1.99971-2.77807,3.36763-2.71595.19707-5.24924-.99986,15.69747-17.62592,25.98556-31.29189,51.49256-15.99769Z"/><path class="uuid-1ac3d748-6497-4810-928d-3323639bae27" d="M176.52095,159.26503c-.14662,6.54523.10637,18.40353-3.99942,23.74657-3.37988,4.39838-12.23796,6.26603-17.24751,3.74946-8.30317-4.17115-6.25175-37.12174-1.24982-45.49342,13.81752-1.13687,17.55505,6.93801,22.49675,17.9974Z"/><path class="uuid-8bb77632-8532-458d-ba80-e3724bd038af" d="M176.52095,159.26503c-4.9417-11.05939-8.67923-19.13427-22.49675-17.9974,5.38312-9.00965,16.7272-10.21953,20.49704-4.74931,2.81685,4.08738,2.12295,17.24539,1.99971,22.74671Z"/><path class="uuid-a5590d80-6d5e-4142-8d39-000051be58bc" d="M106.53107,148.26662q-5.24924,9.12368-10.49848,18.24736l10.24852.24996c.50591-.35879.20766-5.43989.24996-6.49906,2.14447.22212.24368-5.18674,1.24982-5.99913.86294-.69677,6.70585,3.91217,11.24837.49993-.13909,1.11155-1.40243,7.17862-.74989,7.49892,4.99462-6.05154,10.03072-12.13939,15.2478-17.9974,2.53329,1.19692,2.47117,4.36749,5.24924.99986.82701,1.96203-.23697,1.8998-.24996,1.99971-1.53294,2.04821-10.30625,18.20731-9.99855,19.24722.52728,1.78206,3.65665-3.00988,2.49964,9.99855-.55972.78837-13.14489-.17512-13.74801.24996-.1965.1385-.82685,4.52156-.74989,4.74931.40418,1.19624,2.6111.59278,3.49949.74989l.49993,13.74801-13.99798.74989-.74989-19.49718c-7.95884-.58985-37.08364.78788-40.24418,0,.33423-4.11888-.45361-9.69001,0-13.49805,3.31361-.24562,6.78518-.66888,9.99855-1.49978.78048-.20181,2.32848.56539,6.2491-1.99971,6.47547-5.05374,13.34802-9.73729,19.24722-15.49776q3.12455-2.49964,6.2491-4.99928c.37516.20305-.72913,7.53494-.74989,8.49877Z"/><path class="uuid-5d5d39b2-47e6-40e7-8e66-4a2a451f5ca8" d="M119.02926,154.76568c-4.54253,3.41224-10.38543-1.1967-11.24837-.49993-1.00614.8124.89465,6.22125-1.24982,5.99913.15919-3.98548-.08599-8.00727,0-11.99827.02076-.96383,1.12505-8.29572.74989-8.49877q-3.12455,2.49964-6.2491,4.99928c.53761-.52498,10.67869-10.79393,8.24881-10.49848-10.40366,8.18288-26.69635,17.33357-33.74512,27.99595-3.21337.8309-6.68495,1.25417-9.99855,1.49978.21881-1.83685.63849-3.8033,1.49978-5.49921,2.57789-5.07594,22.71809-23.18989,28.24592-26.9961,8.31296-5.72392,18.33756-11.48287,28.74585-7.74888-2.34999,10.2666-3.69339,20.80964-4.99928,31.24548Z"/><path class="uuid-36070d92-f68f-4d09-85e3-aa94ed5c1973" d="M101.03186,144.76712c-5.8992,5.76047-12.77174,10.44402-19.24722,15.49776-3.92062,2.5651-5.46862,1.7979-6.2491,1.99971,7.04877-10.66238,23.34146-19.81307,33.74512-27.99595,2.42989-.29544-7.7112,9.9735-8.24881,10.49848Z"/><path class="uuid-8bb77632-8532-458d-ba80-e3724bd038af" d="M106.53107,160.26488c-.04231,1.05917.25594,6.14027-.24996,6.49906l-10.24852-.24996q5.24924-9.12368,10.49848-18.24736c-.08599,3.991.15919,8.01279,0,11.99827Z"/></g></svg>