<svg id="Capa_1" enable-background="new 0 0 512 512" height="512" viewBox="0 0 512 512" width="512"
    xmlns="http://www.w3.org/2000/svg" xmlns:xlink="http://www.w3.org/1999/xlink">
    <linearGradient id="SVGID_1_" gradientUnits="userSpaceOnUse" x1="256" x2="256" y1="512" y2="0">
        <stop offset="0" stop-color="#C5D9BC" />
        <stop offset="1" stop-color="#EAF2DB" />
    </linearGradient>
    <linearGradient id="SVGID_00000075139766314090992830000008157017053324871604_"
        gradientUnits="userSpaceOnUse" x1="256" x2="256" y1="450" y2="39.997">
        <stop offset="0" stop-color="#6AA2BC" />
        <stop offset="1" stop-color="#38668D" />
    </linearGradient>
    <g>
        <path
            d="m451 195c0 34.817-9.308 68.991-26.917 98.828-15.584 26.405-37.281 48.867-63.083 65.396h-210c-25.802-16.528-47.498-38.99-63.083-65.396-17.609-29.837-26.917-64.011-26.917-98.828 0-107.523 87.477-195 195-195s195 87.477 195 195zm-265 282c0 19.33 15.67 35 35 35h70c19.33 0 35-15.67 35-35v-27h-140z"
            fill="url(#SVGID_1_)" />
        <path
            d="m217.584 98.292 25-50c3.705-7.41 12.715-10.413 20.125-6.708 7.409 3.705 10.413 12.715 6.708 20.125l-14.146 28.291h25.729c11.151 0 18.403 11.735 13.416 21.708l-25 50c-3.705 7.41-12.715 10.413-20.125 6.708-7.409-3.705-10.413-12.715-6.708-20.124l14.146-28.292h-25.729c-11.151 0-18.403-11.735-13.416-21.708zm53.416 260.932v-79.272c11.909-.35 39.487-3.273 58.083-21.87 23.771-23.771 21.938-62.237 21.849-63.863-.421-7.634-6.518-13.73-14.151-14.151-1.626-.091-40.092-1.925-63.863 21.847-10.089 10.089-15.556 22.82-18.511 34.263-3.262-8.481-8.108-17.049-15.323-24.264-23.772-23.772-62.236-21.937-63.863-21.847-7.635.421-13.73 6.517-14.151 14.151-.09 1.626-1.923 40.092 21.848 63.863 18.597 18.598 46.175 21.521 58.084 21.87v69.272h-90v55.777c0 19.33 15.67 35 35 35h140c19.33 0 35-15.67 35-35v-55.776z"
            fill="url(#SVGID_00000075139766314090992830000008157017053324871604_)" />
    </g>
</svg>