<?xml version="1.0" encoding="utf-8"?>
<!-- Generator: Adobe Illustrator 28.2.0, SVG Export Plug-In . SVG Version: 6.00 Build 0)  -->
<svg version="1.1" id="Warstwa_1" xmlns="http://www.w3.org/2000/svg" xmlns:xlink="http://www.w3.org/1999/xlink" x="0px" y="0px"
	 viewBox="0 0 480 480" style="enable-background:new 0 0 480 480;" xml:space="preserve">
<style type="text/css">
	.st0{fill:url(#SVGID_1_);}
	.st1{fill:url(#SVGID_00000031893606312313139060000009865708071101397666_);}
	.st2{fill:url(#SVGID_00000056417298206794425980000007229752644269802418_);}
	.st3{fill:url(#SVGID_00000175309929618717056930000001520604073784209836_);}
	.st4{fill:url(#SVGID_00000100347501231127709780000010030042261132763566_);}
	.st5{fill:url(#SVGID_00000015332860844799323750000004325329403107682751_);}
	.st6{fill:url(#SVGID_00000003798899522028894290000005892679760648875168_);}
	.st7{fill:url(#SVGID_00000085940542288772791350000014491064774740104382_);}
	.st8{fill:url(#SVGID_00000100359178651236374120000014288721164375511941_);}
	.st9{fill:url(#SVGID_00000010998407582153567740000005831294745907883651_);}
	.st10{fill:url(#SVGID_00000083083043734994431660000014941448289233710721_);}
	.st11{fill:url(#SVGID_00000062876844669883123620000012154581732056469917_);}
	.st12{fill:url(#SVGID_00000048490786659685002840000001422917207860005299_);}
	.st13{fill:url(#SVGID_00000060006612490330077470000018316525041762877347_);}
	.st14{fill:url(#SVGID_00000116933716272596373160000015138191477980807582_);}
</style>
<linearGradient id="SVGID_1_" gradientUnits="userSpaceOnUse" x1="2.902073e-02" y1="264.387" x2="436.2168" y2="264.387" gradientTransform="matrix(0.9999 0 0 -0.9999 -2.950668e-02 481.9743)">
	<stop  offset="0" style="stop-color:#38668D"/>
	<stop  offset="1" style="stop-color:#6AA2BC"/>
</linearGradient>
<path class="st0" d="M386.6,426.4c8.9-4.2,16.9-9.9,23.9-16.9c11.2-11.2,19.1-25.2,23-40.5c0.1-0.3,0.2-0.5,0.2-0.8
	c5.8-23.5,1.6-48.2-11.4-68.6c-3.4-5.3-7.3-10.2-11.8-14.6c-6.8-6.8-14.7-12.5-23.3-16.7L12.7,1.5C9.5-0.8,5.1-0.4,2.3,2.4
	c-2.8,2.8-3.1,7.2-0.8,10.4l268.6,374.8c21.8,42.3,73.4,59.6,116.3,38.9L386.6,426.4L386.6,426.4z M399.1,398.1
	c-4,3.9-8.4,7.4-13.1,10.3c-1.2-1.7-2.4-3.2-3.8-4.7c-7.5-7.5-17.7-11.7-28.3-11.7c-14.6-0.1-28.1,7.9-35,20.8
	c-7.9-3.5-15.1-8.4-21.2-14.4l-13.8-19.3c-2.6-5.2-4.5-10.6-5.8-16.2c21.8,3.1,43.4-6.8,55.2-25.3c11.8-18.6,11.7-42.3-0.4-60.7
	c15.6-3.6,32.1-1.7,46.5,5.4l20.2,14.4c0.7,0.7,1.3,1.4,1.9,2.1c-17.5,6.9-27.9,25.1-24.8,43.6c3.1,18.6,18.8,32.5,37.6,33.3
	C410.6,384.1,405.5,391.7,399.1,398.1z M369.6,415.8c-2,0.6-4,1.2-6,1.6c-0.8,0.2-1.6,0.4-2.4,0.5c-2.7,0.5-5.4,0.9-8.1,1.1h-0.1
	c-2.8,0.2-5.5,0.2-8.3,0c-0.8,0-1.6-0.1-2.4-0.2c-2.1-0.2-4.1-0.4-6.2-0.8l-1.4-0.2c0.7-1,1.5-1.9,2.3-2.7c9.4-9.4,24.6-9.4,33.9,0
	l0.2,0.3C370.6,415.5,370.1,415.7,369.6,415.8z M279.1,327c3.3-11.6,9.6-22.2,18.2-30.7c5.1-5.1,11-9.4,17.4-12.8
	c0.7-0.4,1.4-0.6,2.2-1c10.9,13.3,12,32.1,2.8,46.6c-9.2,14.5-26.8,21.5-43.5,17.2C276.3,339.8,277.3,333.3,279.1,327z M419,359.7
	c-7.3,1-14.7-1.6-19.9-6.8c-9.4-9.4-9.4-24.6,0-33.9c3.3-3.3,7.5-5.5,12-6.5C419.1,326.8,421.8,343.5,419,359.7z M346.8,259.2
	c-22.8,0.4-44.6,9.6-60.8,25.8c-10.5,10.4-18.2,23.3-22.2,37.5c-2.3,7.7-3.5,15.7-3.6,23.7L42.5,42.4L346.8,259.2z"/>
<linearGradient id="SVGID_00000064325614543911825200000003869942555934188693_" gradientUnits="userSpaceOnUse" x1="269.0229" y1="372.3551" x2="399.1559" y2="242.2222" gradientTransform="matrix(0.9999 0 0 -0.9999 -2.950668e-02 481.9743)">
	<stop  offset="0" style="stop-color:#E1C495"/>
	<stop  offset="1" style="stop-color:#EE8A66"/>
</linearGradient>
<path style="fill:url(#SVGID_00000064325614543911825200000003869942555934188693_);" d="M381.6,244.8c1.8,2.3,4.7,3.5,7.6,3
	c2.9-0.5,5.3-2.4,6.3-5.2c1-2.8,0.4-5.8-1.5-8L286.5,104.6c-1.8-2.3-4.7-3.5-7.6-3c-2.9,0.5-5.3,2.4-6.3,5.2c-1,2.7-0.4,5.8,1.5,8
	L381.6,244.8z"/>
<linearGradient id="SVGID_00000101807032074537428940000012950349613340973709_" gradientUnits="userSpaceOnUse" x1="226.5869" y1="375.2" x2="283.2008" y2="318.5862" gradientTransform="matrix(0.9999 0 0 -0.9999 -2.950668e-02 481.9743)">
	<stop  offset="0" style="stop-color:#E1C495"/>
	<stop  offset="1" style="stop-color:#EE8A66"/>
</linearGradient>
<path style="fill:url(#SVGID_00000101807032074537428940000012950349613340973709_);" d="M268.3,165.5c1.7,2.4,4.6,3.6,7.5,3.2
	c2.9-0.4,5.4-2.3,6.4-5c1.1-2.7,0.6-5.8-1.3-8.1l-39.6-50.9c-1.7-2.4-4.6-3.7-7.5-3.3s-5.4,2.3-6.5,5c-1.1,2.7-0.6,5.8,1.3,8.1
	L268.3,165.5z"/>
<linearGradient id="SVGID_00000153685451750067924550000000713465658808842658_" gradientUnits="userSpaceOnUse" x1="90.8444" y1="216.7829" x2="220.9612" y2="86.6662" gradientTransform="matrix(0.9999 0 0 -0.9999 -2.950668e-02 481.9743)">
	<stop  offset="0" style="stop-color:#E1C495"/>
	<stop  offset="1" style="stop-color:#EE8A66"/>
</linearGradient>
<path style="fill:url(#SVGID_00000153685451750067924550000000713465658808842658_);" d="M233.6,368.7L86.5,278.2
	c-3.7-2.1-8.4-0.8-10.7,2.8c-2.2,3.6-1.2,8.4,2.3,10.8l147.1,90.5c3.7,2.1,8.4,0.8,10.7-2.8C238.1,375.9,237.1,371.1,233.6,368.7
	L233.6,368.7z"/>
<linearGradient id="SVGID_00000101103181347273203240000014305233338993561531_" gradientUnits="userSpaceOnUse" x1="79.4538" y1="273.4232" x2="170.0466" y2="182.8304" gradientTransform="matrix(0.9999 0 0 -0.9999 -2.950668e-02 481.9743)">
	<stop  offset="0" style="stop-color:#E1C495"/>
	<stop  offset="1" style="stop-color:#EE8A66"/>
</linearGradient>
<path style="fill:url(#SVGID_00000101103181347273203240000014305233338993561531_);" d="M161.9,296.7c3.3,2.9,8.4,2.5,11.3-0.8
	c2.9-3.3,2.5-8.4-0.8-11.3l-84.8-73.5c-2.2-1.9-5.2-2.5-7.9-1.6c-2.7,0.9-4.7,3.3-5.3,6.1c-0.5,2.8,0.5,5.7,2.7,7.6L161.9,296.7z"/>
<linearGradient id="SVGID_00000111193840316804875900000007437654323372100001_" gradientUnits="userSpaceOnUse" x1="229.4335" y1="276.1829" x2="286.0063" y2="219.6101" gradientTransform="matrix(0.9999 0 0 -0.9999 -2.950668e-02 481.9743)">
	<stop  offset="0" style="stop-color:#E1C495"/>
	<stop  offset="1" style="stop-color:#EE8A66"/>
</linearGradient>
<path style="fill:url(#SVGID_00000111193840316804875900000007437654323372100001_);" d="M280.3,264.7c3.2,0,6.2-1.9,7.4-4.9
	c1.2-3,0.6-6.4-1.7-8.7l-45.2-45.3c-2-2.1-5-2.9-7.8-2.2c-2.8,0.7-5,2.9-5.7,5.7c-0.7,2.8,0.1,5.8,2.2,7.8l45.2,45.3
	C276.1,263.9,278.2,264.7,280.3,264.7z"/>
<linearGradient id="SVGID_00000075872952472678738780000016168512101468488096_" gradientUnits="userSpaceOnUse" x1="172.8674" y1="287.4924" x2="223.7755" y2="236.5843" gradientTransform="matrix(0.9999 0 0 -0.9999 -2.950668e-02 481.9743)">
	<stop  offset="0" style="stop-color:#E1C495"/>
	<stop  offset="1" style="stop-color:#EE8A66"/>
</linearGradient>
<path style="fill:url(#SVGID_00000075872952472678738780000016168512101468488096_);" d="M184.1,194.5c-3.1-3.1-8.2-3.1-11.3,0
	c-3.1,3.1-3.1,8.2,0,11.3l39.6,39.6c3.1,3,8.1,3,11.2-0.1c3.1-3.1,3.1-8.1,0.1-11.2L184.1,194.5z"/>
<linearGradient id="SVGID_00000142148816620977810710000009002976106990123398_" gradientUnits="userSpaceOnUse" x1="160.0686" y1="41.9514" x2="208.0686" y2="41.9514" gradientTransform="matrix(0.9999 0 0 -0.9999 -2.950668e-02 481.9743)">
	<stop  offset="0" style="stop-color:#38668D"/>
	<stop  offset="1" style="stop-color:#6AA2BC"/>
</linearGradient>
<path style="fill:url(#SVGID_00000142148816620977810710000009002976106990123398_);" d="M200,432h-8v-8c0-4.4-3.6-8-8-8
	c-4.4,0-8,3.6-8,8v8h-8c-4.4,0-8,3.6-8,8c0,4.4,3.6,8,8,8h8v8c0,4.4,3.6,8,8,8c4.4,0,8-3.6,8-8v-8h8c4.4,0,8-3.6,8-8
	C208,435.6,204.4,432,200,432z"/>
<linearGradient id="SVGID_00000052799872690686942870000012476915931943002252_" gradientUnits="userSpaceOnUse" x1="416.0686" y1="297.9514" x2="464.0686" y2="297.9514" gradientTransform="matrix(0.9999 0 0 -0.9999 -2.950668e-02 481.9743)">
	<stop  offset="0" style="stop-color:#38668D"/>
	<stop  offset="1" style="stop-color:#6AA2BC"/>
</linearGradient>
<path style="fill:url(#SVGID_00000052799872690686942870000012476915931943002252_);" d="M440,208c13.3,0,24-10.7,24-24
	c0-13.3-10.7-24-24-24c-13.3,0-24,10.7-24,24C416,197.3,426.8,208,440,208z M440,176c4.4,0,8,3.6,8,8s-3.6,8-8,8c-4.4,0-8-3.6-8-8
	S435.6,176,440,176z"/>
<linearGradient id="SVGID_00000152258881158564933940000004858163453365992324_" gradientUnits="userSpaceOnUse" x1="442.3851" y1="151.6146" x2="485.7162" y2="108.2835" gradientTransform="matrix(0.9999 0 0 -0.9999 -2.950668e-02 481.9743)">
	<stop  offset="0" style="stop-color:#E1C495"/>
	<stop  offset="1" style="stop-color:#EE8A66"/>
</linearGradient>
<path style="fill:url(#SVGID_00000152258881158564933940000004858163453365992324_);" d="M479.6,373.5l-16-48
	c-1.4-4.2-5.9-6.5-10.1-5.1c-4.2,1.4-6.5,5.9-5.1,10.1l16,48c1.4,4.2,5.9,6.5,10.1,5.1C478.7,382.2,481,377.7,479.6,373.5z"/>
<linearGradient id="SVGID_00000173125177104279671920000002904427530877897894_" gradientUnits="userSpaceOnUse" x1="300.3998" y1="49.5986" x2="355.7068" y2="-5.7084" gradientTransform="matrix(0.9999 0 0 -0.9999 -2.950668e-02 481.9743)">
	<stop  offset="0" style="stop-color:#E1C495"/>
	<stop  offset="1" style="stop-color:#EE8A66"/>
</linearGradient>
<path style="fill:url(#SVGID_00000173125177104279671920000002904427530877897894_);" d="M362.8,464.5l-64-24
	c-2.7-1.1-5.8-0.6-8,1.2s-3.3,4.7-2.8,7.6s2.5,5.2,5.2,6.2l64,24c0.9,0.3,1.9,0.5,2.8,0.5c3.9,0,7.2-2.8,7.9-6.6
	C368.6,469.6,366.5,465.9,362.8,464.5L362.8,464.5z"/>
<linearGradient id="SVGID_00000053520592591161784560000008901640806449271738_" gradientUnits="userSpaceOnUse" x1="406.4122" y1="35.607" x2="441.7057" y2="0.3136" gradientTransform="matrix(0.9999 0 0 -0.9999 -2.950668e-02 481.9743)">
	<stop  offset="0" style="stop-color:#E1C495"/>
	<stop  offset="1" style="stop-color:#EE8A66"/>
</linearGradient>
<path style="fill:url(#SVGID_00000053520592591161784560000008901640806449271738_);" d="M443.6,464.9l-32-16
	c-2.6-1.3-5.6-1.1-8,0.4c-2.4,1.6-3.8,4.3-3.6,7.2c0.2,2.9,1.9,5.4,4.5,6.7l32,16c1.1,0.5,2.3,0.8,3.6,0.8c3.7,0,6.9-2.5,7.8-6.2
	C448.6,470.2,446.9,466.5,443.6,464.9L443.6,464.9z"/>
<linearGradient id="SVGID_00000179605089073731215350000005594824149627007160_" gradientUnits="userSpaceOnUse" x1="432.4092" y1="69.6448" x2="463.7232" y2="38.3308" gradientTransform="matrix(0.9999 0 0 -0.9999 -2.950668e-02 481.9743)">
	<stop  offset="0" style="stop-color:#E1C495"/>
	<stop  offset="1" style="stop-color:#EE8A66"/>
</linearGradient>
<path style="fill:url(#SVGID_00000179605089073731215350000005594824149627007160_);" d="M446.7,411.6c-1.6-2.4-4.3-3.8-7.2-3.7
	c-2.9,0.2-5.5,1.9-6.7,4.5c-1.3,2.6-1,5.7,0.6,8.1l16,24c2.5,3.6,7.4,4.5,11,2.1c3.6-2.4,4.7-7.3,2.3-11L446.7,411.6z"/>
<linearGradient id="SVGID_00000111894208513343032480000005137633139208122794_" gradientUnits="userSpaceOnUse" x1="304.0686" y1="450.0029" x2="336.0686" y2="450.0029" gradientTransform="matrix(0.9999 0 0 -0.9999 -2.950668e-02 481.9743)">
	<stop  offset="0" style="stop-color:#38668D"/>
	<stop  offset="1" style="stop-color:#6AA2BC"/>
</linearGradient>
<path style="fill:url(#SVGID_00000111894208513343032480000005137633139208122794_);" d="M306.4,45.7c3.1,3.1,8.2,3.1,11.3,0
	l2.3-2.3l2.3,2.3c3.1,3,8.1,3,11.2-0.1c3.1-3.1,3.1-8.1,0.1-11.2l-2.3-2.3l2.3-2.3c2.1-2,2.9-5,2.2-7.8c-0.7-2.8-2.9-5-5.7-5.7
	c-2.8-0.7-5.8,0.1-7.8,2.2l-2.3,2.3l-2.3-2.3c-3.1-3-8.1-3-11.2,0.1c-3.1,3.1-3.1,8.1-0.1,11.2l2.3,2.3l-2.3,2.3
	C303.2,37.5,303.2,42.6,306.4,45.7z"/>
<linearGradient id="SVGID_00000051371472921390417480000008614740276226975161_" gradientUnits="userSpaceOnUse" x1="8.0686" y1="105.9514" x2="72.0686" y2="105.9514" gradientTransform="matrix(0.9999 0 0 -0.9999 -2.950668e-02 481.9743)">
	<stop  offset="0" style="stop-color:#38668D"/>
	<stop  offset="1" style="stop-color:#6AA2BC"/>
</linearGradient>
<path style="fill:url(#SVGID_00000051371472921390417480000008614740276226975161_);" d="M40,344c-17.7,0-32,14.3-32,32
	c0,17.7,14.3,32,32,32c17.7,0,32-14.3,32-32C72,358.4,57.7,344,40,344z M40,392c-8.8,0-16-7.2-16-16c0-8.8,7.2-16,16-16
	c8.8,0,16,7.2,16,16C56,384.9,48.9,392,40,392z"/>
</svg>
