<svg id="Capa_1" enable-background="new 0 0 512 512" viewBox="0 0 512 512"
    xmlns="http://www.w3.org/2000/svg" xmlns:xlink="http://www.w3.org/1999/xlink">
    <linearGradient id="SVGID_1_" gradientUnits="userSpaceOnUse" x1="4.384" x2="362.883"
        y1="507.593" y2="149.094">
        <stop offset="0" stop-color="#E1C495" />
        <stop offset="1" stop-color="#FFFFFF" />
    </linearGradient>
    <linearGradient id="SVGID_2_"
        gradientUnits="userSpaceOnUse" x1="239.498" x2="457.647" y1="272.484" y2="54.335">
        <stop offset="0" stop-color="#EE8A66" />
        <stop offset="1" stop-color="#E1C495" />
    </linearGradient>
    <g>
        <path
            d="m1 15v200c0 8.284 6.716 15 15 15h35v15c0 11.151 11.735 18.403 21.708 13.416l56.833-28.416h90.246l25.607 25.607c5.858 5.858 15.355 5.858 21.213 0l25.606-25.607h90.246l56.833 28.416c9.973 4.987 21.708-2.265 21.708-13.416v-15h35c8.284 0 15-6.716 15-15v-200c0-8.284-6.716-15-15-15h-480c-8.284 0-15 6.716-15 15zm287.263 383.355c-8.177 8.412-19.606 13.645-32.263 13.645s-24.086-5.233-32.263-13.645c-30.941 12.707-52.737 43.124-52.737 78.645v35h170v-35c0-35.521-21.796-65.938-52.737-78.645zm-202.263 13.645c-24.853 0-45-20.147-45-45v-30c0-24.853 20.147-45 45-45s45 20.147 45 45v30c0 24.853-20.147 45-45 45zm340 0c-24.853 0-45-20.147-45-45v-30c0-24.853 20.147-45 45-45s45 20.147 45 45v30c0 24.853-20.147 45-45 45z"
            fill="url(#SVGID_1_)" />
        <path
            d="m386.821 67.5-46.187 80c-5.773 10 1.443 22.5 12.99 22.5h92.376c11.547 0 18.764-12.5 12.99-22.5l-46.188-80c-5.773-10-20.207-10-25.981 0zm-240.821-7.5h-80c-8.284 0-15 6.716-15 15v80c0 8.284 6.716 15 15 15h80c8.284 0 15-6.716 15-15v-80c0-8.284-6.716-15-15-15zm110 0c-30.327 0-55 24.673-55 55s24.673 55 55 55 55-24.673 55-55-24.673-55-55-55zm-137.737 338.355c-8.177 8.412-19.606 13.645-32.263 13.645s-24.086-5.233-32.263-13.645c-30.941 12.707-52.737 43.124-52.737 78.645v20c0 8.284 6.716 15 15 15h155v-35c0-35.521-21.796-65.938-52.737-78.645zm340 0c-8.177 8.412-19.606 13.645-32.263 13.645s-24.086-5.233-32.263-13.645c-30.941 12.707-52.737 43.124-52.737 78.645v35h155c8.284 0 15-6.716 15-15v-20c0-35.521-21.796-65.938-52.737-78.645zm-202.263 13.645c-24.853 0-45-20.147-45-45v-30c0-24.853 20.147-45 45-45s45 20.147 45 45v30c0 24.853-20.147 45-45 45z"
            fill="url(#SVGID_2_)" />
    </g>
    <g />
    <g />
    <g />
    <g />
    <g />
    <g />
    <g />
    <g />
    <g />
    <g />
    <g />
    <g />
    <g />
    <g />
    <g />
</svg>