<?xml version="1.0" encoding="utf-8"?>
<!-- Generator: Adobe Illustrator 28.2.0, SVG Export Plug-In . SVG Version: 6.00 Build 0)  -->
<svg version="1.1" id="Layer_1" xmlns="http://www.w3.org/2000/svg" xmlns:xlink="http://www.w3.org/1999/xlink" x="0px" y="0px"
	 viewBox="0 0 512 512" style="enable-background:new 0 0 512 512;" xml:space="preserve">
<style type="text/css">
	.st0{fill:url(#SVGID_1_);}
	.st1{fill:url(#SVGID_00000141432388873242908160000011425617469163757447_);}
	.st2{fill:url(#SVGID_00000106147814694623630890000001748213496536994703_);}
	.st3{fill:url(#SVGID_00000072261829715606996590000002283307853515008644_);}
	.st4{fill:url(#SVGID_00000070083207024666956830000017634307967782536604_);}
	.st5{fill:url(#SVGID_00000160160777851658184990000016428814142863511464_);}
	.st6{fill:url(#SVGID_00000100385196624388393960000015409350014638273428_);}
	.st7{fill:url(#SVGID_00000097461138523276994900000013073458760972073102_);}
	.st8{fill:url(#SVGID_00000050647999271557203090000014742319840422210691_);}
	.st9{fill:url(#SVGID_00000003810306369101854390000010577298388797683846_);}
	.st10{fill:url(#SVGID_00000142156340483301180590000007900323740362634409_);}
	.st11{fill:url(#SVGID_00000008132179039028591110000012327331031119617452_);}
	.st12{fill:url(#SVGID_00000124142061342340028430000011219965471659832493_);}
	.st13{fill:url(#SVGID_00000126309000380966961040000009892494409632796837_);}
	.st14{fill:url(#SVGID_00000165227089030022102920000008326619170126144950_);}
	.st15{fill:url(#SVGID_00000114770718781947070030000016724700831632150163_);}
	.st16{fill:url(#SVGID_00000010290286847510312260000003223030488086495920_);}
	.st17{fill:url(#SVGID_00000085217452522670311280000017221843820923907004_);}
	.st18{fill:url(#SVGID_00000072239801104054497790000005489377339369345417_);}
</style>
<linearGradient id="SVGID_1_" gradientUnits="userSpaceOnUse" x1="416.899" y1="268.8525" x2="448.372" y2="268.8525">
	<stop  offset="0" style="stop-color:#6AA2BC"/>
	<stop  offset="1" style="stop-color:#38668D"/>
</linearGradient>
<path class="st0" d="M448.4,273.7c-0.1-8.7-7.2-15.7-15.9-15.6c-8.6,0.1-15.5,7-15.6,15.6c0,3.3,2.7,6,6,6s6-2.7,6-6
	c0-2.1,1.7-3.7,3.8-3.7c2,0,3.6,1.7,3.7,3.7c0,3.3,2.7,6,6,6S448.4,277,448.4,273.7z"/>
<linearGradient id="SVGID_00000144317132358981133200000013412379975829759654_" gradientUnits="userSpaceOnUse" x1="384.4413" y1="313.4692" x2="428.9385" y2="313.4692">
	<stop  offset="0" style="stop-color:#6AA2BC"/>
	<stop  offset="1" style="stop-color:#38668D"/>
</linearGradient>
<path style="fill:url(#SVGID_00000144317132358981133200000013412379975829759654_);" d="M418.7,305.9c-6.6,6.6-17.4,6.6-24,0
	c-2.3-2.3-6.1-2.3-8.5,0c-2.3,2.3-2.3,6.1,0,8.5c11.3,11.3,29.6,11.3,40.9,0c2.4-2.3,2.4-6.1,0.1-8.5S421.1,303.5,418.7,305.9
	C418.7,305.8,418.7,305.9,418.7,305.9z"/>
<linearGradient id="SVGID_00000081629538694966668720000010610043347710682003_" gradientUnits="userSpaceOnUse" x1="5" y1="256.0002" x2="507.0002" y2="256.0002">
	<stop  offset="0" style="stop-color:#6AA2BC"/>
	<stop  offset="1" style="stop-color:#38668D"/>
</linearGradient>
<path style="fill:url(#SVGID_00000081629538694966668720000010610043347710682003_);" d="M488.5,387.2c4.4-14.3-1-31.6-1.8-34
	c-0.1-0.4-0.3-0.8-0.5-1.2c-0.4-0.9-2.9-7.5,8.3-16.7c4.5-3,7.6-7.5,8.8-12.7c1.5-6.7-0.3-13.8-5.5-21.3c-3.1-4.5-4.8-9.8-4.8-15.3
	v-0.6c-0.1-5.5,0.9-11,2.8-16.2c3.7-9.8,3.7-20.6,0.1-30.5l-0.1-0.1c-1.8-4.8-2.9-9.7-3.5-14.7c-0.9-8.1-3.1-15.9-6.7-23.2
	c-1.7-3.5-3.5-7.3-5.6-12.3c-2.6-6.1-7.7-14.5-16.8-19.8c-3.5-2-7.4-3.5-11.4-4.2c2.8-4.3,4.2-9.3,4.2-14.5V41c0-14.9-12.1-27-27-27
	c0,0,0,0,0,0H83c-14.9,0-27,12.1-27,27l0,0v108.5c0,13.6,10,25.1,23.5,27.1l-8.8,4.1c-1.1-1.4-2.7-2.2-4.5-2.2
	c-17.8,0-32.2,14.5-32.2,32.3c0,0,0,0,0,0v53.8c0,0.9,0.1,1.7,0.4,2.5c-0.3,0.2-0.7,0.4-1,0.6c-3.9,2.7-6.6,6.9-7.2,11.6
	c-1.1,7.8,3.2,15.3,10.5,18.3c1.9,0.8,4,1.2,6.1,1.2c0.5,22.2,13.3,41.5,30.3,52.1v4.9h-4v-0.2c-2.1,0-4.1,1.1-5.2,2.8l-11.5,18.4
	c-0.4,0.5-0.7,1.2-0.8,1.8c-0.1,0.7-0.2,1.4-0.4,2.1H44c-21.5,0-39,17.9-39,39.4V492c0,3.3,2.7,6,6,6h188.7c3.4,0,6.2-2.6,6.3-6
	v-71.6c-0.2-21.7-17.7-39.2-39.3-39.4h-7.1c-0.2-0.7-0.3-1.4-0.4-2.1c-0.1-0.7-0.4-1.3-0.8-1.9L147,358.6c-1.1-1.7-3-2.8-5-2.8v0.2
	h-5v-4.9c18.5-10.9,30.1-30.6,30.6-52.1c2.1,0,4.3-0.5,6.2-1.2c7.3-3,11.6-10.5,10.5-18.3c-0.6-4.7-3.2-8.9-7.1-11.6
	c-1.9-1.3-4-2.1-6.3-2.5v-35.9c0-17.5-7.6-34.2-20.8-45.7c-1.7-1.5-3.6-2.9-5.5-4.2c3.5-1.7,7.3-2.6,11.2-2.4h8.1c3.3,0,6-2.7,6-6
	s-2.7-6-6-6h-8.1c-29,0-33.2,24.6-34.6,37.7c-5.2-4-12-11.8-14.6-26.5c-1.2-6.5-6.9-11.3-13.5-11.2H83c-8.3,0-15-6.7-15-15l0,0V41.2
	C68,32.8,74.8,26,83.2,26H429c8.3,0,15,6.7,15,15c0,0,0,0,0,0v108.5c0,8.5-6.9,15.4-15.4,15.4h-9.8c-6.6,0-12.4,4.7-13.5,11.2
	c-2.6,14.6-9.5,22.6-14.6,26.5c-1.4-13.1-5.6-37.8-34.6-37.8H206c-3.3,0-6,2.7-6,6s2.7,6,6,6h141.9c-7.6,6.8-13.7,15.1-18,24.3
	c-4.6,9.4-6.9,19.7-6.9,30.1v19.2c0,1.4-0.2,2.7-0.8,4c0,0,0,0,0,0.1c-0.4,0.9-0.8,1.7-1.1,2.6c-2.5,0.2-4.6,0.3-6.4,0.6
	c-3.3,0.4-5.6,3.5-5.2,6.7c0.4,3.3,3.5,5.6,6.7,5.2c0.5-0.1,1-0.1,1.6-0.2c-0.8,6.3-0.3,12.8,1.4,18.9l0.9,3.3
	c1.3,4.9,0.4,10-2.4,14.2c-4.9,7.3-6.7,14.3-5.2,20.8c1.2,5.1,4.4,9.6,8.8,12.6c11.2,9.2,8.7,15.8,8.3,16.7
	c-0.2,0.4-0.4,0.8-0.5,1.2c-0.7,2.1-5.2,16-3.1,29.1c-12.4,6.8-20.1,19.9-20.2,34V492c0.2,3.4,3,6,6.3,6H501c3.3,0,6-2.7,6-6v-71.6
	C507,406.8,500,394.3,488.5,387.2L488.5,387.2z M43,286.9c-0.6,0-1.3-0.1-1.9-0.4c-2.6-1-3.9-3.9-2.9-6.5c0.4-1,1-1.8,1.9-2.4
	c0.8-0.5,1.9-0.7,2.8-0.4L43,286.9z M168,277.3c0.9-0.3,1.8-0.1,2.5,0.4c1.1,0.8,1.9,2.1,2,3.5c0.3,2.3-0.9,4.5-3,5.4
	c-0.5,0.2-1,0.3-1.6,0.4V277.3z M46,257.8v-46.9c0-8.8,5.6-16.6,14-19.4v46.9C60,247.2,54.4,255,46,257.8z M63,382.4l2.3-3.7
	c3.1,7.3,8.6,13.3,15.5,17c0,0,0.1,0,0.1,0l15.2,7.9L88,414.7L73.1,405C65.6,400.1,61.7,391.3,63,382.4z M127.8,382.5
	c-1.2,1-2.4,1.9-3.7,2.6l-18.8,9.7l-18.8-9.7c-1.4-0.7-2.7-1.6-4-2.6c1.7-3.1,2.5-6.7,2.5-10.2v-15.7c6.5,2.1,13.2,3.2,20,3.3
	c6.8,0,13.6-1.1,20-3.3v15.7C125,375.9,126,379.4,127.8,382.5z M159.1,393h7.6c15,0.2,27.2,12.3,27.3,27.4V486h-26v-39.3
	c0-3.3-2.7-6-6-6s-6,2.7-6,6l0,0V486H55v-39.3c0-3.3-2.7-6-6-6s-6,2.7-6,6l0,0V486H17v-65.6c0-14.9,12.1-27.4,27-27.4h7.6
	c1.9,9,7.2,16.9,15,21.9l19.6,12.9c2.6,1.8,6.2,1.2,8.1-1.4l11.1-14.9l11.1,15c1.9,2.5,5.4,3.2,8.1,1.4l19.6-13
	C151.8,409.9,157.2,402,159.1,393L159.1,393z M145.3,378.7l2.3,3.7c1.4,8.9-2.6,17.7-10.1,22.6l-14.8,9.7l-8.2-11.1l15.2-7.9l0.1,0
	C136.7,392,142.2,386,145.3,378.7L145.3,378.7z M156,297.5c0,27.9-22.6,50.5-50.5,50.5S55,325.3,55,297.5v-30.6
	c10.4-5.7,17-16.6,17-28.5v-3.1c5,3.6,11,5.6,17.1,5.8h35.5c15.3,0,28.4,11.6,31.4,26.7V297.5z M89.7,185.2c2-0.9,4.1-1.7,6.2-2.4
	c6.2,25,23.1,33,27.3,34.6c1.1,0.6,2.4,0.8,3.7,0.6c2.6-0.4,4.6-2.3,5.2-4.9c0.5-2.2,0.8-4.5,1-6.8c0.6-6.6,1.5-12.8,3.7-17.9
	c2,1.3,3.8,2.6,5.6,4.2c10.6,9.2,16.7,22.6,16.7,36.7v16.6c-1.1-1.3-2.2-2.6-3.4-3.8c-8.1-8.4-19.3-13.2-31-13.2H89.1
	c-8.3,0-15.1-6.1-17.1-14.2v-21.4L89.7,185.2z M491.6,319.9c-0.5,2.2-1.8,4.1-3.6,5.4c-0.3,0.1-0.5,0.3-0.8,0.5
	c-18.1,14.6-13.4,28-11.8,31.5c2.1,6.8,5.6,24.6-1.7,32.3c-2.8,2.9-6.9,4.6-9.8,3.9c-0.1,0-0.2-0.1-0.4-0.1c1.9-2,3-4.6,3.1-7.4
	c0.2-4.6-1.8-9.1-5.4-12c-6.9-5.7-12.7-19.3-16.1-27.4l0,0c14.7-11.5,23.5-29,24-47.7c2.1,0,4.2-0.4,6.2-1.2c2.4-1,4.5-2.4,6.2-4.3
	c1.1,5.3,3.3,10.4,6.4,14.9C490,311.4,492.4,315.9,491.6,319.9L491.6,319.9z M406.5,347.9c-27.9,0-50.4-22.6-50.5-50.4v-32.3
	c5.1-1,10.1-2.3,15-3.9c-3.9,3-6.1,7.6-6.1,12.4c0,3.3,2.7,6,6,6s6-2.7,6-6c0-2.1,1.7-3.7,3.7-3.7c2.1,0,3.7,1.7,3.7,3.7
	c0,3.3,2.7,6,6,6s6-2.7,6-6c0-8.7-7-15.7-15.7-15.7c-0.2,0-0.4,0-0.7,0c0.2-0.1,0.3-0.1,0.5-0.2c24.1-10,41.6-26.5,52.2-49.3
	c1.5,2,2.6,4.2,3.3,6.6c1.9,7.2,8.5,12.2,16,12.2c2.8,0,5,2.3,5,5c0,0,0,0,0,0v65.1C456.9,325.3,434.4,347.9,406.5,347.9
	L406.5,347.9z M427,356.6v37c0,11-9,20-20,20s-20-9-20-20v-37c6.4,2.2,13.2,3.3,20,3.3C413.8,359.8,420.5,358.7,427,356.6L427,356.6
	z M439,361.6c3,7.1,7.2,14.4,12.5,19.4h-3.8c-4.7,0.1-8.5-3.5-8.7-8.2c0-0.2,0-0.4,0-0.5V361.6z M469,286.9v-9.7
	c0.9-0.3,1.9-0.1,2.7,0.4c2.3,1.6,2.9,4.7,1.4,7c-0.6,0.8-1.4,1.5-2.3,1.9C470.2,286.8,469.6,287,469,286.9L469,286.9z M335,250.7
	v-19.2c0-8.6,2-17.1,5.8-24.9c6.3-13,15.1-22.5,25.5-27.6c9.5,4.3,11.5,15.4,12.6,27.5c0.1,2.3,0.5,4.6,1,6.8
	c0.6,2.5,2.6,4.4,5.2,4.8c0.3,0,0.6,0.1,0.9,0.1h0c-18.3,20.2-40.6,16.5-41.6,16.3c-3.3-0.6-6.4,1.5-7,4.8c-0.6,3.3,1.5,6.4,4.8,7
	l0,0c2.5,0.4,5,0.6,7.5,0.6c10.3,0,29.5-2.9,45.8-21.2c2.2-2.5,2-6.3-0.5-8.5c-0.7-0.6-1.6-1.1-2.6-1.3c6.2-3.3,17.2-11.5,22.6-29.1
	c0.1-0.1,0.2-0.2,0.3-0.3c3.6-3.1,7.6-5.5,12-7.2c25.3-9.5,36.5,2.4,41.6,14c2.2,5.2,4.1,9.2,5.9,12.9c3,6,4.9,12.5,5.6,19.2
	c0.7,6,2,11.9,4.1,17.6l0,0.1c2.6,7.1,2.6,15-0.1,22.1c-0.8,2.1-1.5,4.2-2,6.4c-1.1-1.4-2.4-2.7-3.9-3.7c-2.8-1.9-6.1-2.8-9.5-2.6
	v-32.9c0-9.4-7.6-17-17-17.1h0c-2.1,0-3.9-1.4-4.4-3.4c-2.2-7.8-7.3-14.4-14.1-18.8c-2.9-1.7-6.5-0.7-8.2,2.2
	c-0.2,0.3-0.3,0.6-0.4,0.9c-17.9,48-63.1,57.3-90.6,60C334.8,254.4,335,252.6,335,250.7L335,250.7z M344,277.3v9.7
	c-0.6-0.1-1.1-0.2-1.7-0.4c-2.1-0.9-3.4-3.1-3-5.4c0.2-1.4,0.9-2.7,2.1-3.5C342.1,277.1,343.1,277,344,277.3z M330.3,268.7
	c1.2-0.1,2.4-0.2,3.7-0.3c-1.7,1.3-3.1,2.9-4.2,4.7C329.8,271.6,330,270.2,330.3,268.7L330.3,268.7z M328.7,329.8
	c-0.2-0.2-0.4-0.3-0.7-0.5c-1.9-1.3-3.2-3.2-3.7-5.4c-0.7-3.1,0.5-6.9,3.5-11.3c3.7-5.4,5.4-11.8,5-18.3c1.5,1.4,3.3,2.5,5.2,3.3
	c2,0.8,4.1,1.2,6.3,1.2c0.5,20.9,11.4,40.1,29.1,51.3c-4.7,10.3-11.5,22-18.6,27.8c-3.6,2.9-5.6,7.4-5.4,12c0.1,2.8,1.2,5.4,3.1,7.4
	c-0.2,0-0.3,0.1-0.4,0.1c-2.9,0.6-7-1-9.8-3.9c-7.4-7.7-3.9-25.5-1.7-32.3C342.2,357.9,346.8,344.5,328.7,329.8L328.7,329.8z
	 M374.7,372.7c-0.2,3.7-2.5,6.8-5.9,8.1C370.9,378.2,372.9,375.5,374.7,372.7L374.7,372.7z M318,486v-12h22.8c-0.1,4,0.3,8.1,1.2,12
	H318z M495,486h-23.7c0.9-3.9,1.3-8,1.2-12H495V486z M495,462h-24.2c-0.6-2.1-1.4-4.2-2.2-6.3c-1.3-3-4.8-4.4-7.9-3.1c0,0,0,0,0,0
	c-3,1.3-4.4,4.9-3.1,7.9c3.4,8,3.9,17,1.3,25.4H354.5c-2.6-8.3-2.1-17.3,1.3-25.3c1.3-3-0.1-6.6-3.1-7.9c0,0,0,0,0,0
	c-3-1.4-6.5-0.1-7.9,2.9c0,0,0,0,0,0.1c-0.9,2-1.6,4.1-2.2,6.3H318v-41.6c0.1-9.1,4.7-17.5,12.3-22.5c0.9,1.5,2,2.8,3.2,4.1
	c4.5,4.8,10.7,7.6,17.2,7.8c1.3,0,2.6-0.1,3.9-0.4c6.1-1.3,10.8-5.8,13.1-12.5c0.4-1.1,0.5-2.3,0.3-3.5c2.4-0.2,4.8-0.9,7.1-2v2.3
	c0,17.7,14.3,32,32,32s32-14.3,32-32v-2.3c2,1.3,5.4,1.7,8.7,1.7h0.8c2.4,7,6.9,10.8,12.9,12.1c1.3,0.3,2.6,0.5,3.9,0.5
	c6.5-0.2,12.7-2.9,17.2-7.7c0.1-0.1,0.1-0.1,0.2-0.2c7.7,5,12.4,13.5,12.4,22.7V462z"/>
<linearGradient id="SVGID_00000005978689900052105170000000596693080814496183_" gradientUnits="userSpaceOnUse" x1="434.2511" y1="194.7045" x2="463.97" y2="194.7045">
	<stop  offset="0" style="stop-color:#E1C495"/>
	<stop  offset="1" style="stop-color:#EE8A66"/>
</linearGradient>
<path style="fill:url(#SVGID_00000005978689900052105170000000596693080814496183_);" d="M438.8,191.6c0.1,0,10.9,2.9,13.4,13.5
	c0.7,3.2,4,5.2,7.2,4.5s5.2-4,4.5-7.2l0,0c-4-17.6-21.3-22.2-22.1-22.4c-3.2-0.8-6.5,1.1-7.3,4.3S435.5,190.7,438.8,191.6
	L438.8,191.6z"/>
<linearGradient id="SVGID_00000031906063931123865520000007794583678122169472_" gradientUnits="userSpaceOnUse" x1="330.5167" y1="342.0706" x2="356.3004" y2="342.0706">
	<stop  offset="0" style="stop-color:#6AA2BC"/>
	<stop  offset="1" style="stop-color:#38668D"/>
</linearGradient>
<path style="fill:url(#SVGID_00000031906063931123865520000007794583678122169472_);" d="M342.6,355.2c-1.1,3.1,0.4,6.6,3.6,7.7
	c3.1,1.1,6.6-0.4,7.7-3.6c0-0.1,0-0.1,0.1-0.2c9.9-28.3-15.1-37.8-15.3-37.9c-3.1-1.2-6.6,0.4-7.7,3.5c-1.2,3.1,0.4,6.6,3.5,7.7
	c0,0,0.1,0,0.1,0C336.8,333.5,348.4,338.9,342.6,355.2L342.6,355.2z"/>
<linearGradient id="SVGID_00000099651071010830808610000007633082716502683320_" gradientUnits="userSpaceOnUse" x1="115.555" y1="268.79" x2="147.026" y2="268.79">
	<stop  offset="0" style="stop-color:#6AA2BC"/>
	<stop  offset="1" style="stop-color:#38668D"/>
</linearGradient>
<path style="fill:url(#SVGID_00000099651071010830808610000007633082716502683320_);" d="M131.3,257.9c-8.7,0-15.7,7-15.7,15.7
	c0,3.3,2.7,6,6,6s6-2.7,6-6c0-2.1,1.6-3.8,3.7-3.8c2.1,0,3.8,1.6,3.8,3.7c0,0,0,0.1,0,0.1c0,3.3,2.7,6,6,6s6-2.7,6-6
	C147,265,140,257.9,131.3,257.9z"/>
<linearGradient id="SVGID_00000047057947836988706730000009890581207862827394_" gradientUnits="userSpaceOnUse" x1="63.627" y1="268.8523" x2="95.1" y2="268.8523">
	<stop  offset="0" style="stop-color:#6AA2BC"/>
	<stop  offset="1" style="stop-color:#38668D"/>
</linearGradient>
<path style="fill:url(#SVGID_00000047057947836988706730000009890581207862827394_);" d="M89.1,279.7c3.3,0,6-2.7,6-6
	C95,265,87.9,258,79.2,258c-8.6,0.1-15.5,7-15.6,15.6c0,3.3,2.7,6,6,6s6-2.7,6-6c0-2.1,1.7-3.7,3.8-3.7c2,0,3.6,1.7,3.7,3.7
	C83.1,277,85.8,279.7,89.1,279.7z"/>
<linearGradient id="SVGID_00000127009722380531883570000005246226046583745424_" gradientUnits="userSpaceOnUse" x1="83.0612" y1="313.4691" x2="127.5586" y2="313.4691">
	<stop  offset="0" style="stop-color:#6AA2BC"/>
	<stop  offset="1" style="stop-color:#38668D"/>
</linearGradient>
<path style="fill:url(#SVGID_00000127009722380531883570000005246226046583745424_);" d="M117.3,305.9c-6.6,6.6-17.4,6.6-24,0
	c-2.3-2.4-6.1-2.4-8.5-0.1c-2.4,2.3-2.4,6.1-0.1,8.5c0,0,0,0,0.1,0.1c11.3,11.3,29.6,11.3,40.9,0c2.3-2.3,2.3-6.1,0-8.5
	C123.5,303.5,119.7,303.5,117.3,305.9z"/>
<linearGradient id="SVGID_00000149377152048507051690000004545727507910328460_" gradientUnits="userSpaceOnUse" x1="282.275" y1="133" x2="411" y2="133">
	<stop  offset="0" style="stop-color:#E1C495"/>
	<stop  offset="1" style="stop-color:#EE8A66"/>
</linearGradient>
<path style="fill:url(#SVGID_00000149377152048507051690000004545727507910328460_);" d="M282.3,133c0,3.3,2.7,6,6,6H405
	c3.3,0,6-2.7,6-6s-2.7-6-6-6H288.3C285,127,282.3,129.7,282.3,133z"/>
<linearGradient id="SVGID_00000101794467120543662830000007364861023144636351_" gradientUnits="userSpaceOnUse" x1="159.719" y1="133" x2="270.059" y2="133">
	<stop  offset="0" style="stop-color:#E1C495"/>
	<stop  offset="1" style="stop-color:#EE8A66"/>
</linearGradient>
<path style="fill:url(#SVGID_00000101794467120543662830000007364861023144636351_);" d="M165.7,139h98.3c3.3,0,6-2.7,6-6
	s-2.7-6-6-6h-98.3c-3.3,0-6,2.7-6,6S162.4,139,165.7,139z"/>
<linearGradient id="SVGID_00000155840442839109070160000004766895520524354961_" gradientUnits="userSpaceOnUse" x1="101" y1="133" x2="148.257" y2="133">
	<stop  offset="0" style="stop-color:#E1C495"/>
	<stop  offset="1" style="stop-color:#EE8A66"/>
</linearGradient>
<path style="fill:url(#SVGID_00000155840442839109070160000004766895520524354961_);" d="M107,127c-3.3,0-6,2.7-6,6s2.7,6,6,6h35.3
	c3.3,0,6-2.7,6-6s-2.7-6-6-6H107z"/>
<linearGradient id="SVGID_00000012438491451222133780000017333962122046452891_" gradientUnits="userSpaceOnUse" x1="372.24" y1="93" x2="411" y2="93">
	<stop  offset="0" style="stop-color:#E1C495"/>
	<stop  offset="1" style="stop-color:#EE8A66"/>
</linearGradient>
<path style="fill:url(#SVGID_00000012438491451222133780000017333962122046452891_);" d="M372.2,93c0,3.3,2.7,6,6,6H405
	c3.3,0,6-2.7,6-6s-2.7-6-6-6h-26.8C374.9,87,372.2,89.7,372.2,93z"/>
<linearGradient id="SVGID_00000047782343802278030360000003797637725341645488_" gradientUnits="userSpaceOnUse" x1="289.965" y1="93" x2="361" y2="93">
	<stop  offset="0" style="stop-color:#E1C495"/>
	<stop  offset="1" style="stop-color:#EE8A66"/>
</linearGradient>
<path style="fill:url(#SVGID_00000047782343802278030360000003797637725341645488_);" d="M355,99c3.3,0,6-2.7,6-6s-2.7-6-6-6h-59
	c-3.3,0-6,2.7-6,6s2.7,6,6,6H355z"/>
<linearGradient id="SVGID_00000083057978671438559800000007408722678454516669_" gradientUnits="userSpaceOnUse" x1="101" y1="93" x2="278.421" y2="93">
	<stop  offset="0" style="stop-color:#E1C495"/>
	<stop  offset="1" style="stop-color:#EE8A66"/>
</linearGradient>
<path style="fill:url(#SVGID_00000083057978671438559800000007408722678454516669_);" d="M278.4,93c0-3.3-2.7-6-6-6H107
	c-3.3,0-6,2.7-6,6s2.7,6,6,6h165.4C275.7,99,278.4,96.3,278.4,93z"/>
<linearGradient id="SVGID_00000054263046692603993660000002702052498022963073_" gradientUnits="userSpaceOnUse" x1="377.363" y1="51" x2="411" y2="51">
	<stop  offset="0" style="stop-color:#E1C495"/>
	<stop  offset="1" style="stop-color:#EE8A66"/>
</linearGradient>
<path style="fill:url(#SVGID_00000054263046692603993660000002702052498022963073_);" d="M383.4,57H405c3.3,0,6-2.7,6-6s-2.7-6-6-6
	h-21.6c-3.3,0-6,2.7-6,6S380,57,383.4,57z"/>
<linearGradient id="SVGID_00000010268308881665817770000013535854745885477277_" gradientUnits="userSpaceOnUse" x1="149.082" y1="51" x2="365.614" y2="51">
	<stop  offset="0" style="stop-color:#E1C495"/>
	<stop  offset="1" style="stop-color:#EE8A66"/>
</linearGradient>
<path style="fill:url(#SVGID_00000010268308881665817770000013535854745885477277_);" d="M359.6,45H155.1c-3.3,0-6,2.7-6,6
	s2.7,6,6,6h204.5c3.3,0,6-2.7,6-6S362.9,45,359.6,45z"/>
<linearGradient id="SVGID_00000049195268532546808970000011344725495496659328_" gradientUnits="userSpaceOnUse" x1="101" y1="51" x2="137.538" y2="51">
	<stop  offset="0" style="stop-color:#E1C495"/>
	<stop  offset="1" style="stop-color:#EE8A66"/>
</linearGradient>
<path style="fill:url(#SVGID_00000049195268532546808970000011344725495496659328_);" d="M107,57h24.5c3.3,0,6-2.7,6-6s-2.7-6-6-6
	H107c-3.3,0-6,2.7-6,6S103.7,57,107,57z"/>
<g>
	
		<linearGradient id="SVGID_00000168837858929378597750000003434731665094757782_" gradientUnits="userSpaceOnUse" x1="79" y1="50" x2="91" y2="50">
		<stop  offset="0" style="stop-color:#E1C495"/>
		<stop  offset="1" style="stop-color:#EE8A66"/>
	</linearGradient>
	<path style="fill:url(#SVGID_00000168837858929378597750000003434731665094757782_);" d="M91,49c0-3.3-2.7-6-6-6s-6,2.7-6,6v2
		c0,3.3,2.7,6,6,6s6-2.7,6-6V49z"/>
	
		<linearGradient id="SVGID_00000101091703190732944630000001427726161352606864_" gradientUnits="userSpaceOnUse" x1="79" y1="102" x2="91" y2="102">
		<stop  offset="0" style="stop-color:#E1C495"/>
		<stop  offset="1" style="stop-color:#EE8A66"/>
	</linearGradient>
	<path style="fill:url(#SVGID_00000101091703190732944630000001427726161352606864_);" d="M85,65c-3.3,0-6,2.7-6,6v62
		c0,3.3,2.7,6,6,6s6-2.7,6-6V71C91,67.7,88.3,65,85,65z"/>
</g>
</svg>
