<svg id="Capa_1" enable-background="new 0 0 512 512" height="512" viewBox="0 0 512 512" width="512"
    xmlns="http://www.w3.org/2000/svg" xmlns:xlink="http://www.w3.org/1999/xlink">
    <linearGradient id="SVGID_1_" gradientTransform="matrix(.707 .707 -.707 .707 253.91 -106.781)"
        gradientUnits="userSpaceOnUse" x1="258.004" x2="258.004" y1="441.317" y2="-98.609">
        <stop offset="0" stop-color="#C5D9BC" />
        <stop offset="1" stop-color="#EAF2DB" />
    </linearGradient>
    <linearGradient id="SVGID_2_" gradientTransform="matrix(.707 .707 -.707 .707 253.91 -106.781)"
        gradientUnits="userSpaceOnUse" x1="258.004" x2="258.004" y1="610.868" y2="6.315">
        <stop offset="0" stop-color="#6AA2BC" />
        <stop offset="1" stop-color="#38668D" />
    </linearGradient>
    <g>
        <path
            d="m70.587 85.587v-56.568c0-8.284 6.716-15 15-15s15 6.716 15 15v23.521c44.418-34.073 98.493-52.54 155.413-52.54 45.859 0 90.9 12.32 130.254 35.629 7.128 4.222 9.484 13.422 5.262 20.55s-13.422 9.484-20.55 5.262c-34.728-20.569-74.483-31.441-114.966-31.441-46.925 0-91.663 14.211-129.312 40.587h15.467c8.284 0 15 6.716 15 15s-6.716 15-15 15h-56.568c-8.284 0-15-6.715-15-15zm355.826 325.826h-56.568c-8.284 0-15 6.716-15 15s6.716 15 15 15h15.468c-37.65 26.376-82.388 40.587-129.313 40.587-40.484 0-80.238-10.872-114.966-31.441-7.128-4.221-16.328-1.866-20.55 5.262s-1.866 16.329 5.262 20.55c39.353 23.309 84.394 35.629 130.254 35.629 56.92 0 110.995-18.466 155.413-52.539v23.521c0 8.284 6.716 15 15 15s15-6.716 15-15v-56.568c0-8.285-6.716-15.001-15-15.001zm-340.826-56.568c-8.284 0-15 6.716-15 15v15.468c-26.375-37.649-40.587-82.387-40.587-129.313 0-40.485 10.873-80.24 31.442-114.968 4.222-7.127 1.866-16.328-5.262-20.55-7.128-4.221-16.328-1.866-20.55 5.262-23.309 39.353-35.63 84.395-35.63 130.256 0 56.92 18.467 110.995 52.54 155.413h-23.521c-8.284 0-15 6.716-15 15s6.716 15 15 15h56.569c8.284 0 15-6.716 15-15v-56.568c-.001-8.284-6.716-15-15.001-15zm373.873-254.258h23.521c8.284 0 15-6.716 15-15s-6.716-15-15-15h-56.569c-8.284 0-15 6.716-15 15v56.569c0 8.284 6.716 15 15 15s15-6.716 15-15v-15.468c26.376 37.649 40.588 82.387 40.588 129.312 0 40.484-10.873 80.239-31.443 114.967-4.222 7.127-1.866 16.328 5.262 20.55 2.398 1.42 5.031 2.096 7.63 2.096 5.125 0 10.119-2.629 12.92-7.358 23.31-39.353 35.631-84.395 35.631-130.255 0-56.92-18.467-110.995-52.54-155.413zm-115.96 135.413 47.332-75c-29.902-42.314-79.193-70-134.832-70-71.704 0-132.86 45.98-155.562 110l105.562 79-77.187 81c30.289 36.625 76.059 60 127.187 60 71.704 0 132.861-45.98 155.563-110z"
            fill="url(#SVGID_2_)" />
        <path
            d="m421 256c0 19.277-3.334 37.788-9.437 55h-83.063c-20.678 0-37.5-16.822-37.5-37.5s16.822-37.5 37.5-37.5h-30c-20.678 0-37.5-16.822-37.5-37.5s16.822-37.5 37.5-37.5h92.332c18.994 26.879 30.168 59.658 30.168 95zm-160 55c0-24.146-17.206-44.349-40-48.996v-6.004c0-30.327-24.673-55-55-55h-65.562c-6.104 17.212-9.438 35.723-9.438 55 0 39.854 14.204 76.451 37.813 105h82.187c27.57 0 50-22.43 50-50z"
            fill="url(#SVGID_1_)" />
    </g>
</svg>