<?xml version="1.0" encoding="UTF-8"?><svg id="uuid-b9b6c2ff-3d49-4a57-b5a8-5d701bc827de" xmlns="http://www.w3.org/2000/svg" viewBox="0 0 428.68369 420.59388"><defs><style>.uuid-67337f34-bf9b-447b-8f61-e098ba6da25f{fill:#074137;}.uuid-67337f34-bf9b-447b-8f61-e098ba6da25f,.uuid-51eee204-1e5c-414c-a891-f1cfc2a287ef,.uuid-22389c91-d769-4578-9176-18b97436f664,.uuid-53db9104-ec2a-4109-a41c-86f0af19a52c,.uuid-beaeb552-bb8b-4667-b693-2470eaaa97fb,.uuid-3a852f92-66b5-4093-8d70-d639f1fdfed4,.uuid-c4788ec5-2868-4b4c-b563-426629d08250,.uuid-9c7cee1c-f72c-4dbd-8222-25b69cf0162d,.uuid-80337048-8270-46d8-bdf1-498a1687e586,.uuid-1a0fc454-a312-47ce-a8ef-a706172781a3,.uuid-56fada87-caa3-4b41-8f29-679e4102a3a2,.uuid-a8e3c114-97e9-4e48-bc7f-636fbdca6f10,.uuid-0eb64a94-1860-46c2-aa62-a25caf8d123b,.uuid-d1a660f2-6b3f-46e6-a928-6305de734834,.uuid-bbcefafe-1176-4c8f-b56e-693e2f80f2e0,.uuid-bd5bfb05-2b13-416b-9e49-b2570925f8b9,.uuid-d2a8a71d-1f00-4cc1-8d01-2d589b960fa6,.uuid-52883d0b-9f64-4782-852c-f7c06cace7d4,.uuid-ff49a969-e7f0-4151-a008-0d0c8626063b,.uuid-e959ec1f-3948-4145-b029-ca35972679b5,.uuid-64ee54a1-f619-44bb-aa74-780bb12d0c7d,.uuid-073f2b20-7ba3-4323-a49b-bc0b5056fb41,.uuid-29dffcf0-088f-4c03-ba6a-47393463bcf9,.uuid-038761ae-6cc7-45ce-b3a5-e1853d684be8,.uuid-9185ba83-7eb9-4e30-9c0a-00a90091f971,.uuid-902c267f-660f-4dfc-a360-79b922a63eb0,.uuid-ef242dee-0f2a-4245-9224-3d44762874ac,.uuid-61e8d0c2-cc36-4265-8f05-15e5a9af1fe9,.uuid-ea90bfb7-c727-4d85-820d-775798f825e3,.uuid-4bc96d77-e0b3-4bd8-8c16-b4fdebc4391d{stroke-width:0px;}.uuid-51eee204-1e5c-414c-a891-f1cfc2a287ef{fill:#86eba4;}.uuid-22389c91-d769-4578-9176-18b97436f664{fill:#94f3c5;}.uuid-53db9104-ec2a-4109-a41c-86f0af19a52c{fill:#298a78;}.uuid-beaeb552-bb8b-4667-b693-2470eaaa97fb{fill:#2ba07b;}.uuid-3a852f92-66b5-4093-8d70-d639f1fdfed4{fill:#00584e;}.uuid-c4788ec5-2868-4b4c-b563-426629d08250{fill:#f2f7c2;}.uuid-9c7cee1c-f72c-4dbd-8222-25b69cf0162d{fill:#2b4d4c;}.uuid-80337048-8270-46d8-bdf1-498a1687e586{fill:#00bec6;}.uuid-1a0fc454-a312-47ce-a8ef-a706172781a3{fill:#f0f3d4;}.uuid-56fada87-caa3-4b41-8f29-679e4102a3a2{fill:#127b71;}.uuid-a8e3c114-97e9-4e48-bc7f-636fbdca6f10{fill:#0e100f;}.uuid-0eb64a94-1860-46c2-aa62-a25caf8d123b{fill:#7ec489;}.uuid-d1a660f2-6b3f-46e6-a928-6305de734834{fill:#111e1e;}.uuid-bbcefafe-1176-4c8f-b56e-693e2f80f2e0{fill:#7effec;}.uuid-bd5bfb05-2b13-416b-9e49-b2570925f8b9{fill:#5b7579;}.uuid-d2a8a71d-1f00-4cc1-8d01-2d589b960fa6{fill:#113a39;}.uuid-52883d0b-9f64-4782-852c-f7c06cace7d4{fill:#40daaf;}.uuid-ff49a969-e7f0-4151-a008-0d0c8626063b{fill:#94d6a7;}.uuid-e959ec1f-3948-4145-b029-ca35972679b5{fill:#e2e8a3;}.uuid-64ee54a1-f619-44bb-aa74-780bb12d0c7d{fill:#0d534b;}.uuid-073f2b20-7ba3-4323-a49b-bc0b5056fb41{fill:#007946;}.uuid-29dffcf0-088f-4c03-ba6a-47393463bcf9{fill:#618b86;}.uuid-038761ae-6cc7-45ce-b3a5-e1853d684be8{fill:#17c99a;}.uuid-9185ba83-7eb9-4e30-9c0a-00a90091f971{fill:#95f2dc;}.uuid-902c267f-660f-4dfc-a360-79b922a63eb0{fill:#1a695e;}.uuid-ef242dee-0f2a-4245-9224-3d44762874ac{fill:#84a5a3;}.uuid-61e8d0c2-cc36-4265-8f05-15e5a9af1fe9{fill:#023230;}.uuid-ea90bfb7-c727-4d85-820d-775798f825e3{fill:#507776;}.uuid-4bc96d77-e0b3-4bd8-8c16-b4fdebc4391d{fill:#261c17;}</style></defs><g id="uuid-cf99d364-58f4-40c7-afc7-28749ecb15e0"><path class="uuid-d2a8a71d-1f00-4cc1-8d01-2d589b960fa6" d="M293.53418,406.46599c-47.45277,16.98849-88.46395,18.23602-137.456,5.99808,2.07914-1.37285,1.79023-1.82827,0-3.49888,45.04807,10.33974,92.82802,9.55239,137.456-2.4992Z"/><path class="uuid-d2a8a71d-1f00-4cc1-8d01-2d589b960fa6" d="M140.58314,404.46663c5.08018,1.48573,10.35806,3.31949,15.49504,4.49856,1.79023,1.67061,2.07914,2.12603,0,3.49888-24.22601-6.05153-39.00383-12.50103-59.9808-25.49184,14.35661,7.26168,29.082,12.98943,44.48576,17.4944Z"/><path class="uuid-e959ec1f-3948-4145-b029-ca35972679b5" d="M202.5633,102.56326c8.29154,7.28641,15.85625,15.79614,23.24256,23.99232,1.22525-.17025,1.79407-.87949,2.74912-1.49952q-5.99808,6.99776-11.99616,13.99552c-.2876-.57979-1.43838-1.52252-1.99936-2.4992-10.81339-18.82608-28.47404-31.20316-49.48416-35.48864-20.06224-4.09214-32.51666-3.6248-50.98368,5.49824-10.39153,5.1336-12.38181,6.78456-20.49344,14.9952-16.65705,16.86037-23.365,35.21055-23.49248,58.98112-.11163,20.81598,6.3835,41.20809,16.99456,58.98112,5.94025,9.94964,13.28133,18.8887,20.99328,27.4912q-33.23936,22.24288-66.47872,44.48576c-.48304-.37274-2.36178.57166-9.9968-6.49792-13.12373-12.15181-23.30904-34.17842-26.99136-51.48352C-3.58902,214.90526-1.12494,150.73604,14.12361,114.05958c8.86384-9.92163,17.49925-19.9905,28.24096-27.99104,4.68378-3.48853,19.0348-12.32365,23.99232-14.49536,4.15334-1.81942,10.096-2.70948,13.24576-4.9984,3.6112-.50922,8.20422-1.78262,11.74624-1.99936,37.63811-2.30311,82.83064,13.04484,111.2144,37.98784Z"/><path class="uuid-1a0fc454-a312-47ce-a8ef-a706172781a3" d="M427.49131,206.52998c2.30105,33.06998-.24843,71.4623-13.99552,101.96736l.49984-4.24864c-26.32367-18.13894-54.23048-34.12769-80.97408-51.73344,4.66785-6.25407,10.86334-15.90757,13.99552-22.99264.56815-1.28517.97549-2.14635,1.49952-3.49888.41198-1.06335.33464-1.5271.49984-1.99936.98894.20269,2.17011-2.875,2.4992-3.7488,5.38683-14.30334,6.94196-29.60513,5.99808-44.73568-1.08065-17.32266-4.30081-29.07698-13.99552-43.48608-22.03723-32.75362-67.3665-43.36272-96.46912-24.49216-8.66559,5.61888-15.04191,15.25327-18.49408,17.4944-.95505.62003-1.52387,1.32927-2.74912,1.49952-7.38631-8.19618-14.95103-16.70591-23.24256-23.99232,1.18055,2.48504,9.35052-7.55874,16.2448-12.99584,46.4166-36.60603,86.86758-36.65071,136.45632-5.99808,48.77803,30.15151,68.26056,65.95797,72.22688,122.96064Z"/><path class="uuid-9185ba83-7eb9-4e30-9c0a-00a90091f971" d="M276.03978,366.47879c.49517-.03844,1.00462.03984,1.49952,0q17.99424,15.99488,35.98848,31.98976c-6.27253,3.57768-13.2525,5.58409-19.9936,7.99744-44.62799,12.05159-92.40794,12.83894-137.456,2.4992-5.13698-1.17907-10.41486-3.01283-15.49504-4.49856,2.42618-2.25331-2.13152-2.4045,1.49952-8.49728,1.80917-3.03574,22.20827-23.33036,26.49152-29.9904,34.27417,3.07217,73.16311,3.16299,107.4656.49984Z"/><path class="uuid-22389c91-d769-4578-9176-18b97436f664" d="M41.61481,311.49638c34.62799,26.72067,66.60472,56.79039,100.46784,84.47296-3.63104,6.09278.92666,6.24397-1.49952,8.49728-15.40376-4.50497-30.12915-10.23272-44.48576-17.4944-32.41411-20.07371-59.03142-41.6608-76.97536-75.97568l12.496-5.99808c7.63502,7.06958,9.51376,6.12518,9.9968,6.49792Z"/><path class="uuid-52883d0b-9f64-4782-852c-f7c06cace7d4" d="M400.99979,99.06438c2.81795,3.35795,6.59426,8.15582,8.99712,11.74624.62877.93953,1.02854,3.82466,3.99872,5.74816,5.5253,13.58845,8.76313,23.54602,10.99648,38.23776,1.10664,7.27985,4.53511,47.12615,3.49888,51.48352-.08832.37142-.66284.2546-.99968.24992-3.96632-57.00268-23.44885-92.80913-72.22688-122.96064-49.58874-30.65263-90.03972-30.60795-136.45632,5.99808-6.89428,5.4371-15.06425,15.48088-16.2448,12.99584-28.38377-24.943-73.57629-40.29095-111.2144-37.98784-3.54202.21674-8.13504,1.49014-11.74624,1.99936-13.42377,1.8929-26.87207,4.84093-39.23744,10.99648,19.97359-21.11969,65.59146-37.64335,93.47008-44.9856,53.42156-14.06936,117.8461-13.22939,169.94561,5.99808,26.58646,9.81181,31.83646,18.53064,45.98528,26.99136,17.45773,10.43939,33.09427,11.8738,51.2336,33.48928Z"/><path class="uuid-22389c91-d769-4578-9176-18b97436f664" d="M332.5217,30.58629c-1.16888,1.98608,9.74328,8.36575,14.24544,11.99616,17.21794,13.8841,41.10916,36.34002,53.7328,54.23264.1994.28262,1.53439,2.15445.49984,2.24928-18.13934-21.61548-33.77587-23.04989-51.2336-33.48928-14.14882-8.46072-19.39882-17.17955-45.98528-26.99136-52.09951-19.22747-116.52404-20.06744-169.94561-5.99808-27.87862,7.34225-73.4965,23.86591-93.47008,44.9856,12.36537-6.15555,25.81367-9.10358,39.23744-10.99648-3.14976,2.28892-9.09242,3.17898-13.24576,4.9984-4.95752,2.17171-19.30854,11.00683-23.99232,14.49536-10.74171,8.00054-19.37712,18.06941-28.24096,27.99104,17.88733-43.02336,54.67891-72.99967,96.71904-90.97088,75.34809-32.20962,149.03735-31.63047,221.67905,7.4976Z"/><path class="uuid-52883d0b-9f64-4782-852c-f7c06cace7d4" d="M413.99563,116.55878c-2.97018-1.9235-3.36995-4.80863-3.99872-5.74816-2.40286-3.59042-6.17917-8.38829-8.99712-11.74624,1.03455-.09483-.30044-1.96666-.49984-2.24928-12.62365-17.89263-36.51486-40.34854-53.7328-54.23264-4.50216-3.63041-15.41432-10.01008-14.24544-11.99616,36.96083,19.90877,65.48444,46.64922,81.47392,85.97248Z"/><path class="uuid-52883d0b-9f64-4782-852c-f7c06cace7d4" d="M4.62665,253.51494c3.68232,17.3051,13.86763,39.33171,26.99136,51.48352l-12.496,5.99808c-10.89685-20.83845-14.09471-34.57179-15.99488-58.23136l1.49952.74976Z"/><path class="uuid-52883d0b-9f64-4782-852c-f7c06cace7d4" d="M154.57866,310.4967c-11.28116,2.42647-63.27238,7.66063-65.97888,20.24352-.19646.91337.00339,3.62942,0,5.24832-.02155,10.28299,2.86104,12.25889,17.74432,17.99424,18.0373,6.95078,42.93063,10.26625,62.23008,11.99616-4.28325,6.66004-24.68235,26.95466-26.49152,29.9904-33.86312-27.68258-65.83985-57.7523-100.46784-84.47296q33.23936-22.24288,66.47872-44.48576c14.17312,15.80982,30.34515,29.76123,46.48512,43.48608Z"/><path class="uuid-80337048-8270-46d8-bdf1-498a1687e586" d="M307.02986,301.99942c6.00732,4.58392,7.64526,9.55343,8.99712,10.74656,8.12033,7.16699,14.04778-3.66893,17.4944-2.74912-1.47087,7.79807-11.61271,13.90955-15.99488,19.9936q-13.49568-12.24608-26.99136-24.49216c2.78509-6.59042,11.05814-5.5088,16.49472-3.49888Z"/><path class="uuid-56fada87-caa3-4b41-8f29-679e4102a3a2" d="M317.5265,329.99046c2.69439.81297,12.12463-9.58482,14.9952-10.99648-.14934.24287-.347.78503-.49984.99968-3.78059,5.30897-13.6239,11.69209-19.24384,15.49504-1.42838-.06309-2.15385-3.43481-3.24896-4.49856-1.38084-1.34131-6.70702-5.18004-8.49728-5.99808-2.65412-2.90215-8.47754-8.30932-9.9968-11.49632-1.55343-3.25872-1.97865-4.49813-.49984-7.99744q13.49568,12.24608,26.99136,24.49216Z"/><path class="uuid-80337048-8270-46d8-bdf1-498a1687e586" d="M334.02122,304.49862c-1.13227.44795-.13356,3.55639-.49984,5.49824-3.44662-.91981-9.37407,9.91611-17.4944,2.74912-1.35186-1.19313-2.9898-6.16264-8.99712-10.74656,2.7123,1.00273,4.85379,3.59211,5.74816,3.49888,5.20787-4.69091,16.91841-7.88069,21.2432-.99968Z"/><path class="uuid-29dffcf0-088f-4c03-ba6a-47393463bcf9" d="M334.02122,316.99462c-.04942.11477-1.07342,1.30634-1.49952,1.99936-2.87057,1.41166-12.30081,11.80945-14.9952,10.99648,4.38217-6.08405,14.52401-12.19553,15.99488-19.9936.36628-1.94185-.63243-5.05029.49984-5.49824,2.49676,3.97251,1.78413,8.35347,0,12.496Z"/><path class="uuid-e959ec1f-3948-4145-b029-ca35972679b5" d="M413.49579,308.49734c-18.15648,40.28956-59.50515,73.66432-99.968,89.9712q-17.99424-15.99488-35.98848-31.98976c6.19071-.49844,12.33498-1.19618,18.49408-1.99936,1.77589-.23158,3.71872-.22585,5.49824-.49984,15.06787-2.32006,51.38153-9.5253,49.48416-29.9904-.0302-.32585.05391-.68212,0-.99968-1.39759-8.2318-13.20396-10.27766-16.99456-15.99488,1.78413-4.14253,2.49676-8.52349,0-12.496-4.32479-6.88101-16.03533-3.69123-21.2432.99968-.89437.09323-3.03586-2.49615-5.74816-3.49888-5.43658-2.00992-13.70963-3.09154-16.49472,3.49888-1.47881,3.49931-1.05359,4.73872.49984,7.99744l-17.99424-.99968c4.12484-3.60636,15.31593-13.49434,17.99424-16.99456,14.1501-12.48346,27.85592-25.59529,39.48736-40.48704.4574-.5856,1.96202-1.77949,2.4992-2.4992,26.74361,17.60575,54.65042,33.5945,80.97408,51.73344l-.49984,4.24864Z"/><path class="uuid-1a0fc454-a312-47ce-a8ef-a706172781a3" d="M351.01578,332.9895c-4.94608-5.98237-11.51374-10.68451-18.99392-12.99584.15284-.21465.3505-.75681.49984-.99968.4261-.69302,1.4501-1.88459,1.49952-1.99936,3.7906,5.71723,15.59697,7.76308,16.99456,15.99488Z"/><path class="uuid-29dffcf0-088f-4c03-ba6a-47393463bcf9" d="M114.09162,106.56198c17.62333-1.63409,33.66664,6.61789,49.984,11.99616.67145,2.77073.96452,2.36928.99968,2.4992,4.65574,17.2014,12.09563,35.98679,19.9936,51.98336,6.67246,13.5144,16.68312,30.27997,24.992,42.98624,4.40054,6.72947,9.42249,12.92659,13.99552,19.49376.88628,1.27279,1.68299,4.15095,3.49888,4.9984-.43397,1.13889-.98089,2.39319-1.49952,3.49888-14.05204-9.43643-29.19465-16.84577-44.73568-23.49248l-17.74432,6.49792c-29.20759-23.15534-68.76229-66.72594-69.9776-105.46624,8.11163-8.21064,10.10192-9.8616,20.49344-14.9952Z"/><path class="uuid-80337048-8270-46d8-bdf1-498a1687e586" d="M165.0753,101.06374c-5.20781,4.85784-2.37795,11.80692-.99968,17.4944-16.31736-5.37827-32.36068-13.63025-49.984-11.99616,18.46702-9.12304,30.92144-9.59038,50.98368-5.49824Z"/><path class="uuid-a8e3c114-97e9-4e48-bc7f-636fbdca6f10" d="M188.06794,337.48806c-11.42717-8.659-22.56974-17.70576-33.48928-26.99136-16.13998-13.72486-32.312-27.67626-46.48512-43.48608-7.71195-8.6025-15.05303-17.54157-20.99328-27.4912.68176-.32476,1.49504-2.0515,2.24928-1.99936,1.12459.07773,6.40807,10.14839,13.24576,18.24416,24.36507,28.8481,55.82193,52.4559,83.22336,78.22496,1.70883,1.60703,3.1703,2.67248,2.24928,3.49888Z"/><path class="uuid-4bc96d77-e0b3-4bd8-8c16-b4fdebc4391d" d="M71.60521,183.53734c-.3237-.40487-.62014-1.56305-.74976-1.49952,7.83301,50.96196,32.89593,75.91503,68.47808,109.46496,13.6119,12.83448,46.9975,42.77101,60.98048,54.48256,2.14089,1.7931,8.47805,5.57753,9.74688,7.4976-7.65128-3.9154-15.10925-10.77872-21.99296-15.99488.92102-.8264-.54045-1.89185-2.24928-3.49888-27.40143-25.76907-58.8583-49.37687-83.22336-78.22496-6.83769-8.09577-12.12117-18.16643-13.24576-18.24416-.75424-.05214-1.56752,1.6746-2.24928,1.99936-10.61106-17.77303-17.10619-38.16514-16.99456-58.98112.8455.20571,2.6907,2.53698,1.49952,2.99904Z"/><path class="uuid-bd5bfb05-2b13-416b-9e49-b2570925f8b9" d="M357.5137,175.5399c-16.99221,22.42341-35.93222,43.31606-54.9824,63.97952-6.39181,6.93308-13.63065,13.1039-19.9936,19.9936q-13.24576-14.9952-26.49152-29.9904c3.16845-3.16003,6.32863-6.33617,9.49696-9.49696,27.72715-27.66113,58.48064-53.4121,77.97504-87.97184,9.69471,14.4091,12.91487,26.16342,13.99552,43.48608Z"/><path class="uuid-29dffcf0-088f-4c03-ba6a-47393463bcf9" d="M349.01642,224.02438c-.1652.47226-.08786.93601-.49984,1.99936-.96716.87164-1.3421,2.37912-1.99936,3.49888-1.71692,2.92509-3.81882,5.88755-5.99808,8.49728-17.97221,19.82029-39.53614,36.06274-58.7312,54.48256-4.81843,4.62383-15.90772,14.45427-15.24512,18.24416-15.77455,12.36164-29.62165,27.86154-46.73504,38.23776v.99968c.80165-.42275,1.982-.65638,2.74912-.99968-1.35738,1.64248-5.33246,5.28432-6.99776,5.99808-.61742-2.44197-4.24817-5.35546-2.99904-7.4976,18.42437-32.92632,44.54604-60.43506,69.9776-87.97184,6.36295-6.8897,13.60179-13.06052,19.9936-19.9936,16.4953-8.67535,35.36551-14.53804,49.73408-26.49152.57965.27211-2.86554,9.90049-3.24896,10.99648Z"/><path class="uuid-80337048-8270-46d8-bdf1-498a1687e586" d="M349.01642,224.02438c.38342-1.09599,3.82861-10.72437,3.24896-10.99648-14.36857,11.95348-33.23878,17.81617-49.73408,26.49152,19.05018-20.66346,37.99019-41.55611,54.9824-63.97952.94388,15.13055-.61125,30.43234-5.99808,44.73568-.32909.8738-1.51026,3.95149-2.4992,3.7488Z"/><path class="uuid-9c7cee1c-f72c-4dbd-8222-25b69cf0162d" d="M333.02154,252.51526c-.53718.71971-2.0418,1.9136-2.4992,2.4992.10318-1.14114,1.38969-2.61421-.49984-2.4992,3.88477-4.46091,7.68943-9.24399,10.49664-14.49536,2.17926-2.60973,4.28116-5.57219,5.99808-8.49728h.49984c-3.13218,7.08507-9.32767,16.73857-13.99552,22.99264Z"/><path class="uuid-ef242dee-0f2a-4245-9224-3d44762874ac" d="M347.01706,229.52262h-.49984c.65726-1.11976,1.0322-2.62724,1.99936-3.49888-.52403,1.35253-.93137,2.21371-1.49952,3.49888Z"/><path class="uuid-a8e3c114-97e9-4e48-bc7f-636fbdca6f10" d="M291.03498,295.5015c-2.67831,3.50022-13.8694,13.3882-17.99424,16.99456-1.98588,1.73626-4.1559,2.98632-5.99808,4.9984-.13256.14479-1.96437-.49972-1.49952,2.99904-4.61397-.09043-2.68905,1.18074-5.99808,2.4992-.27817.11083-1.29112-.46878-2.74912,1.49952-2.63487-2.45661-6.59744,2.45454-11.2464,5.99808,15.87511-14.66062,32.60135-28.32797,48.48448-42.98624-2.60927,3.91763.05318,2.04152,0,2.74912-.02904.38638-.98412.1166-.99968.49984-.0414,1.0196,2.00766-.48819-1.99936,4.74848Z"/><path class="uuid-4bc96d77-e0b3-4bd8-8c16-b4fdebc4391d" d="M330.52234,255.01446c-11.63144,14.89175-25.33726,28.00358-39.48736,40.48704,4.00702-5.23667,1.95796-3.72888,1.99936-4.74848.01556-.38324.97064-.11346.99968-.49984.05318-.7076-2.60927,1.16851,0-2.74912,12.17848-11.23932,25.09564-22.48048,35.98848-34.9888,1.88953-.11501.60302,1.35806.49984,2.4992Z"/><path class="uuid-56fada87-caa3-4b41-8f29-679e4102a3a2" d="M226.05578,244.01798c-2.69561,5.74697-9.78663,12.97931-9.9968,17.4944-5.23468-.84131-45.55985-29.00024-52.4832-34.48896l17.74432-6.49792c15.54103,6.64671,30.68365,14.05605,44.73568,23.49248Z"/><path class="uuid-bbcefafe-1176-4c8f-b56e-693e2f80f2e0" d="M214.55946,136.55238c-2.91257,4.54966-12.71528,3.47438-17.99424,6.49792-5.63444-6.17251-26.86179-21.45984-30.24032-22.4928-.62713-.19174-.73855.49243-1.2496.49984-.03516-.12992-.32823.27153-.99968-2.4992-1.37827-5.68748-4.20813-12.63657.99968-17.4944,21.01012,4.28548,38.67077,16.66256,49.48416,35.48864Z"/><path class="uuid-c4788ec5-2868-4b4c-b563-426629d08250" d="M216.55882,139.05158c1.15817,2.33487,2.54331,9.04546,3.99872,11.99616l.49984.99968c1.92989,7.6515,3.8266,15.27694,5.49824,22.99264.9635,4.44715,2.28354,9.01744,2.99904,13.49568-11.40547-13.10309-21.69011-33.10706-32.98944-45.48544,5.27897-3.02354,15.08167-1.94826,17.99424-6.49792.56098.97668,1.71176,1.91941,1.99936,2.4992Z"/><path class="uuid-51eee204-1e5c-414c-a891-f1cfc2a287ef" d="M196.56522,143.0503c11.29933,12.37838,21.58397,32.38235,32.98944,45.48544.78378,4.9055,1.61167,10.04776,1.99936,14.9952-2.29309.27835-1.80832,7.92799-2.4992,11.74624-1.10505,6.10718-3.14633,12.17262-4.49856,18.24416-1.50965.48501-.57757-1.82617-1.99936-4.74848-1.65709-3.40592-8.08475-10.55284-10.49664-14.24544-.93578-1.43269-6.98763-10.58418-6.99776-11.2464-.02151-1.4058,1.73399.08507,1.49952-1.99936-3.29012-2.90061-18.44649-29.6188-20.24352-29.74048-.50387-.03412-.65262,1.48716-1.2496,1.49952-7.89797-15.99657-15.33786-34.78196-19.9936-51.98336.51105-.00741.62247-.69158,1.2496-.49984,3.37853,1.03296,24.60588,16.32029,30.24032,22.4928Z"/><path class="uuid-51eee204-1e5c-414c-a891-f1cfc2a287ef" d="M212.06026,214.52742l-1.99936,1.49952c-8.30888-12.70628-18.31955-29.47184-24.992-42.98624.59698-.01236.74573-1.53364,1.2496-1.49952,1.79703.12168,16.95341,26.83987,20.24352,29.74048.23447,2.08443-1.52103.59356-1.49952,1.99936.01013.66222,6.06198,9.81371,6.99776,11.2464Z"/><path class="uuid-0eb64a94-1860-46c2-aa62-a25caf8d123b" d="M231.55402,203.53094c.98586,12.58042.56595,25.00851-3.99872,36.98816-1.81589-.84745-2.6126-3.72561-3.49888-4.9984.05394-.70931.34398-1.29954.49984-1.99936,1.35223-6.07154,3.39351-12.13698,4.49856-18.24416.69088-3.81825.20611-11.46789,2.4992-11.74624Z"/><path class="uuid-ff49a969-e7f0-4151-a008-0d0c8626063b" d="M224.55626,233.52134c-.15586.69982-.4459,1.29005-.49984,1.99936-4.57303-6.56717-9.59498-12.76429-13.99552-19.49376l1.99936-1.49952c2.41189,3.6926,8.83955,10.83952,10.49664,14.24544,1.42179,2.92231.48971,5.23349,1.99936,4.74848Z"/><path class="uuid-56fada87-caa3-4b41-8f29-679e4102a3a2" d="M71.60521,183.53734c1.62966,2.03827,5.18201,8.78051,7.99744,12.74592,11.70124,16.4807,27.48682,33.30257,41.48672,47.98464,26.15873,27.43336,72.44584,67.22503,89.47136,99.21824.48875.91844.8573,3.19655,1.99936,3.99872-1.24913,2.14214,2.38162,5.05563,2.99904,7.4976-.07355.03151-.21895.44697-1.2496.99968-1.41967-.86715-2.76053-1.73769-4.24864-2.4992-1.26884-1.92007-7.60599-5.7045-9.74688-7.4976-13.98298-11.71155-47.36858-41.64808-60.98048-54.48256-35.58215-33.54993-60.64507-58.503-68.47808-109.46496.12962-.06353.42606,1.09465.74976,1.49952Z"/><path class="uuid-d1a660f2-6b3f-46e6-a928-6305de734834" d="M282.5377,259.51302c-25.43156,27.53678-51.55323,55.04552-69.9776,87.97184-1.14206-.80217-1.51061-3.08028-1.99936-3.99872.96324-.06156,1.0103,2.1972,1.99936,1.74944,1.46062-.66123,2.11721-5.82754,2.99904-6.99776q1.49952-34.73888,2.99904-69.47776c2.48614-2.32128,4.39804-5.1017,6.49792-7.74752,8.55378-10.77768,21.05152-21.57775,30.99008-31.48992q13.24576,14.9952,26.49152,29.9904Z"/><path class="uuid-a8e3c114-97e9-4e48-bc7f-636fbdca6f10" d="M163.57578,227.02342c6.92335,5.48872,47.24852,33.64765,52.4832,34.48896.59149.09506,2.25215-2.13875,2.99904,0-.36728,1.02604-1.6365,5.82754-.74976,6.49792l6.74784-6.99776c-2.09988,2.64582-4.01178,5.42624-6.49792,7.74752q-1.49952,34.73888-2.99904,69.47776c-.88183,1.17022-1.53842,6.33653-2.99904,6.99776-.98906.44776-1.03612-1.811-1.99936-1.74944-17.02553-31.99321-63.31264-71.78489-89.47136-99.21824-13.9999-14.68207-29.78548-31.50394-41.48672-47.98464-2.81543-3.96541-6.36778-10.70765-7.99744-12.74592,1.19118-.46206-.65402-2.79333-1.49952-2.99904.12748-23.77057,6.83544-42.12075,23.49248-58.98112,1.21531,38.7403,40.77002,82.3109,69.9776,105.46624Z"/><path class="uuid-a8e3c114-97e9-4e48-bc7f-636fbdca6f10" d="M91.84873,134.05318c3.07828,38.88407,32.94406,66.81716,54.73248,96.71904q-9.12208,8.62224-18.24416,17.24448c-7.34581-12.41537-48.51735-53.42687-51.2336-63.7296-2.29503-8.70502,10.65546-40.92817,14.74528-50.23392Z"/><path class="uuid-80337048-8270-46d8-bdf1-498a1687e586" d="M343.51818,132.05382c-19.4944,34.55974-50.24789,60.31071-77.97504,87.97184,4.14507-6.27558-5.95104,2.18299-8.24736,3.49888-7.28719,4.17588-12.13854,6.64619-20.24352,7.99744,5.38524-10.03469,10.60873-19.95077,14.9952-30.49024,3.28682-7.89736,6.16606-15.75054,8.49728-23.99232,3.89338-13.76461,12.07731-53.74783.49984-63.97952-4.7627-4.20907-11.89472-4.05252-13.7456-4.49856-.3718-.0896-.2545-.6626-.24992-.99968,29.10262-18.87056,74.4319-8.26145,96.46912,24.49216Z"/><path class="uuid-29dffcf0-088f-4c03-ba6a-47393463bcf9" d="M265.54314,220.02566c-3.16833,3.16079-6.32851,6.33693-9.49696,9.49696-9.93856,9.91217-22.4363,20.71224-30.99008,31.48992l-6.74784,6.99776c-.88674-.67038.38248-5.47188.74976-6.49792.97906-2.73509,14.36387-22.96982,16.99456-29.49056.46588-.06309.52519-.42073.99968-.49984,8.10498-1.35125,12.95633-3.82156,20.24352-7.99744,2.29632-1.31589,12.39243-9.77446,8.24736-3.49888Z"/><path class="uuid-29dffcf0-088f-4c03-ba6a-47393463bcf9" d="M261.04458,113.0599c-3.81787,3.93115-7.37111,8.25602-10.49664,12.74592-12.83272,18.43447-10.52931,27.64397-29.9904,25.24192-1.45541-2.9507-2.84055-9.66129-3.99872-11.99616q5.99808-6.99776,11.99616-13.99552c3.45217-2.24113,9.82849-11.87552,18.49408-17.4944-.00458.33708-.12188.91008.24992.99968,1.85088.44604,8.9829.28949,13.7456,4.49856Z"/><path class="uuid-64ee54a1-f619-44bb-aa74-780bb12d0c7d" d="M257.04586,181.03814c.8875-1.49101,1.98209-4.06636,3.49888-3.99872-2.33122,8.24178-5.21046,16.09496-8.49728,23.99232-3.77421,1.40157-1.89798,2.56702-1.99936,2.74912-3.75347,6.74314-18.59945,27.86453-15.24512,29.24064.11739.04817.61522-.91377,1.2496-.99968-2.63069,6.52074-16.0155,26.75547-16.99456,29.49056-.74689-2.13875-2.40755.09506-2.99904,0,.21017-4.5151,7.30119-11.74743,9.9968-17.4944.51863-1.10569,1.06555-2.35999,1.49952-3.49888,4.56467-11.97966,4.98458-24.40775,3.99872-36.98816-.38769-4.94744-1.21558-10.0897-1.99936-14.9952-.7155-4.47824-2.03554-9.04853-2.99904-13.49568,1.88761.84839,2.66708,9.39275,3.49888,13.7456.56623-4.91719,1.65438,1.13344,1.99936,2.99904,1.33383,7.21315,2.01968,16.82471,2.24928,24.24224,1.70279,1.21104,21.28625-32.54194,22.74272-34.9888Z"/><path class="uuid-56fada87-caa3-4b41-8f29-679e4102a3a2" d="M260.54474,177.03942c-1.51679-.06764-2.61138,2.50771-3.49888,3.99872-18.75938,5.33075-28.99636-15.32546-35.98848-28.99072l-.49984-.99968c19.46109,2.40205,17.15769-6.80745,29.9904-25.24192,3.12553-4.4899,6.67877-8.81478,10.49664-12.74592,11.57747,10.2317,3.39354,50.21492-.49984,63.97952Z"/><path class="uuid-902c267f-660f-4dfc-a360-79b922a63eb0" d="M257.04586,181.03814c-1.45647,2.44686-21.03993,36.19984-22.74272,34.9888-.2296-7.41753-.91545-17.0291-2.24928-24.24224-.34498-1.8656-1.43314-7.91623-1.99936-2.99904-.8318-4.35285-1.61127-12.89721-3.49888-13.7456-1.67165-7.7157-3.56835-15.34114-5.49824-22.99264,6.99212,13.66526,17.2291,34.32147,35.98848,28.99072Z"/><path class="uuid-64ee54a1-f619-44bb-aa74-780bb12d0c7d" d="M252.04746,201.03174c-4.38647,10.53947-9.60996,20.45555-14.9952,30.49024-.47449.07911-.5338.43675-.99968.49984-.63438.08591-1.13221,1.04785-1.2496.99968-3.35433-1.37612,11.49165-22.4975,15.24512-29.24064.10138-.1821-1.77485-1.34755,1.99936-2.74912Z"/><path class="uuid-29dffcf0-088f-4c03-ba6a-47393463bcf9" d="M330.0225,252.51526c-10.89285,12.50833-23.81001,23.74948-35.98848,34.9888-15.88313,14.65827-32.60937,28.32562-48.48448,42.98624-5.31797,4.05348-18.52111,16.49289-22.99264,18.49408-.76712.3433-1.94747.57693-2.74912.99968v-.99968c17.11339-10.37623,30.96049-25.87612,46.73504-38.23776-.6626-3.78989,10.42669-13.62034,15.24512-18.24416,19.19506-18.41982,40.75899-34.66228,58.7312-54.48256-2.80721,5.25137-6.61187,10.03445-10.49664,14.49536Z"/><path class="uuid-d1a660f2-6b3f-46e6-a928-6305de734834" d="M259.54506,322.9927c-3.89036,3.56179-7.87102,7.21806-11.99616,10.49664-10.89876,8.66214-22.85044,15.97603-33.48928,24.992-.16493-.9714.93384-2.76983-3.99872-3.49888.45219-.81178.5337-.69189,0-1.49952,1.48811.76151,2.82897,1.63205,4.24864,2.4992,1.03065-.55271,1.17605-.96817,1.2496-.99968,1.6653-.71376,5.64038-4.3556,6.99776-5.99808,4.47153-2.00119,17.67467-14.4406,22.99264-18.49408,4.64896-3.54354,8.61153-8.45469,11.2464-5.99808,1.458-1.9683,2.47095-1.38869,2.74912-1.49952Z"/><path class="uuid-d1a660f2-6b3f-46e6-a928-6305de734834" d="M227.05546,359.98086c11.72571.8649,31.43586,2.68752,41.98656,2.4992.13847.44816.62837.65998.99968.99968.64545.59051,1.07415,1.33938,2.4992,1.74944l-3.24896,1.2496c-6.00574-.66977-49.2567,1.83642-51.48352.49984-.48083-.2886-.74759-4.73057-1.2496-5.74816-.26362-.53434-1.0373.18094-1.49952-.74976-.06806-.13707.03759-.6194,0-.99968,3.22248.50722,8.59719.24913,11.99616.49984Z"/><path class="uuid-beaeb552-bb8b-4667-b693-2470eaaa97fb" d="M227.05546,359.98086c-3.39897-.25071-8.77368.00738-11.99616-.49984-2.80654-.44175-.95849-.75699-.99968-.99968,10.63884-9.01597,22.59052-16.32986,33.48928-24.992.76074,1.07101-.84443,2.8832-1.49952,3.7488-5.93176,7.83773-12.63713,15.24369-18.99392,22.74272Z"/><path class="uuid-038761ae-6cc7-45ce-b3a5-e1853d684be8" d="M265.54314,320.4935c11.22645.21999,32.38002,7.31715,43.98592,10.49664,1.09511,1.06375,1.82058,4.43547,3.24896,4.49856,5.61994-3.80295,15.46325-10.18607,19.24384-15.49504,7.48018,2.31133,14.04784,7.01347,18.99392,12.99584.05391.31756-.0302.67383,0,.99968-4.90679,12.52959-32.77131,21.19506-45.48544,23.99232-3.24887.7148-6.71956,1.49928-9.9968,1.99936-7.48436,1.14203-19.03477,2.36609-26.49152,2.4992-10.5507.18832-30.26085-1.6343-41.98656-2.4992,6.35679-7.49903,13.06216-14.90499,18.99392-22.74272.65509-.8656,2.26026-2.67779,1.49952-3.7488,4.12514-3.27858,8.1058-6.93485,11.99616-10.49664,3.30903-1.31846,1.38411-2.58963,5.99808-2.4992Z"/><path class="uuid-53db9104-ec2a-4109-a41c-86f0af19a52c" d="M301.53162,363.97958c3.14383-2.02053,1.28896-3.69749,3.99872-5.99808,12.71413-2.79726,40.57866-11.46273,45.48544-23.99232,1.89737,20.4651-34.41629,27.67034-49.48416,29.9904Z"/><path class="uuid-038761ae-6cc7-45ce-b3a5-e1853d684be8" d="M291.03498,313.49574c1.51926,3.187,7.34268,8.59417,9.9968,11.49632-6.47541-2.95886-25.80558-6.59564-33.98912-7.4976,1.84218-2.01208,4.0122-3.26214,5.99808-4.9984l17.99424.99968Z"/><path class="uuid-073f2b20-7ba3-4323-a49b-bc0b5056fb41" d="M295.53354,359.98086c-.62523,2.61293-2.16548,2.82902.49984,4.49856-6.1591.80318-12.30337,1.50092-18.49408,1.99936-.4949.03984-1.00435-.03844-1.49952,0l-5.99808-2.99904c-.37131-.3397-.86121-.55152-.99968-.99968,7.45675-.13311,19.00716-1.35717,26.49152-2.4992Z"/><path class="uuid-ea90bfb7-c727-4d85-820d-775798f825e3" d="M305.53034,357.9815c-2.70977,2.30059-.85489,3.97755-3.99872,5.99808-1.77952.27399-3.72235.26826-5.49824.49984-2.66532-1.66954-1.12507-1.88563-.49984-4.49856,3.27724-.50008,6.74793-1.28456,9.9968-1.99936Z"/><path class="uuid-67337f34-bf9b-447b-8f61-e098ba6da25f" d="M267.04266,317.49446c8.18354.90196,27.51372,4.53874,33.98912,7.4976,1.79026.81804,7.11644,4.65677,8.49728,5.99808-11.6059-3.17949-32.75947-10.27665-43.98592-10.49664-.46485-3.49876,1.36696-2.85425,1.49952-2.99904Z"/><path class="uuid-a8e3c114-97e9-4e48-bc7f-636fbdca6f10" d="M152.07946,354.98246l-1.74944.99968c21.25424,4.74741,43.03095,4.84967,64.72928,4.49856.46222.9307,1.2359.21542,1.49952.74976.50201,1.01759.76877,5.45956,1.2496,5.74816,2.22683,1.33658,45.47778-1.16961,51.48352-.49984l3.24896-1.2496c-1.42505-.41006-1.85375-1.15893-2.4992-1.74944l5.99808,2.99904c-34.3025,2.66315-73.19143,2.57233-107.4656-.49984-19.29946-1.72992-44.19278-5.04538-62.23008-11.99616-14.88328-5.73535-17.76587-7.71125-17.74432-17.99424,16.98468,13.30351,42.47461,17.65155,63.47968,18.99392Z"/><path class="uuid-3a852f92-66b5-4093-8d70-d639f1fdfed4" d="M188.06794,337.48806c6.88371,5.21616,14.34168,12.07948,21.99296,15.99488.5337.80763.45219.68774,0,1.49952-2.86792-.42388-40.69102,1.10499-57.98144,0-21.00507-1.34237-46.49501-5.69041-63.47968-18.99392.00339-1.6189-.19646-4.33495,0-5.24832,2.7065-12.58289,54.69772-17.81705,65.97888-20.24352,10.91954,9.2856,22.06211,18.33236,33.48928,26.99136Z"/><path class="uuid-61e8d0c2-cc36-4265-8f05-15e5a9af1fe9" d="M210.0609,354.98246c4.93256.72905,3.83379,2.52748,3.99872,3.49888.04119.24269-1.80686.55793.99968.99968.03759.38028-.06806.86261,0,.99968-21.69833.35111-43.47504.24885-64.72928-4.49856l1.74944-.99968c17.29043,1.10499,55.11352-.42388,57.98144,0Z"/></g></svg>