<?xml version="1.0" encoding="UTF-8"?><svg id="uuid-b4408271-31e4-4d8a-9d0e-747ab033be5b" xmlns="http://www.w3.org/2000/svg" xmlns:xlink="http://www.w3.org/1999/xlink" viewBox="0 0 391.25664 394.95232"><defs><style>.uuid-efec60f4-d8bf-4afc-8d44-2a1964d04693{fill:url(#uuid-aae0901c-3984-4f97-bc58-df44bd0d001e);}.uuid-efec60f4-d8bf-4afc-8d44-2a1964d04693,.uuid-3dc5cddc-22de-4df7-90e4-74a5591a0b64,.uuid-538890f4-6350-4137-9630-271a90b751f5,.uuid-365efebd-56fd-46b4-8372-b3daff3376fa,.uuid-735b513a-ca0b-491f-9417-1b5103b659f3,.uuid-18827e9b-8fee-4c4d-a5d3-34da168988dd,.uuid-9e227dba-d76e-4385-9f0c-31840b4fe663,.uuid-7ab543af-fd13-40e7-9644-130966615710,.uuid-fa2feb2f-3957-4708-9e67-16e81624e26a,.uuid-5ecc1f0e-7c02-41d8-ba83-e4df12b202ed,.uuid-110cbe0e-882e-44bd-ba0c-0e6f797eaa3e,.uuid-4b1aec2f-0ac5-4f68-8d17-e9de720a9d1c,.uuid-1dfeb93a-a031-4ffc-9cf1-da48897096de,.uuid-f4dd3f93-70ce-4e71-b986-412460e5b0e3,.uuid-388d3bf6-b199-4aca-8bfe-34e576e06abc,.uuid-ff3f91b0-7c35-4bbc-8b08-6212f822cdd3,.uuid-9e8a008e-161c-41ec-9b72-520a283f032c,.uuid-947f25f9-2166-4fc3-8508-0267f096ee32,.uuid-8a8c7a56-2992-4f51-81d8-e57b73949a2f,.uuid-02ba17a2-f8b4-4462-a8eb-fb3ce64f673f,.uuid-7af5798e-4398-4619-ad5b-49661ea21d29,.uuid-f91fb1ad-904d-484f-86d0-2c218a85ba32,.uuid-7737646c-a9e9-4e54-98b5-a00ca278f016,.uuid-319713e8-9fe6-4582-9e5d-e38475273b4b,.uuid-26f3c3cd-5b38-4cc1-9cfd-a887b6dce06b,.uuid-bb358d57-bd07-4cc1-8e34-b69c0675100b,.uuid-49711fb7-b550-48cb-bd7b-0b0f0c7eb0a2,.uuid-0ac890a6-a567-471a-9691-7ae23ce17271,.uuid-c3c5daab-7fd1-4730-bca3-58093eb59a63,.uuid-223c336c-7fb7-4741-9896-0f2f0a50f0fc,.uuid-0be4a7ef-0f4c-4735-a8e6-bf9ed1d71799,.uuid-6d45c5e6-aa73-432f-a24b-abb4d774a85e{stroke-width:0px;}.uuid-3dc5cddc-22de-4df7-90e4-74a5591a0b64{fill:#dcd19c;}.uuid-538890f4-6350-4137-9630-271a90b751f5{fill:#082f16;}.uuid-365efebd-56fd-46b4-8372-b3daff3376fa{fill:#adb588;}.uuid-735b513a-ca0b-491f-9417-1b5103b659f3{fill:#85a573;}.uuid-18827e9b-8fee-4c4d-a5d3-34da168988dd{fill:#90d2c0;}.uuid-9e227dba-d76e-4385-9f0c-31840b4fe663{fill:#e6f8f4;}.uuid-7ab543af-fd13-40e7-9644-130966615710{fill:#f6d699;}.uuid-fa2feb2f-3957-4708-9e67-16e81624e26a{fill:#a8afa9;}.uuid-5ecc1f0e-7c02-41d8-ba83-e4df12b202ed{fill:url(#uuid-8fee3416-b660-4ab3-bfca-165cacdd6ea3);}.uuid-110cbe0e-882e-44bd-ba0c-0e6f797eaa3e{fill:#2b6a5d;}.uuid-4b1aec2f-0ac5-4f68-8d17-e9de720a9d1c{fill:#418374;}.uuid-1dfeb93a-a031-4ffc-9cf1-da48897096de{fill:#1a4a40;}.uuid-f4dd3f93-70ce-4e71-b986-412460e5b0e3{fill:#cae6d0;}.uuid-388d3bf6-b199-4aca-8bfe-34e576e06abc{fill:#0c251e;}.uuid-ff3f91b0-7c35-4bbc-8b08-6212f822cdd3{fill:#a6a453;}.uuid-9e8a008e-161c-41ec-9b72-520a283f032c{fill:#4e9b8b;}.uuid-947f25f9-2166-4fc3-8508-0267f096ee32{fill:#c9d880;}.uuid-8a8c7a56-2992-4f51-81d8-e57b73949a2f{fill:#91894e;}.uuid-02ba17a2-f8b4-4462-a8eb-fb3ce64f673f{fill:#fdfbf4;}.uuid-7af5798e-4398-4619-ad5b-49661ea21d29{fill:#1d241e;}.uuid-f91fb1ad-904d-484f-86d0-2c218a85ba32{fill:#f9f1ca;}.uuid-7737646c-a9e9-4e54-98b5-a00ca278f016{fill:#231e15;}.uuid-319713e8-9fe6-4582-9e5d-e38475273b4b{fill:#50412f;}.uuid-26f3c3cd-5b38-4cc1-9cfd-a887b6dce06b{fill:#81873e;}.uuid-bb358d57-bd07-4cc1-8e34-b69c0675100b{fill:#f8f6e2;}.uuid-49711fb7-b550-48cb-bd7b-0b0f0c7eb0a2{fill:#72996d;}.uuid-0ac890a6-a567-471a-9691-7ae23ce17271{fill:#f3e495;}.uuid-c3c5daab-7fd1-4730-bca3-58093eb59a63{fill:#2c5950;}.uuid-223c336c-7fb7-4741-9896-0f2f0a50f0fc{fill:#6fb69f;}.uuid-0be4a7ef-0f4c-4735-a8e6-bf9ed1d71799{fill:#0d110d;}.uuid-6d45c5e6-aa73-432f-a24b-abb4d774a85e{fill:#c4c799;}</style><linearGradient id="uuid-8fee3416-b660-4ab3-bfca-165cacdd6ea3" x1="154.3814" y1="108.42079" x2="106.37689" y2="138.16557" gradientUnits="userSpaceOnUse"><stop offset="0" stop-color="#f9fbfa"/><stop offset="1" stop-color="#fdf8e2"/></linearGradient><linearGradient id="uuid-aae0901c-3984-4f97-bc58-df44bd0d001e" x1="176.67791" y1="113.89556" x2="287.58398" y2="178.67398" gradientUnits="userSpaceOnUse"><stop offset=".44358" stop-color="#418a7c"/><stop offset="1" stop-color="#5da692"/></linearGradient></defs><g id="uuid-ad22b6d2-7df4-4a57-bf09-bef02a9c8082"><path class="uuid-bb358d57-bd07-4cc1-8e34-b69c0675100b" d="M281.21175,36.90728c9.62578,2.38752,46.05548,11.54822,50.47575,18.99088,5.11223,13.1355,8.17716,27.00798,12.99376,40.23067,26.72068,73.35474,47.72378,93.4065,17.99136,174.91597-3.29032,9.02017-28.38578,66.62501-31.98463,72.46519-2.26185,3.67051-5.10094,5.34271-3.99808,6.247-9.65469,5.59646-18.58754,9.50181-28.98608,13.49352-1.28823-2.9468-2.97654-5.67547-4.49784-8.49592-2.78333-5.16015-9.18568-16.71621-10.99472-20.98992-5.46012-12.89908-11.62921-36.84988-13.49352-50.72563-.73112-5.44169.35457-10.76915-1.99904-13.24364.01299-.16548-.01473-.33446,0-.49976.31211-3.49881.44031-7.02702.99952-10.49496,18.27622-38.64452,44.46735-45.84834,55.97311-89.45703,3.92329-14.86989,6.24294-29.78211,4.49784-45.22827-1.84134-16.29787-15.26202-50.80171-27.73668-61.72035-3.86945-3.3868-8.71154-5.07813-11.2446-6.99664-.08452-.06401-.31159-.62226-1.49928-1.49928-7.44567-5.49808-28.0346-22.19439-36.98223-19.9904.3517-2.6877,3.44582-.87977,1.49928-3.49832,6.30581.98402,21.82133,4.71978,28.98608,6.49688Z"/><path class="uuid-bb358d57-bd07-4cc1-8e34-b69c0675100b" d="M83.30682,89.88184c-33.73357,68.0383-56.00466,86.1858-27.4868,167.16969,3.27285,6.25951,5.33415,13.19523,8.49592,19.49064,1.4895,2.96574,5.87654,8.39932,5.49736,10.74484-.76761-.34362-1.5133-1.58682-1.99904-.74964,5.82986,18.75988,11.51822,38.102,21.98944,54.97359,2.30985,3.72172,17.77215,22.98478,17.99136,24.48824.15698,1.07666-.95169.45794-.99952,1.2494-.32361-.11317-1.56902-.16618-2.4988-.49976-9.95561-3.57168-34.19048-14.35153-43.47911-19.49064-7.27839-15.86433-12.42026-32.5903-18.99088-48.72659-12.00439-29.48068-25.2911-51.36-27.4868-85.95871-2.43872-38.42819,15.1395-89.39788,25.48776-127.68866,14.55978.8038,29.02214,2.89663,43.47911,4.9976Z"/><path class="uuid-7ab543af-fd13-40e7-9644-130966615710" d="M340.18342,63.39456c3.07704,3.81473,18.68786,30.70941,21.48968,36.23259,6.16717,12.15725,11.45275,25.38778,15.99232,38.23163,18.39546,52.04639,18.00908,84.67194-.49976,136.93422-6.08527,17.18266-23.91933,56.56792-37.73187,67.46759-3.85908,3.04526-8.52523,5.05101-12.74388,7.4964-1.10286-.90429,1.73623-2.57649,3.99808-6.247,3.59886-5.84018,28.69431-63.44502,31.98463-72.46519,29.73242-81.50947,8.72933-101.56123-17.99136-174.91597-4.81659-13.2227-7.88153-27.09517-12.99376-40.23067,2.33494,1.27103,6.92645,5.55066,8.49592,7.4964Z"/><path class="uuid-7ab543af-fd13-40e7-9644-130966615710" d="M42.82626,75.3888c-1.90378,2.80682-2.14593,6.34051-2.99856,9.49544-10.34825,38.29078-27.92647,89.26046-25.48776,127.68866,2.19569,34.5987,15.48241,56.47803,27.4868,85.95871,6.57062,16.13629,11.71249,32.86226,18.99088,48.72659-3.25224-1.79937-6.88303-2.94536-9.74532-5.49736-7.87293-7.01949-32.17707-55.64572-36.73235-67.46759C-1.71469,232.62823-4.87409,185.2704,7.84307,142.35663c6.38016-21.5297,19.46096-51.08621,32.98415-68.96687.5419.87206,1.35693,1.30151,1.99904,1.99904Z"/><path class="uuid-02ba17a2-f8b4-4462-a8eb-fb3ce64f673f" d="M215.7432,27.91161c.0701.25811.41636.90395.49976.99952q-14.24316,4.49784-28.48632,8.99568c.95892-.59447,1.55772-1.83248,2.99856-1.74916-2.31452-.00233-2.48576-1.25182-4.49784-1.2494-5.14192.00619-42.76803,12.46508-49.72611,15.49256-6.72266,2.92504-26.87782,13.39813-30.23547,19.24076-4.97875,8.66349.03795,14.57306.49976,18.99088.53266,5.0955-2.29358,9.98004,1.49928,14.9928.08913,18.71409-10.17999,44.04786-8.99568,56.47287.04286.44967.95907,5.79402,1.2494,5.74724-.55438-12.58157,5.10413-24.74016,7.24652-35.73283,2.03856-10.4599,2.26231-23.73365,4.9976-31.73475.32515.03685.75339-.07292.99952,0,2.00529,18.59934-3.57816,32.16472-6.49688,48.72659-.52834,2.99801-1.39827,10.81065-.99952,13.7434-1.3264,7.0349-.94285,14.42009-1.99904,21.48968l-2.4988.49976c1.11734-5.01765,1.06791-9.77786-.49976-14.74292-.61137,8.536-.89827,14.36169-4.49784,22.23932-3.10363.07641,1.13318-6.27119,1.49928-9.24556,1.19575-9.71494-2.50122-23.01337-1.99904-28.48632,2.13914-7.25137,4.40523-14.59986,5.99712-21.98944.2233-1.03654.15576-1.70755-.99952-1.99904.12052-.49076,1.40298-.01209,1.49928-.49976,4.89494-24.78796,5.42164-27.18274-18.49112-39.23115.23539-.44313-.23492-2.3285,0-2.74868,2.85748-5.11086,10.9538-13.74837,13.99328-20.49016l5.49736-27.73668c2.54561-.82796,4.87638-1.74292,7.4964-2.4988,9.92742-2.86407,18.24259-4.83066,28.48632-6.49688,29.90151-4.86371,46.65104-2.80339,75.96351-.99952Z"/><path class="uuid-6d45c5e6-aa73-432f-a24b-abb4d774a85e" d="M106.79553,367.24859c57.27893,20.0309,101.02974,23.05082,159.92317,6.99664,4.53081-1.23509,9.03021-2.53574,13.49352-3.99808.66249,1.36806-4.92656,6.21192-7.24652,7.99616-12.59283,9.68492-27.25937,13.19874-42.72947,14.9928-28.95676,3.35813-50.68837.69937-77.96255.99952-1.52815-2.65778-9.67957-2.88134-13.24364-3.99808-13.79727-4.32315-24.85368-13.30321-34.73331-23.48872.92977.33358,2.17519.38659,2.4988.49976Z"/><path class="uuid-bb358d57-bd07-4cc1-8e34-b69c0675100b" d="M103.79697,37.9068l-5.49736,27.73668c-3.03948,6.74179-11.13579,15.3793-13.99328,20.49016-.23492.42018.23539,2.30555,0,2.74868-.03316.06242-.90232.2026-.99952.99952-14.45697-2.10097-28.91933-4.1938-43.47911-4.9976.85263-3.15493,1.09478-6.68862,2.99856-9.49544.74312.80728,4.33537,5.19349,5.24748,4.9976,4.38562-8.85286,10.1593-20.96303,18.24124-26.98704,6.47223-4.82419,28.84126-12.68217,37.48199-15.49256Z"/><path class="uuid-3dc5cddc-22de-4df7-90e4-74a5591a0b64" d="M66.31498,53.39936c-8.08194,6.02401-13.85562,18.13417-18.24124,26.98704-.91211.19589-4.50436-4.19032-5.24748-4.9976-.64211-.69753-1.45714-1.12698-1.99904-1.99904,7.457-9.85981,12.78176-16.33594,25.48776-19.9904Z"/><path class="uuid-223c336c-7fb7-4741-9896-0f2f0a50f0fc" d="M297.70382,363.25051c-4.96093,1.90436-9.67901,4.54567-14.9928,5.49736,1.06373-.79738,2.11623-3.07067,2.99856-3.99808,2.05648-2.16153,3.26009-3.54798,4.9976-5.99712.92345-1.30165,1.97635-2.44124,2.4988-3.99808,1.5213,2.82045,3.20961,5.54912,4.49784,8.49592Z"/><path class="uuid-f91fb1ad-904d-484f-86d0-2c218a85ba32" d="M96.80034,190.33358c-2.18317,4.77786-5.89562,9.75061-8.99568,13.99328-3.54548,4.85225-8.38882,8.90612-10.99472,14.49304-4.71972,6.93045-1.7739,7.57687,3.49832,11.49448,1.26677.94129,8.50556,5.76908,8.99568,5.99712-1.78825.86049.68087,1.85449,0,6.247-.17774,1.14667-2.8266,7.68274-3.49832,9.9952.57733.78862.99729.6872.99952.74964.00592.16594-.01414.3352,0,.49976-5.44775,4.53762,3.86858,13.17531,6.49688,13.49352-1.87996,2.78281-3.46021,4.68073-4.49784,7.99616-.05344.17076-1.95687-.49296-.49976,2.74868,1.71007,3.80442,11.06666,3.97432,9.9952,23.7386-.70059,1.17876.63923,2.11446-3.7482,0-5.30011-2.55431-19.80663-12.28551-24.73812-14.49304.37918-2.34552-4.00786-7.7791-5.49736-10.74484-3.16177-6.29541-5.22307-13.23113-8.49592-19.49064-28.51786-80.98389-6.24677-99.13139,27.4868-167.16969.0972-.79692.96636-.9371.99952-.99952,23.91275,12.04841,23.38606,14.4432,18.49112,39.23115-.0963.48767-1.37876.009-1.49928.49976,1.15528.29149,1.22282.9625.99952,1.99904-1.59189,7.38958-3.85798,14.73807-5.99712,21.98944-.50218,5.47294,3.19478,18.77138,1.99904,28.48632-.3661,2.97437-4.60291,9.32197-1.49928,9.24556Z"/><path class="uuid-bb358d57-bd07-4cc1-8e34-b69c0675100b" d="M69.8133,287.287c4.93148,2.20753,19.438,11.93872,24.73812,14.49304,4.38743,2.11446,3.04761,1.17876,3.7482,0,.27797-.4677-.61466-2.08173.74964-1.99904.59865.0363.60158,3.72517,2.24892,3.49832,10.60678,22.24972,57.00506,1.8202,74.21435-2.4988,8.39265,21.20173,14.64876,43.2731,21.73956,64.96879.68998,2.11114,4.3689,15.71596,5.24748,15.99232,4.18277-.28831,7.74854-2.57646,11.74436-3.49832,17.58179-4.05622,35.9161-6.44658,53.97407-5.99712-.52044.52346-1.06992,1.37114-1.49928,1.99904-58.89343,16.05418-102.64425,13.03427-159.92317-6.99664.04783-.79146,1.1565-.17274.99952-1.2494-.21921-1.50346-15.68151-20.76651-17.99136-24.48824-10.47121-16.87159-16.15958-36.21371-21.98944-54.97359.48574-.83718,1.23143.40602,1.99904.74964Z"/><path class="uuid-6d45c5e6-aa73-432f-a24b-abb4d774a85e" d="M281.21175,36.90728c-7.16474-1.7771-22.68027-5.51285-28.98608-6.49688-.31958-.04987-.6793.04839-.99952,0-.28892-.73935.96496-1.31311.24988-1.99904-1.94856-1.86913-44.59134-8.67905-49.97599-8.99568-16.26611-.95647-33.22049.32036-48.97647,4.49784-2.62395.6957-11.32755,3.4615-12.74388,4.9976-10.24372,1.66622-18.55889,3.63281-28.48632,6.49688l-3.49832-.24988c9.75566-7.26472,19.45579-16.02313,30.23547-21.73956,40.26009-21.34977,90.41116-16.52094,127.43878,9.49544,4.47551,4.51891,12.6502,9.09007,15.74244,13.99328Z"/><path class="uuid-365efebd-56fd-46b4-8372-b3daff3376fa" d="M251.22615,30.41041c-13.28805-2.00799-22.8275-1.71999-35.48295-2.4988-29.31247-1.80387-46.06199-3.86419-75.96351.99952,1.41633-1.5361,10.11992-4.3019,12.74388-4.9976,15.75598-4.17748,32.71036-5.45431,48.97647-4.49784,5.38465.31663,48.02743,7.12655,49.97599,8.99568.71508.68593-.5388,1.25969-.24988,1.99904Z"/><path class="uuid-bb358d57-bd07-4cc1-8e34-b69c0675100b" d="M88.80418,275.29276c2.14018,2.36602,4.22816,4.80976,6.99664,6.49688,1.87433,1.14221,3.19886,2.20573,5.49736,2.4988-.3431,6.4086-.01228,12.39096,1.99904,18.49112-1.23912-1.13593-2.18043-2.70832-3.24844-3.99808-.75092.27544,1.0105,3.99671,1.2494,4.49784-1.64734.22685-1.65027-3.46202-2.24892-3.49832-1.3643-.08269-.47167,1.53134-.74964,1.99904,1.07146-19.76428-8.28513-19.93418-9.9952-23.7386-1.45711-3.24164.44632-2.57792.49976-2.74868Z"/><path class="uuid-4b1aec2f-0ac5-4f68-8d17-e9de720a9d1c" d="M285.70958,364.74979c-.88233.92741-1.93483,3.2007-2.99856,3.99808-.59292.44446-1.66095.758-2.4988,1.49928-4.46331,1.46234-8.9627,2.76299-13.49352,3.99808.42936-.6279.97884-1.47558,1.49928-1.99904,2.90464-2.92145,6.49621-5.14703,8.99568-8.49592,2.76585.58288,5.66375.93821,8.49592.99952Z"/><path class="uuid-18827e9b-8fee-4c4d-a5d3-34da168988dd" d="M289.2079,55.3984c2.53305,1.9185,7.37515,3.60984,11.2446,6.99664,12.47466,10.91864,25.89534,45.42248,27.73668,61.72035,1.7451,15.44616-.57455,30.35839-4.49784,45.22827-1.36491,1.74667-1.67797,4.00465-2.4988,5.99712-1.85745-.94591-4.36027-1.54729-6.49688,0,4.92336-13.30458,7.48502-25.25473,7.4964-39.48103.00165-2.07765-.41051-4.02117-.49976-5.99712-.45004-9.96203-1.21084-19.90395-4.24796-29.48584-2.49029,2.59842-5.77173,4.52541-8.99568,5.99712-21.03183,9.60086-92.96681,25.65917-122.1913,33.48391l.24988-1.99904c-14.34888,1.97368-29.17702,1.49592-43.72899,1.99904,8.01106-4.33026,36.79893-12.63128,52.97455-27.4868h.49976c19.14495-3.95149,38.62354-5.09298,57.97215-7.4964.04536.78539.32605,1.87387,1.2494,1.99904,3.61429.48992,32.45048-1.47692,37.48199-2.4988,3.75375-.76236,21.71445-6.76357,21.73956-11.2446-.06317-.63295-1.47-1.63776-1.49928-1.74916-2.56801-9.7654-14.84574-31.38597-24.988-34.48343l.99952-1.49928Z"/><path class="uuid-1dfeb93a-a031-4ffc-9cf1-da48897096de" d="M266.71871,269.29565c-.01473.1653.01299.33428,0,.49976-1.44352,18.40187,2.51802,49.81378,15.49256,63.96927,1.80904,4.2737,8.21139,15.82977,10.99472,20.98992-.52245,1.55684-1.57535,2.69643-2.4988,3.99808l-16.99184-7.4964c-3.3584-10.93188-28.22207-46.8179-26.48728-81.71075-1.67885.65554-8.24894,8.03273-8.49592,8.7458.0047-.33678.12149-.91121-.24988-.99952-3.82501-.9096-17.00593,1.06373-22.23932-.49976,6.97947-6.05629,12.82663-13.15908,18.99088-19.9904,6.10083-6.761,12.25437-13.40899,17.99136-20.49016-.86918,10.76768,8.45822,23.65682,13.49352,32.98415Z"/><path class="uuid-02ba17a2-f8b4-4462-a8eb-fb3ce64f673f" d="M287.70862,53.89912c1.18769.87702,1.41476,1.43527,1.49928,1.49928l-.99952,1.49928c-9.58295-2.92666-25.86209,1.91533-35.73283,4.49784-20.15792,5.27396-64.12868,20.13442-81.71075,29.9856-7.89173,1.18688-19.6128,4.79294-26.98704,7.99616.647-6.76787,6.44818-12.01425,7.99616-18.741.35824-.51931,1.28677-.10627,1.49928-.24988.99655-.67341,14.74643-6.46326,17.4916-7.4964,10.60605-3.99154,22.02313-6.17408,32.48439-10.49496,21.25984-4.82266,45.10333-17.30538,66.71795-13.49352,5.9754,1.0538,12.12034,4.64734,17.74148,4.9976Z"/><path class="uuid-0be4a7ef-0f4c-4735-a8e6-bf9ed1d71799" d="M322.19206,135.85975c-.01138,14.2263-2.57304,26.17645-7.4964,39.48103-10.47394,28.30424-32.58161,42.29956-42.22971,70.46615,13.59015-24.31757,38.4109-45.42579,48.72659-70.46615.82083-1.99247,1.13389-4.25045,2.4988-5.99712-11.50576,43.60869-37.69689,50.8125-55.97311,89.45703-.02483-8.38062-.01568-21.0706,1.49928-28.98608,2.89265-15.1138,26.77785-50.0811,35.48295-69.71651,7.62744-17.2046,4.09453-24.71173,17.4916-24.23836Z"/><path class="uuid-18827e9b-8fee-4c4d-a5d3-34da168988dd" d="M192.25448,197.33022c13.27838,4.35592,62.89416,17.98727,70.46615,23.98848,3.43576,2.72303,3.94449,5.48284,6.49688,8.49592-1.51496,7.91548-1.52411,20.60546-1.49928,28.98608-.55921,3.46794-.68741,6.99615-.99952,10.49496-5.0353-9.32734-14.3627-22.21647-13.49352-32.98415.02486-.30808,1.32111-5.55309,1.49928-5.99712.8187-2.04031,3.88763-4.5597,3.24844-4.9976-28.31907-2.96858-56.16168-8.75852-84.20955-13.49352-.94111-2.34174-2.4648-.44007-2.99856-2.4988-.89692-3.45949.96171-14.4846,0-18.99088,5.19674,2.35522,15.29589,4.96479,21.48968,6.99664Z"/><path class="uuid-0be4a7ef-0f4c-4735-a8e6-bf9ed1d71799" d="M287.70862,53.89912c-5.62114-.35026-11.76608-3.9438-17.74148-4.9976-21.61462-3.81187-45.45811,8.67086-66.71795,13.49352,17.31822-7.15305,28.56462-17.7587,38.98127-23.98848,1.62773-.97349,7.11929-4.15875,8.49592-4.49784,8.94764-2.204,29.53656,14.49232,36.98223,19.9904Z"/><path class="uuid-f4dd3f93-70ce-4e71-b986-412460e5b0e3" d="M251.22615,30.41041c.32022.04839.67994-.04987.99952,0,1.94654,2.61855-1.14758.81062-1.49928,3.49832-1.37663.33909-6.86819,3.52435-8.49592,4.49784-11.27101-.5661-23.1562-1.50921-34.23355.99952-3.58001.81078-8.98488,3.93283-10.24508,2.99856,6.1317-4.75925,12.49891-9.14343,19.24076-12.99376.67732-.68628-.68327-.42369-.74964-.49976-.08339-.09557-.42966-.74141-.49976-.99952,12.65545.77881,22.1949.49081,35.48295,2.4988Z"/><path class="uuid-388d3bf6-b199-4aca-8bfe-34e576e06abc" d="M282.21127,333.76467c-12.97454-14.15549-16.93608-45.5674-15.49256-63.96927,2.35361,2.47449,1.26792,7.80195,1.99904,13.24364,1.86431,13.87575,8.0334,37.82655,13.49352,50.72563Z"/><path class="uuid-5ecc1f0e-7c02-41d8-ba83-e4df12b202ed" d="M148.77537,111.37151c-14.07734,3.57427-19.04748,10.57472-13.99328,13.49352,2.69612,1.55701,53.91387-11.01451,60.97071-12.494-16.17562,14.85552-44.96349,23.15654-52.97455,27.4868-1.06022.57309-1.88087.37465-2.4988,1.2494v11.2446c-7.56988-1.91995-25.67776-1.20046-32.23451,2.99856-1.3166.84316-.06433,1.22006-.24988,1.49928-.05401.08128-1.0462-.31795-1.49928,1.2494-.18889.65342.15601,1.92123,0,2.74868-.39875-2.93275.47118-10.74539.99952-13.7434,2.91872-16.56187,8.50217-30.12725,6.49688-48.72659,5.0957,1.5096,22.90828,10.43531,34.98319,12.99376Z"/><path class="uuid-223c336c-7fb7-4741-9896-0f2f0a50f0fc" d="M216.24296,28.91113c.06637.07607,1.42696-.18652.74964.49976-6.74185,3.85032-13.10906,8.23451-19.24076,12.99376-12.96606,10.0639-17.65758,16.91198-26.98704,30.48535-2.74517,1.03313-16.49505,6.82299-17.4916,7.4964-4.25139-5.86974-26.29985,5.70553-34.98319,8.49592,4.03319-7.22742,6.43917-11.55434,11.99424-17.99136,10.06665-6.09079,19.52122-13.12137,29.73572-18.99088,8.71508-5.00791,23.79628-11.55048,27.73668-13.99328q14.24316-4.49784,28.48632-8.99568Z"/><path class="uuid-0be4a7ef-0f4c-4735-a8e6-bf9ed1d71799" d="M186.25736,34.90824c-18.85836,6.07862-43.05463,21.01326-55.97311,35.98271-5.55507,6.43702-7.96105,10.76393-11.99424,17.99136-.04391.07867-.2772.14638-.99952,1.49928-1.17825,2.20683-3.96167,5.02064-4.49784,7.99616-2.73529,8.0011-2.95904,21.27486-4.9976,31.73475-2.14239,10.99267-7.80089,23.15126-7.24652,35.73283-.29033.04678-1.20654-5.29756-1.2494-5.74724-1.18431-12.42502,9.08481-37.75878,8.99568-56.47287-3.79286-5.01276-.96662-9.8973-1.49928-14.9928-.46181-4.41781-5.47851-10.32739-.49976-18.99088,3.35766-5.84263,23.51281-16.31572,30.23547-19.24076,6.95808-3.02748,44.58419-15.48637,49.72611-15.49256Z"/><path class="uuid-947f25f9-2166-4fc3-8508-0267f096ee32" d="M107.79505,156.84966c.31232,1.76603,3.87453,4.70241,3.99808,4.9976.64436,1.53948,1.02882,8.59694,1.49928,11.2446.41379.43621.75206-.02568.99952.74964,1.94775,6.10281,6.50815,9.39094,7.99616,15.49256-1.86721,3.16361-3.23909,11.01273-3.99808,15.49256l-9.9952-10.24508q-2.24892,13.1187-4.49784,26.2374-3.7482,3.7482-7.4964,7.4964c-1.11473-.5783-3.20721-1.12092-4.49784-1.49928,1.71391-13.10226,4.82561-25.68909,11.49448-37.23211.71017-2.35425.64413-4.86772.99952-7.24652,1.05619-7.06959.67264-14.45477,1.99904-21.48968.15601-.82745-.18889-2.09526,0-2.74868.45308-1.56735,1.44527-1.16812,1.49928-1.2494Z"/><path class="uuid-0ac890a6-a567-471a-9691-7ae23ce17271" d="M104.29673,182.33742c-.35539,2.3788-.28935,4.89227-.99952,7.24652-6.66887,11.54302-9.78056,24.12986-11.49448,37.23211-4.59703-1.34762-12.25145-4.07748-11.49448,3.49832-5.27222-3.91761-8.21804-4.56403-3.49832-11.49448,3.39035-4.97841,7.90465-9.5763,11.49448-14.49304,4.71584-6.45896,11.72816-13.56195,13.49352-21.48968l2.4988-.49976Z"/><path class="uuid-18827e9b-8fee-4c4d-a5d3-34da168988dd" d="M143.77777,99.37727c7.37423-3.20322,19.0953-6.80927,26.98704-7.99616-2.24161,1.25597-21.50331,14.06847-22.4892,14.9928-1.01107.94794-1.70208.95166.49976.99952.01774.3989-1.17066.56522,1.49928,3.49832-.29606.06464-.67129.28953-1.49928.49976-12.07492-2.55845-29.8875-11.48415-34.98319-12.99376-.24613-.07292-.67437.03685-.99952,0,.53617-2.97551,3.31959-5.78933,4.49784-7.99616q11.8693,5.74724,23.7386,11.49448c.7591-.66434,1.97549-2.16295,2.74868-2.4988Z"/><path class="uuid-f4dd3f93-70ce-4e71-b986-412460e5b0e3" d="M187.75664,37.9068c-3.9404,2.4428-19.02159,8.98537-27.73668,13.99328-10.2145,5.8695-19.66906,12.90008-29.73572,18.99088,12.91848-14.96946,37.11475-29.9041,55.97311-35.98271,2.01208-.00242,2.18332,1.24707,4.49784,1.2494-1.44084-.08332-2.03964,1.15469-2.99856,1.74916Z"/><path class="uuid-7af5798e-4398-4619-ad5b-49661ea21d29" d="M101.79794,182.83718c-1.76536,7.92773-8.77767,15.03071-13.49352,21.48968h-.49976c3.10006-4.24267,6.81251-9.21542,8.99568-13.99328,3.59957-7.87762,3.88647-13.70332,4.49784-22.23932,1.56767,4.96505,1.6171,9.72526.49976,14.74292Z"/><path class="uuid-18827e9b-8fee-4c4d-a5d3-34da168988dd" d="M274.71487,362.75075c.63647.13046,1.85745.86436,2.4988.99952-2.49947,3.34889-6.09104,5.57447-8.99568,8.49592-18.05798-.44946-36.39228,1.9409-53.97407,5.99712,9.9905-7.22291,20.26916-13.91214,30.98511-19.9904,9.89405,1.21938,19.70965,2.49401,29.48584,4.49784Z"/><path class="uuid-0be4a7ef-0f4c-4735-a8e6-bf9ed1d71799" d="M290.70718,358.75267c-1.73751,2.44914-2.94112,3.83559-4.9976,5.99712-2.83217-.06131-5.73007-.41664-8.49592-.99952-.64135-.13516-1.86233-.86906-2.4988-.99952.7465-2.82573.1501-6.23437-.49976-8.99568-.18113-.76956-.34581-1.99773-.49976-2.4988l16.99184,7.4964Z"/><path class="uuid-0be4a7ef-0f4c-4735-a8e6-bf9ed1d71799" d="M288.20838,56.89768c10.14225,3.09747,22.41999,24.71803,24.988,34.48343-17.42757,10.72524-39.21383,11.03927-58.97167,13.49352-19.34862,2.40342-38.8272,3.54491-57.97215,7.4964-.54576-2.09766-4.27186.91768-2.99856-1.49928,16.50269-5.21455,28.22426-15.71506,42.97935-23.48872,9.44288-4.97494,19.76257-8.44853,29.48584-12.74388-39.26013,8.7106-78.1208,21.05147-116.94382,32.23451-.01542-.0318-.55389.11626-.49976-.49976.98589-.92433,20.24758-13.73682,22.4892-14.9928,17.58207-9.85118,61.55283-24.71163,81.71075-29.9856,9.87075-2.58251,26.14988-7.4245,35.73283-4.49784Z"/><path class="uuid-0be4a7ef-0f4c-4735-a8e6-bf9ed1d71799" d="M321.6923,129.86263c-52.02133,3.01145-103.64253,9.43251-155.42533,14.9928,6.63577-1.94156,13.34904-3.2194,19.9904-4.9976,29.22449-7.82475,101.15947-23.88306,122.1913-33.48391,3.22395-1.47171,6.50539-3.3987,8.99568-5.99712,3.03712,9.58188,3.79792,19.52381,4.24796,29.48584Z"/><path class="uuid-223c336c-7fb7-4741-9896-0f2f0a50f0fc" d="M321.19254,175.34078c-10.31569,25.04035-35.13644,46.14858-48.72659,70.46615,9.64811-28.16658,31.75577-42.1619,42.22971-70.46615,2.13661-1.54729,4.63943-.94591,6.49688,0Z"/><path class="uuid-223c336c-7fb7-4741-9896-0f2f0a50f0fc" d="M186.25736,139.85783c-6.64136,1.7782-13.35462,3.05604-19.9904,4.9976-7.77306,2.2743-15.54004,4.79646-22.98896,7.99616-1.51624-.80435-2.22828-.30439-2.99856-.49976v-11.2446c.61793-.87475,1.43858-.67631,2.4988-1.2494,14.55197-.50312,29.38011-.02536,43.72899-1.99904l-.24988,1.99904Z"/><path class="uuid-02ba17a2-f8b4-4462-a8eb-fb3ce64f673f" d="M254.22471,104.87463c19.75784-2.45425,41.5441-2.76828,58.97167-13.49352.02928.1114,1.43611,1.11621,1.49928,1.74916-.0251,4.48103-17.98581,10.48224-21.73956,11.2446-5.03152,1.02188-33.8677,2.98872-37.48199,2.4988-.92335-.12517-1.20404-1.21365-1.2494-1.99904Z"/><path class="uuid-388d3bf6-b199-4aca-8bfe-34e576e06abc" d="M193.254,110.87175c-1.2733,2.41696,2.4528-.59838,2.99856,1.49928h-.49976c-7.05684,1.47948-58.27459,14.051-60.97071,12.494,16.24776-5.52673,33.41749-7.63087,49.97599-11.99424,2.77691-.73175,5.75401-1.13265,8.49592-1.99904Z"/><path class="uuid-18827e9b-8fee-4c4d-a5d3-34da168988dd" d="M273.71535,351.25627c.15395.50107.31863,1.72924.49976,2.4988.00604.30662.11381.9487-.24988.99952-1.70761.23869-27.3711-12.698-31.73475-13.49352-1.42159-1.8206-4.4419-40.99855-4.49784-45.97791-.03593-3.19649.32724-15.05081.99952-16.99184.24698-.71307,6.81707-8.09026,8.49592-8.7458-1.73479,34.89284,23.12887,70.77886,26.48728,81.71075Z"/><path class="uuid-1dfeb93a-a031-4ffc-9cf1-da48897096de" d="M216.24296,276.79204c5.23339,1.56349,18.41431-.40984,22.23932.49976.37137.08831.25458.66274.24988.99952-.67228,1.94102-1.03545,13.79534-.99952,16.99184-4.09328,4.70154-8.4573,9.25114-12.494,13.99328q-7.99616-15.24268-15.99232-30.48535c1.09194-.17414,3.55695-1.74083,6.99664-1.99904Z"/><path class="uuid-735b513a-ca0b-491f-9417-1b5103b659f3" d="M230.73599,250.30477c-1.22725,3.83044,2.70045.43302,4.49784,6.49688-6.16424,6.83131-12.01141,13.9341-18.99088,19.9904-3.43969.25821-5.9047,1.8249-6.99664,1.99904-3.83931.61229-7.49234,2.00252-11.49448,1.49928,2.59604-9.27997-8.88651-18.01149-9.9952-19.9904-1.04534-1.86583-6.42738-20.00254-6.49688-23.48872,5.68851,4.43616,29.73684,15.03276,38.23163,19.49064,2.80685.16337,8.69858-4.31558,11.2446-5.99712Z"/><path class="uuid-49711fb7-b550-48cb-bd7b-0b0f0c7eb0a2" d="M254.72447,230.31437c-.17817.44403-1.47442,5.68904-1.49928,5.99712-5.73699,7.08116-11.89053,13.72915-17.99136,20.49016-1.79738-6.06386-5.72509-2.66644-4.49784-6.49688,8.74772-5.7775,15.84905-13.4912,23.98848-19.9904Z"/><path class="uuid-18827e9b-8fee-4c4d-a5d3-34da168988dd" d="M242.23047,38.40656c-10.41666,6.22977-21.66306,16.83543-38.98127,23.98848-10.46127,4.32088-21.87834,6.50342-32.48439,10.49496,9.32946-13.57337,14.02097-20.42146,26.98704-30.48535,1.2602.93427,6.66507-2.18778,10.24508-2.99856,11.07735-2.50873,22.96254-1.56562,34.23355-.99952Z"/><path class="uuid-9e227dba-d76e-4385-9f0c-31840b4fe663" d="M153.27321,80.3864c-.21251.14361-1.14104-.26943-1.49928.24988-1.54798,6.72675-7.34916,11.97313-7.99616,18.741-.77319.33585-1.98958,1.83446-2.74868,2.4988q-11.8693-5.74724-23.7386-11.49448c.72232-1.3529.95561-1.42061.99952-1.49928,8.68334-2.79039,30.7318-14.36566,34.98319-8.49592Z"/><path class="uuid-947f25f9-2166-4fc3-8508-0267f096ee32" d="M170.7648,209.32446c.53376,2.05873,2.05745.15706,2.99856,2.4988,2.95187,7.34507-1.28573,18.13927,7.4964,24.988.0695,3.48618,5.45154,21.62288,6.49688,23.48872-13.63205,8.02096-63.59224,32.59497-70.96591,37.98175,1.73999-5.70627,13.077-21.52311,13.49352-26.2374.76134-8.6172-10.18749-8.78182-8.49592-11.74436,18.31338,3.32302,15.12437-2.03192,29.9856-18.741,2.60561-2.92959,17.86434-18.78169,18.49112-19.9904,3.0533-5.88825-1.54589-7.67057-3.99808-12.24412,1.33371.10112,3.22826.27556,4.49784,0Z"/><path class="uuid-110cbe0e-882e-44bd-ba0c-0e6f797eaa3e" d="M254.72447,230.31437c-8.13943,6.4992-15.24076,14.2129-23.98848,19.9904-2.54602,1.68153-8.43775,6.16049-11.2446,5.99712-8.49479-4.45788-32.54313-15.05447-38.23163-19.49064-8.78213-6.84873-4.54452-17.64292-7.4964-24.988,28.04787,4.735,55.89048,10.52494,84.20955,13.49352.63919.4379-2.42974,2.95729-3.24844,4.9976Z"/><path class="uuid-4b1aec2f-0ac5-4f68-8d17-e9de720a9d1c" d="M268.21799,211.3235c-1.54793,3.37323-2.44884,7.43481-5.49736,9.9952-7.57198-6.00121-57.18777-19.63255-70.46615-23.98848.11086-3.32178,3.34141-5.05135,6.74676-4.49784l-.24988-.99952c23.5403,5.24932,46.71114,11.40565,69.46663,19.49064Z"/><path class="uuid-f4dd3f93-70ce-4e71-b986-412460e5b0e3" d="M162.26889,184.33646c.66791,2.00545,6.08533,4.90461,8.49592,5.99712.96171,4.50627-.89692,15.53139,0,18.99088-1.26958.27556-3.16413.10112-4.49784,0-8.99052-.68162-18.08396-1.2469-26.98704-2.74868l8.99568-23.23884c7.40205-1.07419,7.73385.00871,13.99328.99952Z"/><path class="uuid-9e8a008e-161c-41ec-9b72-520a283f032c" d="M198.75136,191.83286l.24988.99952c-3.40535-.55351-6.6359,1.17606-6.74676,4.49784-6.19379-2.03185-16.29294-4.64142-21.48968-6.99664-2.41059-1.09251-7.82801-3.99167-8.49592-5.99712,10.80173,1.70981,25.50205,5.04784,36.48247,7.4964Z"/><path class="uuid-f91fb1ad-904d-484f-86d0-2c218a85ba32" d="M148.27561,183.33694l-8.99568,23.23884c8.90307,1.50178,17.99651,2.06706,26.98704,2.74868,2.45219,4.57355,7.05138,6.35586,3.99808,12.24412-.62677,1.20871-15.88551,17.0608-18.49112,19.9904-14.86122,16.70908-11.67222,22.06402-29.9856,18.741-9.16755-1.66348-25.78891-10.85562-27.73668-9.9952-.57121.25232.45259.53283.24988,1.49928-1.99074-1.01328-.63359-1.64316-3.49832-.99952-1.03977.23362-3.11793,1.66259-3.99808,2.4988-.00223-.06244-.42219.03898-.99952-.74964.67172-2.31246,3.32058-8.84853,3.49832-9.9952.68087-4.39251-1.78825-5.38651,0-6.247.83827.39001,3.77831,1.95838,3.99808,1.99904,1.42957.26449,5.71292.2892,6.49688-.99952,1.64693.25275,2.92923-.1121,4.49784-.49976,4.09551-1.01215,4.65853-2.43465,6.99664-5.49736.05086-.06662.86496.26943,1.49928-.74964,3.80127-6.10699,4.29242-18.62563,5.49736-25.73764.75899-4.47983,2.13087-12.32895,3.99808-15.49256,8.82193,1.694,17.22506-4.72551,25.98752-5.99712Z"/><path class="uuid-319713e8-9fe6-4582-9e5d-e38475273b4b" d="M116.29097,265.29757c-7.02848,5.43568-9.62111,9.86364-11.49448,11.49448-2.32836,2.02695-6.15673,4.83847-8.99568,4.9976-2.76848-1.68712-4.85646-4.13086-6.99664-6.49688,1.03763-3.31542,2.61788-5.21335,4.49784-7.99616,3.0991.37519,7.77396-3.9059,9.24556-6.49688q6.8717,2.24892,13.7434,4.49784Z"/><path class="uuid-7737646c-a9e9-4e54-98b5-a00ca278f016" d="M94.30154,251.80405c4.03121,2.05187,7.3045,5.1891,12.24412,6.99664,14.61372,5.34759,17.667.3704,9.74532,6.49688q-6.8717-2.24892-13.7434-4.49784c-1.4716,2.59098-6.14646,6.87206-9.24556,6.49688-2.6283-.31821-11.94462-8.9559-6.49688-13.49352.95079,11.0621,4.12849,14.06917,12.99376,5.74724-.00084-.68241-9.38824-5.83375-8.99568-8.7458,2.86473-.64364,1.50758-.01376,3.49832.99952Z"/><path class="uuid-319713e8-9fe6-4582-9e5d-e38475273b4b" d="M86.80514,253.80309c-.01414-.16456.00592-.33382,0-.49976.88015-.83621,2.95831-2.26518,3.99808-2.4988-.39256,2.91205,8.99484,8.06339,8.99568,8.7458-8.86526,8.32193-12.04297,5.31486-12.99376-5.74724Z"/><path class="uuid-8a8c7a56-2992-4f51-81d8-e57b73949a2f" d="M88.30442,204.32686c-3.58983,4.91674-8.10412,9.51462-11.49448,14.49304,2.6059-5.58692,7.44924-9.64078,10.99472-14.49304h.49976Z"/><path class="uuid-0be4a7ef-0f4c-4735-a8e6-bf9ed1d71799" d="M200.25064,357.75315c-.40331,2.01197-1.66351,4.64413-.49976,4.9976-.91341.88312-1.105,2.50441-2.4988,2.99856-7.0908-21.69569-13.34691-43.76706-21.73956-64.96879-17.20929,4.319-63.60757,24.74852-74.21435,2.4988-.2389-.50113-2.00032-4.2224-1.2494-4.49784,1.06801,1.28976,2.00932,2.86215,3.24844,3.99808.91585.83959,1.94754,1.84335,2.99856,2.4988,1.43384.89419,2.37551.94562,2.4988.99952,18.04396,7.88732,46.6211-6.01335,63.96927-13.49352,4.69291.43156,16.22261-5.40262,21.2398-8.49592.49242,13.43602-.18561,61.84602,3.7482,72.21531.61171,1.61238,1.02966,1.77481,2.4988,1.2494Z"/><path class="uuid-223c336c-7fb7-4741-9896-0f2f0a50f0fc" d="M227.23767,356.25387c5.92879.49579,12.07513,1.2699,17.99136,1.99904-10.71595,6.07826-20.99461,12.76749-30.98511,19.9904-3.99582.92186-7.56158,3.21001-11.74436,3.49832-.87858-.27636-4.5575-13.88118-5.24748-15.99232,1.3938-.49415,1.58539-2.11544,2.4988-2.99856,2.83915-2.74508,6.39912-5.20206,9.24556-7.99616,6.07414.56351,12.16438.9911,18.24124,1.49928Z"/><path class="uuid-223c336c-7fb7-4741-9896-0f2f0a50f0fc" d="M184.75808,112.87079c-16.5585,4.36337-33.72823,6.4675-49.97599,11.99424-5.0542-2.91879-.08407-9.91925,13.99328-13.49352.82799-.21023,1.20322-.43512,1.49928-.49976,1.93828-.42314,4.0275-.70143,5.99712-.99952,3.35267-.50742,22.0821-2.09311,24.23836-1.49928l4.24796,4.49784Z"/><path class="uuid-538890f4-6350-4137-9630-271a90b751f5" d="M140.27945,152.35182c.77028.19537,1.48232-.30459,2.99856.49976.40703.21593,5.65151,5.80141,5.99712,6.99664-8.30733-2.20524-16.96197-2.54097-25.48776-1.49928-4.24148.51823-8.31214,1.15518-11.99424,3.49832-.12355-.29519-3.68576-3.23157-3.99808-4.9976.18555-.27922-1.06672-.65612.24988-1.49928,6.55676-4.19902,24.66463-4.91851,32.23451-2.99856Z"/><path class="uuid-0ac890a6-a567-471a-9691-7ae23ce17271" d="M118.29001,204.82662c-1.20494,7.112-1.69608,19.63065-5.49736,25.73764-.63432,1.01907-1.44842.68302-1.49928.74964.44394-4.31226-3.5079-8.81885-7.4964-10.49496q2.24892-13.1187,4.49784-26.2374l9.9952,10.24508Z"/><path class="uuid-0ac890a6-a567-471a-9691-7ae23ce17271" d="M123.78737,158.34894c5.33601,4.31276,13.8536,6.71533,16.49208,13.49352-8.29829-.96244-18.72247-2.92163-25.98752,1.99904-.24745-.77532-.58573-.31343-.99952-.74964-.47046-2.64765-.85492-9.70512-1.49928-11.2446,3.6821-2.34314,7.75276-2.98009,11.99424-3.49832Z"/><path class="uuid-18827e9b-8fee-4c4d-a5d3-34da168988dd" d="M236.23335,87.38304l.74964-1.49928c-27.26068,6.46877-54.51661,13.80623-80.71123,23.98848-1.96962.29809-4.05884.57638-5.99712.99952-2.66994-2.9331-1.48154-3.09942-1.49928-3.49832-.00856-.19244.04251-.41216,0-.49976,38.82302-11.18304,77.68369-23.52392,116.94382-32.23451-9.72326,4.29535-20.04295,7.76894-29.48584,12.74388Z"/><path class="uuid-c3c5daab-7fd1-4730-bca3-58093eb59a63" d="M148.77537,106.87367c.04251.0876-.00856.30732,0,.49976-2.20184-.04786-1.51083-.05158-.49976-.99952-.05413.61602.48434.46796.49976.49976Z"/><path class="uuid-1dfeb93a-a031-4ffc-9cf1-da48897096de" d="M242.23047,341.26107c4.36366.79552,30.02714,13.7322,31.73475,13.49352.36369-.05082.25592-.6929.24988-.99952.64986,2.76131,1.24626,6.16995.49976,8.99568-9.77619-2.00383-19.59178-3.27845-29.48584-4.49784-5.91623-.72914-12.06256-1.50325-17.99136-1.99904l14.9928-14.9928Z"/><path class="uuid-efec60f4-d8bf-4afc-8d44-2a1964d04693" d="M321.6923,129.86263c.08925,1.97595.50141,3.91947.49976,5.99712-13.39707-.47337-9.86416,7.03376-17.4916,24.23836-8.70511,19.6354-32.5903,54.60271-35.48295,69.71651-2.55239-3.01308-3.06112-5.77289-6.49688-8.49592,3.04852-2.56038,3.94943-6.62197,5.49736-9.9952.53225-1.15984,4.65118-8.27859,4.49784-8.7458l-.74964-.74964c-17.18861-3.21733-34.46641-6.4268-51.47527-10.49496-17.97147-4.2984-35.73904-10.38823-53.72419-14.49304l-17.4916-16.99184c-.34561-1.19523-5.59009-6.78071-5.99712-6.99664,7.44892-3.1997,15.2159-5.72186,22.98896-7.99616,51.7828-5.56029,103.404-11.98135,155.42533-14.9928Z"/><path class="uuid-0be4a7ef-0f4c-4735-a8e6-bf9ed1d71799" d="M278.71295,188.8343c-.47624.79312-.78905,1.69529-1.2494,2.4988-1.29698.52918-21.73001-8.80443-24.988-9.9952-10.92953-3.99466-22.36435-6.88346-33.23403-10.99472,9.91223-2.96778,48.08307-18.11799,52.22491-18.99088,18.49801-3.89847,11.9152,16.81315,9.24556,26.73716-1.54787,5.75401-4.768,9.70876-1.99904,10.74484Z"/><path class="uuid-1dfeb93a-a031-4ffc-9cf1-da48897096de" d="M278.71295,188.8343c-2.76896-1.03608.45117-4.99083,1.99904-10.74484,2.66965-9.924,9.25245-30.63563-9.24556-26.73716-4.14184.87289-42.31268,16.02309-52.22491,18.99088-6.64137-2.51198-17.21002-5.5874-14.24316-8.99568q43.72899-11.49448,87.45799-22.98896c-1.09557,13.84752-6.81704,38.94096-13.7434,50.47575Z"/><path class="uuid-947f25f9-2166-4fc3-8508-0267f096ee32" d="M149.27513,159.84822l17.4916,16.99184c-7.84061-1.78948-18.6725-4.09124-26.48728-4.9976-2.63847-6.77819-11.15606-9.18075-16.49208-13.49352,8.52578-1.04169,17.18042-.70596,25.48776,1.49928Z"/><path class="uuid-223c336c-7fb7-4741-9896-0f2f0a50f0fc" d="M236.23335,87.38304c-14.75509,7.77366-26.47666,18.27416-42.97935,23.48872-2.74191.86639-5.71901,1.26729-8.49592,1.99904l-4.24796-4.49784c-2.15625-.59383-20.88569.99186-24.23836,1.49928,26.19462-10.18224,53.45055-17.51971,80.71123-23.98848l-.74964,1.49928Z"/><path class="uuid-4b1aec2f-0ac5-4f68-8d17-e9de720a9d1c" d="M242.23047,341.26107l-14.9928,14.9928c-6.07685-.50818-12.1671-.93577-18.24124-1.49928-2.84644,2.7941-6.40641,5.25108-9.24556,7.99616-1.16375-.35347.09645-2.98563.49976-4.9976,1.48348-7.40025,2.22241-17.18724,5.49736-23.7386,2.19246-4.38589,15.40858-19.94269,19.49064-24.73812,4.0367-4.74214,8.40072-9.29174,12.494-13.99328.05594,4.97936,3.07625,44.15731,4.49784,45.97791Z"/><path class="uuid-947f25f9-2166-4fc3-8508-0267f096ee32" d="M187.75664,260.29997c1.10869,1.97891,12.59124,10.71043,9.9952,19.9904-8.46052,3.78618-16.48816,8.82904-24.988,12.494-17.34817,7.48017-45.92531,21.38084-63.96927,13.49352,2.58557-2.62819,5.00329-5.80974,7.99616-7.99616,7.37367-5.38679,57.33386-29.9608,70.96591-37.98175Z"/><path class="uuid-388d3bf6-b199-4aca-8bfe-34e576e06abc" d="M209.24632,278.79108q7.99616,15.24268,15.99232,30.48535c-4.08205,4.79543-17.29818,20.35222-19.49064,24.73812-3.27495,6.55136-4.01388,16.33834-5.49736,23.7386-1.46914.52541-1.88709.36298-2.4988-1.2494-3.93381-10.36929-3.25578-58.77929-3.7482-72.21531-5.01718,3.0933-16.54689,8.92747-21.2398,8.49592,8.49984-3.66496,16.52748-8.70782,24.988-12.494,4.00214.50324,7.65517-.88699,11.49448-1.49928Z"/><path class="uuid-947f25f9-2166-4fc3-8508-0267f096ee32" d="M121.78833,260.29997c-1.69157,2.96254,9.25726,3.12716,8.49592,11.74436-.41652,4.71429-11.75352,20.53112-13.49352,26.2374-2.99287,2.18642-5.41059,5.36797-7.99616,7.99616-.12329-.0539-1.06496-.10533-2.4988-.99952-.16577-7.34416.13824-14.56862,2.99856-21.48968,2.3296-.79283,4.49962-3.87765,4.9976-6.247l-9.49544-.74964c1.87337-1.63084,4.46599-6.0588,11.49448-11.49448,7.92169-6.12648,4.8684-1.14929-9.74532-6.49688-4.93961-1.80754-8.21291-4.94477-12.24412-6.99664.20271-.96645-.82109-1.24696-.24988-1.49928,1.94776-.86043,18.56913,8.33172,27.73668,9.9952Z"/><path class="uuid-26f3c3cd-5b38-4cc1-9cfd-a887b6dce06b" d="M109.29433,283.78868c-1.66546.56681-6.21398.72698-7.99616.49976-2.2985-.29307-3.62303-1.35659-5.49736-2.4988,2.83895-.15913,6.66731-2.97065,8.99568-4.9976l9.49544.74964c-.49798,2.36935-2.668,5.45417-4.9976,6.247Z"/><path class="uuid-ff3f91b0-7c35-4bbc-8b08-6212f822cdd3" d="M103.79697,220.81893c3.9885,1.67611,7.94034,6.1827,7.4964,10.49496-2.33811,3.06271-2.90113,4.48521-6.99664,5.49736.31564-2.71473-5.7775-7.34495-7.99616-8.49592q3.7482-3.7482,7.4964-7.4964Z"/><path class="uuid-388d3bf6-b199-4aca-8bfe-34e576e06abc" d="M91.80274,226.81605c1.29062.37836,3.38311.92097,4.49784,1.49928,2.21866,1.15097,8.3118,5.78119,7.99616,8.49592-1.56861.38766-2.85091.75251-4.49784.49976-3.76333-.57757-13.53026-8.50778-6.49688.99952-.21977-.04066-3.15981-1.60903-3.99808-1.99904-.49012-.22804-7.72891-5.05583-8.99568-5.99712-.75698-7.5758,6.89744-4.84594,11.49448-3.49832Z"/><path class="uuid-947f25f9-2166-4fc3-8508-0267f096ee32" d="M99.7989,237.31101c-.78396,1.28872-5.06731,1.26401-6.49688.99952-7.03338-9.5073,2.73355-1.57709,6.49688-.99952Z"/><path class="uuid-fa2feb2f-3957-4708-9e67-16e81624e26a" d="M82.05742,226.31629c1.04059-.53222,2.87155,1.52353,2.74868,1.74916-.55238,1.01431-4.05652-1.08026-2.74868-1.74916Z"/><path class="uuid-0ac890a6-a567-471a-9691-7ae23ce17271" d="M109.29433,283.78868c-2.86032,6.92105-3.16433,14.14552-2.99856,21.48968-1.05102-.65545-2.08271-1.65921-2.99856-2.4988-2.01132-6.10016-2.34214-12.08251-1.99904-18.49112,1.78218.22722,6.3307.06705,7.99616-.49976Z"/><path class="uuid-7af5798e-4398-4619-ad5b-49661ea21d29" d="M140.27945,171.84246c7.81477.90636,18.64667,3.20811,26.48728,4.9976,17.98515,4.10481,35.75272,10.19464,53.72419,14.49304,17.00886,4.06816,34.28666,7.27763,51.47527,10.49496l.74964.74964c.15334.46721-3.96559,7.58596-4.49784,8.7458-22.75549-8.08498-45.92633-14.24131-69.46663-19.49064-10.98043-2.44856-25.68075-5.78659-36.48247-7.4964-6.25943-.99081-6.59122-2.07371-13.99328-.99952-8.76245,1.27161-17.16558,7.69111-25.98752,5.99712-1.48801-6.10162-6.04841-9.38975-7.99616-15.49256,7.26505-4.92067,17.68923-2.96148,25.98752-1.99904Z"/><path class="uuid-02ba17a2-f8b4-4462-a8eb-fb3ce64f673f" d="M122.53797,181.3379c.57257-.13095,11.64547-.32908,11.74436.24988-1.95001.09898-10.66158,3.85456-11.2446,3.7482-.28043-.05115-4.07411-3.18059-.49976-3.99808Z"/></g></svg>