<?xml version="1.0" encoding="UTF-8"?><svg id="uuid-28293543-d598-4664-889c-d0b4010dbcd3" xmlns="http://www.w3.org/2000/svg" xmlns:xlink="http://www.w3.org/1999/xlink" viewBox="0 0 393.74118 435.17708"><defs><style>.uuid-902ec5b9-d5ee-4a45-af32-9532db8e19c0{fill:#68c5b7;}.uuid-902ec5b9-d5ee-4a45-af32-9532db8e19c0,.uuid-d7516162-323b-4083-b619-6bd9998e3f5c,.uuid-5d20e00e-4953-4006-a1cd-c3cd08c92eaf,.uuid-d9bb930d-897b-411f-a970-6b5e7df00d25,.uuid-3e4384d7-0744-4787-8ed5-2a24fbafb9c5,.uuid-44928a9f-dedf-4ae2-9f3e-a6b550beef72,.uuid-7a257811-4738-409c-a404-63a100028e7a,.uuid-efe5e962-5d2c-4249-8f6c-135cab108e13,.uuid-82eb4e5a-0a58-40a7-9c62-f1136af80f7c,.uuid-42e83a49-bd7f-4610-addb-02db0be9dc9b,.uuid-45d68f9a-fe38-478c-bbf0-6c3928168065,.uuid-aff07ad8-61c8-4c42-b5f4-ac059ac1e4e3,.uuid-d7a4d3ec-6b68-4c92-95bf-3917b8f1137e,.uuid-e295f924-352d-41b9-88c0-7b1078773d5a,.uuid-1e337f2a-7378-4747-be26-69778a04147f,.uuid-4943b413-081e-496b-9dd1-69177bf088bd,.uuid-8e513e61-e33b-40a7-a6b3-071fc6bf0910,.uuid-bf138cab-11a1-4755-bec5-b18bd90ee8ca,.uuid-4913119f-dd31-43ea-a3f6-9d9ac99e475a,.uuid-4a4a3378-d93a-46ee-8818-0dce4c51b0a4,.uuid-eca65e3b-3816-47d6-aaba-aabde4690313,.uuid-1398cf3f-b8d9-4e62-bee6-678330a427ce,.uuid-ab8c769f-8285-49d2-b2cb-a0b8cc6263ff,.uuid-90ff51b2-6402-46e7-988c-9bc466244b7c,.uuid-3a0aab46-0a50-4674-b9be-69cc4a38aea3,.uuid-cece263b-86be-4d38-88a3-c9f5c4aaad42,.uuid-3c1c7a38-b780-414a-8877-6b522e5d4518,.uuid-b3862d73-1c58-484b-bfd2-4e36adba3b42,.uuid-12edb63f-f79b-4aa2-9d4e-dbaf583bd734,.uuid-f4d1f261-7061-4a4c-bb61-9b13db527493{stroke-width:0px;}.uuid-d7516162-323b-4083-b619-6bd9998e3f5c{fill:#30634e;}.uuid-5d20e00e-4953-4006-a1cd-c3cd08c92eaf{fill:#6dc6a3;}.uuid-d9bb930d-897b-411f-a970-6b5e7df00d25{fill:#cae8bb;}.uuid-3e4384d7-0744-4787-8ed5-2a24fbafb9c5{fill:#bac07e;}.uuid-44928a9f-dedf-4ae2-9f3e-a6b550beef72{fill:#f7eddb;}.uuid-7a257811-4738-409c-a404-63a100028e7a{fill:#3a805c;}.uuid-efe5e962-5d2c-4249-8f6c-135cab108e13{fill:#d6eae1;}.uuid-82eb4e5a-0a58-40a7-9c62-f1136af80f7c{fill:#fafaf8;}.uuid-42e83a49-bd7f-4610-addb-02db0be9dc9b{fill:#0a0b0a;}.uuid-45d68f9a-fe38-478c-bbf0-6c3928168065{fill:#f9fae3;}.uuid-aff07ad8-61c8-4c42-b5f4-ac059ac1e4e3{fill:#66c1c4;}.uuid-d7a4d3ec-6b68-4c92-95bf-3917b8f1137e{fill:#a2d8c4;}.uuid-e295f924-352d-41b9-88c0-7b1078773d5a{fill:#bfe3cc;}.uuid-1e337f2a-7378-4747-be26-69778a04147f{fill:#86e2ce;}.uuid-4943b413-081e-496b-9dd1-69177bf088bd{fill:#9db080;}.uuid-8e513e61-e33b-40a7-a6b3-071fc6bf0910{fill:#1d3831;}.uuid-bf138cab-11a1-4755-bec5-b18bd90ee8ca{fill:#75c785;}.uuid-4913119f-dd31-43ea-a3f6-9d9ac99e475a{fill:#f7f6b3;}.uuid-4a4a3378-d93a-46ee-8818-0dce4c51b0a4{fill:#246f69;}.uuid-eca65e3b-3816-47d6-aaba-aabde4690313{fill:#969c4f;}.uuid-1398cf3f-b8d9-4e62-bee6-678330a427ce{fill:#284b3d;}.uuid-ab8c769f-8285-49d2-b2cb-a0b8cc6263ff{fill:url(#uuid-d627cbc0-2065-4cf6-a31d-fab8eda8ee52);}.uuid-90ff51b2-6402-46e7-988c-9bc466244b7c{fill:#f4e77d;}.uuid-3a0aab46-0a50-4674-b9be-69cc4a38aea3{fill:#222321;}.uuid-cece263b-86be-4d38-88a3-c9f5c4aaad42{fill:#0c201f;}.uuid-3c1c7a38-b780-414a-8877-6b522e5d4518{fill:#b8cf7f;}.uuid-b3862d73-1c58-484b-bfd2-4e36adba3b42{fill:#3e8a84;}.uuid-12edb63f-f79b-4aa2-9d4e-dbaf583bd734{fill:#57a987;}.uuid-f4d1f261-7061-4a4c-bb61-9b13db527493{fill:#aeccb8;}</style><linearGradient id="uuid-d627cbc0-2065-4cf6-a31d-fab8eda8ee52" x1="277.30833" y1="183.12318" x2="341.65446" y2="187.06807" gradientUnits="userSpaceOnUse"><stop offset="0" stop-color="#f5f0dd"/><stop offset="1" stop-color="#f8f7c0"/></linearGradient></defs><g id="uuid-6cb0b504-fbb5-480e-9c04-36f2aa9cc48a"><path class="uuid-44928a9f-dedf-4ae2-9f3e-a6b550beef72" d="M122.1515,79.85942c3.11121,28.33778,9.05323,56.48436,10.99436,84.9564.17363,2.54673.63389,5.2108.99949,7.74602-1.62345,2.04459-2.38795,1.64427-2.49872,1.7491-5.32249-5.15277-9.26224-11.8703-13.49308-17.99077-1.30332-3.20908,6.24126-11.32064,8.99538-17.24115.38408-7.47669-8.24577-56.56213-6.49667-58.96974.34995-.48171,1.03032-.1885,1.49923-.24987Z"/><path class="uuid-f4d1f261-7061-4a4c-bb61-9b13db527493" d="M334.54251,211.79172c-10.28189,10.18304-27.18643,35.82588-44.47717,28.98513,2.32403-10.20225,33.28614-21.7585,44.47717-28.98513Z"/><path class="uuid-44928a9f-dedf-4ae2-9f3e-a6b550beef72" d="M6.211,158.8189c-5.75893,27.42683-7.61558,60.58632,9.49513,84.70653,9.84155,13.87322,31.51571,25.66432,45.22679,36.23141,26.49232,20.41756,48.85824,45.40578,71.96307,69.46435,1.48877-1.70582,2.13759-3.91459,1.24936-5.99692,6.21083,9.97459,6.61767,12.13736,6.99641,24.7373.38635,12.85299-2.00451,38.90411-2.99846,53.22269-.26341-4.97682-3.75692-21.0639-5.49718-26.23654-13.18458-39.18921-66.99711-71.59131-94.45153-103.44691-11.36829-13.19071-25.10838-32.65786-30.9841-48.97487C-6.40564,204.71364.19167,151.92571,19.20434,116.84045c.51303,2.41075-3.70591,9.40204-5.49718,14.24269-3.35343,9.06217-5.51718,18.31093-7.49615,27.73577Z"/><path class="uuid-42e83a49-bd7f-4610-addb-02db0be9dc9b" d="M125.64971,323.73427c-1.37243.66445,3.09898,3.85157,5.74705,5.49718,15.31076,9.51462,32.32678,10.63642,49.72448,7.49615-.07894.11045.07998.39387,0,.49974-8.03006,10.62879-28.8999,17.22764-32.98307,19.98974-.18454.12484-1.32898-.36611-1.99897.74962.41588,24.51528-.79599,48.98145-1.99897,73.4623,10.1531.44002,20.32676.27247,30.48436.24987.16659-.00037.33316.00046.49974,0,26.14518-.07412,52.31059-.73214,78.45974-.74962-9.16174-17.0453-31.06459-56.19955-20.98923-73.21243-18.81551-4.6473-4.40731-2.55024,7.74602-4.99744,3.30766-.66604,18.1272-5.02272,22.9882-6.49667,6.79412-2.06013,15.02555-6.86861,13.74295-2.99846-10.78127,8.253-12.69368,10.19231-15.49205,24.7373-4.0056,20.81961-2.13657,37.93329-.49974,58.22012.32006,3.96684,1.24762,8.28505.24987,8.99538h-123.43665c-1.68569-.74431.51255-9.03.24987-13.99282.99395-14.31858,3.38481-40.36969,2.99846-53.22269-.37874-12.59995-.78558-14.76272-6.99641-24.7373-4.63953-7.45107-10.65634-13.84379-14.99231-21.48897.80251.44838,5.43759,1.81831,6.49667,1.99897Z"/><path class="uuid-44928a9f-dedf-4ae2-9f3e-a6b550beef72" d="M261.08021,426.18169c-1.63682-20.28683-3.50586-37.40051.49974-58.22012,2.79837-14.545,4.71078-16.48431,15.49205-24.7373,6.19589-4.74293,13.13126-8.61432,19.24013-13.49308,15.06173-12.02889,35.3855-33.3605,46.72602-48.97487,11.8202-16.27479,27.60266-47.16263,35.98153-65.96615,3.33279-7.47932,7.28667-14.96395,8.99538-22.9882,3.97776-11.77926,2.47657-24.30767,2.99846-36.48128,7.89198,37.39332-1.91799,78.61993-21.98872,110.69319-32.38615,51.7535-90.62564,79.35597-103.94666,127.93435-3.24916,11.84881-2.30247,20.9978-3.99795,32.23346Z"/><path class="uuid-42e83a49-bd7f-4610-addb-02db0be9dc9b" d="M191.61586,17.39148c-3.47182,19.12868-1.15209,41.10018-1.49923,60.96871-.44751,25.61318-.22356,51.26071-3.4982,76.71063,10.97821-.47466,22.02919-2.80695,32.98307-3.24833,1.83457-.07392,7.12113-.52131,7.49615-.49974,3.91077.22483,8.10738,1.00688,10.49461,4.49769.43474,3.5571,7.94551,9.52098,10.99436,7.49615.60775,2.04258,1.99339,1.76861,2.49872,1.99897,10.17831,4.64,20.53774,8.89334,30.73423,13.49308.55276-.41082.8625-.94878,1.24936-1.49923,5.45625,1.90106,10.11914,5.42085,15.49205,7.49615-.26128,2.2445-1.14529,4.21154-2.49872,5.99692-7.09011-1.0212-15.96803-1.89928-22.48846-4.99744-2.81487-1.33748-19.08139-13.52608-28.23551-16.99128-.59592.01292-3.13694,2.38594-3.74808,2.99846-7.22316-1.26304-14.35881-2.781-21.48897-4.49769-5.34714-1.28741-34.16411-8.93899-36.48128-10.99436,3.98085-32.82039,3.3421-65.95507,3.99795-98.94922.14769-7.42966-.69456-14.43664,0-21.98872.61602-6.69813,2.65306-18.27754,4.99744-24.48743-.09323,2.18437-.61065,4.35432-.99949,6.49667Z"/><path class="uuid-44928a9f-dedf-4ae2-9f3e-a6b550beef72" d="M261.08021,144.32634c-1.50707,2.63096-11.41949,18.27691-12.49359,18.99025-3.04885,2.02482-10.55961-3.93905-10.99436-7.49615l-1.49923-35.48179c5.46158,13.54182,9.71596,20.94913,24.98718,23.98769Z"/><path class="uuid-82eb4e5a-0a58-40a7-9c62-f1136af80f7c" d="M187.61791,57.37096c-.65585,32.99415-.0171,66.12883-3.99795,98.94922l-.99949-.99949-6.49667-21.2391c-.06303-1.90611.90981-3.2081.99949-3.74808.90794-5.46669,3.1381-11.46863,3.99795-17.24115,1.03554-6.95195.93167-14.23693,1.49923-21.2391.84626.13785,3.17193-.11659,3.4982-.74962.91483-1.77493-.23578-31.37067.49974-33.48282.13349-.38333.65228-.25202.99949-.24987Z"/><path class="uuid-efe5e962-5d2c-4249-8f6c-135cab108e13" d="M187.61791,35.38225c-.69456,7.55207.14769,14.55906,0,21.98872-.3472-.00215-.866-.13345-.99949.24987-.73552,2.11214.41509,31.70789-.49974,33.48282-.32628.63303-2.65194.88747-3.4982.74962.87987-10.85522.4027-34.10579,3.99795-35.23192.46296-5.1288-.62784-18.34868,0-20.98923.08829-.37135.66272-.25455.99949-.24987Z"/><path class="uuid-cece263b-86be-4d38-88a3-c9f5c4aaad42" d="M58.18433,114.34173c5.53622,10.60248,11.25314,21.23771,16.49154,31.98359,8.80665,18.06566,16.41661,36.76873,25.48692,54.72192.61841.52869,1.41549-1.19929,1.49923-1.24936,4.27761-2.55772,19.45724-16.52393,24.48743-20.98923,1.763-1.56501,3.79648-2.88806,5.49718-4.49769.11077-.10484.87527.29549,2.49872-1.7491-.3656-2.53523-.82585-5.1993-.99949-7.74602,1.66478.93135,1.47893,10.61877,2.49872,5.24731.2146-1.13031-.75947-19.95322-.99949-22.9882-.2156-2.72625-2.41051-8.79869-.49974-10.24474,1.21838,11.81927,2.14473,23.59365,2.24885,35.48179,10.27477-4.75459,20.22886-10.23015,30.73423-14.49256,2.91193-1.18148,5.75085-2.84467,8.99538-2.99846.16849.31743.3277.68513.49974.99949,1.49121,2.72468,3.74141,5.1808,5.49718,7.74602-18.28918,14.96337-28.25311,16.43717-51.72346,15.74192-1.49513.5895-7.93961,23.34221-8.74551,26.48641-.10973.42811-1.09398,2.82642-1.99897,2.49872-7.40945-.11026-15.01042,1.59414-21.98872-1.99897-.45121-1.83394-13.7857-28.25061-16.49154-33.98256-13.88667-29.417-21.58572-40.48832-30.9841-72.96256,2.88176,4.87822,5.37554,9.97402,7.9959,14.99231Z"/><path class="uuid-44928a9f-dedf-4ae2-9f3e-a6b550beef72" d="M81.17253,172.31198c2.70584,5.73195,16.04032,32.14862,16.49154,33.98256.06593.26801.48265,4.93628.49974,5.49718.22663,7.43574-1.66289,15.30724-1.99897,22.73833-.43975,9.72313-.29791,19.50525-.49974,29.235-3.76325-18.93785-6.30002-37.87278-8.99538-56.97076-.78048-5.53015-.5376-12.26636-1.49923-17.7409-1.19508-6.80358-4.96372-15.63059-4.99744-16.49154-.01254-.32016.59948-.27365.99949-.24987Z"/><path class="uuid-d9bb930d-897b-411f-a970-6b5e7df00d25" d="M323.04841,282.25556c.64539.77667,1.19433,1.61023,1.99897,2.24885-45.14874,17.33687-85.63446,50.00342-134.93075,55.22166-2.89485-1.19003-5.88852-2.75024-8.99538-2.49872.07998-.10587-.07894-.3893,0-.49974,6.20719-8.68484,8.73298-22.07748,13.49308-31.98359,18.75261-39.02554,50.748-43.83813,56.22115-48.47512.76319-.64658.8772-.97945.74962-1.99897,4.39774,4.21073,9.02396,8.15094,13.74295,11.99384,2.2759.51051,17.52833-5.99467,20.73936-7.49615,3.42915-1.60346,6.72903-3.70589,9.745-5.99692,8.35362,10.35208,18.77323,19.30067,27.23602,29.48487Z"/><path class="uuid-90ff51b2-6402-46e7-988c-9bc466244b7c" d="M190.11662,339.72606c7.03155,2.89058,12.75346,7.24097,18.49051,9.99487-14.04353,7.66498-20.80414,22.21388-27.48589,35.98153-.63734-7.84555-5.69565-23.18543-13.74295-26.48641-1.89871-.77884-3.34839-.71246-5.24731-.99949-4.55655-.6887-9.46633.03093-13.99282-.99949,4.08317-2.7621,24.95301-9.36095,32.98307-19.98974,3.10687-.25152,6.10054,1.30869,8.99538,2.49872Z"/><path class="uuid-1398cf3f-b8d9-4e62-bee6-678330a427ce" d="M181.12124,336.7276c-17.3977,3.14026-34.41372,2.01846-49.72448-7.49615-2.64807-1.64561-7.11948-4.83272-5.74705-5.49718,9.62789,1.64225,26.8448-.43084,36.48128-2.99846,11.65816-3.10629,22.51521-9.33502,32.48333-15.99179-4.7601,9.90611-7.28589,23.29874-13.49308,31.98359Z"/><path class="uuid-4943b413-081e-496b-9dd1-69177bf088bd" d="M232.59483,357.71683c-10.07537,17.01288,11.82749,56.16713,20.98923,73.21243-26.14915.01748-52.31455.6755-78.45974.74962,1.21041-11.49248,6.76633-36.50504,5.99692-45.97641,6.68175-13.76765,13.44237-28.31655,27.48589-35.98153,7.57381,3.63559,15.36293,7.73193,23.98769,7.9959Z"/><path class="uuid-1e337f2a-7378-4747-be26-69778a04147f" d="M148.13817,357.21709c4.52649,1.03042,9.43627.31078,13.99282.99949,9.49694,17.4852,13.40811,37.3946,12.99333,57.22063-.12793,6.11496-3.29273,13.75048-.49974,16.24166-10.1576.0226-20.33126.19015-30.48436-.24987,1.20298-24.48084,2.41485-48.94702,1.99897-73.4623.66999-1.11573,1.81444-.62477,1.99897-.74962Z"/><path class="uuid-1e337f2a-7378-4747-be26-69778a04147f" d="M181.12124,385.70247c.76941,9.47137-4.78651,34.48392-5.99692,45.97641-.16659.00046-.33316-.00037-.49974,0-2.79298-2.49118.37182-10.1267.49974-16.24166.41478-19.82604-3.49639-39.73544-12.99333-57.22063,1.89891.28702,3.34859.22065,5.24731.99949,8.04729,3.30098,13.10561,18.64085,13.74295,26.48641Z"/><path class="uuid-ab8c769f-8285-49d2-b2cb-a0b8cc6263ff" d="M317.55123,146.32531c-2.85333,11.70594-14.04751,47.79408-19.49,57.22063-4.68055,8.10685-27.80128,29.39525-7.9959,37.23089,17.29075,6.84076,34.19528-18.80209,44.47717-28.98513.08376-.08293-.30322-.83173,1.24936-1.99897,9.32145-5.35667,17.48691-12.54293,26.73628-17.99077-17.0406,21.37793-27.38011,47.13771-44.47717,68.46486-5.35229-4.70593-10.64145-9.51209-15.74192-14.49256l-10.74449,5.99692c-6.73806-4.18566-25.13658-29.23979-25.48692-31.23397-.0108-.06152.69868-.81744.99949-.74962,18.09319-6.63252,25.53563-17.60464,32.48333-34.4823,7.06022-17.15106,18.81612-55.62302,22.9882-73.96204,1.71436-.13587,1.41038.02452,1.49923,1.24936.1243,1.71313-5.54196,29.81594-6.49667,33.73269Z"/><path class="uuid-e295f924-352d-41b9-88c0-7b1078773d5a" d="M376.52096,185.80505l1.99897,10.49461c-13.48545,11.79691-38.72945,58.92935-44.47717,77.95999-2.84135-2.26309-5.74601-4.62736-8.49564-6.99641-2.55701-2.20309-4.94357-4.75208-7.49615-6.99641,17.09706-21.32716,27.43657-47.08693,44.47717-68.46486,4.37812-2.57871,8.70214-5.82347,13.99282-5.99692Z"/><path class="uuid-aff07ad8-61c8-4c42-b5f4-ac059ac1e4e3" d="M388.01506,191.80198c-1.70872,8.02425-5.66259,15.50889-8.99538,22.9882q.99949-10.11981,1.99897-20.23961c-.12341-.46038-1.29188.69339-2.49872,1.7491l-1.99897-10.49461c5.25948-.17243,8.42661,1.87131,11.4941,5.99692Z"/><path class="uuid-1398cf3f-b8d9-4e62-bee6-678330a427ce" d="M379.01968,214.79018c-8.37888,18.80352-24.16134,49.69136-35.98153,65.96615-3.15149-1.94868-6.09971-4.19032-8.99538-6.49667,5.74772-19.03064,30.99172-66.16308,44.47717-77.95999,1.20684-1.05572,2.37531-2.20948,2.49872-1.7491q-.99949,10.11981-1.99897,20.23961Z"/><path class="uuid-cece263b-86be-4d38-88a3-c9f5c4aaad42" d="M267.07713,219.78761c-.30081-.06782-1.01028.68809-.99949.74962.35035,1.99419,18.74886,27.04831,25.48692,31.23397,1.44722.89901,2.59489.04743,2.49872,1.24936-.04682.81251-8.23409,3.68543-7.9959,5.74705-3.21103,1.50149-18.46346,8.00666-20.73936,7.49615-4.71898-3.84291-9.34521-7.78312-13.74295-11.99384-9.09927-8.71236-16.75041-18.92602-25.48692-27.98564.03102-.01693-.17191-.13351.49974-.49974.13823.4729,1.57829,1.96631,1.7491,1.99897,2.32165.44414,34.83128-6.56667,38.73012-7.9959Z"/><path class="uuid-8e513e61-e33b-40a7-a6b3-071fc6bf0910" d="M299.56046,185.30531c-6.9477,16.87766-14.39014,27.84978-32.48333,34.4823-3.89885,1.42923-36.40847,8.44004-38.73012,7.9959-.17081-.03267-1.61087-1.52607-1.7491-1.99897,7.2967-3.97852,14.22994-8.83044,21.73884-12.49359,9.90879-4.8339,42.47372-15.56057,47.72551-22.48846,1.35343-1.78538,2.23744-3.75242,2.49872-5.99692.40879.15789.59765.44974.99949.49974Z"/><path class="uuid-cece263b-86be-4d38-88a3-c9f5c4aaad42" d="M325.54712,267.26325c2.74963,2.36905,5.65429,4.73332,8.49564,6.99641,2.89567,2.30634,5.84389,4.54799,8.99538,6.49667-11.34052,15.61436-31.66429,36.94597-46.72602,48.97487-6.10886,4.87875-13.04424,8.75015-19.24013,13.49308,1.28261-3.87015-6.94883.93833-13.74295,2.99846-4.861,1.47394-19.68054,5.83063-22.9882,6.49667-12.15334,2.4472-26.56153.35013-7.74602,4.99744-8.62475-.26396-16.41388-4.36031-23.98769-7.9959-5.73705-2.7539-11.45896-7.10429-18.49051-9.99487,49.2963-5.21824,89.78202-37.88479,134.93075-55.22166-.80464-.63862-1.35358-1.47218-1.99897-2.24885l-2.99846-4.24782c1.29215-1.11369.35385-10.15418,3.24833-10.74449.5261-.10731,1.73937,2.01017,2.24885,0Z"/><path class="uuid-42e83a49-bd7f-4610-addb-02db0be9dc9b" d="M318.05097,260.26684c2.55258,2.24433,4.93915,4.79332,7.49615,6.99641-.50947,2.01017-1.72275-.10731-2.24885,0-2.89448.5903-1.95618,9.6308-3.24833,10.74449l2.99846,4.24782c-8.46279-10.1842-18.8824-19.13279-27.23602-29.48487-3.01597,2.29103-6.31585,4.39347-9.745,5.99692-.23819-2.06163,7.94908-4.93454,7.9959-5.74705.09617-1.20193-1.05149-.35035-2.49872-1.24936l10.74449-5.99692c5.10047,4.98048,10.38963,9.78663,15.74192,14.49256Z"/><path class="uuid-1398cf3f-b8d9-4e62-bee6-678330a427ce" d="M322.54866,111.34327c-4.17208,18.33902-15.92798,56.81098-22.9882,73.96204-.40183-.05001-.5907-.34185-.99949-.49974-5.37291-2.07531-10.0358-5.59509-15.49205-7.49615,1.61282-2.29489,18.28054-45.91821,20.48948-52.2232,7.3542-20.9911,12.9581-42.61819,19.98974-63.7173,2.57589,11.09097,2.25647.64389,3.99795-8.99538.10154-2.66514,1.93709,3.27399,1.99897,3.74808,1.66885,12.78272-3.90016,41.6116-6.99641,55.22166Z"/><path class="uuid-3a0aab46-0a50-4674-b9be-69cc4a38aea3" d="M268.07662,136.83019c-3.26422,5.05731-5.73146,10.67886-8.99538,15.74192-2.88893,4.48139-9.26179,10.73511-7.9959,12.74346-.50533-.23037-1.89097.0436-2.49872-1.99897,1.07409-.71335,10.98652-16.3593,12.49359-18.99025,6.61623-11.55032,12.19125-24.27984,17.49102-36.48128q-5.24731,14.49256-10.49461,28.98513Z"/><path class="uuid-4913119f-dd31-43ea-a3f6-9d9ac99e475a" d="M327.5461,52.37353c-1.74148,9.63927-1.42206,20.08636-3.99795,8.99538-1.18338-5.09525-1.00062-8.89338-4.49769-5.74705-4.62864,4.1644-37.40957,61.73966-44.47717,72.96256-3.71303,5.89605-6.21202,7.80477-6.49667,8.24577q5.24731-14.49256,10.49461-28.98513c5.08241-11.70109,18.46089-49.98821,24.48743-56.97076.28635-.33179,4.9518-4.31854,5.24731-4.49769,4.15961-2.52192,7.70625-2.24733,7.24628-3.4982,6.02767.31245,9.01375,4.89474,11.99384,9.49513Z"/><path class="uuid-45d68f9a-fe38-478c-bbf0-6c3928168065" d="M315.55225,42.8784c.45997,1.25088-3.08667.97628-7.24628,3.4982-.2955.17915-4.96096,4.1659-5.24731,4.49769,1.88154-4.91532,7.09624-8.27568,12.49359-7.9959Z"/><path class="uuid-d9bb930d-897b-411f-a970-6b5e7df00d25" d="M323.54815,61.36891c-7.03164,21.09911-12.63554,42.7262-19.98974,63.7173-2.20895,6.30499-18.87667,49.92831-20.48948,52.2232-.38686.55045-.6966,1.08842-1.24936,1.49923-10.19649-4.59974-20.55592-8.85308-30.73423-13.49308-1.26589-2.00835,5.10697-8.26207,7.9959-12.74346,3.26392-5.06306,5.73116-10.68461,8.99538-15.74192.28464-.441,2.78364-2.34972,6.49667-8.24577,7.0676-11.22289,39.84854-68.79815,44.47717-72.96256,3.49708-3.14633,3.31431.6518,4.49769,5.74705Z"/><path class="uuid-90ff51b2-6402-46e7-988c-9bc466244b7c" d="M182.62047,155.3207l.99949.99949c2.31717,2.05537,31.13414,9.70695,36.48128,10.99436-1.21135,2.27386-2.88255,5.03178-4.49769,6.99641-2.39248,2.91019-18.85528,21.01415-20.98923,22.9882-16.03994,14.83807-41.90562,25.70699-60.46897,37.98051,10.91139-14.28765,18.59164-31.07262,28.98513-45.72653-5.6304,2.19808-38.40462,17.64311-41.22884,17.24115-.36404-.05181-.25577-.6927-.24987-.99949.80591-3.1442,7.25038-25.89691,8.74551-26.48641,23.47035.69525,33.43427-.77855,51.72346-15.74192-1.75577-2.56523-4.00597-5.02135-5.49718-7.74602l5.99692-.49974Z"/><path class="uuid-90ff51b2-6402-46e7-988c-9bc466244b7c" d="M273.5738,185.80505c-17.43829,10.55812-34.37064,22.33397-49.97435,35.48179-4.55985-.08415-27.09056.70707-28.48538.99949,3.64504-5.20561-8.00122,1.36661-12.99333.49974.31717-.2424,3.2658-3.20867,3.99795-3.99795,19.03345-12.30866,32.05957-21.35701,47.97538-37.73064,2.67005-2.74684,4.88025-6.62348,7.49615-9.24526.61114-.61252,3.15216-2.98554,3.74808-2.99846,9.15412,3.4652,25.42064,15.6538,28.23551,16.99128Z"/><path class="uuid-d7516162-323b-4083-b619-6bd9998e3f5c" d="M296.06225,190.80249c-5.25179,6.92789-37.81671,17.65456-47.72551,22.48846-7.5089,3.66314-14.44214,8.51507-21.73884,12.49359-.67165.36624-.46872.48281-.49974.49974-5.16498,2.81624-10.57737,5.21565-15.99179,7.49615v-.49974c2.34401-2.32501,10.58572-9.54408,13.49308-11.99384,15.60372-13.14782,32.53607-24.92367,49.97435-35.48179,6.52043,3.09816,15.39835,3.97623,22.48846,4.99744Z"/><path class="uuid-d7516162-323b-4083-b619-6bd9998e3f5c" d="M223.0997,28.38584c3.03397,9.24675,5.07061,19.35003,6.49667,28.98513-.58576.37308-1.44494.56079-1.49923.74962-.48336,1.68117.68794,29.52628.49974,34.98205-.66778,19.35889-3.76043,38.74005-1.49923,58.22012-.37502-.02156-5.66158.42582-7.49615.49974-4.8994-44.13848-6.6048-88.5466-6.49667-132.93178h.49974c.38149,1.18485,7.85781,7.95399,9.49513,9.49513Z"/><path class="uuid-aff07ad8-61c8-4c42-b5f4-ac059ac1e4e3" d="M236.09303,120.33865l1.49923,35.48179c-2.38723-3.49081-6.58384-4.27286-10.49461-4.49769-2.2612-19.48007.83145-38.86124,1.49923-58.22012.1882-5.45576-.98311-33.30087-.49974-34.98205.05429-.18882.91347-.37654,1.49923-.74962,3.08783,20.86269,3.14252,42.12349,6.49667,62.96769Z"/><path class="uuid-4913119f-dd31-43ea-a3f6-9d9ac99e475a" d="M213.10483,5.89738c1.00437,3.5971.15031,11.90807.49974,12.99333h-.49974c-3.06044-3.44234-13.24119-4.30703-16.99128-3.4982-2.96258.63897-2.64949,3.50882-4.49769,1.99897.38884-2.14234.90626-4.3123.99949-6.49667,4.30358-11.39947,13.29246-15.12094,20.48948-4.99744Z"/><path class="uuid-eca65e3b-3816-47d6-aaba-aabde4690313" d="M223.0997,28.38584c-1.63731-1.54113-9.11364-8.31027-9.49513-9.49513-.34943-1.08526.50462-9.39623-.49974-12.99333,2.78132,3.91228,8.32352,17.39461,9.99487,22.48846Z"/><path class="uuid-e295f924-352d-41b9-88c0-7b1078773d5a" d="M213.10483,18.89071c-.10813,44.38518,1.59726,88.7933,6.49667,132.93178-10.95388.44138-22.00487,2.77368-32.98307,3.24833,3.27464-25.44992,3.0507-51.09745,3.4982-76.71063,1.20801.23489,1.56585-.23296,1.99897-1.24936,2.98797-7.0118.64737-49.03383,1.99897-57.97025.1291-.85358,1.37394-2.84586,1.99897-3.74808,3.75009-.80882,13.93084.05587,16.99128,3.4982Z"/><path class="uuid-45d68f9a-fe38-478c-bbf0-6c3928168065" d="M196.11355,15.39251c-.62503.90222-1.86987,2.89449-1.99897,3.74808-1.3516,8.93642.98899,50.95845-1.99897,57.97025-.43313,1.0164-.79096,1.48425-1.99897,1.24936.34714-19.86853-1.97259-41.84003,1.49923-60.96871,1.8482,1.50985,1.53512-1.36,4.49769-1.99897Z"/><path class="uuid-aff07ad8-61c8-4c42-b5f4-ac059ac1e4e3" d="M177.12329,130.33352c-.08968.53998-1.06252,1.84197-.99949,3.74808l6.49667,21.2391-5.99692.49974c-.17205-.31435-.33125-.68205-.49974-.99949-17.89757-33.71818-21.59002-78.99658-31.98359-115.9405,1.10981-.11611,2.95512,3.24291,3.4982,4.24782,14.58504,26.9876,21.18952,57.92878,29.48487,87.20525Z"/><path class="uuid-4a4a3378-d93a-46ee-8818-0dce4c51b0a4" d="M142.64099,36.38174c.67298-1.28348,1.16098,1.2964,1.49923,2.49872,10.39356,36.94392,14.08602,82.22232,31.98359,115.9405-3.24454.15379-6.08346,1.81698-8.99538,2.99846-8.73561-17.18184-11.89301-36.33369-15.99179-54.97179-4.86736-22.13296-8.32062-44.56439-12.99333-66.71576-.06778-.32129-.79415-1.57313-1.49923-1.24936.72749-.58715.26204-3.13724,1.49923-1.24936,2.70085,4.12135,7.39955,25.26775,4.49769,2.74859Z"/><path class="uuid-4913119f-dd31-43ea-a3f6-9d9ac99e475a" d="M142.64099,36.38174c2.90186,22.51916-1.79684,1.37276-4.49769-2.74859-1.23719-1.88788-.77174.66221-1.49923,1.24936-.0275.02219-.2142.24286-.49974.49974-.25744.23159-.47269-1.3935-4.49769,4.74756-3.77085,6.50743-6.71887,14.44688-10.49461,20.23961-.42718-8.44952-5.06158-35.64689,7.24628-37.48077,8.37886-1.24846,11.76307,7.32497,14.24269,13.49308Z"/><path class="uuid-90ff51b2-6402-46e7-988c-9bc466244b7c" d="M136.14432,35.38225c-1.32905,15.14424-2.24095,30.5029-4.99744,45.47666-.60461,3.28436-1.83227,11.28602-3.4982,11.4941-1.86406-10.56591-3.91745-21.06714-6.49667-31.48384-.00883-.16612.0084-.3336,0-.49974,3.77574-5.79273,6.72377-13.73218,10.49461-20.23961,4.025-6.14106,4.24026-4.51597,4.49769-4.74756Z"/><path class="uuid-42e83a49-bd7f-4610-addb-02db0be9dc9b" d="M127.64868,92.35301c2.60072,14.7414,4.9615,29.58496,6.49667,44.47717-1.91076,1.44605.28414,7.5185.49974,10.24474.24002,3.03499,1.21408,21.85789.99949,22.9882-1.01979,5.37147-.83394-4.31596-2.49872-5.24731-1.94113-28.47204-7.88315-56.61862-10.99436-84.9564-.11502-6.33837-.66308-12.66334-.99949-18.99025,2.57921,10.4167,4.6326,20.91793,6.49667,31.48384Z"/><path class="uuid-5d20e00e-4953-4006-a1cd-c3cd08c92eaf" d="M151.13663,102.84763c4.09879,18.63809,7.25618,37.78995,15.99179,54.97179-10.50537,4.26242-20.45946,9.73797-30.73423,14.49256-.10412-11.88814-1.03046-23.66252-2.24885-35.48179-1.53516-14.89221-3.89595-29.73578-6.49667-44.47717,1.66594-.20808,2.8936-8.20974,3.4982-11.4941,4.05131,2.20931,17.67213,21.8041,19.24013,22.48846.07333.03201.37766-.60533.74962-.49974Z"/><path class="uuid-3c1c7a38-b780-414a-8877-6b522e5d4518" d="M151.13663,102.84763c-.37196-.10558-.67629.53176-.74962.49974-1.568-.68436-15.18881-20.27915-19.24013-22.48846,2.75649-14.97376,3.66839-30.33243,4.99744-45.47666.28554-.25689.47225-.47755.49974-.49974.70508-.32377,1.43146.92807,1.49923,1.24936,4.67271,22.15137,8.12597,44.5828,12.99333,66.71576Z"/><path class="uuid-5d20e00e-4953-4006-a1cd-c3cd08c92eaf" d="M134.14535,235.27966c-4.20169,5.50182-9.42323,9.93216-13.99282,14.99231-2.15081-.98887-5.52794-7.59147-4.99744-9.99487v-.49974c2.36657-10.27579,4.01565-20.92711,4.49769-31.48384.90499.3277,1.88924-2.07061,1.99897-2.49872-.0059.30679-.11417.94768.24987.99949,2.82422.40195,35.59845-15.04308,41.22884-17.24115-10.39349,14.65392-18.07373,31.43888-28.98513,45.72653Z"/><path class="uuid-1e337f2a-7378-4747-be26-69778a04147f" d="M119.65279,208.29351c-.48204,10.55673-2.13112,21.20805-4.49769,31.48384-5.15725-9.57477-10.51465-19.31473-16.99128-27.98564-.0171-.5609-.43381-5.22917-.49974-5.49718,6.97829,3.59311,14.57926,1.88871,21.98872,1.99897Z"/><path class="uuid-b3862d73-1c58-484b-bfd2-4e36adba3b42" d="M65.68048,77.36071c7.19062,7.79282,15.01927,20.01338,20.98923,29.235,5.75867,8.89526,10.76945,18.35584,16.49154,27.23602-2.84116.28199-.2262,1.48058-.49974,2.24885-2.31895,6.51283-6.92328-1.00562-8.99538-3.74808-5.04-6.6705-8.93516-14.44056-13.49308-21.48897-6.8705-10.6246-17.39591-24.01298-19.98974-34.98205,3.10006,1.99464,4.26707,6.14723,6.24679,8.99538l.74962-.24987c-1.25922-2.22714-.82366-4.89628-1.49923-7.24628Z"/><path class="uuid-b3862d73-1c58-484b-bfd2-4e36adba3b42" d="M103.16125,133.83173c4.90303,7.60907,9.84233,15.03833,14.99231,22.48846,4.23083,6.12047,8.17058,12.838,13.49308,17.99077-1.7007,1.60963-3.73418,2.93268-5.49718,4.49769-13.31624-13.57836-23.01206-30.14177-32.48333-46.47615,2.0721,2.74246,6.67643,10.26091,8.99538,3.74808.27354-.76827-2.34142-1.96686.49974-2.24885Z"/><path class="uuid-4913119f-dd31-43ea-a3f6-9d9ac99e475a" d="M65.68048,77.36071c.67557,2.35001.24001,5.01914,1.49923,7.24628l-.74962.24987c-1.97972-2.84816-3.14673-7.00075-6.24679-8.99538-.47924-.30835-.54851,1.09366-.74962.99949-1.1281-.52826-1.33746-2.7066-2.49872-2.49872-.83382.14927-8.50964,12.18507-10.24474,13.49308-.0367-.13006-.99432-.22172-1.49923-2.24885.31001-1.90425-.36462-3.14519-.49974-4.24782-2.10939-17.21291,10.61379-22.46464,16.49154-14.24269.32534.4551,4.34313,9.70709,4.49769,10.24474Z"/><path class="uuid-90ff51b2-6402-46e7-988c-9bc466244b7c" d="M60.18331,75.86148c2.59383,10.96907,13.11924,24.35745,19.98974,34.98205l-.49974,1.49923c-5.39974-7.10599-10.95156-14.25381-17.24115-20.48948-.40934,3.17171-1.72398,21.72358-2.24885,22.73833-.39042.75482-1.46933-.55068-1.99897-.24987-2.62036-5.01828-5.11414-10.11409-7.9959-14.99231-1.1194-3.86786-2.4133-7.64975-3.4982-11.4941,1.7351-1.30801,9.41092-13.34381,10.24474-13.49308,1.16126-.20789,1.37062,1.97045,2.49872,2.49872.20111.09417.27038-1.30784.74962-.99949Z"/><path class="uuid-d9bb930d-897b-411f-a970-6b5e7df00d25" d="M93.66612,132.33249c9.47127,16.33438,19.16709,32.89779,32.48333,46.47615-5.03019,4.4653-20.20983,18.4315-24.48743,20.98923q-12.49359-28.23551-24.98718-56.47102c1.90074-4.32673,4.34001-26.87555,2.99846-30.9841l.49974-1.49923c4.55792,7.04842,8.45307,14.81848,13.49308,21.48897Z"/><path class="uuid-1e337f2a-7378-4747-be26-69778a04147f" d="M79.6733,112.34275c1.34155,4.10855-1.09772,26.65737-2.99846,30.9841-1.02932,2.34308-2.12829,1.89043-1.99897,2.99846-5.2384-10.74587-10.95532-21.3811-16.49154-31.98359.52964-.30081,1.60856,1.00469,1.99897.24987.52487-1.01475,1.83951-19.56662,2.24885-22.73833,6.28959,6.23568,11.84141,13.3835,17.24115,20.48948Z"/><path class="uuid-45d68f9a-fe38-478c-bbf0-6c3928168065" d="M101.66202,199.79787c-.08374.05007-.88082,1.77805-1.49923,1.24936-9.07031-17.95319-16.68027-36.65625-25.48692-54.72192-.12931-1.10803.96966-.65538,1.99897-2.99846q12.49359,28.23551,24.98718,56.47102Z"/><path class="uuid-1e337f2a-7378-4747-be26-69778a04147f" d="M192.1156,202.29659c-3.91634,4.46615-17.66272,16.13257-26.98615,26.73628-11.60589,13.19959-21.10317,28.23822-32.98307,41.22884-2.94618-4.61415-9.78666-14.97141-12.99333-18.49051,1.36187-.92052.93911-1.43237.99949-1.49923,4.56958-5.06015,9.79113-9.49049,13.99282-14.99231,18.56335-12.27352,44.42903-23.14244,60.46897-37.98051,1.11207.68071-1.25587,3.5801-2.49872,4.99744Z"/><path class="uuid-7a257811-4738-409c-a404-63a100028e7a" d="M241.59021,171.81223c-2.61591,2.62178-4.82611,6.49842-7.49615,9.24526-15.91581,16.37363-28.94193,25.42198-47.97538,37.73064,5.18916-5.59413,9.61459-13.68316,13.99282-19.98974,5.64109-8.12564,11.29319-16.43165,16.49154-24.7373l-.99949.24987c1.61514-1.96463,3.28634-4.72255,4.49769-6.99641,7.13016,1.71669,14.26581,3.23465,21.48897,4.49769Z"/><path class="uuid-12edb63f-f79b-4aa2-9d4e-dbaf583bd734" d="M200.1115,198.79839c-2.15632-3.75401-5.40907,1.13409-7.49615,3.99795l-.49974-.49974c1.24285-1.41733,3.61079-4.31672,2.49872-4.99744,2.13395-1.97405,18.59675-20.07801,20.98923-22.9882l.99949-.24987c-5.19835,8.30566-10.85045,16.61167-16.49154,24.7373Z"/><path class="uuid-d7a4d3ec-6b68-4c92-95bf-3917b8f1137e" d="M195.11406,222.28633c-5.07009,1.06293-58.52119,48.03059-59.96922,51.72346-.10532.2686.05846.82355,0,1.24936-.06578-.10621-.1321.18551-1.49923-1.99897,10.88194-11.59235,20.64698-24.17174,30.9841-36.23141,3.23532-3.77443,9.03292-8.93136,10.99436-11.24423,2.06827-.57304,4.82996-1.72461,6.49667-2.99846,4.99211.86686,16.63837-5.70535,12.99333-.49974Z"/><path class="uuid-5d20e00e-4953-4006-a1cd-c3cd08c92eaf" d="M200.1115,198.79839c-4.37823,6.30658-8.80366,14.39561-13.99282,19.98974-.73215.78928-3.68077,3.75555-3.99795,3.99795-1.6667,1.27385-4.42839,2.42542-6.49667,2.99846,4.923-5.80507,9.98384-11.60537,14.49256-17.7409.9151-1.24529,1.68723-4.1338,2.49872-5.24731,2.08708-2.86386,5.33983-7.75196,7.49615-3.99795Z"/><path class="uuid-4913119f-dd31-43ea-a3f6-9d9ac99e475a" d="M223.59944,221.28684c-2.90735,2.44976-11.14906,9.66884-13.49308,11.99384-2.83525,2.81225-.16715.57014,0,.49974,5.41443-2.28051,10.82681-4.67991,15.99179-7.49615,8.73651,9.05962,16.38765,19.27328,25.48692,27.98564.12759,1.01953.01357,1.35239-.74962,1.99897-5.47314,4.63699-37.46853,9.44959-56.22115,48.47512-9.96812,6.65677-20.82517,12.88551-32.48333,15.99179-6.2469-10.90642-13.4869-21.23639-19.98974-31.98359-.05785-.09559-.00092-.35449-.99949-1.99897-2.21031-3.64001-3.7302-7.8336-5.99692-11.4941.05846-.42581-.10532-.98076,0-1.24936,1.44803-3.69287,54.89913-50.66052,59.96922-51.72346,1.39482-.29242,23.92553-1.08364,28.48538-.99949Z"/><path class="uuid-3e4384d7-0744-4787-8ed5-2a24fbafb9c5" d="M210.10637,233.78043c-.16715.0704-2.83525,2.3125,0-.49974v.49974Z"/><path class="uuid-bf138cab-11a1-4755-bec5-b18bd90ee8ca" d="M192.61534,202.79633c-.81149,1.1135-1.58361,4.00202-2.49872,5.24731-4.50872,6.13552-9.56957,11.93583-14.49256,17.7409-1.96144,2.31287-7.75903,7.4698-10.99436,11.24423-10.33712,12.05967-20.10216,24.63906-30.9841,36.23141-.79127-1.26434-1.40902-2.85718-1.49923-2.99846,11.8799-12.99062,21.37718-28.02926,32.98307-41.22884,9.32343-10.6037,23.06981-22.27013,26.98615-26.73628l.49974.49974Z"/><path class="uuid-1e337f2a-7378-4747-be26-69778a04147f" d="M142.14125,288.75222c6.50284,10.7472,13.74284,21.07717,19.98974,31.98359-9.63647,2.56762-26.85339,4.64072-36.48128,2.99846-1.05907-.18066-5.69416-1.5506-6.49667-1.99897-3.35068-1.87215-4.27808-5.20576-4.49769-5.49718,6.07391-5.81489,21.72184-23.69801,25.98666-27.23602.488-.40482.95602-.23737,1.49923-.24987Z"/><path class="uuid-1e337f2a-7378-4747-be26-69778a04147f" d="M115.15509,239.77735v.49974c-9.66704,4.33628-1.50015,5.4603,3.99795,11.4941,3.20667,3.5191,10.04715,13.87636,12.99333,18.49051.09021.14128.70796,1.73413,1.49923,2.99846,1.36713,2.18449,1.43345,1.89277,1.49923,1.99897,2.26672,3.66051,3.78662,7.85409,5.99692,11.4941-11.48742,3.37058-23.65157,10.99076-31.98359,20.48948-.0711-.13375-1.39257.73064-.99949-2.24885-7.52647-12.65443-9.68059-27.07302-12.49359-41.22884.20183-9.72975.06-19.51187.49974-29.235.33609-7.43109,2.2256-15.30259,1.99897-22.73833,6.47663,8.6709,11.83403,18.41087,16.99128,27.98564Z"/><path class="uuid-1e337f2a-7378-4747-be26-69778a04147f" d="M141.14176,286.75325c.99857,1.64448.94164,1.90338.99949,1.99897-.54321.01251-1.01123-.15495-1.49923.24987-4.26482,3.53801-19.91275,21.42114-25.98666,27.23602-2.2021-2.92184-3.7904-5.78469-5.49718-8.99538,8.33201-9.49873,20.49616-17.1189,31.98359-20.48948Z"/><path class="uuid-902ec5b9-d5ee-4a45-af32-9532db8e19c0" d="M115.15509,240.2771c-.5305,2.4034,2.84662,9.006,4.99744,9.99487-.06038.06686.36238.57871-.99949,1.49923-5.49809-6.0338-13.66498-7.15783-3.99795-11.4941Z"/></g></svg>