<?xml version="1.0" encoding="UTF-8"?><svg id="uuid-0b334379-e8e3-4a08-a8a5-475195ec305f" xmlns="http://www.w3.org/2000/svg" xmlns:xlink="http://www.w3.org/1999/xlink" viewBox="0 0 500 500"><defs><style>.uuid-f394e743-fabb-4895-bc2d-24af02cf3c7b{fill:url(#uuid-f4d6f95a-bc8f-45d1-b869-ec2cd7cd15b1);}.uuid-f394e743-fabb-4895-bc2d-24af02cf3c7b,.uuid-25987e1c-f64b-4874-a8db-55f9a1904cac,.uuid-9685441a-ecef-4606-9864-9f0bd921df55,.uuid-0519739a-0ab5-4883-9fc0-39c40a105ebf,.uuid-ffb46669-c747-49bb-8f5b-19598136eaf3,.uuid-22b9c903-a0fc-498a-8c72-b4c27dc74849,.uuid-436acca7-794e-46b7-b740-b3861f46f003,.uuid-aa50b5a7-cd19-479c-90fd-ff8d60c43482,.uuid-d4d33d25-9913-4ac1-af22-4f17290b8c50,.uuid-8cbe7dca-df01-4f05-a284-c0e2f0bbb170,.uuid-9fb1814b-ef9e-4a0d-b7c7-1907f85fae02,.uuid-842bdb88-2cbf-4593-95e8-a75880e1ea4b,.uuid-718a0c22-2c93-4131-b855-c9132e211d98,.uuid-0418b399-f020-430a-a008-9e8cc327148e,.uuid-a96adf18-5d09-431f-b82c-e7ab8fb4b11d{stroke-width:0px;}.uuid-72a8cbca-19f4-4f6a-91c8-a69a5092e2ed{clip-path:url(#uuid-8a92b4f9-e622-41e9-8346-2c5ba37ec63e);}.uuid-25987e1c-f64b-4874-a8db-55f9a1904cac{fill:url(#uuid-f2f4cfb4-6973-4ce4-ae12-aa7cb2d9747b);}.uuid-9685441a-ecef-4606-9864-9f0bd921df55{fill:url(#uuid-d671e6d0-fbff-4892-b586-4ddf1e2fab40);}.uuid-0519739a-0ab5-4883-9fc0-39c40a105ebf{fill:url(#uuid-3b818e72-1b21-4be8-8ecc-9531d44d7cf5);}.uuid-ffb46669-c747-49bb-8f5b-19598136eaf3{fill:url(#uuid-4feb056a-5e62-4717-a072-ffafd6418045);}.uuid-22b9c903-a0fc-498a-8c72-b4c27dc74849{fill:url(#uuid-d91d0697-ed49-4bdd-ae97-745b7b29f0ce);}.uuid-d892a14a-a1a8-459a-be5a-8e9ee78fd425{mask:url(#uuid-205f12f5-f02a-49a0-a0be-dfec17e97158);}.uuid-436acca7-794e-46b7-b740-b3861f46f003{fill:url(#uuid-fd272a64-2b76-4ed4-a74f-cc3fc7c2d9ba);}.uuid-38c9022a-609c-435e-944d-0c98a14ca73b{filter:url(#uuid-e3753c3a-440f-4b6b-ae89-941a747d1e4a);}.uuid-badf6a8b-c692-46bc-bc18-82fd5b53211b,.uuid-842bdb88-2cbf-4593-95e8-a75880e1ea4b{fill:url(#uuid-7488fc9f-918a-4b61-b301-eb04d1b66b5c);}.uuid-aa50b5a7-cd19-479c-90fd-ff8d60c43482{fill:url(#uuid-edb6693f-6281-425a-9a24-9551715b8b30);}.uuid-d4d33d25-9913-4ac1-af22-4f17290b8c50{fill:url(#uuid-a438ab31-a1b0-498a-a7c0-ed5357a79d53);}.uuid-8cbe7dca-df01-4f05-a284-c0e2f0bbb170{fill:url(#uuid-b5effc04-e440-4276-8b3b-4cff6dd6a366);}.uuid-9fb1814b-ef9e-4a0d-b7c7-1907f85fae02{fill:url(#uuid-a2420dd9-5047-4c9e-b3a8-0952301c1f1d);}.uuid-718a0c22-2c93-4131-b855-c9132e211d98{fill:url(#uuid-6fb3edd9-5929-441f-be1b-924e6cee0fde);}.uuid-0418b399-f020-430a-a008-9e8cc327148e{fill:url(#uuid-680bdced-0572-4b95-a111-b737d7538eff);}.uuid-b62e9ba9-8f44-4ad8-93b5-ebf68ce3a6ed{filter:url(#uuid-9a7d9591-17b2-44ff-a1e5-694f16c2757d);}.uuid-a96adf18-5d09-431f-b82c-e7ab8fb4b11d{fill:url(#uuid-c1f0fbb7-d196-484e-b370-bbe676b23daa);}</style><filter id="uuid-9a7d9591-17b2-44ff-a1e5-694f16c2757d" filterUnits="userSpaceOnUse"><feOffset dx="0" dy="0"/><feGaussianBlur result="uuid-a9044fbf-ff18-48fa-9ca5-b6fe20e1c5b5" stdDeviation="50"/><feFlood flood-color="#eaf2db" flood-opacity="1"/><feComposite in2="uuid-a9044fbf-ff18-48fa-9ca5-b6fe20e1c5b5" operator="in"/><feComposite in="SourceGraphic"/></filter><linearGradient id="uuid-f2f4cfb4-6973-4ce4-ae12-aa7cb2d9747b" x1="286.81132" y1="119.72814" x2="254.08933" y2="119.72814" gradientUnits="userSpaceOnUse"><stop offset=".08423" stop-color="#eaf2db"/><stop offset=".40856" stop-color="#38668d"/><stop offset="1" stop-color="#39435e"/></linearGradient><linearGradient id="uuid-a2420dd9-5047-4c9e-b3a8-0952301c1f1d" x1="265.50649" y1="182.94395" x2="225.08789" y2="196.61499" xlink:href="#uuid-f2f4cfb4-6973-4ce4-ae12-aa7cb2d9747b"/><linearGradient id="uuid-4feb056a-5e62-4717-a072-ffafd6418045" x1="268.64317" y1="151.65186" x2="235.47721" y2="143.84811" xlink:href="#uuid-f2f4cfb4-6973-4ce4-ae12-aa7cb2d9747b"/><linearGradient id="uuid-6fb3edd9-5929-441f-be1b-924e6cee0fde" x1="285.61174" y1="118.55799" x2="263.16215" y2="97.79213" xlink:href="#uuid-f2f4cfb4-6973-4ce4-ae12-aa7cb2d9747b"/><linearGradient id="uuid-c1f0fbb7-d196-484e-b370-bbe676b23daa" x1="223.47909" y1="194.44677" x2="202.67726" y2="199.48964" xlink:href="#uuid-f2f4cfb4-6973-4ce4-ae12-aa7cb2d9747b"/><linearGradient id="uuid-f4d6f95a-bc8f-45d1-b869-ec2cd7cd15b1" x1="229.33616" y1="166.15409" x2="194.2718" y2="147.60257" xlink:href="#uuid-f2f4cfb4-6973-4ce4-ae12-aa7cb2d9747b"/><linearGradient id="uuid-3b818e72-1b21-4be8-8ecc-9531d44d7cf5" x1="246.58121" y1="141.38312" x2="230.56977" y2="115.39055" xlink:href="#uuid-f2f4cfb4-6973-4ce4-ae12-aa7cb2d9747b"/><linearGradient id="uuid-d91d0697-ed49-4bdd-ae97-745b7b29f0ce" x1="343.9562" y1="265.2475" x2="308.87544" y2="250.86655" xlink:href="#uuid-f2f4cfb4-6973-4ce4-ae12-aa7cb2d9747b"/><linearGradient id="uuid-680bdced-0572-4b95-a111-b737d7538eff" x1="361.71426" y1="204.07186" x2="321.67931" y2="193.70313" xlink:href="#uuid-f2f4cfb4-6973-4ce4-ae12-aa7cb2d9747b"/><linearGradient id="uuid-b5effc04-e440-4276-8b3b-4cff6dd6a366" x1="200.84059" y1="213.60965" x2="160.89059" y2="229.92059" xlink:href="#uuid-f2f4cfb4-6973-4ce4-ae12-aa7cb2d9747b"/><linearGradient id="uuid-fd272a64-2b76-4ed4-a74f-cc3fc7c2d9ba" x1="208.78477" y1="191.86361" x2="163.3236" y2="180.76892" xlink:href="#uuid-f2f4cfb4-6973-4ce4-ae12-aa7cb2d9747b"/><linearGradient id="uuid-edb6693f-6281-425a-9a24-9551715b8b30" x1="219.46314" y1="176.93919" x2="204.30933" y2="142.03134" xlink:href="#uuid-f2f4cfb4-6973-4ce4-ae12-aa7cb2d9747b"/><linearGradient id="uuid-7488fc9f-918a-4b61-b301-eb04d1b66b5c" x1="498.34704" y1="-4.07759" x2="242.02103" y2="73.2913" gradientTransform="translate(-133.8924 408.8866) rotate(-12.16959)" gradientUnits="userSpaceOnUse"><stop offset=".08423" stop-color="#eaf2db"/><stop offset=".40856" stop-color="#38668d"/><stop offset=".61263" stop-color="#39435e"/></linearGradient><clipPath id="uuid-8a92b4f9-e622-41e9-8346-2c5ba37ec63e"><path class="uuid-842bdb88-2cbf-4593-95e8-a75880e1ea4b" d="M296.812,255.9094c0-39.124-16.03442-70.5515-16.03442-70.5515l-16.857,10.0576c-6.98858,11.7991-18.3708,18.0262-33.2393,19.8319-4.8147,10.6345-14.0941,15.0204-26.10928,15.5779-6.40991,11.0107-20.41181,17.1648-36.66721,21.8772,0,0,24.3628,70.5516,28.8524,85.9446s3.8483,27.5792-7.6965,37.8413c-11.5448,10.262-16.6758,21.1655-17.3173,35.9171-.6413,14.7517-35.2757,87.5945-35.2757,87.5945h132.7651l27.57922-138.9047c30.14488-23.7309,32.89708-61.0935,32.89708-61.0935-2.87-23.1071-15.1633-36.4253-32.89708-44.0924ZM267.53878,340.6228c-16.4174,3.5397-35.0627-18.3417-41.6455-48.8735-6.5828-30.5318,1.3896-58.1521,17.807-61.6918s35.0628,18.3417,41.6456,48.8735c6.5828,30.5318-1.3897,58.1521-17.8071,61.6918Z"/></clipPath><filter id="uuid-e3753c3a-440f-4b6b-ae89-941a747d1e4a" x="58.32" y="261.76" width="149.52" height="259.68" color-interpolation-filters="sRGB" filterUnits="userSpaceOnUse"><feFlood flood-color="#fff" result="bg"/><feBlend in="SourceGraphic" in2="bg"/></filter><mask id="uuid-205f12f5-f02a-49a0-a0be-dfec17e97158" x="58.32" y="261.76" width="149.52" height="259.68" maskUnits="userSpaceOnUse"><g class="uuid-38c9022a-609c-435e-944d-0c98a14ca73b"><image width="623" height="1082" transform="translate(58.32 261.76) scale(.24)" xlink:href="C:\Users\dmukr\AppData\Local\Temp\AI_28_2\Adobe\AISVG\4\landing-hand-01\landing-hand-011.png"/></g></mask><linearGradient id="uuid-a438ab31-a1b0-498a-a7c0-ed5357a79d53" x1="217.6638" y1="371.56157" x2="50.04319" y2="422.15581" gradientTransform="matrix(1,0,0,1,0,0)" xlink:href="#uuid-7488fc9f-918a-4b61-b301-eb04d1b66b5c"/><linearGradient id="uuid-d671e6d0-fbff-4892-b586-4ddf1e2fab40" x1="400.07926" y1="-38.65975" x2="437.22503" y2="-38.65975" gradientTransform="translate(-133.8924 408.8866) rotate(-12.16959)" gradientUnits="userSpaceOnUse"><stop offset="0" stop-color="#38668d"/><stop offset="1" stop-color="#39435e"/></linearGradient></defs><g class="uuid-b62e9ba9-8f44-4ad8-93b5-ebf68ce3a6ed"><path class="uuid-25987e1c-f64b-4874-a8db-55f9a1904cac" d="M280.77758,185.3579s8.9129-47.8163,1.7045-71.6596c0,0,9.98092-57.3902,4.43592-69.0346-5.54492-11.6443-20.583-10.8126-22.21312,2.218-1.6301,13.0307-11.3338,47.4093-11.8883,51.2908s-5.37258,72.3616-5.37258,72.3616l7.86778,28.2718,4.436,4.1661,21.0298-17.6141Z"/><polygon class="uuid-9fb1814b-ef9e-4a0d-b7c7-1907f85fae02" points="269.08518 217.4359 257.36238 167.4536 215.58978 163.0609 234.41208 230.2279 269.08518 217.4359"/><path class="uuid-ffb46669-c747-49bb-8f5b-19598136eaf3" d="M257.88328,169.9862l14.9174-43.9321s-25.9005,13.8552-30.679-14.0816l-23.625,50.3497c-2.9553,4.4545,27.5282,29.2165,39.3866,7.664Z"/><path class="uuid-718a0c22-2c93-4131-b855-c9132e211d98" d="M242.12168,111.9725s29.3605-18.1966,37.5106-29.2947,35.4323,7.4763-1.7997,41.4964c-9.3009,8.4986-34.62258,12.6697-35.7109-12.2017Z"/><path class="uuid-a96adf18-5d09-431f-b82c-e7ab8fb4b11d" d="M231.78888,219.6703l-15.4383-61.6472-43.0572,10.5626,20.0329,71.003c15.9406-2.6793,29.9022-7.8708,38.4626-19.9184Z"/><path class="uuid-f394e743-fabb-4895-bc2d-24af02cf3c7b" d="M220.15078,173.1976l11.6381-31.3847s-21.6871,1.0347-26.4656-26.9021l-29.2585,45.7078c-2.9553,4.4545-3.4935,9.9943.0965,14.0174,7.482,8.3845,32.1311,20.1141,43.9895-1.4384Z"/><path class="uuid-0519739a-0ab5-4883-9fc0-39c40a105ebf" d="M205.32328,114.9108s34.4008-3.1216,46.658-9.3948c12.2571-6.2732,28.3326,22.5523-20.1924,36.2969-12.1221,3.4335-36.6306-4.1768-26.4656-26.9021Z"/><polygon class="uuid-22b9c903-a0fc-498a-8c72-b4c27dc74849" points="296.81208 255.9094 317.11088 222.1038 356.12958 229.6431 329.70908 300.0018 296.81208 255.9094"/><path class="uuid-0418b399-f020-430a-a008-9e8cc327148e" d="M317.11088,222.1038s-3.7528-14.4138,6.6189-32.622c10.6376-18.6748,30.7575-25.2123,37.7296-21.4773,6.9722,3.7351-5.9286,39.8606-5.3298,61.6386,0,0-33.2867,10.22-39.0187-7.5393Z"/><path class="uuid-8cbe7dca-df01-4f05-a284-c0e2f0bbb170" d="M205.70288,234.7554l-12.2033-42.4102-40.40059,10.5625c.97559,10.0113,8.23579,30.2479,15.07219,49.7948,15.5824-.5044,28.9266-5.0004,37.5317-17.9471Z"/><path class="uuid-436acca7-794e-46b7-b740-b3861f46f003" d="M198.60839,210.1001l9.377-33.9651s-20.3491,1.0346-24.8327-26.9022l-28.32669,45.5035c-2.773,4.4545-2.40451,10.1987.964,14.2218,7.02039,8.3844,21.33089,18.5018,42.81839,1.142Z"/><path class="uuid-aa50b5a7-cd19-479c-90fd-ff8d60c43482" d="M183.15269,149.2328s32.2782-3.1215,43.7791-9.3947c11.501-6.2733,26.5846,22.5522-18.9464,36.2969-11.3742,3.4335-34.3706-4.1768-24.8327-26.9022Z"/><path class="uuid-badf6a8b-c692-46bc-bc18-82fd5b53211b" d="M296.812,255.9094c0-39.124-16.03442-70.5515-16.03442-70.5515l-16.857,10.0576c-6.98858,11.7991-18.3708,18.0262-33.2393,19.8319-4.8147,10.6345-14.0941,15.0204-26.10928,15.5779-6.40991,11.0107-20.41181,17.1648-36.66721,21.8772,0,0,24.3628,70.5516,28.8524,85.9446s3.8483,27.5792-7.6965,37.8413c-11.5448,10.262-16.6758,21.1655-17.3173,35.9171-.6413,14.7517-35.2757,87.5945-35.2757,87.5945h132.7651l27.57922-138.9047c30.14488-23.7309,32.89708-61.0935,32.89708-61.0935-2.87-23.1071-15.1633-36.4253-32.89708-44.0924ZM267.53878,340.6228c-16.4174,3.5397-35.0627-18.3417-41.6455-48.8735-6.5828-30.5318,1.3896-58.1521,17.807-61.6918s35.0628,18.3417,41.6456,48.8735c6.5828,30.5318-1.3897,58.1521-17.8071,61.6918Z"/><g class="uuid-72a8cbca-19f4-4f6a-91c8-a69a5092e2ed"><g class="uuid-d892a14a-a1a8-459a-be5a-8e9ee78fd425"><path class="uuid-d4d33d25-9913-4ac1-af22-4f17290b8c50" d="M171.73879,263.8421s33.0554,69.3567,33.9641,88.0072c.9086,18.6505-24.2412,25.2961-26.302,48.0483-2.0607,22.7523-32.2396,105.0089-42.9332,116.7821-10.6936,11.7731-76.036-19.1546-76.036-19.1546l111.3071-233.683"/></g></g><path class="uuid-9685441a-ecef-4606-9864-9f0bd921df55" d="M243.70028,230.0575c-2.2619.4877-4.3625,1.4348-6.2879,2.7813,14.4509,2.7132,29.0944,22.605,34.7703,48.9303,5.6759,26.3252.5298,50.4837-11.5192,58.9105,2.3092.4335,4.6134.4309,6.8753-.0568,16.4174-3.5397,24.3899-31.16,17.8071-61.6918-6.5828-30.5318-25.2282-52.4132-41.6456-48.8735Z"/></g></svg>