<?xml version="1.0" encoding="utf-8"?>
<!-- Generator: Adobe Illustrator 28.2.0, SVG Export Plug-In . SVG Version: 6.00 Build 0)  -->
<svg version="1.1" id="Layer_1" xmlns="http://www.w3.org/2000/svg" xmlns:xlink="http://www.w3.org/1999/xlink" x="0px" y="0px"
	 viewBox="0 0 512 512" style="enable-background:new 0 0 512 512;" xml:space="preserve">
<style type="text/css">
	.st0{fill:url(#SVGID_1_);}
	.st1{fill:url(#SVGID_00000084508326513743437240000001997105372337742252_);}
	.st2{fill:url(#SVGID_00000173122083672428859020000005266291340397695913_);}
	.st3{fill:url(#SVGID_00000152249973119599340290000009442334226452715190_);}
	.st4{fill:url(#SVGID_00000155138180445583327210000000566554104002227127_);}
	.st5{fill:url(#SVGID_00000143578677763503513500000014400752061582660254_);}
	.st6{fill:url(#SVGID_00000143580519404071952610000014470335417521750432_);}
</style>
<linearGradient id="SVGID_1_" gradientUnits="userSpaceOnUse" x1="65.777" y1="190.8025" x2="77.777" y2="190.8025">
	<stop  offset="0" style="stop-color:#6AA2BC"/>
	<stop  offset="1" style="stop-color:#38668D"/>
</linearGradient>
<path class="st0" d="M65.8,196.7c0,3.3,2.7,6,6,6s6-2.7,6-6v-11.9c0-3.3-2.7-6-6-6s-6,2.7-6,6V196.7z"/>
<linearGradient id="SVGID_00000022548514479280648430000008077901911980897929_" gradientUnits="userSpaceOnUse" x1="65.777" y1="139.5" x2="77.777" y2="139.5">
	<stop  offset="0" style="stop-color:#6AA2BC"/>
	<stop  offset="1" style="stop-color:#38668D"/>
</linearGradient>
<path style="fill:url(#SVGID_00000022548514479280648430000008077901911980897929_);" d="M71.8,173.6c3.3,0,6-2.7,6-6v-56.2
	c0-3.3-2.7-6-6-6s-6,2.7-6,6v56.2C65.8,170.9,68.5,173.6,71.8,173.6z"/>
<linearGradient id="SVGID_00000004506242741110544780000001142593246790084264_" gradientUnits="userSpaceOnUse" x1="98.7" y1="365.196" x2="195.212" y2="365.196">
	<stop  offset="0" style="stop-color:#E1C495"/>
	<stop  offset="1" style="stop-color:#EE8A66"/>
</linearGradient>
<path style="fill:url(#SVGID_00000004506242741110544780000001142593246790084264_);" d="M146.9,316.9c-26.7,0-48.2,21.6-48.2,48.3
	c0,26.7,21.6,48.2,48.3,48.2c26.6,0,48.2-21.6,48.2-48.3C195.2,338.6,173.6,317,146.9,316.9L146.9,316.9z M146.9,401.5
	c-20,0-36.2-16.3-36.2-36.3c0-20,16.3-36.2,36.3-36.2c20,0,36.2,16.2,36.2,36.3C183.2,385.2,166.9,401.4,146.9,401.5L146.9,401.5z"
	/>
<linearGradient id="SVGID_00000183212049513030513590000015964528498367990415_" gradientUnits="userSpaceOnUse" x1="313.3076" y1="365.1933" x2="418.3037" y2="365.1933">
	<stop  offset="0" style="stop-color:#E1C495"/>
	<stop  offset="1" style="stop-color:#EE8A66"/>
</linearGradient>
<path style="fill:url(#SVGID_00000183212049513030513590000015964528498367990415_);" d="M409,345.1l-23.2-3.4l-10.4-21
	c-2.6-5.4-9.1-7.6-14.5-4.9c-2.1,1.1-3.9,2.8-4.9,4.9l-10.4,21l-23.2,3.4c-5.9,0.9-10,6.3-9.1,12.2c0.3,2.4,1.5,4.5,3.2,6.2
	l16.8,16.3l-4,23.1c-1,5.9,2.9,11.5,8.8,12.5c2.3,0.4,4.8,0,6.9-1.1l20.7-10.9l20.7,10.9c5.3,2.8,11.8,0.7,14.6-4.5
	c1.1-2.1,1.5-4.5,1.1-6.9l-4-23.1l16.8-16.3c4.3-4.2,4.4-11,0.2-15.3C413.6,346.6,411.4,345.5,409,345.1L409,345.1z M389.5,371.8
	c-2.6,2.5-3.7,6.1-3.1,9.6l3.7,21.3l-19.2-10.1c-3.2-1.7-6.9-1.7-10.1,0l-19.2,10.1l3.7-21.3c0.6-3.5-0.6-7.1-3.1-9.6l-15.5-15.1
	l21.4-3.1c3.5-0.5,6.6-2.7,8.1-5.9l9.6-19.4l9.6,19.4c1.6,3.2,4.6,5.4,8.1,5.9l21.4,3.1L389.5,371.8z"/>
<linearGradient id="SVGID_00000162354593633335342470000002450655958106295980_" gradientUnits="userSpaceOnUse" x1="318.8" y1="143.9565" x2="412.829" y2="143.9565">
	<stop  offset="0" style="stop-color:#E1C495"/>
	<stop  offset="1" style="stop-color:#EE8A66"/>
</linearGradient>
<path style="fill:url(#SVGID_00000162354593633335342470000002450655958106295980_);" d="M394.8,97h-58c-9.9,0-18,8.1-18,18v58
	c0,9.9,8.1,18,18,18h58c9.9,0,18-8.1,18-18v-58C412.8,105,404.8,97,394.8,97z M400.8,172.9c0,3.3-2.7,6-6,6h-58c-3.3,0-6-2.7-6-6
	v-58c0-3.3,2.7-6,6-6h58c3.3,0,6,2.7,6,6V172.9z"/>
<linearGradient id="SVGID_00000096779470734421678040000014747802885667464117_" gradientUnits="userSpaceOnUse" x1="93.5402" y1="143.9335" x2="200.2989" y2="143.9335">
	<stop  offset="0" style="stop-color:#E1C495"/>
	<stop  offset="1" style="stop-color:#EE8A66"/>
</linearGradient>
<path style="fill:url(#SVGID_00000096779470734421678040000014747802885667464117_);" d="M99.5,190.9h94.8c3.3,0,6-2.7,6-6
	c0-1.1-0.3-2.1-0.8-3l-47.4-82c-1.7-2.9-5.3-3.9-8.2-2.2c-0.9,0.5-1.7,1.3-2.2,2.2l-47.4,82c-1.7,2.9-0.7,6.5,2.2,8.2
	C97.5,190.7,98.5,190.9,99.5,190.9L99.5,190.9z M146.9,114.9l37,64h-74L146.9,114.9z"/>
<linearGradient id="SVGID_00000085946976843863381330000001292644474960535191_" gradientUnits="userSpaceOnUse" x1="9.9924" y1="256.001" x2="502.0091" y2="256.001">
	<stop  offset="0" style="stop-color:#6AA2BC"/>
	<stop  offset="1" style="stop-color:#38668D"/>
</linearGradient>
<path style="fill:url(#SVGID_00000085946976843863381330000001292644474960535191_);" d="M467.1,96.7v-33c0-11.8-9.6-21.4-21.4-21.4
	H269c-6.5,0-12.6,2.9-16.7,7.9c-3.9-3.4-8.9-5.3-14.1-5.3h-45.7c-3.3-22.4-24.2-37.8-46.5-34.4c-17.8,2.7-31.8,16.6-34.4,34.4h-50
	c-11.8,0-21.4,9.6-21.4,21.4l0,0V83c0,3.3,2.7,6,6,6s6-2.7,6-6V66.3c0-5.2,4.2-9.4,9.4-9.4l0,0h55.5c3.3,0,6-2.7,6-6
	c0.1-16,13.1-28.8,29.1-28.7c15.8,0.1,28.6,12.9,28.7,28.7c0,3.3,2.7,6,6,6h51.3c5.2,0,9.4,4.2,9.4,9.4l0.2,55.2
	c0.8,2.6,3.2,4.4,6,4.3l0.2,0c0.3,0,0.5,0,0.8,0c15.9,0,28.8,12.9,28.8,28.8c0,15.9-12.9,28.8-28.8,28.8c0,0,0,0,0,0
	c-0.3,0-0.5,0-0.8,0l-0.2,0c-3.3-0.1-6.1,2.5-6.2,5.8c0,0.1,0,0.1,0,0.2v53.5c0,5.2-4.2,9.4-9.4,9.4l0,0h-45.7
	c-2.8-22.4-23.2-38.2-45.5-35.4c-18.6,2.3-33.2,17-35.5,35.7l-50.1,0.1c-5.2-0.3-9.3-4.6-9.3-9.8V135c0-3.3-2.7-6-6-6s-6,2.7-6,6
	v107.8c0,6.4,2.8,12.6,7.7,16.7c-3.6,3.9-5.6,9.1-5.6,14.4v50.7c-21.2,3.6-35.4,23.6-31.9,44.8c2.8,16.3,15.5,29.1,31.9,31.9v49.1
	c0,11.8,9.6,21.4,21.4,21.4h176.6c6.5,0,12.6-2.9,16.6-7.9c3.9,3.4,8.9,5.3,14.1,5.3h51.7c3.3,21.2,23.3,35.8,44.5,32.4
	c16.7-2.6,29.8-15.7,32.4-32.4h48c11.8,0,21.4-9.6,21.4-21.4V271.2c0-6.4-2.8-12.5-7.7-16.7c3.6-3.9,5.6-9.1,5.6-14.4v-62.6
	c22.3-3.3,37.8-24.1,34.5-46.4C498.9,113.3,484.9,99.3,467.1,96.7L467.1,96.7z M240.5,459.7H63.9c-5.2,0-9.4-4.2-9.4-9.4v-54.6
	c0-3.3-2.6-5.9-5.9-6c-14.8-0.2-26.7-12.4-26.5-27.3c0.2-14.6,12-26.3,26.5-26.5c3.3-0.1,5.9-2.7,5.9-6v-56.1c0-5.2,4.2-9.4,9.4-9.4
	h53.5c3.3,0,6-2.7,6-6c0-0.1,0-0.1,0-0.2l0-0.2c0-0.2,0-0.5,0-0.8c0.3-15.9,13.4-28.6,29.3-28.3c15.5,0.3,28,12.8,28.3,28.3
	c0,0.2,0,0.4,0,0.4c-0.3,3.3,2.2,6.2,5.5,6.5c0.2,0,0.3,0,0.5,0h53.4c2.9,0.1,9.3,1.2,9.3,9.7V319c-22.4,2.6-38.3,22.9-35.7,45.3
	c2.2,18.7,17,33.5,35.7,35.7l0.2,50.5C249.9,455.6,245.6,459.7,240.5,459.7L240.5,459.7z M457.2,447.7c0,5.2-4.2,9.4-9.4,9.4h-53.5
	c-3.3,0-6,2.7-6,6c0,14.9-12.1,26.9-26.9,26.9s-26.9-12.1-26.9-26.9c0-3.3-2.7-6-6-6h-57.2c-5.2,0-9.4-4.2-9.4-9.4v-53.5
	c0-3.3-2.7-6-6-6c-0.1,0-0.1,0-0.2,0l-0.2,0c-0.3,0-0.5,0-0.8,0c-15.9,0.1-28.8-12.7-28.9-28.6s12.7-28.8,28.6-28.9
	c0.1,0,0.2,0,0.3,0c0.2,0,0.5,0,0.7,0l0.3,0c3.3,0.1,6.1-2.5,6.2-5.8c0-0.1,0-0.1,0-0.2v-53.5c0-5.1,4.1-9.3,9.2-9.4h46
	c2.8,22.4,23.2,38.2,45.5,35.4c18.6-2.3,33.2-17,35.5-35.7l50.1-0.1c5.2,0.3,9.3,4.6,9.3,9.8L457.2,447.7z M461.1,166
	c-3.3,0-6,2.7-6,6v68.2c0,5.2-4.2,9.4-9.4,9.4h-53.5c-3.3,0-6,2.7-6,6c0,0.1,0,0.1,0,0.2l0,0.2c0,0.2,0,0.5,0,0.8
	c-0.3,15.9-13.4,28.6-29.3,28.3c-15.5-0.3-28-12.8-28.3-28.3c0-0.2,0-0.4,0-0.4c0.3-3.3-2.2-6.2-5.5-6.5c-0.2,0-0.3,0-0.5,0h-53.4
	c-5.2-0.2-9.4-4.5-9.4-9.7V195c22.4-2.6,38.3-22.9,35.7-45.3c-2.2-18.7-17-33.5-35.7-35.7l-0.2-50.6c0.1-5.1,4.3-9.2,9.5-9.2h176.6
	c5.2,0,9.4,4.2,9.4,9.4v38.5c0,3.3,2.7,6,6,6c16,0,28.9,12.9,28.9,28.9S477,166,461.1,166L461.1,166L461.1,166z"/>
</svg>
