<svg id="Capa_1" enable-background="new 0 0 512.003 512.003" height="512"
    viewBox="0 0 512.003 512.003" width="512" xmlns="http://www.w3.org/2000/svg"
    xmlns:xlink="http://www.w3.org/1999/xlink">
    <linearGradient id="SVGID_1_" gradientUnits="userSpaceOnUse" x1="4.384" x2="362.883"
        y1="507.593" y2="149.094">
        <stop offset="0" stop-color="#E1C495" />
        <stop offset="1" stop-color="#FFFFFF" />
    </linearGradient>
    <linearGradient id="SVGID_00000065064262937558123130000000990364450887399818_"
        gradientUnits="userSpaceOnUse" x1="239.498" x2="457.647" y1="272.484" y2="54.335">
        <stop offset="0" stop-color="#EE8A66" />
        <stop offset="1" stop-color="#E1C495" />
    </linearGradient>
    <g>
        <path
            d="m214.164 443.446c-2.783-7.808 1.289-16.392 9.082-19.16l93.809-33.457c7.822-2.827 16.406 1.289 19.16 9.082 2.783 7.808-1.289 16.392-9.082 19.16l-93.809 33.457c-7.731 2.781-16.392-1.246-19.16-9.082zm-126.474-154.687 33.457-93.838c2.783-7.808-1.289-16.392-9.082-19.175-7.793-2.725-16.406 1.304-19.16 9.097l-33.457 93.838c-2.783 7.808 1.289 16.392 9.082 19.175 7.954 2.791 16.449-1.425 19.16-9.097zm-64.872 221.023 418.104-256.707 7.178-12.158-6.123-12.729-64.189-47.095c-3.955-2.886-8.994-3.677-13.623-2.124l-46.816 15.645 15.674-46.758c1.523-4.614.732-9.697-2.139-13.638l-47.08-64.204-12.715-6.108-12.189 7.148-256.707 418.103c-3.604 5.918-2.695 13.535 2.197 18.442 4.983 4.983 12.681 5.758 18.428 2.183z"
            fill="url(#SVGID_1_)" />
        <path
            d="m424.223 252.387-57.92-42.51-67.969 22.734c-5.361 1.86-11.309.41-15.352-3.618-4.014-4.028-5.42-9.976-3.633-15.366l22.734-67.925-42.48-57.935c-3.34-4.585-3.838-10.664-1.26-15.703 2.578-5.024 7.734-8.174 13.359-8.174.029 0 71.514.542 71.514.542l41.689-58.169c3.311-4.614 9.199-6.943 14.531-6.079 5.625.894 10.254 4.878 11.953 10.283l21.65 68.467 68.467 21.665c5.42 1.714 9.404 6.328 10.312 11.938.879 5.61-1.465 11.25-6.094 14.561l-58.184 41.66.557 71.411c.029 5.669-3.105 10.884-8.174 13.477-4.833 2.485-10.93 2.212-15.7-1.259zm7.588 208.33c-5.625-.879-10.254-4.863-11.953-10.283l-9.639-30.454-30.469-9.639c-5.42-1.714-9.404-6.328-10.312-11.953-.879-5.61 1.465-11.25 6.094-14.546l26.016-18.589-.264-31.948c-.059-5.684 3.135-10.898 8.174-13.477 5.127-2.563 11.162-2.065 15.732 1.289l25.723 18.984 30.293-10.093c5.42-1.802 11.338-.381 15.352 3.618 4.014 4.014 5.42 9.961 3.633 15.352l-10.107 30.293 18.984 25.708c3.369 4.57 3.867 10.649 1.289 15.718-2.549 5.024-7.735 8.188-13.359 8.188-.029 0-32.051-.234-32.051-.234l-18.604 25.986c-3.397 4.744-9.14 6.979-14.532 6.08zm-318.194-318.194c-5.596-.879-10.225-4.863-11.953-10.269l-9.668-30.469-30.469-9.653c-5.42-1.714-9.375-6.343-10.283-11.953-.879-5.61 1.494-11.25 6.094-14.546l26.016-18.573-.264-31.949c-.059-5.684 3.135-10.898 8.174-13.477 5.127-2.563 11.162-2.065 15.732 1.289l25.723 18.97 30.293-10.093c5.42-1.816 11.338-.366 15.352 3.618 4.014 4.014 5.42 9.961 3.633 15.352l-10.107 30.308 18.984 25.708c3.369 4.57 3.867 10.649 1.289 15.718-2.549 5.024-7.734 8.188-13.359 8.188-.029 0-32.051-.249-32.051-.249l-18.604 26.001c-3.396 4.744-9.139 6.978-14.532 6.079z"
            fill="url(#SVGID_00000065064262937558123130000000990364450887399818_)" />
    </g>
</svg>