<svg id="Layer_1" enable-background="new 0 0 512 512" height="512" viewBox="0 0 512 512" width="512"
    xmlns="http://www.w3.org/2000/svg" xmlns:xlink="http://www.w3.org/1999/xlink">
    <linearGradient id="SVGID_1_" gradientTransform="matrix(.707 .707 -.707 .707 253.91 -106.781)"
        gradientUnits="userSpaceOnUse" x1="258.004" x2="258.004" y1="441.317" y2="-98.609">
        <stop offset="0" stop-color="#C5D9BC" />
        <stop offset="1" stop-color="#EAF2DB" />
    </linearGradient>
    <linearGradient id="SVGID_2_" gradientTransform="matrix(.707 .707 -.707 .707 253.91 -106.781)"
        gradientUnits="userSpaceOnUse" x1="258.004" x2="258.004" y1="610.868" y2="6.315">
        <stop offset="0" stop-color="#6AA2BC" />
        <stop offset="1" stop-color="#38668D" />
    </linearGradient>
    <g>
        <path
            d="m506.965 147.208-90 79.975c-9.674 8.596-24.965 1.731-24.965-11.208v-29.975h-65c-38.622 0-69.95 31.601-70 70.223-.121 93.636-76.336 169.777-170 169.777h-72c-8.284 0-15-6.716-15-15v-70c0-8.284 6.716-15 15-15h72c38.622 0 69.95-31.601 70-70.223.121-93.636 76.336-169.777 170-169.777h65v-29.975c0-12.939 15.292-19.804 24.965-11.208l90 79.975c6.713 5.965 6.713 16.451 0 22.416z"
            fill="url(#SVGID_2_)" />
        <path
            d="m506.965 364.792-90-79.975c-9.674-8.596-24.965-1.731-24.965 11.208v29.975h-65c-38.622 0-69.95-31.601-70-70.223-.121-93.636-76.336-169.777-170-169.777h-72c-8.284 0-15 6.716-15 15v70c0 8.284 6.716 15 15 15h72c38.622 0 69.95 31.601 70 70.223.121 93.636 76.336 169.777 170 169.777h65v29.975c0 12.939 15.292 19.804 24.965 11.208l90-79.975c6.713-5.965 6.713-16.451 0-22.416z"
            fill="url(#SVGID_1_)" />
    </g>
</svg>