<?xml version="1.0" encoding="utf-8"?>
<!-- Generator: Adobe Illustrator 28.2.0, SVG Export Plug-In . SVG Version: 6.00 Build 0)  -->
<svg version="1.1" id="Warstwa_1" xmlns="http://www.w3.org/2000/svg" xmlns:xlink="http://www.w3.org/1999/xlink" x="0px" y="0px"
	 viewBox="0 0 491 491" style="enable-background:new 0 0 491 491;" xml:space="preserve">
<style type="text/css">
	.st0{fill:url(#SVGID_1_);}
	.st1{fill:url(#SVGID_00000065047217359209908960000015677053206093020814_);}
	.st2{fill:url(#SVGID_00000024696903019820421050000015578924256021692297_);}
	.st3{fill:url(#SVGID_00000116209866495641531900000014736749709604643977_);}
	.st4{fill:url(#SVGID_00000071525457752390964160000008640918464314823830_);}
	.st5{fill:url(#SVGID_00000147182228314591982610000007211121811411866287_);}
	.st6{fill:url(#SVGID_00000157283776821697547500000004401488727813276349_);}
	.st7{fill:url(#SVGID_00000163762773296570361530000008834890513189420191_);}
	.st8{fill:url(#SVGID_00000045576591618979886940000017785063303487143570_);}
	.st9{fill:url(#SVGID_00000064341974955898738520000000781891359302846343_);}
	.st10{fill:url(#SVGID_00000098911496407265459170000015541217999131585920_);}
</style>
<linearGradient id="SVGID_1_" gradientUnits="userSpaceOnUse" x1="90.389" y1="318.6695" x2="490.9996" y2="318.6695">
	<stop  offset="0" style="stop-color:#6AA2BC"/>
	<stop  offset="1" style="stop-color:#38668D"/>
</linearGradient>
<path class="st0" d="M436.4,187.5c-1.1-1.7-3-2.7-5-2.7c-2,0-3.9,1-5,2.7l-53.7,81.8c-1.2,1.8-1.3,4.2-0.3,6.1
	c1,1.9,3.1,3.1,5.3,3.1h45.8c-6.3,45.7-29.1,87.4-64.2,117.4c-33.1,28.4-74.7,44.7-114.1,44.7c-25.7,0-52.6-6.9-77.7-20
	c-26.1-13.6-48.8-33.1-66.2-56.8c-2-2.7-5.7-3.2-8.4-1.3s-3.2,5.7-1.3,8.4c18.5,25.2,42.6,45.8,70.3,60.3
	c26.8,14,55.6,21.4,83.3,21.4c42.2,0,86.7-17.3,121.9-47.6c37.7-32.2,62.1-77.3,68.5-126.5H485c2.2,0,4.2-1.2,5.3-3.1
	c1-1.9,0.9-4.3-0.3-6.1L436.4,187.5z M388.8,266.6l42.6-64.9l42.6,64.9L388.8,266.6z"/>
<linearGradient id="SVGID_00000031181604155741429350000016564301943618644106_" gradientUnits="userSpaceOnUse" x1="-7.112935e-04" y1="172.8451" x2="400.6104" y2="172.8451">
	<stop  offset="0" style="stop-color:#6AA2BC"/>
	<stop  offset="1" style="stop-color:#38668D"/>
</linearGradient>
<path style="fill:url(#SVGID_00000031181604155741429350000016564301943618644106_);" d="M118.6,216.1c-1-1.9-3.1-3.1-5.3-3.1H67.5
	c6.3-45.7,29.1-87.4,64.2-117.4c33.1-28.4,74.7-44.7,114.1-44.7c25.7,0,52.6,6.9,77.7,20c26.1,13.6,48.8,33.1,66.2,56.8
	c2,2.7,5.7,3.2,8.4,1.3c2.7-2,3.2-5.7,1.3-8.4c-18.5-25.2-42.6-45.8-70.3-60.3c-26.8-14-55.6-21.4-83.3-21.4
	c-42.2,0-86.7,17.3-121.9,47.6C86.2,118.7,61.8,163.8,55.5,213H6c-2.2,0-4.2,1.2-5.3,3.1c-1,1.9-0.9,4.3,0.3,6.1l53.7,81.8
	c1.1,1.7,3,2.7,5,2.7c2,0,3.9-1,5-2.7l53.7-81.8C119.5,220.4,119.6,218.1,118.6,216.1z M59.6,289.9L17.1,225h85.1L59.6,289.9z"/>
<linearGradient id="SVGID_00000028317202885692977500000002889932340342232749_" gradientUnits="userSpaceOnUse" x1="157.7271" y1="337.8069" x2="217.0378" y2="337.8069">
	<stop  offset="0" style="stop-color:#E1C495"/>
	<stop  offset="1" style="stop-color:#EE8A66"/>
</linearGradient>
<path style="fill:url(#SVGID_00000028317202885692977500000002889932340342232749_);" d="M171.6,362.9c4.7,3,10.2,4.6,15.8,4.6
	c2.2,0,4.4-0.2,6.6-0.7c7.7-1.7,14.4-6.4,18.5-13.1c8.7-13.8,4.6-32.2-9.2-40.9s-32.2-4.6-40.9,9.2S157.7,354.1,171.6,362.9
	L171.6,362.9z M172.4,328.4c5.2-8.3,16.1-10.7,24.4-5.5c8.3,5.2,10.7,16.1,5.5,24.4c-5.2,8.3-16.1,10.7-24.4,5.5
	C169.7,347.5,167.2,336.6,172.4,328.4z"/>
<linearGradient id="SVGID_00000167370720096438270460000016511083735002016685_" gradientUnits="userSpaceOnUse" x1="274.0879" y1="153.8784" x2="333.0863" y2="153.8784">
	<stop  offset="0" style="stop-color:#E1C495"/>
	<stop  offset="1" style="stop-color:#EE8A66"/>
</linearGradient>
<path style="fill:url(#SVGID_00000167370720096438270460000016511083735002016685_);" d="M310.2,182.6c15.3-3.5,25.1-18.3,22.5-33.7
	c-2.6-15.4-16.8-26.1-32.4-24.4c-15.6,1.7-27,15.3-26.2,30.9c0.9,15.6,13.8,27.8,29.4,27.9C305.8,183.4,308,183.1,310.2,182.6z
	 M288.7,144.3c5.2-8.3,16.1-10.7,24.4-5.5c8.3,5.2,10.7,16.1,5.5,24.4c-5.2,8.3-16.1,10.7-24.4,5.5
	C285.9,163.4,283.5,152.5,288.7,144.3z"/>
<linearGradient id="SVGID_00000139268816280201072960000015484712323529187483_" gradientUnits="userSpaceOnUse" x1="307.8087" y1="303.822" x2="367.1162" y2="303.822">
	<stop  offset="0" style="stop-color:#E1C495"/>
	<stop  offset="1" style="stop-color:#EE8A66"/>
</linearGradient>
<path style="fill:url(#SVGID_00000139268816280201072960000015484712323529187483_);" d="M321.7,328.9c13.8,8.7,32.1,4.5,40.8-9.3
	c8.7-13.8,4.6-32.1-9.2-40.9c-9-5.7-20.3-6.2-29.7-1.2s-15.5,14.5-15.9,25.1C307.4,313.3,312.7,323.3,321.7,328.9z M322.6,294.4
	c5.2-8.3,16.1-10.7,24.4-5.5c8.3,5.2,10.7,16.1,5.5,24.4c-5.2,8.3-16.1,10.7-24.4,5.5C319.9,313.6,317.4,302.7,322.6,294.4z"/>
<linearGradient id="SVGID_00000087383571203001465720000011325579694500122805_" gradientUnits="userSpaceOnUse" x1="123.803" y1="187.6438" x2="183.1111" y2="187.6438">
	<stop  offset="0" style="stop-color:#E1C495"/>
	<stop  offset="1" style="stop-color:#EE8A66"/>
</linearGradient>
<path style="fill:url(#SVGID_00000087383571203001465720000011325579694500122805_);" d="M137.6,212.7c12,7.6,27.6,5.6,37.3-4.7
	c9.7-10.3,10.9-26,2.7-37.5c-8.2-11.6-23.3-15.7-36.3-10c-12.9,5.8-20,19.8-16.9,33.6C126.3,201.9,131,208.5,137.6,212.7z
	 M138.5,178.2c5.2-8.3,16.1-10.7,24.4-5.5c8.3,5.2,10.7,16.1,5.5,24.4c-5.2,8.3-16.1,10.7-24.4,5.5
	C135.8,197.4,133.3,186.5,138.5,178.2z"/>
<linearGradient id="SVGID_00000175288832298272039030000003503733800017254079_" gradientUnits="userSpaceOnUse" x1="322.0216" y1="221.7703" x2="381.3365" y2="221.7703">
	<stop  offset="0" style="stop-color:#6AA2BC"/>
	<stop  offset="1" style="stop-color:#38668D"/>
</linearGradient>
<path style="fill:url(#SVGID_00000175288832298272039030000003503733800017254079_);" d="M380.6,215.2c-3.6-16-19.5-26-35.5-22.4
	c-16,3.6-26,19.5-22.4,35.5c3.6,16,19.5,26,35.5,22.4C374.2,247.1,384.2,231.2,380.6,215.2z M355.6,239c-9.5,2.1-19-3.8-21.1-13.3
	c-2.2-9.5,3.8-19,13.3-21.1c9.5-2.2,19,3.8,21.1,13.3C371.1,227.4,365.1,236.9,355.6,239z"/>
<linearGradient id="SVGID_00000094580594061764972680000000444676105722400648_" gradientUnits="userSpaceOnUse" x1="109.6711" y1="269.7514" x2="168.9795" y2="269.7514">
	<stop  offset="0" style="stop-color:#6AA2BC"/>
	<stop  offset="1" style="stop-color:#38668D"/>
</linearGradient>
<path style="fill:url(#SVGID_00000094580594061764972680000000444676105722400648_);" d="M110.4,276.3c3.6,16,19.5,26,35.5,22.4
	c16-3.6,26-19.5,22.4-35.5c-3.6-16-19.5-26-35.5-22.4C116.8,244.5,106.8,260.3,110.4,276.3z M135.4,252.5c9.5-2.2,19,3.8,21.1,13.3
	c2.2,9.5-3.8,19-13.3,21.1c-9.5,2.2-19-3.8-21.1-13.3C119.9,264.1,125.9,254.7,135.4,252.5z"/>
<linearGradient id="SVGID_00000181066780972970301330000017206490299400986755_" gradientUnits="userSpaceOnUse" x1="239.8395" y1="351.9394" x2="299.1405" y2="351.9394">
	<stop  offset="0" style="stop-color:#6AA2BC"/>
	<stop  offset="1" style="stop-color:#38668D"/>
</linearGradient>
<path style="fill:url(#SVGID_00000181066780972970301330000017206490299400986755_);" d="M269.5,381.6c9,0,17.5-4.1,23.2-11.1
	c5.6-7,7.7-16.3,5.8-25c-3.4-15.1-17.9-25.1-33.3-22.8c-15.4,2.3-26.3,16-25.2,31.5C241.1,369.6,254,381.6,269.5,381.6L269.5,381.6z
	 M265.6,334.7c9.5-2.2,19,3.8,21.1,13.3c2.2,9.5-3.8,19-13.3,21.1c-9.5,2.2-19-3.8-21.1-13.3c-1-4.6-0.2-9.4,2.3-13.3
	C257,338.5,261,335.7,265.6,334.7z"/>
<linearGradient id="SVGID_00000082337435177881140950000001689529261874605707_" gradientUnits="userSpaceOnUse" x1="191.849" y1="139.5841" x2="251.1676" y2="139.5841">
	<stop  offset="0" style="stop-color:#6AA2BC"/>
	<stop  offset="1" style="stop-color:#38668D"/>
</linearGradient>
<path style="fill:url(#SVGID_00000082337435177881140950000001689529261874605707_);" d="M215,110.7c-16,3.6-26,19.5-22.4,35.5
	c3.6,16,19.5,26,35.5,22.4c16-3.6,26-19.5,22.4-35.5C246.8,117.1,230.9,107.1,215,110.7z M225.4,156.8c-9.5,2.2-19-3.8-21.1-13.3
	c-2.2-9.5,3.8-19,13.3-21.1c9.5-2.1,19,3.8,21.1,13.3C240.9,145.2,234.9,154.7,225.4,156.8z"/>
<linearGradient id="SVGID_00000106131111700596879300000008741405007318822287_" gradientUnits="userSpaceOnUse" x1="193.9203" y1="245.7549" x2="297.0876" y2="245.7549">
	<stop  offset="0" style="stop-color:#6AA2BC"/>
	<stop  offset="1" style="stop-color:#38668D"/>
</linearGradient>
<path style="fill:url(#SVGID_00000106131111700596879300000008741405007318822287_);" d="M265.3,293.4
	c24.5-10.2,37.2-37.3,29.5-62.7c-7.7-25.4-33.5-40.7-59.5-35.5c-26,5.2-43.8,29.3-41.2,55.7s24.9,46.5,51.4,46.4
	C252.4,297.3,259.1,296,265.3,293.4z M208.9,261c-8.4-20.2,1.1-43.4,21.3-51.8c20.2-8.4,43.4,1.1,51.8,21.3
	c8.4,20.2-1.1,43.4-21.3,51.8C240.5,290.7,217.4,281.2,208.9,261z"/>
</svg>
