<?xml version="1.0" encoding="utf-8"?>
<!-- Generator: Adobe Illustrator 28.2.0, SVG Export Plug-In . SVG Version: 6.00 Build 0)  -->
<svg version="1.1" id="Layer_1" xmlns="http://www.w3.org/2000/svg" xmlns:xlink="http://www.w3.org/1999/xlink" x="0px" y="0px"
	 viewBox="0 0 512 512" style="enable-background:new 0 0 512 512;" xml:space="preserve">
<style type="text/css">
	.st0{fill:url(#SVGID_1_);}
	.st1{fill:url(#SVGID_00000081629515205923768350000002529874334041408132_);}
	.st2{fill:url(#SVGID_00000094598811137591060730000005971465730663265725_);}
	.st3{fill:url(#SVGID_00000106128472343656250710000017688549474809233540_);}
	.st4{fill:url(#SVGID_00000030481240819783379920000017748619728698789796_);}
	.st5{fill:url(#SVGID_00000161609447209695887130000001336929350251412404_);}
	.st6{fill:url(#SVGID_00000034781359319930191940000016798216043670132900_);}
	.st7{fill:url(#SVGID_00000021806180534315258210000000695367250176149898_);}
	.st8{fill:url(#SVGID_00000139975729285508432650000013223412094083307417_);}
	.st9{fill:url(#SVGID_00000140734619932141687490000012755574664955013284_);}
	.st10{fill:url(#SVGID_00000010274110227628676970000016722423729021174432_);}
</style>
<linearGradient id="SVGID_1_" gradientUnits="userSpaceOnUse" x1="161.6611" y1="259.5081" x2="350.3318" y2="259.5081">
	<stop  offset="0" style="stop-color:#6AA2BC"/>
	<stop  offset="1" style="stop-color:#38668D"/>
</linearGradient>
<path class="st0" d="M347.9,204.1c-1.6-1.2-3.7-1.5-5.6-0.8l-48.9,17.2c-15.8,5.6-28,19.9-32.7,38.5c-2.2,9.2-3.8,18.5-4.8,27.9
	c-2.8,3.6-5.2,7.4-7.4,11.4c-2.2-7.5-4.9-14.9-8.1-22.1l0.3-11.1c1.5-49.7-31.2-91.6-72.9-93.4c-3.3-0.1-6.1,2.4-6.3,5.7
	c0,0.3,0,0.7,0,1l5,39.6c2,18.7,10.5,34.7,24.5,46.3c11.1,8.9,24.4,14.8,38.5,17.2c5.2,12,9.1,24.5,11.5,37.3
	c-1.7,7.8-1.9,15.9-0.5,23.7c0.5,3.3,3.6,5.5,6.9,5c3.3-0.5,5.5-3.6,5-6.9c0-0.1,0-0.2-0.1-0.3c-1.6-8.6-0.6-18,2.9-27.7
	c2.3-6.5,5.7-12.6,9.9-18.1l5.2,0.3c3.3,0.4,6.6,0.7,9.9,0.7c14.5,0.2,28.5-4.8,39.6-14.1c18-15,29-41.3,30.3-72.1
	C350.4,207.2,349.5,205.2,347.9,204.1L347.9,204.1z M224.4,247.5L206,221c-1.9-2.7-5.6-3.5-8.3-1.6c-2.7,1.9-3.5,5.6-1.6,8.3
	c0,0,0.1,0.1,0.1,0.1l18.4,26.5c2.9,4.2,5.6,8.6,8.1,13.1c-20.9-6.3-41-22-44.1-50.9l-4-32.1c28.7,5.3,51,34,53.9,69.4
	C227.2,251.6,225.8,249.5,224.4,247.5L224.4,247.5z M312.3,272c-10.1,8.4-22.2,12.1-36.2,11.1l32.9-30.1c2.4-2.2,2.6-6,0.4-8.5
	c-2.2-2.4-6-2.6-8.5-0.4l-30.9,28.3c0.7-3.8,1.4-7.3,2.3-10.6c3.7-14.6,13.1-25.9,25.1-30.1l40.2-14.2
	C335,241.1,326,260.6,312.3,272L312.3,272z"/>
<linearGradient id="SVGID_00000005969909016707690310000003879544409394423956_" gradientUnits="userSpaceOnUse" x1="120" y1="256" x2="392" y2="256">
	<stop  offset="0" style="stop-color:#6AA2BC"/>
	<stop  offset="1" style="stop-color:#38668D"/>
</linearGradient>
<path style="fill:url(#SVGID_00000005969909016707690310000003879544409394423956_);" d="M351.7,77.2C347.4,68,338.2,62.1,328,62
	h-66V11c0-3.3-2.7-6-6-6c-3.3,0-6,2.7-6,6v51h-66c-10.1,0.1-19.3,6-23.6,15.2l-36,77c-2.9,6.2-4.3,12.8-4.4,19.6v297.1
	c0,20,16.2,36.1,36.2,36.2h199.7c20,0,36.1-16.2,36.2-36.2V173.8c0-6.8-1.5-13.5-4.4-19.6L351.7,77.2z M256,110.9
	c15,0,27.2,12.2,27.2,27.2c0,15-12.2,27.2-27.2,27.2s-27.2-12.2-27.2-27.2C228.8,123,241,110.9,256,110.9z M380,470.8
	c0,13.3-10.8,24.1-24.2,24.2H156.2c-13.3,0-24.1-10.8-24.2-24.2V458h248V470.8z M380,446H132V173.8c0-5,1.1-10,3.2-14.5l36-77
	c2.3-5,7.3-8.2,12.8-8.2h66v25.3c-21.4,3.3-36,23.3-32.7,44.7s23.3,36,44.7,32.7c21.4-3.3,36-23.3,32.7-44.7
	c-2.6-16.9-15.8-30.1-32.7-32.7V74h66c5.5,0.1,10.5,3.3,12.8,8.2l36,77c2.1,4.6,3.2,9.5,3.2,14.5L380,446z"/>
<linearGradient id="SVGID_00000088131224044376437380000004772636437313576598_" gradientUnits="userSpaceOnUse" x1="234.691" y1="138.047" x2="277.309" y2="138.047">
	<stop  offset="0" style="stop-color:#E1C495"/>
	<stop  offset="1" style="stop-color:#EE8A66"/>
</linearGradient>
<path style="fill:url(#SVGID_00000088131224044376437380000004772636437313576598_);" d="M256,159.4c11.8,0,21.3-9.5,21.3-21.3
	s-9.5-21.3-21.3-21.3c-11.8,0-21.3,9.5-21.3,21.3c0,0,0,0,0,0C234.7,149.8,244.2,159.3,256,159.4z M256,128.7c5.1,0,9.3,4.2,9.3,9.3
	s-4.2,9.3-9.3,9.3c-5.1,0-9.3-4.2-9.3-9.3C246.7,132.9,250.9,128.7,256,128.7z"/>
<linearGradient id="SVGID_00000167373692937919445910000005336913370903336624_" gradientUnits="userSpaceOnUse" x1="224.52" y1="370" x2="341.82" y2="370">
	<stop  offset="0" style="stop-color:#E1C495"/>
	<stop  offset="1" style="stop-color:#EE8A66"/>
</linearGradient>
<path style="fill:url(#SVGID_00000167373692937919445910000005336913370903336624_);" d="M335.8,364H230.5c-3.3,0-6,2.7-6,6
	s2.7,6,6,6h105.3c3.3,0,6-2.7,6-6S339.1,364,335.8,364z"/>
<linearGradient id="SVGID_00000026139583680600847920000015674836456015651480_" gradientUnits="userSpaceOnUse" x1="170.18" y1="370" x2="209.6" y2="370">
	<stop  offset="0" style="stop-color:#E1C495"/>
	<stop  offset="1" style="stop-color:#EE8A66"/>
</linearGradient>
<path style="fill:url(#SVGID_00000026139583680600847920000015674836456015651480_);" d="M176.2,376h27.4c3.3,0,6-2.7,6-6
	s-2.7-6-6-6h-27.4c-3.3,0-6,2.7-6,6S172.9,376,176.2,376z"/>
<linearGradient id="SVGID_00000169532350795286824970000003467537273478379139_" gradientUnits="userSpaceOnUse" x1="265.145" y1="395" x2="341.82" y2="395">
	<stop  offset="0" style="stop-color:#E1C495"/>
	<stop  offset="1" style="stop-color:#EE8A66"/>
</linearGradient>
<path style="fill:url(#SVGID_00000169532350795286824970000003467537273478379139_);" d="M335.8,389h-64.7c-3.3,0-6,2.7-6,6
	s2.7,6,6,6h64.7c3.3,0,6-2.7,6-6S339.1,389,335.8,389z"/>
<linearGradient id="SVGID_00000025442516807444103350000003543444893918319250_" gradientUnits="userSpaceOnUse" x1="170.18" y1="395" x2="250.221" y2="395">
	<stop  offset="0" style="stop-color:#E1C495"/>
	<stop  offset="1" style="stop-color:#EE8A66"/>
</linearGradient>
<path style="fill:url(#SVGID_00000025442516807444103350000003543444893918319250_);" d="M176.2,401h68c3.3,0,6-2.7,6-6s-2.7-6-6-6
	h-68c-3.3,0-6,2.7-6,6S172.9,401,176.2,401z"/>
<linearGradient id="SVGID_00000170238806173958453670000016624697356096987789_" gradientUnits="userSpaceOnUse" x1="235.1" y1="420" x2="341.82" y2="420">
	<stop  offset="0" style="stop-color:#E1C495"/>
	<stop  offset="1" style="stop-color:#EE8A66"/>
</linearGradient>
<path style="fill:url(#SVGID_00000170238806173958453670000016624697356096987789_);" d="M335.8,414h-94.7c-3.3,0-6,2.7-6,6
	s2.7,6,6,6h94.7c3.3,0,6-2.7,6-6S339.1,414,335.8,414z"/>
<linearGradient id="SVGID_00000078042472096605800210000000283760684243063224_" gradientUnits="userSpaceOnUse" x1="170.18" y1="420" x2="221.242" y2="420">
	<stop  offset="0" style="stop-color:#E1C495"/>
	<stop  offset="1" style="stop-color:#EE8A66"/>
</linearGradient>
<path style="fill:url(#SVGID_00000078042472096605800210000000283760684243063224_);" d="M215.2,414h-39.1c-3.3,0-6,2.7-6,6
	s2.7,6,6,6h39.1c3.3,0,6-2.7,6-6S218.6,414,215.2,414z"/>
<linearGradient id="SVGID_00000098928315283704895540000013263871614675037315_" gradientUnits="userSpaceOnUse" x1="142" y1="224.707" x2="154" y2="224.707">
	<stop  offset="0" style="stop-color:#E1C495"/>
	<stop  offset="1" style="stop-color:#EE8A66"/>
</linearGradient>
<path style="fill:url(#SVGID_00000098928315283704895540000013263871614675037315_);" d="M148,217.4c-3.3,0-6,2.7-6,6v2.7
	c0,3.3,2.7,6,6,6s6-2.7,6-6v-2.7C154,220.1,151.3,217.4,148,217.4z"/>
<linearGradient id="SVGID_00000090252321148116693300000004110141847483813265_" gradientUnits="userSpaceOnUse" x1="142" y1="299.5875" x2="154" y2="299.5875">
	<stop  offset="0" style="stop-color:#E1C495"/>
	<stop  offset="1" style="stop-color:#EE8A66"/>
</linearGradient>
<path style="fill:url(#SVGID_00000090252321148116693300000004110141847483813265_);" d="M148,239.7c-3.3,0-6,2.7-6,6v107.8
	c0,3.3,2.7,6,6,6s6-2.7,6-6V245.7C154,242.4,151.3,239.7,148,239.7L148,239.7z"/>
</svg>
