<svg id="Capa_1" enable-background="new 0 0 512 512" viewBox="0 0 512 512"
    xmlns="http://www.w3.org/2000/svg" xmlns:xlink="http://www.w3.org/1999/xlink">
    <linearGradient id="SVGID_1_" gradientUnits="userSpaceOnUse" x1="4.384" x2="362.883"
        y1="507.593" y2="149.094">
        <stop offset="0" stop-color="#E1C495" />
        <stop offset="1" stop-color="#FFFFFF" />
    </linearGradient>
    <linearGradient id="SVGID_2_"
        gradientUnits="userSpaceOnUse" x1="239.498" x2="457.647" y1="272.484" y2="54.335">
        <stop offset="0" stop-color="#EE8A66" />
        <stop offset="1" stop-color="#E1C495" />
    </linearGradient>
    <g>
        <path
            d="m430.313 269.332c-12.886-12.886-33.777-12.887-46.665-.004l28.28-28.28c12.887-12.887 12.887-33.782 0-46.669-12.887-12.887-33.781-12.887-46.668-.001l21.213-21.213c12.887-12.887 12.887-33.782 0-46.669s-33.782-12.887-46.669 0l-21.213 21.213c12.887-12.887 12.886-33.781-.001-46.668s-33.782-12.887-46.669 0l-84.847 84.847c12.882-12.888 12.88-33.778-.005-46.663-12.887-12.887-33.782-12.887-46.669 0l-73.914 73.914c-19.995 19.995-29.995 47.615-27.435 75.776l3.043 33.468-37.7 37.7c-2.814 2.814-4.394 6.629-4.394 10.607v126.31c0 8.284 6.716 15 15 15h156.533c3.978 0 7.793-1.58 10.606-4.393l23.836-23.836 30.519-3.391c21.358-2.373 41.489-12.048 56.685-27.243l137.135-137.135c12.887-12.888 12.887-33.782-.001-46.67z"
            fill="url(#SVGID_1_)" />
        <path
            d="m467.726 44.113c-28.373-28.446-66.121-44.113-106.288-44.113-39.838 0-77.407 15.516-105.438 43.078-28.031-27.562-65.6-43.078-105.438-43.078-83.02 0-150.562 67.542-150.562 150.562 0 33.624 13.689 70.574 40.719 109.98 3.765-17.76 12.598-34.235 25.767-47.404l73.914-73.914c12.887-12.887 33.782-12.887 46.669 0 12.885 12.885 12.887 33.776.005 46.663l84.847-84.847c12.887-12.887 33.782-12.887 46.669 0s12.887 33.781.001 46.668l21.213-21.213c12.887-12.887 33.782-12.887 46.669 0s12.887 33.782 0 46.669l-21.213 21.213c12.887-12.887 33.781-12.886 46.668.001 12.887 12.887 12.887 33.782 0 46.669l-28.28 28.28c12.888-12.883 33.779-12.882 46.665.004 8.89 8.89 11.647 21.591 8.271 32.845 48.719-55.353 73.416-106.348 73.416-151.614v-.101c-.271-40.227-15.994-77.996-44.274-106.348z"
            fill="url(#SVGID_2_)" />
    </g>
    <g />
    <g />
    <g />
    <g />
    <g />
    <g />
    <g />
    <g />
    <g />
    <g />
    <g />
    <g />
    <g />
    <g />
    <g />
</svg>