<?xml version="1.0" encoding="utf-8"?>
<!-- Generator: Adobe Illustrator 28.2.0, SVG Export Plug-In . SVG Version: 6.00 Build 0)  -->
<svg version="1.1" id="Layer_1" xmlns="http://www.w3.org/2000/svg" xmlns:xlink="http://www.w3.org/1999/xlink" x="0px" y="0px"
	 viewBox="0 0 512 512" style="enable-background:new 0 0 512 512;" xml:space="preserve">
<style type="text/css">
	.st0{fill:url(#SVGID_1_);}
	.st1{fill:url(#SVGID_00000111172861037639300730000002340895158786221475_);}
	.st2{fill:url(#SVGID_00000000183204964000060450000018068406765944762761_);}
	.st3{fill:url(#SVGID_00000090273037572627670140000013102036021165958077_);}
	.st4{fill:url(#SVGID_00000115499822083803328040000011588309813726694273_);}
	.st5{fill:url(#SVGID_00000156549085424250403470000004530020225093405088_);}
	.st6{fill:url(#SVGID_00000169555176078677035510000018371316268144692892_);}
	.st7{fill:url(#SVGID_00000105412242900892658540000011309140936462979201_);}
	.st8{fill:url(#SVGID_00000096043434086336535980000001116138682958586504_);}
	.st9{fill:url(#SVGID_00000055686221706764241410000002916480441974630549_);}
	.st10{fill:url(#SVGID_00000090281898470473835140000014324001198407194268_);}
	.st11{fill:url(#SVGID_00000118367419673452873470000010634125186154763913_);}
	.st12{fill:url(#SVGID_00000174579257459819616490000012172428691038794884_);}
	.st13{fill:url(#SVGID_00000049927844762032437410000007452620634937822885_);}
	.st14{fill:url(#SVGID_00000017505149603873867610000002785771481771137712_);}
	.st15{fill:url(#SVGID_00000141426975582634491380000001394456953491299515_);}
	.st16{fill:url(#SVGID_00000041279510547164106040000000970461233204680343_);}
	.st17{fill:url(#SVGID_00000059288241123497511000000008060590152914826929_);}
	.st18{fill:url(#SVGID_00000096750971853129346140000003475188847356621720_);}
	.st19{fill:url(#SVGID_00000138538731275435806880000011175576409753573558_);}
	.st20{fill:url(#SVGID_00000129166479425258131910000008640903983871124130_);}
	.st21{fill:url(#SVGID_00000089554475545059774880000010888081050072483255_);}
	.st22{fill:url(#SVGID_00000172425232753342748210000000253862437170123708_);}
	.st23{fill:url(#SVGID_00000106853021388389115570000010180749025784266901_);}
	.st24{fill:url(#SVGID_00000070818681036428974670000011220432661781364915_);}
	.st25{fill:url(#SVGID_00000106115679976886263950000004828232968362097549_);}
	.st26{fill:url(#SVGID_00000128457947657924285670000012306308679943379622_);}
	.st27{fill:url(#SVGID_00000146478087671085765920000013056750362883461024_);}
	.st28{fill:url(#SVGID_00000078765183430340370770000011878500716422160273_);}
	.st29{fill:url(#SVGID_00000127727009741807896860000009311287457854750140_);}
	.st30{fill:url(#SVGID_00000181774711148296504600000010934613708508491912_);}
	.st31{fill:url(#SVGID_00000024712590331307053360000004341345655395243961_);}
	.st32{fill:url(#SVGID_00000010285878695546935110000018067249178647717250_);}
	.st33{fill:url(#SVGID_00000010290691947773054270000000020957610395572386_);}
	.st34{fill:url(#SVGID_00000024690369668204181790000010139315982765703554_);}
	.st35{fill:url(#SVGID_00000170263664646833323160000017010433272639865779_);}
	.st36{fill:url(#SVGID_00000054227424695089073360000004041397958847433367_);}
	.st37{fill:url(#SVGID_00000142869561533482538010000014702195661246686101_);}
	.st38{fill:url(#SVGID_00000047041176630928648790000004615490526869313157_);}
	.st39{fill:url(#SVGID_00000167383047197514908410000016184416895680712125_);}
	.st40{fill:url(#SVGID_00000066513827760234325730000003765384179833746335_);}
	.st41{fill:url(#SVGID_00000106124544597648572370000013896649558489640088_);}
	.st42{fill:url(#SVGID_00000123424238557629634200000010650114182369072821_);}
	.st43{fill:url(#SVGID_00000052800981729608968090000007576490007327843732_);}
	.st44{fill:url(#SVGID_00000093861020748945370010000003332135760596039592_);}
	.st45{fill:url(#SVGID_00000169558535973731785590000016387850357051013558_);}
	.st46{fill:url(#SVGID_00000091694128930561968390000017133236537251987610_);}
	.st47{fill:url(#SVGID_00000156562318772706447270000016100280990273616022_);}
	.st48{fill:url(#SVGID_00000054956087085745643530000000158545041546669718_);}
	.st49{fill:url(#SVGID_00000166660007881143057190000015832553979551214012_);}
</style>
<linearGradient id="SVGID_1_" gradientUnits="userSpaceOnUse" x1="441.032" y1="307.094" x2="495.02" y2="307.094">
	<stop  offset="0" style="stop-color:#E1C495"/>
	<stop  offset="1" style="stop-color:#EE8A66"/>
</linearGradient>
<path class="st0" d="M441,307.1c0,14.9,12.1,27,27,27s27-12.1,27-27c0-14.9-12.1-27-27-27c0,0,0,0,0,0
	C453.1,280.1,441,292.2,441,307.1z M468,292.1c8.3,0,15,6.7,15,15s-6.7,15-15,15c-8.3,0-15-6.7-15-15
	C453,298.8,459.7,292.1,468,292.1z"/>
<linearGradient id="SVGID_00000172402452055390755900000000150785563832930481_" gradientUnits="userSpaceOnUse" x1="278.7821" y1="271.7651" x2="322.2816" y2="271.7651">
	<stop  offset="0" style="stop-color:#E1C495"/>
	<stop  offset="1" style="stop-color:#EE8A66"/>
</linearGradient>
<path style="fill:url(#SVGID_00000172402452055390755900000000150785563832930481_);" d="M308.7,291.9c11.1-4.5,16.5-17.2,11.9-28.3
	c-4.5-11.1-17.2-16.5-28.3-11.9c-11.1,4.5-16.5,17.2-11.9,28.3c3.3,8.2,11.3,13.5,20.2,13.5C303.4,293.5,306.1,293,308.7,291.9z
	 M291.5,275.4c-2-5,0.4-10.7,5.3-12.7s10.7,0.4,12.7,5.3s-0.4,10.7-5.3,12.7c0,0,0,0,0,0C299.2,282.8,293.5,280.4,291.5,275.4z"/>
<linearGradient id="SVGID_00000080195972950531020680000018369878517512762302_" gradientUnits="userSpaceOnUse" x1="315.0325" y1="298.3287" x2="328.1001" y2="298.3287">
	<stop  offset="0" style="stop-color:#6AA2BC"/>
	<stop  offset="1" style="stop-color:#38668D"/>
</linearGradient>
<path style="fill:url(#SVGID_00000080195972950531020680000018369878517512762302_);" d="M315.5,300.8c1.4,3.3,5.2,4.9,8.5,3.6
	s4.9-5.2,3.6-8.5s-5.2-4.9-8.5-3.6c0,0,0,0,0,0C315.8,293.6,314.2,297.4,315.5,300.8C315.5,300.7,315.5,300.8,315.5,300.8z"/>
<linearGradient id="SVGID_00000114068547828272880880000013140827474545342137_" gradientUnits="userSpaceOnUse" x1="26.322" y1="59.4815" x2="69.8157" y2="59.4815">
	<stop  offset="0" style="stop-color:#E1C495"/>
	<stop  offset="1" style="stop-color:#EE8A66"/>
</linearGradient>
<path style="fill:url(#SVGID_00000114068547828272880880000013140827474545342137_);" d="M39.6,79.5c11.1,4.7,23.8-0.5,28.5-11.6
	s-0.5-23.8-11.6-28.5S32.7,40,28,51.1c-2.2,5.3-2.3,11.3-0.1,16.6C30.1,73,34.3,77.3,39.6,79.5z M44.4,50.5c5-2,10.7,0.4,12.7,5.3
	s-0.4,10.7-5.3,12.7S41.1,68.1,39,63.2c0,0,0,0,0,0C37,58.2,39.4,52.5,44.4,50.5C44.3,50.5,44.4,50.5,44.4,50.5z"/>
<linearGradient id="SVGID_00000102540422648655134370000001936032819396545689_" gradientUnits="userSpaceOnUse" x1="68.1051" y1="38.4442" x2="81.1548" y2="38.4442">
	<stop  offset="0" style="stop-color:#6AA2BC"/>
	<stop  offset="1" style="stop-color:#38668D"/>
</linearGradient>
<path style="fill:url(#SVGID_00000102540422648655134370000001936032819396545689_);" d="M72.1,44.5c3.3,1.4,7.1-0.2,8.5-3.5
	c1.4-3.3-0.2-7.1-3.5-8.5c-3.3-1.4-7.1,0.2-8.5,3.5c-0.7,1.6-0.7,3.4,0,5C69.2,42.5,70.5,43.8,72.1,44.5z"/>
<linearGradient id="SVGID_00000152962369986206246220000013665279564543024260_" gradientUnits="userSpaceOnUse" x1="261.541" y1="420.456" x2="315.527" y2="420.456">
	<stop  offset="0" style="stop-color:#E1C495"/>
	<stop  offset="1" style="stop-color:#EE8A66"/>
</linearGradient>
<path style="fill:url(#SVGID_00000152962369986206246220000013665279564543024260_);" d="M288.5,393.5c-14.9,0-27,12.1-27,27
	s12.1,27,27,27c14.9,0,27-12.1,27-27c0,0,0,0,0,0C315.5,405.6,303.4,393.5,288.5,393.5z M288.5,435.4c-8.3,0-15-6.7-15-15
	s6.7-15,15-15c8.3,0,15,6.7,15,15c0,0,0,0,0,0C303.5,428.7,296.8,435.4,288.5,435.4z"/>
<linearGradient id="SVGID_00000175286253488257980580000000817811672438790840_" gradientUnits="userSpaceOnUse" x1="280.436" y1="374.271" x2="296.636" y2="374.271">
	<stop  offset="0" style="stop-color:#6AA2BC"/>
	<stop  offset="1" style="stop-color:#38668D"/>
</linearGradient>
<path style="fill:url(#SVGID_00000175286253488257980580000000817811672438790840_);" d="M280.4,374.3c0,4.5,3.6,8.1,8.1,8.1
	s8.1-3.6,8.1-8.1s-3.6-8.1-8.1-8.1C284.1,366.2,280.4,369.8,280.4,374.3z"/>
<linearGradient id="SVGID_00000124846221301283801430000018265100597340164749_" gradientUnits="userSpaceOnUse" x1="280.435" y1="466.642" x2="296.635" y2="466.642">
	<stop  offset="0" style="stop-color:#6AA2BC"/>
	<stop  offset="1" style="stop-color:#38668D"/>
</linearGradient>
<path style="fill:url(#SVGID_00000124846221301283801430000018265100597340164749_);" d="M288.5,458.5c-4.5,0-8.1,3.6-8.1,8.1
	s3.6,8.1,8.1,8.1s8.1-3.6,8.1-8.1C296.6,462.2,293,458.5,288.5,458.5z"/>
<linearGradient id="SVGID_00000000221713157082630380000010597076102357443459_" gradientUnits="userSpaceOnUse" x1="234.249" y1="420.456" x2="250.449" y2="420.456">
	<stop  offset="0" style="stop-color:#6AA2BC"/>
	<stop  offset="1" style="stop-color:#38668D"/>
</linearGradient>
<path style="fill:url(#SVGID_00000000221713157082630380000010597076102357443459_);" d="M250.4,420.5c0-4.5-3.6-8.1-8.1-8.1
	s-8.1,3.6-8.1,8.1s3.6,8.1,8.1,8.1C246.8,428.6,250.4,424.9,250.4,420.5z"/>
<linearGradient id="SVGID_00000152239198394077289770000017278634812408047781_" gradientUnits="userSpaceOnUse" x1="326.62" y1="420.457" x2="342.82" y2="420.457">
	<stop  offset="0" style="stop-color:#6AA2BC"/>
	<stop  offset="1" style="stop-color:#38668D"/>
</linearGradient>
<path style="fill:url(#SVGID_00000152239198394077289770000017278634812408047781_);" d="M334.7,412.4c-4.5,0-8.1,3.6-8.1,8.1
	s3.6,8.1,8.1,8.1s8.1-3.6,8.1-8.1C342.8,416,339.2,412.4,334.7,412.4z"/>
<linearGradient id="SVGID_00000172442653116196974970000007358239985998589835_" gradientUnits="userSpaceOnUse" x1="247.7791" y1="453.112" x2="263.9791" y2="453.112">
	<stop  offset="0" style="stop-color:#6AA2BC"/>
	<stop  offset="1" style="stop-color:#38668D"/>
</linearGradient>
<path style="fill:url(#SVGID_00000172442653116196974970000007358239985998589835_);" d="M255.9,445c-2.1,0-4.2,0.8-5.7,2.4
	c-3.2,3.2-3.2,8.3,0,11.5c3.2,3.2,8.3,3.2,11.5,0c3.2-3.2,3.2-8.3,0-11.5C260.1,445.9,258,445,255.9,445L255.9,445z"/>
<linearGradient id="SVGID_00000167379773536306491210000004680869188927610809_" gradientUnits="userSpaceOnUse" x1="313.0931" y1="387.8" x2="329.2931" y2="387.8">
	<stop  offset="0" style="stop-color:#6AA2BC"/>
	<stop  offset="1" style="stop-color:#38668D"/>
</linearGradient>
<path style="fill:url(#SVGID_00000167379773536306491210000004680869188927610809_);" d="M321.2,395.9c4.5,0,8.1-3.6,8.1-8.1
	c0-4.5-3.6-8.1-8.1-8.1c-4.5,0-8.1,3.6-8.1,8.1c0,2.1,0.9,4.2,2.4,5.7C317,395.1,319,395.9,321.2,395.9z"/>
<linearGradient id="SVGID_00000086670926974660423810000013011923879306563746_" gradientUnits="userSpaceOnUse" x1="247.7779" y1="387.803" x2="263.9749" y2="387.803">
	<stop  offset="0" style="stop-color:#6AA2BC"/>
	<stop  offset="1" style="stop-color:#38668D"/>
</linearGradient>
<path style="fill:url(#SVGID_00000086670926974660423810000013011923879306563746_);" d="M255.9,395.9c4.5,0,8.1-3.6,8.1-8.1
	c0-2.1-0.9-4.2-2.4-5.7l0,0c-3.2-3.2-8.3-3.2-11.5,0c-3.2,3.2-3.2,8.3,0,11.5C251.7,395.1,253.7,395.9,255.9,395.9L255.9,395.9z"/>
<linearGradient id="SVGID_00000059283979236670508840000011115148140914391231_" gradientUnits="userSpaceOnUse" x1="313.0899" y1="453.112" x2="329.3125" y2="453.112">
	<stop  offset="0" style="stop-color:#6AA2BC"/>
	<stop  offset="1" style="stop-color:#38668D"/>
</linearGradient>
<path style="fill:url(#SVGID_00000059283979236670508840000011115148140914391231_);" d="M326.9,447.4c-3.2-3.2-8.3-3.2-11.5,0
	c-3.2,3.2-3.2,8.3,0,11.5c3.2,3.2,8.3,3.2,11.5,0c0,0,0,0,0,0C330.1,455.7,330.1,450.6,326.9,447.4
	C327,447.4,326.9,447.4,326.9,447.4z"/>
<linearGradient id="SVGID_00000003089885190537775920000002442347271654920856_" gradientUnits="userSpaceOnUse" x1="414.791" y1="250.412" x2="430.991" y2="250.412">
	<stop  offset="0" style="stop-color:#6AA2BC"/>
	<stop  offset="1" style="stop-color:#38668D"/>
</linearGradient>
<path style="fill:url(#SVGID_00000003089885190537775920000002442347271654920856_);" d="M414.8,250.4c0,4.5,3.6,8.1,8.1,8.1
	s8.1-3.6,8.1-8.1c0-4.5-3.6-8.1-8.1-8.1C418.4,242.3,414.8,245.9,414.8,250.4z"/>
<linearGradient id="SVGID_00000134967781553235282220000002211661081946973599_" gradientUnits="userSpaceOnUse" x1="285.683" y1="36.282" x2="301.883" y2="36.282">
	<stop  offset="0" style="stop-color:#6AA2BC"/>
	<stop  offset="1" style="stop-color:#38668D"/>
</linearGradient>
<path style="fill:url(#SVGID_00000134967781553235282220000002211661081946973599_);" d="M293.8,44.4c4.5,0,8.1-3.6,8.1-8.1
	s-3.6-8.1-8.1-8.1s-8.1,3.6-8.1,8.1C285.7,40.8,289.3,44.4,293.8,44.4z"/>
<linearGradient id="SVGID_00000007428407320512215870000000343912192422838970_" gradientUnits="userSpaceOnUse" x1="33.766" y1="319.689" x2="49.966" y2="319.689">
	<stop  offset="0" style="stop-color:#6AA2BC"/>
	<stop  offset="1" style="stop-color:#38668D"/>
</linearGradient>
<path style="fill:url(#SVGID_00000007428407320512215870000000343912192422838970_);" d="M50,319.7c0-4.5-3.6-8.1-8.1-8.1
	s-8.1,3.6-8.1,8.1s3.6,8.1,8.1,8.1C46.3,327.8,50,324.2,50,319.7z"/>
<linearGradient id="SVGID_00000124151514395058216590000012384331759793766327_" gradientUnits="userSpaceOnUse" x1="20.122" y1="156.993" x2="36.32" y2="156.993">
	<stop  offset="0" style="stop-color:#6AA2BC"/>
	<stop  offset="1" style="stop-color:#38668D"/>
</linearGradient>
<circle style="fill:url(#SVGID_00000124151514395058216590000012384331759793766327_);" cx="28.2" cy="157" r="8.1"/>
<linearGradient id="SVGID_00000073702322291778315530000013075267842694227870_" gradientUnits="userSpaceOnUse" x1="354.961" y1="493.933" x2="371.161" y2="493.933">
	<stop  offset="0" style="stop-color:#6AA2BC"/>
	<stop  offset="1" style="stop-color:#38668D"/>
</linearGradient>
<path style="fill:url(#SVGID_00000073702322291778315530000013075267842694227870_);" d="M363.1,485.8c-4.5,0-8.1,3.6-8.1,8.1
	s3.6,8.1,8.1,8.1s8.1-3.6,8.1-8.1C371.2,489.5,367.5,485.8,363.1,485.8z"/>
<linearGradient id="SVGID_00000178193683427540531320000003184528327710118785_" gradientUnits="userSpaceOnUse" x1="183.867" y1="288.2" x2="200.067" y2="288.2">
	<stop  offset="0" style="stop-color:#6AA2BC"/>
	<stop  offset="1" style="stop-color:#38668D"/>
</linearGradient>
<path style="fill:url(#SVGID_00000178193683427540531320000003184528327710118785_);" d="M192,280.1c-4.5,0-8.1,3.6-8.1,8.1
	s3.6,8.1,8.1,8.1c4.5,0,8.1-3.6,8.1-8.1C200.1,283.7,196.4,280.1,192,280.1z"/>
<linearGradient id="SVGID_00000181778847079242414820000011947763077724745361_" gradientUnits="userSpaceOnUse" x1="471.471" y1="164.34" x2="487.671" y2="164.34">
	<stop  offset="0" style="stop-color:#6AA2BC"/>
	<stop  offset="1" style="stop-color:#38668D"/>
</linearGradient>
<path style="fill:url(#SVGID_00000181778847079242414820000011947763077724745361_);" d="M479.6,172.4c4.5,0,8.1-3.6,8.1-8.1
	s-3.6-8.1-8.1-8.1s-8.1,3.6-8.1,8.1C471.5,168.8,475.1,172.4,479.6,172.4z"/>
<linearGradient id="SVGID_00000156563899045859813040000004599567057290016920_" gradientUnits="userSpaceOnUse" x1="213.256" y1="152.8" x2="229.456" y2="152.8">
	<stop  offset="0" style="stop-color:#6AA2BC"/>
	<stop  offset="1" style="stop-color:#38668D"/>
</linearGradient>
<path style="fill:url(#SVGID_00000156563899045859813040000004599567057290016920_);" d="M221.4,144.7c-4.5,0-8.1,3.6-8.1,8.1
	s3.6,8.1,8.1,8.1c4.5,0,8.1-3.6,8.1-8.1C229.5,148.3,225.8,144.7,221.4,144.7z"/>
<linearGradient id="SVGID_00000088097259659546328360000006653703159546190777_" gradientUnits="userSpaceOnUse" x1="380.864" y1="282.313" x2="429.955" y2="282.313">
	<stop  offset="0" style="stop-color:#6AA2BC"/>
	<stop  offset="1" style="stop-color:#38668D"/>
</linearGradient>
<path style="fill:url(#SVGID_00000088097259659546328360000006653703159546190777_);" d="M399.7,302.8c1,3.1,4.4,4.8,7.6,3.8
	c1.8-0.6,3.2-2,3.8-3.8c2.3-7,7.8-12.5,14.8-14.8c3.1-1.1,4.8-4.5,3.8-7.6c-0.6-1.8-2-3.2-3.8-3.8c-7-2.4-12.4-7.8-14.8-14.8
	c-1-3.1-4.4-4.8-7.6-3.8c-1.8,0.6-3.2,2-3.8,3.8c-2.3,7-7.8,12.4-14.8,14.8c-3.1,1.1-4.8,4.5-3.8,7.6c0.6,1.8,2,3.2,3.8,3.8
	C391.9,290.4,397.4,295.8,399.7,302.8z M405.4,276.2c1.8,2.3,3.8,4.3,6.1,6.1c-2.3,1.8-4.3,3.8-6.1,6.1c-1.8-2.3-3.8-4.3-6.1-6.1
	C401.6,280.5,403.6,278.5,405.4,276.2L405.4,276.2z"/>
<linearGradient id="SVGID_00000088836486788832663430000015147796973588023169_" gradientUnits="userSpaceOnUse" x1="256.302" y1="205.291" x2="305.394" y2="205.291">
	<stop  offset="0" style="stop-color:#6AA2BC"/>
	<stop  offset="1" style="stop-color:#38668D"/>
</linearGradient>
<path style="fill:url(#SVGID_00000088836486788832663430000015147796973588023169_);" d="M260.4,211c7,2.4,12.4,7.8,14.8,14.8
	c1,3.1,4.4,4.8,7.6,3.8c1.8-0.6,3.2-2,3.8-3.8c2.3-7,7.8-12.4,14.8-14.8c3.1-1.1,4.8-4.5,3.8-7.6c-0.6-1.8-2-3.2-3.8-3.8
	c-7-2.4-12.4-7.8-14.8-14.8c-1-3.1-4.4-4.8-7.6-3.8c-1.8,0.6-3.2,2-3.8,3.8c-2.3,7-7.8,12.4-14.8,14.8c-3.1,1.1-4.8,4.5-3.8,7.6
	C257.2,209,258.6,210.4,260.4,211L260.4,211z M280.8,199.2c1.8,2.3,3.8,4.3,6.1,6.1c-2.3,1.8-4.3,3.8-6.1,6.1
	c-1.8-2.3-3.8-4.3-6.1-6.1C277,203.5,279.1,201.5,280.8,199.2L280.8,199.2z"/>
<linearGradient id="SVGID_00000116951961397576017720000007511739134397371825_" gradientUnits="userSpaceOnUse" x1="16.9795" y1="225.2375" x2="66.0745" y2="225.2375">
	<stop  offset="0" style="stop-color:#6AA2BC"/>
	<stop  offset="1" style="stop-color:#38668D"/>
</linearGradient>
<path style="fill:url(#SVGID_00000116951961397576017720000007511739134397371825_);" d="M35.8,245.7c1,3.1,4.4,4.8,7.6,3.8
	c1.8-0.6,3.2-2,3.8-3.8c2.3-7,7.8-12.4,14.8-14.8c3.1-1.1,4.8-4.4,3.8-7.6c-0.6-1.8-2-3.2-3.8-3.8c-7-2.4-12.4-7.8-14.8-14.8
	c-1-3.1-4.4-4.8-7.6-3.8c-1.8,0.6-3.2,2-3.8,3.8c-2.3,7-7.8,12.4-14.8,14.8c-3.1,1.1-4.8,4.4-3.8,7.6c0.6,1.8,2,3.2,3.8,3.8
	C28,233.3,33.5,238.8,35.8,245.7z M41.5,219.1c1.8,2.3,3.8,4.3,6.1,6.1c-2.3,1.8-4.3,3.8-6.1,6.1c-1.8-2.3-3.8-4.3-6.1-6.1
	C37.7,223.5,39.7,221.4,41.5,219.1z"/>
<linearGradient id="SVGID_00000044868070245032857700000006286967429054539403_" gradientUnits="userSpaceOnUse" x1="145.0375" y1="482.3995" x2="194.1315" y2="482.3995">
	<stop  offset="0" style="stop-color:#6AA2BC"/>
	<stop  offset="1" style="stop-color:#38668D"/>
</linearGradient>
<path style="fill:url(#SVGID_00000044868070245032857700000006286967429054539403_);" d="M190,476.7c-7-2.4-12.4-7.8-14.8-14.8
	c-1-3.1-4.4-4.8-7.6-3.8c-1.8,0.6-3.2,2-3.8,3.8c-2.3,7-7.8,12.4-14.8,14.8c-3.1,1.1-4.8,4.4-3.8,7.6c0.6,1.8,2,3.2,3.8,3.8
	c7,2.4,12.4,7.8,14.8,14.8c1,3.1,4.4,4.8,7.6,3.8c1.8-0.6,3.2-2,3.8-3.8c2.3-7,7.8-12.4,14.8-14.8c3.1-1.1,4.8-4.4,3.8-7.6
	C193.2,478.7,191.8,477.3,190,476.7z M169.6,488.5c-1.8-2.3-3.8-4.3-6.1-6.1c2.3-1.8,4.3-3.8,6.1-6.1c1.8,2.3,3.8,4.3,6.1,6.1
	C173.4,484.2,171.4,486.2,169.6,488.5L169.6,488.5z"/>
<linearGradient id="SVGID_00000011737425394554568450000002132585470333738644_" gradientUnits="userSpaceOnUse" x1="457.0006" y1="103.8826" x2="469.8383" y2="103.8826">
	<stop  offset="0" style="stop-color:#E1C495"/>
	<stop  offset="1" style="stop-color:#EE8A66"/>
</linearGradient>
<path style="fill:url(#SVGID_00000011737425394554568450000002132585470333738644_);" d="M463,110.2c1.3,0,2.6-0.4,3.6-1.2l0.8-0.6
	c2.7-2,3.2-5.7,1.2-8.4c-2-2.7-5.7-3.2-8.4-1.2l0,0l-0.8,0.6c-2.7,2-3.2,5.7-1.2,8.4C459.3,109.3,461.1,110.2,463,110.2L463,110.2z"
	/>
<linearGradient id="SVGID_00000027603401827425689220000000085086514520332455_" gradientUnits="userSpaceOnUse" x1="437.3105" y1="55.9873" x2="453.8135" y2="55.9873">
	<stop  offset="0" style="stop-color:#E1C495"/>
	<stop  offset="1" style="stop-color:#EE8A66"/>
</linearGradient>
<path style="fill:url(#SVGID_00000027603401827425689220000000085086514520332455_);" d="M443.3,63.8c1.3,0,2.6-0.4,3.7-1.3l4.5-3.5
	c2.6-2,3.1-5.8,1-8.4c-2-2.6-5.8-3.1-8.4-1l0,0l-4.5,3.5c-2.6,2-3.1,5.8-1,8.4C439.7,62.9,441.5,63.8,443.3,63.8z"/>
<linearGradient id="SVGID_00000093894175663050421680000004388492697770002571_" gradientUnits="userSpaceOnUse" x1="314.785" y1="96.119" x2="457.3266" y2="96.119">
	<stop  offset="0" style="stop-color:#E1C495"/>
	<stop  offset="1" style="stop-color:#EE8A66"/>
</linearGradient>
<path style="fill:url(#SVGID_00000093894175663050421680000004388492697770002571_);" d="M359.2,170.3c2.5,0.4,5,0.5,7.5,0.5
	c11.2,0,22-3.6,30.9-10.3l57.2-42.8c2.7-2,3.3-5.7,1.3-8.4c-2-2.7-5.7-3.3-8.4-1.3c0,0-0.1,0.1-0.1,0.1l-57.2,42.8
	c-17.6,13.2-42.6,9.6-55.8-8.1c-13.2-17.6-9.6-42.6,8.1-55.8l73.4-54.9c2.7-2,3.2-5.7,1.3-8.4s-5.7-3.2-8.4-1.3c0,0,0,0-0.1,0
	l-73.4,54.9c-22.9,17.1-27.6,49.6-10.5,72.6C333.3,161.1,345.6,168.4,359.2,170.3L359.2,170.3z"/>
<linearGradient id="SVGID_00000050656377991874802760000003368661356986616706_" gradientUnits="userSpaceOnUse" x1="443.8969" y1="18.9803" x2="463.6395" y2="18.9803">
	<stop  offset="0" style="stop-color:#E1C495"/>
	<stop  offset="1" style="stop-color:#EE8A66"/>
</linearGradient>
<path style="fill:url(#SVGID_00000050656377991874802760000003368661356986616706_);" d="M449.9,28.1c1.4,0,2.7-0.5,3.8-1.3l7.8-6.3
	c2.6-2.1,2.9-5.9,0.8-8.4c-2.1-2.6-5.8-2.9-8.4-0.9l-7.8,6.3c-2.6,2.1-3,5.9-0.9,8.4C446.4,27.3,448.1,28.1,449.9,28.1z"/>
<linearGradient id="SVGID_00000098904689768168187360000013005139931068734602_" gradientUnits="userSpaceOnUse" x1="419.0908" y1="37.6867" x2="442.3631" y2="37.6867">
	<stop  offset="0" style="stop-color:#E1C495"/>
	<stop  offset="1" style="stop-color:#EE8A66"/>
</linearGradient>
<path style="fill:url(#SVGID_00000098904689768168187360000013005139931068734602_);" d="M425.1,48.3c1.4,0,2.7-0.5,3.8-1.3
	l11.3-9.1c2.6-2.1,3-5.9,0.9-8.4s-5.9-3-8.4-0.9l-11.3,9.1c-2.6,2.1-3,5.9-0.9,8.4C421.6,47.4,423.3,48.3,425.1,48.3L425.1,48.3z"/>
<linearGradient id="SVGID_00000132783896650247405060000003728125082939721103_" gradientUnits="userSpaceOnUse" x1="396.71" y1="56.3179" x2="418.8662" y2="56.3179">
	<stop  offset="0" style="stop-color:#E1C495"/>
	<stop  offset="1" style="stop-color:#EE8A66"/>
</linearGradient>
<path style="fill:url(#SVGID_00000132783896650247405060000003728125082939721103_);" d="M409.1,47.5l-10.2,8.3
	c-2.5,2.1-2.9,5.9-0.8,8.4c2.1,2.5,5.8,2.9,8.3,0.9l10.2-8.3c2.6-2.1,3-5.9,0.9-8.4S411.7,45.4,409.1,47.5z"/>
<linearGradient id="SVGID_00000126316780790189477320000015001836860544779436_" gradientUnits="userSpaceOnUse" x1="473.6038" y1="53.6216" x2="492.6834" y2="53.6216">
	<stop  offset="0" style="stop-color:#E1C495"/>
	<stop  offset="1" style="stop-color:#EE8A66"/>
</linearGradient>
<path style="fill:url(#SVGID_00000126316780790189477320000015001836860544779436_);" d="M479.6,62.6c1.4,0,2.8-0.5,3.9-1.4l7-5.9
	c2.6-2.1,2.9-5.9,0.8-8.4s-5.9-2.9-8.4-0.8c0,0-0.1,0.1-0.1,0.1l-7,5.9c-2.5,2.1-2.9,5.9-0.7,8.5C476.2,61.8,477.8,62.6,479.6,62.6
	L479.6,62.6z"/>
<linearGradient id="SVGID_00000073684838849960148630000002065435908994437779_" gradientUnits="userSpaceOnUse" x1="437.3128" y1="77.0576" x2="473.2644" y2="77.0576">
	<stop  offset="0" style="stop-color:#E1C495"/>
	<stop  offset="1" style="stop-color:#EE8A66"/>
</linearGradient>
<path style="fill:url(#SVGID_00000073684838849960148630000002065435908994437779_);" d="M443.3,93.1c1.4,0,2.8-0.5,3.9-1.4
	l23.9-20.1c2.6-2.1,2.9-5.9,0.8-8.4c-2.1-2.6-5.9-2.9-8.4-0.8c0,0-0.1,0.1-0.1,0.1l-23.9,20.1c-2.5,2.1-2.9,5.9-0.7,8.5
	C439.9,92.4,441.5,93.1,443.3,93.1L443.3,93.1z"/>
<linearGradient id="SVGID_00000139251819926480531450000001760634312406004134_" gradientUnits="userSpaceOnUse" x1="422.6628" y1="97.8273" x2="438.5545" y2="97.8273">
	<stop  offset="0" style="stop-color:#E1C495"/>
	<stop  offset="1" style="stop-color:#EE8A66"/>
</linearGradient>
<path style="fill:url(#SVGID_00000139251819926480531450000001760634312406004134_);" d="M428.7,105.5c1.4,0,2.8-0.5,3.9-1.4
	l3.9-3.3c2.5-2.2,2.8-5.9,0.6-8.5c-2.1-2.5-5.8-2.8-8.4-0.7l-3.9,3.3c-2.5,2.1-2.9,5.9-0.7,8.5C425.2,104.7,426.9,105.5,428.7,105.5
	L428.7,105.5z"/>
<linearGradient id="SVGID_00000161593942687260210500000006114251946227695254_" gradientUnits="userSpaceOnUse" x1="453.8837" y1="33.4384" x2="494.7321" y2="33.4384">
	<stop  offset="0" style="stop-color:#E1C495"/>
	<stop  offset="1" style="stop-color:#EE8A66"/>
</linearGradient>
<path style="fill:url(#SVGID_00000161593942687260210500000006114251946227695254_);" d="M455.2,48.5c2,2.6,5.8,3.1,8.4,1
	c0,0,0,0,0,0l28.8-22.6c2.6-2,3.1-5.8,1-8.4c-2-2.6-5.8-3.1-8.4-1l0,0L456.2,40C453.6,42.1,453.1,45.8,455.2,48.5
	C455.2,48.5,455.2,48.5,455.2,48.5L455.2,48.5z"/>
<linearGradient id="SVGID_00000005948459688341466900000001242941520080106416_" gradientUnits="userSpaceOnUse" x1="396.7052" y1="78.5898" x2="437.0467" y2="78.5898">
	<stop  offset="0" style="stop-color:#E1C495"/>
	<stop  offset="1" style="stop-color:#EE8A66"/>
</linearGradient>
<path style="fill:url(#SVGID_00000005948459688341466900000001242941520080106416_);" d="M406.4,94.5l28.4-22.5c2.6-2.1,3-5.8,1-8.4
	c-2.1-2.6-5.8-3-8.4-1l-28.4,22.5c-2.6,2.1-3,5.9-0.9,8.4C400.1,96.1,403.8,96.6,406.4,94.5L406.4,94.5z"/>
<linearGradient id="SVGID_00000062887860509537870820000007206539975141456035_" gradientUnits="userSpaceOnUse" x1="423.951" y1="16.951" x2="438.151" y2="16.951">
	<stop  offset="0" style="stop-color:#E1C495"/>
	<stop  offset="1" style="stop-color:#EE8A66"/>
</linearGradient>
<path style="fill:url(#SVGID_00000062887860509537870820000007206539975141456035_);" d="M431,24.1c3.9,0,7.1-3.2,7.1-7.1
	c0-3.9-3.2-7.1-7.1-7.1c-3.9,0-7.1,3.2-7.1,7.1c0,0,0,0,0,0C424,20.9,427.1,24,431,24.1z"/>
<linearGradient id="SVGID_00000111156800081279670050000015356492485514259851_" gradientUnits="userSpaceOnUse" x1="333.341" y1="119.149" x2="398.941" y2="119.149">
	<stop  offset="0" style="stop-color:#6AA2BC"/>
	<stop  offset="1" style="stop-color:#38668D"/>
</linearGradient>
<path style="fill:url(#SVGID_00000111156800081279670050000015356492485514259851_);" d="M366.1,86.3c-18.1,0-32.8,14.7-32.8,32.8
	s14.7,32.8,32.8,32.8c18.1,0,32.8-14.7,32.8-32.8v0C398.9,101,384.2,86.4,366.1,86.3z M366.1,139.9c-11.5,0-20.8-9.3-20.8-20.8
	s9.3-20.8,20.8-20.8s20.8,9.3,20.8,20.8v0C386.9,130.6,377.6,139.9,366.1,139.9z"/>
<linearGradient id="SVGID_00000077308953535519038500000007960257406248240822_" gradientUnits="userSpaceOnUse" x1="353.836" y1="131.361" x2="366.624" y2="131.361">
	<stop  offset="0" style="stop-color:#6AA2BC"/>
	<stop  offset="1" style="stop-color:#38668D"/>
</linearGradient>
<path style="fill:url(#SVGID_00000077308953535519038500000007960257406248240822_);" d="M360.2,125c-3.5,0-6.4,2.9-6.4,6.4
	c0,3.5,2.9,6.4,6.4,6.4c3.5,0,6.4-2.9,6.4-6.4C366.6,127.8,363.8,125,360.2,125z"/>
<linearGradient id="SVGID_00000106116217666071459160000008658132114222952086_" gradientUnits="userSpaceOnUse" x1="349.11" y1="114.022" x2="361.9" y2="114.022">
	<stop  offset="0" style="stop-color:#6AA2BC"/>
	<stop  offset="1" style="stop-color:#38668D"/>
</linearGradient>
<path style="fill:url(#SVGID_00000106116217666071459160000008658132114222952086_);" d="M361.9,114c0-3.5-2.9-6.4-6.4-6.4
	s-6.4,2.9-6.4,6.4c0,3.5,2.9,6.4,6.4,6.4C359,120.4,361.9,117.6,361.9,114z"/>
<linearGradient id="SVGID_00000147218097993604605000000015368334452003259568_" gradientUnits="userSpaceOnUse" x1="372.751" y1="125.056" x2="385.539" y2="125.056">
	<stop  offset="0" style="stop-color:#6AA2BC"/>
	<stop  offset="1" style="stop-color:#38668D"/>
</linearGradient>
<path style="fill:url(#SVGID_00000147218097993604605000000015368334452003259568_);" d="M372.8,125.1c0,3.5,2.9,6.4,6.4,6.4
	s6.4-2.9,6.4-6.4c0-3.5-2.9-6.4-6.4-6.4C375.6,118.7,372.8,121.5,372.8,125.1z"/>
<linearGradient id="SVGID_00000094618271587828952540000004048338188101806756_" gradientUnits="userSpaceOnUse" x1="90.7817" y1="431.5014" x2="157.5012" y2="431.5014">
	<stop  offset="0" style="stop-color:#6AA2BC"/>
	<stop  offset="1" style="stop-color:#38668D"/>
</linearGradient>
<path style="fill:url(#SVGID_00000094618271587828952540000004048338188101806756_);" d="M151.6,398L151.6,398c-3.4,0-6.1,2.7-6.1,6
	c-0.4,27-22,48.8-48.9,49.5c-3.2,0-5.8,2.5-5.8,5.7s2.5,5.8,5.7,5.8c0.1,0,0.1,0,0.2,0h0.1c16-0.1,31.3-6.6,42.4-18
	c11.4-11.4,18-26.8,18.2-43c0.1-3.3-2.5-6-5.8-6C151.7,398,151.6,398,151.6,398z"/>
<linearGradient id="SVGID_00000017473990796179674990000004303970680176088995_" gradientUnits="userSpaceOnUse" x1="27.0265" y1="391.4409" x2="137.3557" y2="391.4409">
	<stop  offset="0" style="stop-color:#6AA2BC"/>
	<stop  offset="1" style="stop-color:#38668D"/>
</linearGradient>
<path style="fill:url(#SVGID_00000017473990796179674990000004303970680176088995_);" d="M124.5,364.1c0.8,0.8,1.6,1.6,2.3,2.5
	c2.2,2.5,6,2.8,8.5,0.6s2.8-6,0.6-8.5c-0.9-1-1.9-2.1-2.9-3.1c-24.2-24.3-63.4-24.3-87.7-0.1c0,0-0.1,0.1-0.1,0.1
	c-24.2,24.3-24.2,63.7,0,88c2.3,2.3,6.1,2.4,8.5,0c2.3-2.3,2.4-6.1,0-8.5l0,0c-19.5-19.7-19.5-51.4,0-71.1
	c19.5-19.6,51.2-19.6,70.7-0.1C124.4,364.1,124.5,364.1,124.5,364.1L124.5,364.1z"/>
<linearGradient id="SVGID_00000027590388222298430340000005344436984300702122_" gradientUnits="userSpaceOnUse" x1="20.1323" y1="399.6828" x2="158.0907" y2="399.6828">
	<stop  offset="0" style="stop-color:#E1C495"/>
	<stop  offset="1" style="stop-color:#EE8A66"/>
</linearGradient>
<path style="fill:url(#SVGID_00000027590388222298430340000005344436984300702122_);" d="M120.4,421c0.9,0.2,1.8,0.2,2.8,0.2
	c9.4,0,17.1-7.7,17.1-17.1c0-2-0.3-3.9-1-5.8c19.9-27.6,24.3-49.3,12.4-61.2c-4.1-4.1-11.6-8.4-24.5-5.8c-3.2,0.7-5.4,3.8-4.7,7.1
	c0.7,3.2,3.8,5.4,7.1,4.7c9.3-1.9,12.6,1.4,13.7,2.5c6.7,6.7,2.1,23.1-12,43.4c-8.3-4.4-18.7-1.2-23.1,7.1c-3.2,6-2.5,13.3,1.7,18.6
	c-0.9,1-1.9,1.9-2.8,2.9c-23.4,23.5-48.8,39.2-63.3,39.2c-3.7,0-6.5-1-8.5-3c-3.2-3.2-3.9-8.6-2-16c0.8-3.2-1.1-6.5-4.3-7.3
	c-3.2-0.8-6.5,1.1-7.3,4.3l0,0c-3.8,14.7,0.6,23,5.1,27.5c4.3,4.4,10.1,6.6,17,6.6c21.5,0,51.1-22.1,71.8-42.8
	C117.1,424.4,118.7,422.7,120.4,421z M123.1,399c2.8,0,5.1,2.3,5.1,5.1c0,2.8-2.3,5.1-5.1,5.1c-2.8,0-5.1-2.3-5.1-5.1c0,0,0,0,0,0
	C118,401.3,120.3,399,123.1,399z"/>
<linearGradient id="SVGID_00000030445370652660392220000011273631239513281456_" gradientUnits="userSpaceOnUse" x1="49.1663" y1="420.9496" x2="61.4048" y2="420.9496">
	<stop  offset="0" style="stop-color:#6AA2BC"/>
	<stop  offset="1" style="stop-color:#38668D"/>
</linearGradient>
<path style="fill:url(#SVGID_00000030445370652660392220000011273631239513281456_);" d="M52,415.6c-2.8,1.7-3.7,5.4-2,8.2l0.2,0.4
	c1.7,2.8,5.4,3.7,8.3,2s3.7-5.4,2-8.3c0,0,0,0,0-0.1l-0.2-0.3C58.6,414.8,54.9,413.9,52,415.6z"/>
<linearGradient id="SVGID_00000174573098843350287500000010216930492370822531_" gradientUnits="userSpaceOnUse" x1="414.7714" y1="433.0136" x2="468.7717" y2="433.0136">
	<stop  offset="0" style="stop-color:#6AA2BC"/>
	<stop  offset="1" style="stop-color:#38668D"/>
</linearGradient>
<path style="fill:url(#SVGID_00000174573098843350287500000010216930492370822531_);" d="M431.6,408c-13.8,5.6-20.4,21.4-14.8,35.2
	c5.6,13.8,21.4,20.4,35.2,14.8c13.8-5.6,20.4-21.4,14.8-35.2c-5.5-13.7-21.1-20.4-34.9-14.9C431.8,408,431.7,408,431.6,408z
	 M455.6,438.8c-3.2,7.6-12,11.2-19.6,8c-7.6-3.2-11.2-12-8-19.6s12-11.2,19.6-8c3.7,1.5,6.6,4.5,8.1,8.2
	C457.2,431.1,457.1,435.2,455.6,438.8L455.6,438.8z"/>
<linearGradient id="SVGID_00000044860270806262214340000017719811088950433965_" gradientUnits="userSpaceOnUse" x1="393.767" y1="433.0402" x2="489.7555" y2="433.0402">
	<stop  offset="0" style="stop-color:#6AA2BC"/>
	<stop  offset="1" style="stop-color:#38668D"/>
</linearGradient>
<path style="fill:url(#SVGID_00000044860270806262214340000017719811088950433965_);" d="M460.4,388.8
	c-24.4-10.3-52.6,1.2-62.8,25.6s1.2,52.6,25.6,62.8c24.4,10.3,52.6-1.2,62.8-25.6c4.9-11.7,5-24.9,0.2-36.7
	C481.4,403.1,472.1,393.7,460.4,388.8z M474.9,447c-7.7,18.3-28.8,26.9-47.1,19.2c-18.3-7.7-26.9-28.8-19.2-47.1
	c7.7-18.3,28.8-26.9,47.1-19.2c8.8,3.7,15.8,10.7,19.4,19.6C478.7,428.3,478.7,438.2,474.9,447z"/>
<linearGradient id="SVGID_00000073705900169168842560000012968805802474281088_" gradientUnits="userSpaceOnUse" x1="132.6499" y1="48.1482" x2="206.7178" y2="48.1482">
	<stop  offset="0" style="stop-color:#6AA2BC"/>
	<stop  offset="1" style="stop-color:#38668D"/>
</linearGradient>
<path style="fill:url(#SVGID_00000073705900169168842560000012968805802474281088_);" d="M202,62.3c6.7-17.7-2.1-37.5-19.8-44.3
	c-5.7-2.2-11.9-2.8-18-1.8c-12.6-10.8-22-13.8-27.8-9.1c-1.9,1.5-7.5,6.1,0.4,23.2c0.7,1.5,1.5,3.1,2.3,4.6
	c-0.5,0.9-0.9,1.9-1.2,2.9c-6.7,17.8,2.2,37.6,20,44.3c3.9,1.5,8,2.2,12.1,2.2c3.2,0,6.3-0.5,9.4-1.3c0.4,0.3,0.8,0.6,1.2,0.9
	c6.6,4.8,12.1,7.2,16.5,7.2c2.2,0,4.3-0.6,6-1.9c6.7-4.9,3.3-16.3-1.4-26C201.7,63.1,201.8,62.7,202,62.3L202,62.3z M144.8,17.6
	c2.2,1,4.4,2.3,6.3,3.7c-1.4,0.9-2.7,1.9-4,3C146.2,22.2,145.4,19.9,144.8,17.6L144.8,17.6z M161.9,71c-9.1-3.5-14.9-12.4-14.4-22.1
	c2.5,3.6,5.2,7.2,8.1,10.8c3.7,4.5,7.5,8.8,11.3,12.6C165.3,72,163.6,71.6,161.9,71L161.9,71z M181.3,69.3C175.4,64,170,58.2,165,52
	c-4.3-5.3-8.3-10.8-11.9-16.6c4.3-4.8,10.4-7.6,16.8-7.6c12.3,0,22.3,10,22.3,22.3C192.2,58,188.1,65.2,181.3,69.3L181.3,69.3z
	 M191.3,76.9c0.7-0.6,1.4-1.1,2-1.8c0.4,1.3,0.8,2.4,1,3.4C193.4,78.1,192.3,77.5,191.3,76.9L191.3,76.9z"/>
<linearGradient id="SVGID_00000062884607951365118090000015589036796018427814_" gradientUnits="userSpaceOnUse" x1="86.25" y1="193.731" x2="175.924" y2="193.731">
	<stop  offset="0" style="stop-color:#6AA2BC"/>
	<stop  offset="1" style="stop-color:#38668D"/>
</linearGradient>
<path style="fill:url(#SVGID_00000062884607951365118090000015589036796018427814_);" d="M131.1,238.6c24.8,0,44.8-20.1,44.8-44.8
	c0-24.8-20.1-44.8-44.8-44.8c-24.8,0-44.8,20.1-44.8,44.8C86.3,218.5,106.3,238.5,131.1,238.6z M101.1,180H122c3.3,0,6-2.7,6-6
	s-2.7-6-6-6h-11.7c5.7-4,12.9-7.3,20.8-7.3c18.2,0.1,32.9,14.9,32.8,33.1c-0.1,18.2-14.9,32.9-33.1,32.8c-5.9,0-11.7-1.7-16.8-4.7
	h11.9c3.3,0,6-2.7,6-6s-2.7-6-6-6h-23.3c-0.1,0-0.1-0.3-0.2-0.3c-1.4-2.4-2.4-5-3-7.7h16.2c3.3,0,6-2.7,6-6s-2.7-6-6-6H98.4
	C98.8,186.6,99.8,183.2,101.1,180z"/>
</svg>
