<?xml version="1.0" encoding="UTF-8"?><svg xmlns="http://www.w3.org/2000/svg" xmlns:xlink="http://www.w3.org/1999/xlink" viewBox="0 0 3710 3710"><defs><style>.uuid-86216fb4-b67a-4d21-8d61-5030b09822c4{opacity:.44;}.uuid-86216fb4-b67a-4d21-8d61-5030b09822c4,.uuid-d525368f-ad1e-4b2e-884d-bcc42a149b57,.uuid-57897ab1-7a6b-491e-b91b-9d2448cde570,.uuid-541d0edd-200b-4a93-9629-f1a3edf903d4,.uuid-0a7a9be1-9713-4779-b5ee-8826e4ca9680,.uuid-92ca4d3b-a832-4dcb-90e7-0cd101c0c208,.uuid-01104ba7-3e1a-4c6c-8015-efbadb94d4ab,.uuid-cfd42c5c-39dd-4c5c-8907-aa3f390caf59,.uuid-c463650c-01ff-4073-8fa7-057f06ecd18d,.uuid-941ab9fc-7866-411a-9c42-d923c67a00d4,.uuid-5aca5a09-02a6-4d58-b805-3fc68ff3a7f2,.uuid-c76f628a-0428-438a-b989-f473ef339418,.uuid-3acd99a5-3b6e-4385-aa7c-f2383c5b56c8,.uuid-21b249c0-d78a-4f33-910a-accb7f8473f5,.uuid-778964cf-e6fe-4dd8-99a3-63dc7f2253b7,.uuid-9672a2a3-7ebb-4a97-925f-099ccd7cfd2c,.uuid-6f6210fb-f9db-4a75-b362-6384eb6c4942,.uuid-a02ed38b-1c55-45ef-81ef-5ea0479e6cee,.uuid-2734a138-3aad-433c-8837-9f7ac21f1979,.uuid-34d12350-1481-4fcb-9f51-e0bd30a2bd68,.uuid-3b9ed492-b55b-43c0-a399-b8f8f8867f6c,.uuid-380e0be0-5b22-442e-918e-5b8735b55b20,.uuid-86ff4c68-b5cf-4419-8222-a04e1090a4a6,.uuid-958983da-ec88-4b79-8933-60bc0dcccf61,.uuid-71b9d510-1322-4fa5-a03d-77dc34d1d85e,.uuid-0458cfdc-02b7-49bf-a7c2-8406ca13d802,.uuid-9ac1e803-f903-4b9a-8327-120f2e87994c,.uuid-c3f7ea04-9558-4221-af03-f053795c58b1,.uuid-d06151bb-f40a-4219-a527-c778a8dd5541,.uuid-13913a15-e28a-4534-a679-74438e0be90c,.uuid-ab5f69f1-4408-4e64-92b1-e01dbd1fdb51,.uuid-58a63182-628a-40b6-8d27-32369a4cc2e2,.uuid-87af45f5-9bc9-45b7-b0c3-42113ed29731,.uuid-010880cf-e88c-4153-b4dc-a97c13d09376,.uuid-42d37f77-6f91-4aa7-8253-76614b07b9db,.uuid-569ad375-5df9-4d5d-9033-b3a2e24c8062,.uuid-a4292af6-826c-4799-87d3-5eb1a3656747,.uuid-df605539-6d18-4ae7-a476-69672885d10f,.uuid-e5998793-5db9-4efa-9cf0-7641b596a0eb,.uuid-dbc44178-c5b2-4071-adde-e21f6d935225,.uuid-85cb4c21-7bd3-4e22-b1b8-74015b43dfc7,.uuid-0c81bf9e-fcb6-4739-bbc2-4dc96bd3c7e4,.uuid-fe9f1b08-c946-4745-89a8-5e1d794d6b67,.uuid-a611e554-472a-45b0-8f59-e377025ad9eb,.uuid-192744a0-45c8-4bce-8279-4c9e34385564,.uuid-2f400b0f-0494-4966-bb85-5ade9c7db113,.uuid-6185f020-2a57-4135-94a2-5e8078fe03ba,.uuid-5fe7bbf8-53da-4944-8d39-e15195050e11,.uuid-c3bd6d61-eb64-4142-aca1-8e7c868263a7,.uuid-95053a97-78f5-46c4-8aed-ec03477e66b5,.uuid-8cb3b9d9-07be-44dd-9f19-beafd7e0451b,.uuid-df54423d-4d98-4466-97fa-6acabaf8a54a,.uuid-64867fb1-c138-4e2b-91a9-ac10026ae0c5,.uuid-a46b649d-1954-479f-8ba1-2dde891374d7,.uuid-c79da425-7333-4a35-9e14-67fdfe18e770,.uuid-ce796e12-df20-49fd-a911-892f88c8afee,.uuid-9e0fb7d1-e92d-425e-824d-c69ead876a67,.uuid-16679977-4042-4c7e-889a-5dacd7fd7de4,.uuid-7112d1e1-397f-41a1-b963-265ceeb61f53,.uuid-cc2a4c2c-c2bd-4a5c-ab3d-affa7bff96da,.uuid-3060e549-a578-4957-8f27-19bc408e439b,.uuid-1187a933-cac8-4374-b7cb-dfdcab39f853,.uuid-b94abd27-3378-480e-bd1c-683e6021bf39,.uuid-5fba9ec8-2afa-4f0e-bf66-8c86dfd49351,.uuid-54ac2817-1852-4ab5-947f-50f8f6a32187,.uuid-50c89913-23e2-49e7-b040-c8f8bb1142c3,.uuid-677b96d1-0c98-42a6-87e8-f1547d78f188,.uuid-62fb3487-38f5-4913-91f6-7fc6336ce392,.uuid-9a5f661d-0807-4fc1-b4aa-7514f2c5698c,.uuid-a32251d0-03b7-4ee7-810a-3771ff166377,.uuid-aeabff5a-5498-4467-8da3-09d7d97451f3,.uuid-7b62020f-36e7-4ea2-ad09-4b5f2bd57f51,.uuid-331886f1-a0cf-4ec6-9fd9-e531a74bce7d,.uuid-39e4d63c-2d56-4533-9307-7504df3c4cb5,.uuid-7139d4f6-1de5-4aaa-90ae-d40b37aa5333,.uuid-f766caa9-0835-4523-8595-c1b11a5493a8,.uuid-eb70c9b8-4288-4ed6-89ec-a4fbefdcd092,.uuid-ef382804-cd57-488f-996e-83ce5c6f204c,.uuid-2bb785a0-99e6-4beb-b6f7-0dbadccab3d1,.uuid-fa7e4d13-bc6c-40c3-8a6b-10de7858467f,.uuid-5a03eb24-c8e0-4883-aeba-29e39c5629b3,.uuid-1d811451-2504-498d-8cc4-c367c97d8186,.uuid-1fb16c68-1f5d-4cb3-b752-417ea974a71e,.uuid-81a024d7-3df5-467d-bbb5-ef4a64bb3168,.uuid-222e53f2-8b60-42e8-b0fe-d0c926782e14,.uuid-0433ce37-ee46-4aed-8206-6dca416cf68e,.uuid-1909a3d0-dbb6-4f5e-acd1-6a5fe8b78624,.uuid-f746f47b-f3a3-42dc-bd7d-4ac36d8ac358,.uuid-832e1047-7069-4a11-b8b4-9329ac59f9a6,.uuid-26a20611-8ed8-489e-913b-17ddd49ca4c2,.uuid-0795fe1e-98e3-4068-ad90-d017aa51d9fd,.uuid-0b6edc63-b65b-46e8-93cd-e9c841fc9bc0,.uuid-4c85f304-fef2-4818-b2b3-d7e932e5a4e2,.uuid-e06ea4be-43e2-4b64-a276-a5dfebee15fd,.uuid-293e7b5d-5119-4f68-bcc4-975afa026120,.uuid-9f839e11-f438-4328-a5b0-f45d8a2692cf,.uuid-57b44f5d-3b14-4e0a-92ed-6171ee6fd78d,.uuid-852459e3-84c8-4527-962d-93a04e0377f4,.uuid-b12a9e83-1474-4a4f-8d3d-524aa358df8d,.uuid-4b36bb36-314b-4b11-b4a9-7addb0668c04{stroke-width:0px;}.uuid-86216fb4-b67a-4d21-8d61-5030b09822c4,.uuid-21b249c0-d78a-4f33-910a-accb7f8473f5,.uuid-0458cfdc-02b7-49bf-a7c2-8406ca13d802,.uuid-16679977-4042-4c7e-889a-5dacd7fd7de4,.uuid-4b36bb36-314b-4b11-b4a9-7addb0668c04{mix-blend-mode:soft-light;}.uuid-86216fb4-b67a-4d21-8d61-5030b09822c4,.uuid-778964cf-e6fe-4dd8-99a3-63dc7f2253b7,.uuid-16679977-4042-4c7e-889a-5dacd7fd7de4,.uuid-f746f47b-f3a3-42dc-bd7d-4ac36d8ac358{fill:#f4f7fa;}.uuid-d525368f-ad1e-4b2e-884d-bcc42a149b57{fill:url(#uuid-6f6e0460-cd01-4efd-b706-ef39c813267c);}.uuid-57897ab1-7a6b-491e-b91b-9d2448cde570{fill:url(#uuid-aa8617f7-3f05-4a5b-9f55-53632f249459);}.uuid-541d0edd-200b-4a93-9629-f1a3edf903d4{fill:url(#uuid-e2558c53-849b-42b1-91a2-1db0ebb89cb8);}.uuid-0a7a9be1-9713-4779-b5ee-8826e4ca9680{fill:url(#uuid-7fc7d711-9230-424b-af48-c60f58d03520);}.uuid-92ca4d3b-a832-4dcb-90e7-0cd101c0c208,.uuid-3c0aaa37-b347-4bb6-892e-1a79adb2dde4,.uuid-34d12350-1481-4fcb-9f51-e0bd30a2bd68,.uuid-13913a15-e28a-4534-a679-74438e0be90c,.uuid-ab5f69f1-4408-4e64-92b1-e01dbd1fdb51,.uuid-010880cf-e88c-4153-b4dc-a97c13d09376,.uuid-6185f020-2a57-4135-94a2-5e8078fe03ba,.uuid-8cb3b9d9-07be-44dd-9f19-beafd7e0451b,.uuid-df54423d-4d98-4466-97fa-6acabaf8a54a,.uuid-5fba9ec8-2afa-4f0e-bf66-8c86dfd49351,.uuid-54ac2817-1852-4ab5-947f-50f8f6a32187,.uuid-39e4d63c-2d56-4533-9307-7504df3c4cb5,.uuid-0433ce37-ee46-4aed-8206-6dca416cf68e{mix-blend-mode:multiply;}.uuid-92ca4d3b-a832-4dcb-90e7-0cd101c0c208,.uuid-6f6210fb-f9db-4a75-b362-6384eb6c4942{fill:#26264f;}.uuid-92ca4d3b-a832-4dcb-90e7-0cd101c0c208,.uuid-ab5f69f1-4408-4e64-92b1-e01dbd1fdb51,.uuid-010880cf-e88c-4153-b4dc-a97c13d09376,.uuid-6185f020-2a57-4135-94a2-5e8078fe03ba,.uuid-8cb3b9d9-07be-44dd-9f19-beafd7e0451b,.uuid-5fba9ec8-2afa-4f0e-bf66-8c86dfd49351,.uuid-54ac2817-1852-4ab5-947f-50f8f6a32187,.uuid-39e4d63c-2d56-4533-9307-7504df3c4cb5{opacity:.3;}.uuid-01104ba7-3e1a-4c6c-8015-efbadb94d4ab{fill:url(#uuid-2c5e30af-22bd-4804-b93f-512a079b77dd);}.uuid-cfd42c5c-39dd-4c5c-8907-aa3f390caf59{fill:url(#uuid-941d53af-d0d6-4c84-aaba-0914adcff7e6);}.uuid-c463650c-01ff-4073-8fa7-057f06ecd18d{fill:url(#uuid-a561f7af-f408-4d3f-a3b9-0ad67b66e88e);}.uuid-941ab9fc-7866-411a-9c42-d923c67a00d4{fill:url(#uuid-b60111bf-c880-457f-88c8-8ce7b6f59264);}.uuid-5aca5a09-02a6-4d58-b805-3fc68ff3a7f2{fill:url(#uuid-855a766c-8005-4560-b3e3-7b8174087138);}.uuid-c76f628a-0428-438a-b989-f473ef339418{fill:url(#uuid-6dc6e853-2b9c-4afe-b2e6-0bfa2fad6b71);}.uuid-3acd99a5-3b6e-4385-aa7c-f2383c5b56c8,.uuid-4b36bb36-314b-4b11-b4a9-7addb0668c04{fill:#d8dee8;}.uuid-21b249c0-d78a-4f33-910a-accb7f8473f5{opacity:.48;}.uuid-21b249c0-d78a-4f33-910a-accb7f8473f5,.uuid-0458cfdc-02b7-49bf-a7c2-8406ca13d802,.uuid-192744a0-45c8-4bce-8279-4c9e34385564,.uuid-a46b649d-1954-479f-8ba1-2dde891374d7{fill:#fff;}.uuid-9672a2a3-7ebb-4a97-925f-099ccd7cfd2c{fill:url(#uuid-d7089d96-ccc7-426a-8628-7a0a8baa1990);}.uuid-3c0aaa37-b347-4bb6-892e-1a79adb2dde4{opacity:.2;}.uuid-a02ed38b-1c55-45ef-81ef-5ea0479e6cee{fill:url(#uuid-52f8407e-042d-40f1-aa02-0914e756fc74);}.uuid-2734a138-3aad-433c-8837-9f7ac21f1979{fill:url(#uuid-c8ecf329-0cc6-4936-8516-4bd5cf00ae2d);}.uuid-0747ba1d-2d60-42b3-bb18-2ea3c8ec5c86{isolation:isolate;}.uuid-34d12350-1481-4fcb-9f51-e0bd30a2bd68{fill:url(#uuid-5b7fcf17-ee4e-4061-b823-de9a900d1701);opacity:.1;}.uuid-3b9ed492-b55b-43c0-a399-b8f8f8867f6c{fill:url(#uuid-ec953969-f1ef-4780-83ed-5216fee1362f);}.uuid-380e0be0-5b22-442e-918e-5b8735b55b20{fill:url(#uuid-27c142fc-4d15-4a46-8784-e69c60f7a531);}.uuid-86ff4c68-b5cf-4419-8222-a04e1090a4a6{fill:url(#uuid-00ddc688-4dd9-4ba1-94db-9eff6ca2d63f);}.uuid-958983da-ec88-4b79-8933-60bc0dcccf61{fill:url(#uuid-58630a54-79af-4b3a-8a48-4f77db2d9569);}.uuid-71b9d510-1322-4fa5-a03d-77dc34d1d85e{fill:url(#uuid-45d76ed2-c0e1-4fb4-a401-184ec0a1e948);}.uuid-0458cfdc-02b7-49bf-a7c2-8406ca13d802{opacity:.26;}.uuid-9ac1e803-f903-4b9a-8327-120f2e87994c{fill:url(#uuid-f1be5195-4b70-400d-84c5-3c4ff0f63464);}.uuid-c3f7ea04-9558-4221-af03-f053795c58b1{fill:url(#uuid-8e92af75-6fb4-4d0d-a2c0-628efb37883b);}.uuid-d06151bb-f40a-4219-a527-c778a8dd5541{fill:url(#uuid-4d3dd1ce-9c0a-4cc2-9b2d-73aaaa9222da);}.uuid-13913a15-e28a-4534-a679-74438e0be90c{fill:url(#uuid-0272b49e-1aef-4503-861e-46a84414dd8c);}.uuid-13913a15-e28a-4534-a679-74438e0be90c,.uuid-0433ce37-ee46-4aed-8206-6dca416cf68e{opacity:.65;}.uuid-ab5f69f1-4408-4e64-92b1-e01dbd1fdb51{fill:url(#uuid-8f0c6f86-018a-4ba6-850b-ed3d1e9857c6);}.uuid-58a63182-628a-40b6-8d27-32369a4cc2e2{fill:url(#uuid-08c2a5fc-a02c-4368-ad66-d08f8ae8d721);}.uuid-87af45f5-9bc9-45b7-b0c3-42113ed29731{fill:url(#uuid-16a1547f-a45f-47de-ba21-f69a3ac7f674);}.uuid-010880cf-e88c-4153-b4dc-a97c13d09376{fill:url(#uuid-e9de4b8b-b85f-4389-baf1-c768ac018a6a);}.uuid-42d37f77-6f91-4aa7-8253-76614b07b9db{fill:url(#uuid-ea9333d2-b645-4bfb-805a-4fd909d6ee8a);}.uuid-569ad375-5df9-4d5d-9033-b3a2e24c8062{fill:#444b8c;}.uuid-a4292af6-826c-4799-87d3-5eb1a3656747{fill:url(#uuid-50d215b3-23ff-4de3-8e7f-d631be948ba9);}.uuid-df605539-6d18-4ae7-a476-69672885d10f{fill:url(#uuid-198f8d70-a5e0-425a-bd9e-f13fb7796716);}.uuid-e5998793-5db9-4efa-9cf0-7641b596a0eb{fill:#b7c0ce;}.uuid-dbc44178-c5b2-4071-adde-e21f6d935225{fill:url(#uuid-ae957be6-0e9a-42b5-bc4e-3a1340e353ac);}.uuid-85cb4c21-7bd3-4e22-b1b8-74015b43dfc7{fill:url(#uuid-47e13c45-eef1-49d9-930c-1751f51dec49);}.uuid-0c81bf9e-fcb6-4739-bbc2-4dc96bd3c7e4{fill:url(#uuid-1ade8c4a-ce9d-4c41-8488-b4e09d8b53d5);}.uuid-fe9f1b08-c946-4745-89a8-5e1d794d6b67{fill:url(#uuid-d88e39be-981a-4264-8288-9328ce9c048b);}.uuid-a611e554-472a-45b0-8f59-e377025ad9eb{fill:url(#uuid-76bd939b-3465-4e5a-8c1c-2410155c0712);}.uuid-192744a0-45c8-4bce-8279-4c9e34385564{opacity:.82;}.uuid-2f400b0f-0494-4966-bb85-5ade9c7db113{fill:url(#uuid-1737644e-2974-4c66-88cf-4c0d85c413de);}.uuid-6185f020-2a57-4135-94a2-5e8078fe03ba{fill:url(#uuid-8c51e926-2b99-416e-8480-681bf05f1bf2);}.uuid-5fe7bbf8-53da-4944-8d39-e15195050e11{fill:url(#uuid-de27ddae-6631-47c3-ac6d-6c39f6b36291);}.uuid-c3bd6d61-eb64-4142-aca1-8e7c868263a7{fill:url(#uuid-1fe2950d-d298-44d8-b678-830477d19d40);}.uuid-95053a97-78f5-46c4-8aed-ec03477e66b5{fill:url(#uuid-1ea14dbc-8541-4b5d-8c93-e90d87d765d5);}.uuid-8cb3b9d9-07be-44dd-9f19-beafd7e0451b{fill:url(#uuid-d957d3de-07ae-4b6b-b9a5-16f665ed5b26);}.uuid-df54423d-4d98-4466-97fa-6acabaf8a54a{fill:url(#uuid-72dacb23-bd2f-41f0-8ac0-f15d81467cac);opacity:.6;}.uuid-64867fb1-c138-4e2b-91a9-ac10026ae0c5{fill:url(#uuid-9b5ae13e-5fa5-4aff-80bb-f005b5d1a12f);}.uuid-c79da425-7333-4a35-9e14-67fdfe18e770{fill:#eff2f6;}.uuid-ce796e12-df20-49fd-a911-892f88c8afee{fill:url(#uuid-cecc82c2-0709-4930-a35d-0632fe1ceb07);}.uuid-9f4197f7-a66f-4fb0-8010-bcdcda521b46{mask:url(#uuid-1cf17cd1-c761-4497-86f5-901f89da0368);}.uuid-9e0fb7d1-e92d-425e-824d-c69ead876a67{fill:url(#uuid-585063c2-36bb-4881-8aab-020e70609f7e);}.uuid-16679977-4042-4c7e-889a-5dacd7fd7de4{opacity:.5;}.uuid-7112d1e1-397f-41a1-b963-265ceeb61f53{fill:url(#uuid-6428a310-8047-41d3-b788-be25413d442a);}.uuid-cc2a4c2c-c2bd-4a5c-ab3d-affa7bff96da{fill:url(#uuid-01905439-a60c-48c4-bf3d-a09a1c70996c);}.uuid-3060e549-a578-4957-8f27-19bc408e439b{fill:#726bdf;}.uuid-1187a933-cac8-4374-b7cb-dfdcab39f853{fill:url(#uuid-2994d238-cadb-4372-94ee-54ec6f390be0);}.uuid-61b11ebd-e38d-4aa0-a69a-121eaa93cdd5{mask:url(#uuid-3bf04708-56fb-4d32-a2c6-921436a3ba84);}.uuid-b94abd27-3378-480e-bd1c-683e6021bf39{fill:url(#uuid-e5b47d14-0821-4279-bdf8-6f7bae795b3b);}.uuid-5fba9ec8-2afa-4f0e-bf66-8c86dfd49351{fill:url(#uuid-dc599fcc-fd01-42f0-b62a-ab79fde8ea23);}.uuid-54ac2817-1852-4ab5-947f-50f8f6a32187{fill:url(#uuid-f0526d3f-73c7-46fb-9b77-ae9c73dc9466);}.uuid-50c89913-23e2-49e7-b040-c8f8bb1142c3{fill:url(#uuid-cf677046-3527-4f10-a573-198b93a6e7d3);}.uuid-677b96d1-0c98-42a6-87e8-f1547d78f188{fill:url(#uuid-59879ebe-f877-4acc-aa96-b9ac1d550a77);}.uuid-62fb3487-38f5-4913-91f6-7fc6336ce392{fill:url(#uuid-9936a106-798a-44ea-8dba-f9bc3dbf10c8);}.uuid-9a5f661d-0807-4fc1-b4aa-7514f2c5698c{fill:url(#uuid-16984086-0acb-4f8e-83f3-ebc43b716344);}.uuid-a32251d0-03b7-4ee7-810a-3771ff166377{fill:url(#uuid-ba70b4e5-ada0-4779-9417-bbb0b0ee4fb3);}.uuid-aeabff5a-5498-4467-8da3-09d7d97451f3{fill:url(#uuid-ac7a4e9e-0b8f-4612-8d1e-88e70e6bd68f);}.uuid-7b62020f-36e7-4ea2-ad09-4b5f2bd57f51{fill:url(#uuid-e4722263-a50a-4400-bbbc-b95538663d91);}.uuid-331886f1-a0cf-4ec6-9fd9-e531a74bce7d{fill:url(#uuid-b484bcf4-569a-40b6-92f3-c3d9ca3e9419);}.uuid-39e4d63c-2d56-4533-9307-7504df3c4cb5{fill:url(#uuid-b31bf167-e270-470c-9602-11d331a17c61);}.uuid-7139d4f6-1de5-4aaa-90ae-d40b37aa5333{fill:url(#uuid-0ad630ec-0b78-4900-a763-dc4fc92f8920);}.uuid-f766caa9-0835-4523-8595-c1b11a5493a8{fill:url(#uuid-33192ba7-a85a-4688-8857-49d644a7427f);}.uuid-eb70c9b8-4288-4ed6-89ec-a4fbefdcd092{fill:url(#uuid-b56d64bb-2788-4acc-a2a5-238c1982ae80);}.uuid-ef382804-cd57-488f-996e-83ce5c6f204c{fill:url(#uuid-935bda12-2762-4cce-9354-46c0d34fcc55);}.uuid-2bb785a0-99e6-4beb-b6f7-0dbadccab3d1{fill:url(#uuid-aa784e20-6554-4aed-8163-f27fae1310f1);}.uuid-fa7e4d13-bc6c-40c3-8a6b-10de7858467f{fill:url(#uuid-33ea6095-8a3d-46c8-a677-74f2e4bea1f8);}.uuid-5a03eb24-c8e0-4883-aeba-29e39c5629b3{fill:#6567d9;}.uuid-1d811451-2504-498d-8cc4-c367c97d8186{fill:url(#uuid-edb5da0f-e078-4bfb-8e10-fddea9c08a41);}.uuid-1fb16c68-1f5d-4cb3-b752-417ea974a71e{fill:url(#uuid-4662ba83-3456-4af5-993d-08e9d6afd95b);}.uuid-81a024d7-3df5-467d-bbb5-ef4a64bb3168{fill:url(#uuid-fb6680d5-bb61-4408-9b1a-a7864f798c96);}.uuid-222e53f2-8b60-42e8-b0fe-d0c926782e14{fill:url(#uuid-0debe436-4229-4565-bd8d-6fbd5fac9ff1);}.uuid-0433ce37-ee46-4aed-8206-6dca416cf68e{fill:url(#uuid-329e8f32-0c4b-4f1b-8bf3-d113ac557483);}.uuid-1909a3d0-dbb6-4f5e-acd1-6a5fe8b78624{fill:url(#uuid-5f05c5c3-8da9-4e24-b3a6-cf17fcb4d4f0);}.uuid-f746f47b-f3a3-42dc-bd7d-4ac36d8ac358{opacity:.75;}.uuid-832e1047-7069-4a11-b8b4-9329ac59f9a6{fill:url(#uuid-efb18a34-c531-4f8a-b9ad-4f2355d76392);}.uuid-26a20611-8ed8-489e-913b-17ddd49ca4c2{fill:url(#uuid-bc569cf4-d88a-4c1c-b1cd-ef21670c8ebb);}.uuid-0795fe1e-98e3-4068-ad90-d017aa51d9fd{fill:url(#uuid-29efa992-4391-470c-ac24-9d016ac0ac44);}.uuid-0b6edc63-b65b-46e8-93cd-e9c841fc9bc0{fill:url(#uuid-e52135bb-f56b-41a8-b34b-eb5666bf236c);}.uuid-4c85f304-fef2-4818-b2b3-d7e932e5a4e2{fill:url(#uuid-1e7905e2-4b66-4950-9ff8-4f399fdb4c5b);}.uuid-e06ea4be-43e2-4b64-a276-a5dfebee15fd{fill:url(#uuid-a39af3dc-0acb-4c3e-9d36-595001da6273);}.uuid-293e7b5d-5119-4f68-bcc4-975afa026120{fill:url(#uuid-4fbdc622-8467-4d5b-ac01-9cfd50364dfc);}.uuid-9f839e11-f438-4328-a5b0-f45d8a2692cf{fill:url(#uuid-af92bf27-a46c-4667-bf3e-5cdd860679a9);}.uuid-57b44f5d-3b14-4e0a-92ed-6171ee6fd78d{fill:url(#uuid-8a20ab56-b1fa-4248-a40f-6cf2977f9453);}.uuid-852459e3-84c8-4527-962d-93a04e0377f4{fill:url(#uuid-800c5e11-1331-4eb1-856e-9577a0df1fc8);}.uuid-b12a9e83-1474-4a4f-8d3d-524aa358df8d{fill:url(#uuid-68eb86af-fb85-4466-a96f-5d6c4400d130);}.uuid-4b36bb36-314b-4b11-b4a9-7addb0668c04{opacity:.47;}</style><linearGradient id="uuid-4fbdc622-8467-4d5b-ac01-9cfd50364dfc" x1="2589.31302" y1="1229.15557" x2="2262.52308" y2="2795.95157" gradientTransform="translate(-767.883)" gradientUnits="userSpaceOnUse"><stop offset="0" stop-color="#aa80f9"/><stop offset=".9964" stop-color="#6165d7"/></linearGradient><linearGradient id="uuid-6428a310-8047-41d3-b788-be25413d442a" x1="-121.7349" y1="2906.13388" x2="-23.867" y2="2906.13388" gradientTransform="translate(1437.7924 -31.2392) rotate(178.34395) scale(1.00002 -1.00002)" gradientUnits="userSpaceOnUse"><stop offset="0" stop-color="#444b8c"/><stop offset=".9964" stop-color="#26264f"/></linearGradient><linearGradient id="uuid-58630a54-79af-4b3a-8a48-4f77db2d9569" x1="4141.977" y1="2839.33073" x2="4177.0637" y2="2839.33073" gradientTransform="translate(5722.2786) rotate(-180) scale(1 -1)" gradientUnits="userSpaceOnUse"><stop offset="0" stop-color="#ffc444"/><stop offset=".9964" stop-color="#f36f56"/></linearGradient><linearGradient id="uuid-b484bcf4-569a-40b6-92f3-c3d9ca3e9419" x1="318.68243" y1="3181.61118" x2="422.6609" y2="3181.61118" gradientTransform="translate(1424.9672 -308.9189) rotate(164.62679) scale(.99998 -.99998)" xlink:href="#uuid-6428a310-8047-41d3-b788-be25413d442a"/><linearGradient id="uuid-e2558c53-849b-42b1-91a2-1db0ebb89cb8" x1="3829.1551" y1="2827.74677" x2="3872.4901" y2="2827.74677" xlink:href="#uuid-58630a54-79af-4b3a-8a48-4f77db2d9569"/><linearGradient id="uuid-c8ecf329-0cc6-4936-8516-4bd5cf00ae2d" x1="2476.16124" y1="1205.55508" x2="2149.37202" y2="2772.34759" xlink:href="#uuid-4fbdc622-8467-4d5b-ac01-9cfd50364dfc"/><linearGradient id="uuid-16a1547f-a45f-47de-ba21-f69a3ac7f674" x1="2195.12484" y1="2545.53299" x2="2319.14876" y2="1956.42148" xlink:href="#uuid-4fbdc622-8467-4d5b-ac01-9cfd50364dfc"/><linearGradient id="uuid-52f8407e-042d-40f1-aa02-0914e756fc74" x1="2252.29812" y1="1158.86374" x2="1925.50873" y2="2725.6571" xlink:href="#uuid-4fbdc622-8467-4d5b-ac01-9cfd50364dfc"/><linearGradient id="uuid-2c5e30af-22bd-4804-b93f-512a079b77dd" x1="4081.5989" y1="1837.54957" x2="4191.18351" y2="1837.54957" xlink:href="#uuid-58630a54-79af-4b3a-8a48-4f77db2d9569"/><linearGradient id="uuid-7fc7d711-9230-424b-af48-c60f58d03520" x1="3631.1058" y1="1888.44025" x2="3705.03471" y2="1888.44025" xlink:href="#uuid-58630a54-79af-4b3a-8a48-4f77db2d9569"/><linearGradient id="uuid-50d215b3-23ff-4de3-8e7f-d631be948ba9" x1="4164.11529" y1="1365.10858" x2="4160.23151" y2="1635.0458" xlink:href="#uuid-58630a54-79af-4b3a-8a48-4f77db2d9569"/><linearGradient id="uuid-33192ba7-a85a-4688-8857-49d644a7427f" x1="4089.02993" y1="1331.10915" x2="4183.85255" y2="1331.10915" xlink:href="#uuid-58630a54-79af-4b3a-8a48-4f77db2d9569"/><linearGradient id="uuid-b56d64bb-2788-4acc-a2a5-238c1982ae80" x1="4098.1478" y1="1347.40349" x2="4118.98725" y2="1347.40349" xlink:href="#uuid-58630a54-79af-4b3a-8a48-4f77db2d9569"/><linearGradient id="uuid-45d76ed2-c0e1-4fb4-a401-184ec0a1e948" x1="3011.94492" y1="2807.62545" x2="3030.70446" y2="3046.38219" gradientTransform="translate(-626.2627)" gradientUnits="userSpaceOnUse"><stop offset=".0036" stop-color="#26264f"/><stop offset="1" stop-color="#444b8c"/></linearGradient><linearGradient id="uuid-4d3dd1ce-9c0a-4cc2-9b2d-73aaaa9222da" x1="2094.15857" y1="2656.67924" x2="2090.21984" y2="2371.10815" gradientTransform="translate(820.6597 -36.2046) rotate(9.84568)" xlink:href="#uuid-58630a54-79af-4b3a-8a48-4f77db2d9569"/><linearGradient id="uuid-76bd939b-3465-4e5a-8c1c-2410155c0712" x1="2777.30879" y1="2791.65882" x2="2796.06831" y2="3030.41543" xlink:href="#uuid-45d76ed2-c0e1-4fb4-a401-184ec0a1e948"/><linearGradient id="uuid-29efa992-4391-470c-ac24-9d016ac0ac44" x1="1860.25397" y1="2681.06831" x2="1856.31528" y2="2395.49978" gradientTransform="translate(820.6597 -36.2046) rotate(9.84568)" xlink:href="#uuid-58630a54-79af-4b3a-8a48-4f77db2d9569"/><linearGradient id="uuid-e5b47d14-0821-4279-bdf8-6f7bae795b3b" x1="2852.58145" y1="2300.63525" x2="2745.45719" y2="2460.0151" gradientUnits="userSpaceOnUse"><stop offset="0" stop-color="#893976"/><stop offset="1" stop-color="#311944"/></linearGradient><linearGradient id="uuid-9936a106-798a-44ea-8dba-f9bc3dbf10c8" x1="2173.06024" y1="2651.56407" x2="2941.85329" y2="2651.56407" xlink:href="#uuid-e5b47d14-0821-4279-bdf8-6f7bae795b3b"/><linearGradient id="uuid-e52135bb-f56b-41a8-b34b-eb5666bf236c" x1="2584.15642" y1="2074.62317" x2="2926.34939" y2="2401.37858" gradientUnits="userSpaceOnUse"><stop offset="0" stop-color="#ff9085"/><stop offset="1" stop-color="#fb6fbb"/></linearGradient><linearGradient id="uuid-d88e39be-981a-4264-8288-9328ce9c048b" x1="2174.96532" y1="2177.34703" x2="2167.16475" y2="2212.9582" gradientTransform="matrix(1,0,0,1,0,0)" xlink:href="#uuid-58630a54-79af-4b3a-8a48-4f77db2d9569"/><linearGradient id="uuid-1ea14dbc-8541-4b5d-8c93-e90d87d765d5" x1="5866.25462" y1="1148.36139" x2="6079.66714" y2="1416.86157" gradientTransform="translate(-2744.3408 -923.8408) rotate(14.92699)" xlink:href="#uuid-58630a54-79af-4b3a-8a48-4f77db2d9569"/><linearGradient id="uuid-33ea6095-8a3d-46c8-a677-74f2e4bea1f8" x1="5876.47037" y1="1134.84886" x2="6114.74492" y2="1434.62864" gradientTransform="translate(-2744.3408 -923.8408) rotate(14.92699)" xlink:href="#uuid-58630a54-79af-4b3a-8a48-4f77db2d9569"/><linearGradient id="uuid-8f0c6f86-018a-4ba6-850b-ed3d1e9857c6" x1="2490.52146" y1="2172.63117" x2="2832.63248" y2="2499.30833" xlink:href="#uuid-e52135bb-f56b-41a8-b34b-eb5666bf236c"/><linearGradient id="uuid-ea9333d2-b645-4bfb-805a-4fd909d6ee8a" x1="2505.90213" y1="2134.31043" x2="2893.99698" y2="2504.89693" xlink:href="#uuid-e52135bb-f56b-41a8-b34b-eb5666bf236c"/><linearGradient id="uuid-ae957be6-0e9a-42b5-bc4e-3a1340e353ac" x1="2517.9058" y1="1857.98241" x2="2618.69041" y2="2347.08551" gradientTransform="matrix(1,0,0,1,0,0)" xlink:href="#uuid-4fbdc622-8467-4d5b-ac01-9cfd50364dfc"/><linearGradient id="uuid-8a20ab56-b1fa-4248-a40f-6cf2977f9453" x1="2511.9465" y1="3055.4945" x2="3031.9223" y2="3055.4945" gradientTransform="matrix(1,0,0,1,0,0)" xlink:href="#uuid-4fbdc622-8467-4d5b-ac01-9cfd50364dfc"/><linearGradient id="uuid-dc599fcc-fd01-42f0-b62a-ab79fde8ea23" x1="2669.33629" y1="3029.9886" x2="3106.2516" y2="3029.9886" gradientTransform="translate(-74.3293)" xlink:href="#uuid-4fbdc622-8467-4d5b-ac01-9cfd50364dfc"/><linearGradient id="uuid-329e8f32-0c4b-4f1b-8bf3-d113ac557483" x1="2817.3574" y1="2828.06345" x2="2875.17" y2="2828.06345" gradientTransform="translate(-74.3293)" xlink:href="#uuid-4fbdc622-8467-4d5b-ac01-9cfd50364dfc"/><linearGradient id="uuid-d7089d96-ccc7-426a-8628-7a0a8baa1990" x1="3133.25602" y1="2766.58748" x2="3027.26203" y2="2628.47387" gradientTransform="translate(-74.3293)" gradientUnits="userSpaceOnUse"><stop offset="0" stop-color="#311944"/><stop offset="1" stop-color="#893976"/></linearGradient><linearGradient id="uuid-00ddc688-4dd9-4ba1-94db-9eff6ca2d63f" x1="2545.5578" y1="1616.3508" x2="2545.5578" y2="1026.0365" gradientUnits="userSpaceOnUse"><stop offset=".30216" stop-color="#000"/><stop offset=".36306" stop-color="#070707"/><stop offset=".4525" stop-color="#1a1a1a"/><stop offset=".55953" stop-color="#3b3b3b"/><stop offset=".68016" stop-color="#686868"/><stop offset=".81219" stop-color="#a1a1a1"/><stop offset=".95168" stop-color="#e7e7e7"/><stop offset=".9964" stop-color="#fff"/></linearGradient><mask id="uuid-1cf17cd1-c761-4497-86f5-901f89da0368" x="2068.2147" y="1026.0365" width="954.6862" height="590.3143" maskUnits="userSpaceOnUse"><polygon class="uuid-86ff4c68-b5cf-4419-8222-a04e1090a4a6" points="2424.1005 1026.0365 2068.2147 1616.3508 3022.9009 1616.3508 2683.9873 1038.2353 2424.1005 1026.0365"/></mask><linearGradient id="uuid-de27ddae-6631-47c3-ac6d-6c39f6b36291" x1="2433.06479" y1="919.71512" x2="2638.8525" y2="1091.55833" gradientUnits="userSpaceOnUse"><stop offset=".0036" stop-color="#e38ddd"/><stop offset="1" stop-color="#9571f6"/></linearGradient><linearGradient id="uuid-a39af3dc-0acb-4c3e-9d36-595001da6273" x1="2416.18986" y1="939.92337" x2="2621.97746" y2="1111.76649" xlink:href="#uuid-de27ddae-6631-47c3-ac6d-6c39f6b36291"/><linearGradient id="uuid-585063c2-36bb-4881-8aab-020e70609f7e" x1="2493.7175" y1="944.5889" x2="2605.9881" y2="944.5889" gradientUnits="userSpaceOnUse"><stop offset="0" stop-color="#aa80f9"/><stop offset=".9964" stop-color="#6165d7"/></linearGradient><linearGradient id="uuid-59879ebe-f877-4acc-aa96-b9ac1d550a77" x1="1098.1281" y1="1656.8404" x2="1098.1281" y2="1066.5261" xlink:href="#uuid-00ddc688-4dd9-4ba1-94db-9eff6ca2d63f"/><mask id="uuid-3bf04708-56fb-4d32-a2c6-921436a3ba84" x="620.785" y="1066.5261" width="954.6862" height="590.3143" maskUnits="userSpaceOnUse"><polygon class="uuid-677b96d1-0c98-42a6-87e8-f1547d78f188" points="976.6708 1066.5261 620.785 1656.8404 1575.4712 1656.8404 1236.5576 1078.7249 976.6708 1066.5261"/></mask><linearGradient id="uuid-1737644e-2974-4c66-88cf-4c0d85c413de" x1="985.63509" y1="960.20472" x2="1191.4228" y2="1132.04793" xlink:href="#uuid-de27ddae-6631-47c3-ac6d-6c39f6b36291"/><linearGradient id="uuid-f1be5195-4b70-400d-84c5-3c4ff0f63464" x1="968.76016" y1="980.41297" x2="1174.54776" y2="1152.25609" xlink:href="#uuid-de27ddae-6631-47c3-ac6d-6c39f6b36291"/><linearGradient id="uuid-27c142fc-4d15-4a46-8784-e69c60f7a531" x1="1046.2878" y1="985.0785" x2="1158.5584" y2="985.0785" xlink:href="#uuid-585063c2-36bb-4881-8aab-020e70609f7e"/><linearGradient id="uuid-2994d238-cadb-4372-94ee-54ec6f390be0" x1="1969.23555" y1="1460.99369" x2="1973.16469" y2="1429.56051" gradientTransform="matrix(1,0,0,1,0,0)" xlink:href="#uuid-45d76ed2-c0e1-4fb4-a401-184ec0a1e948"/><linearGradient id="uuid-5f05c5c3-8da9-4e24-b3a6-cf17fcb4d4f0" x1="1953.07593" y1="1432.34501" x2="1992.36746" y2="1361.62023" gradientTransform="matrix(1,0,0,1,0,0)" xlink:href="#uuid-45d76ed2-c0e1-4fb4-a401-184ec0a1e948"/><linearGradient id="uuid-e9de4b8b-b85f-4389-baf1-c768ac018a6a" x1="1908.6403" y1="1398.82864" x2="2039.0472" y2="1398.82864" gradientTransform="matrix(1,0,0,1,0,0)" xlink:href="#uuid-45d76ed2-c0e1-4fb4-a401-184ec0a1e948"/><linearGradient id="uuid-01905439-a60c-48c4-bf3d-a09a1c70996c" x1="1956.81619" y1="1413.01868" x2="1995.61665" y2="1338.36474" gradientTransform="matrix(1,0,0,1,0,0)" xlink:href="#uuid-45d76ed2-c0e1-4fb4-a401-184ec0a1e948"/><linearGradient id="uuid-f0526d3f-73c7-46fb-9b77-ae9c73dc9466" x1="1902.7976" y1="1376.85007" x2="2044.8253" y2="1376.85007" gradientTransform="matrix(1,0,0,1,0,0)" xlink:href="#uuid-45d76ed2-c0e1-4fb4-a401-184ec0a1e948"/><linearGradient id="uuid-9b5ae13e-5fa5-4aff-80bb-f005b5d1a12f" x1="1900.6935" y1="1351.18801" x2="2046.9941" y2="1351.18801" gradientTransform="matrix(1,0,0,1,0,0)" xlink:href="#uuid-45d76ed2-c0e1-4fb4-a401-184ec0a1e948"/><linearGradient id="uuid-cecc82c2-0709-4930-a35d-0632fe1ceb07" x1="1970.21044" y1="1340.15269" x2="1984.61735" y2="1272.70238" gradientTransform="matrix(1,0,0,1,0,0)" xlink:href="#uuid-45d76ed2-c0e1-4fb4-a401-184ec0a1e948"/><linearGradient id="uuid-edb5da0f-e078-4bfb-8e10-fddea9c08a41" x1="1942.54347" y1="963.78837" x2="2228.37381" y2="1417.58089" gradientUnits="userSpaceOnUse"><stop offset="0" stop-color="#fcb148"/><stop offset=".05207" stop-color="#fdb946"/><stop offset=".14245" stop-color="#fec144"/><stop offset=".31827" stop-color="#ffc444"/><stop offset=".48489" stop-color="#fdb946"/><stop offset=".77539" stop-color="#f99c4c"/><stop offset=".86581" stop-color="#f8924f"/><stop offset="1" stop-color="#f8924f"/></linearGradient><linearGradient id="uuid-aa8617f7-3f05-4a5b-9f55-53632f249459" x1="1890.32579" y1="1313.2033" x2="1948.60825" y2="1142.94023" gradientUnits="userSpaceOnUse"><stop offset=".49405" stop-color="#ebeff2"/><stop offset="1" stop-color="#fff"/></linearGradient><linearGradient id="uuid-4662ba83-3456-4af5-993d-08e9d6afd95b" x1="1946.04548" y1="1332.27652" x2="2004.32798" y2="1162.01332" xlink:href="#uuid-aa8617f7-3f05-4a5b-9f55-53632f249459"/><linearGradient id="uuid-68eb86af-fb85-4466-a96f-5d6c4400d130" x1="1870.03018" y1="1306.25637" x2="1928.31272" y2="1135.99308" xlink:href="#uuid-aa8617f7-3f05-4a5b-9f55-53632f249459"/><linearGradient id="uuid-b31bf167-e270-470c-9602-11d331a17c61" x1="1952.57386" y1="861.49961" x2="1895.60109" y2="1331.03291" xlink:href="#uuid-edb5da0f-e078-4bfb-8e10-fddea9c08a41"/><linearGradient id="uuid-1fe2950d-d298-44d8-b678-830477d19d40" x1="1821.98861" y1="3389.84142" x2="1821.98861" y2="3307.06072" gradientTransform="translate(2810.8793 -528.7908) rotate(177.14561) scale(1.00004 -1.00004)" xlink:href="#uuid-58630a54-79af-4b3a-8a48-4f77db2d9569"/><linearGradient id="uuid-47e13c45-eef1-49d9-930c-1751f51dec49" x1="220.68597" y1="2419.94738" x2="-54.67247" y2="2616.63214" gradientTransform="translate(975.4035) rotate(-180) scale(1 -1)" xlink:href="#uuid-6428a310-8047-41d3-b788-be25413d442a"/><linearGradient id="uuid-ec953969-f1ef-4780-83ed-5216fee1362f" x1="2074.18008" y1="3025.7672" x2="2121.69783" y2="3068.0344" gradientTransform="translate(3687.3257 206.9384) rotate(-171.95254) scale(1.00005 -1.00005)" xlink:href="#uuid-6428a310-8047-41d3-b788-be25413d442a"/><linearGradient id="uuid-800c5e11-1331-4eb1-856e-9577a0df1fc8" x1="2078.95745" y1="3020.39789" x2="2126.47494" y2="3062.66485" gradientTransform="translate(3687.3257 206.9384) rotate(-171.95254) scale(1.00005 -1.00005)" xlink:href="#uuid-6428a310-8047-41d3-b788-be25413d442a"/><linearGradient id="uuid-08c2a5fc-a02c-4368-ad66-d08f8ae8d721" x1="2225.81682" y1="2941.34935" x2="2273.33683" y2="2983.61856" gradientTransform="translate(3584.4829) rotate(-180) scale(1 -1)" xlink:href="#uuid-6428a310-8047-41d3-b788-be25413d442a"/><linearGradient id="uuid-efb18a34-c531-4f8a-b9ad-4f2355d76392" x1="2034.8194" y1="3236.9159" x2="2034.8194" y2="3154.13296" gradientTransform="translate(2684.2609 -582.0115) rotate(168.89569) scale(1.00002 -1.00002)" xlink:href="#uuid-58630a54-79af-4b3a-8a48-4f77db2d9569"/><linearGradient id="uuid-198f8d70-a5e0-425a-bd9e-f13fb7796716" x1="2230.5943" y1="2935.98011" x2="2278.11362" y2="2978.2487" gradientTransform="translate(3584.4829) rotate(-180) scale(1 -1)" xlink:href="#uuid-6428a310-8047-41d3-b788-be25413d442a"/><linearGradient id="uuid-b60111bf-c880-457f-88c8-8ce7b6f59264" x1="-272.88366" y1="2052.87101" x2="-301.92887" y2="2185.46827" gradientTransform="translate(975.4035) rotate(-180) scale(1 -1)" xlink:href="#uuid-58630a54-79af-4b3a-8a48-4f77db2d9569"/><linearGradient id="uuid-a561f7af-f408-4d3f-a3b9-0ad67b66e88e" x1="5754.97831" y1="-4756.64121" x2="6731.14022" y2="-5974.14082" gradientTransform="translate(975.4035) rotate(-180) scale(1 -1)" xlink:href="#uuid-edb5da0f-e078-4bfb-8e10-fddea9c08a41"/><linearGradient id="uuid-ba70b4e5-ada0-4779-9417-bbb0b0ee4fb3" x1="3395.95135" y1="1802.82813" x2="3605.49477" y2="2066.46049" gradientTransform="translate(3719.7443 -923.8408) rotate(165.07301) scale(1.00005 -1.00005)" xlink:href="#uuid-58630a54-79af-4b3a-8a48-4f77db2d9569"/><linearGradient id="uuid-1ade8c4a-ce9d-4c41-8488-b4e09d8b53d5" x1="3405.98077" y1="1789.55885" x2="3639.93732" y2="2083.90603" gradientTransform="translate(3719.7443 -923.8408) rotate(165.07301) scale(1.00005 -1.00005)" xlink:href="#uuid-58630a54-79af-4b3a-8a48-4f77db2d9569"/><linearGradient id="uuid-72dacb23-bd2f-41f0-8ac0-f15d81467cac" x1="-134.44082" y1="2171.3305" x2="201.47221" y2="2492.08928" gradientTransform="translate(975.4035) rotate(-180) scale(1 -1)" xlink:href="#uuid-edb5da0f-e078-4bfb-8e10-fddea9c08a41"/><linearGradient id="uuid-fb6680d5-bb61-4408-9b1a-a7864f798c96" x1="5541.9218" y1="-4927.44683" x2="6518.08442" y2="-6144.94733" gradientTransform="translate(975.4035) rotate(-180) scale(1 -1)" xlink:href="#uuid-edb5da0f-e078-4bfb-8e10-fddea9c08a41"/><linearGradient id="uuid-855a766c-8005-4560-b3e3-7b8174087138" x1="-373.19495" y1="2660.78916" x2="308.71426" y2="2660.78916" gradientTransform="translate(975.4035) rotate(-180) scale(1 -1)" xlink:href="#uuid-6428a310-8047-41d3-b788-be25413d442a"/><linearGradient id="uuid-e4722263-a50a-4400-bbbc-b95538663d91" x1="603.79033" y1="2172.03536" x2="706.8721" y2="2672.28656" gradientTransform="matrix(1,0,0,1,0,0)" xlink:href="#uuid-4fbdc622-8467-4d5b-ac01-9cfd50364dfc"/><linearGradient id="uuid-1e7905e2-4b66-4950-9ff8-4f399fdb4c5b" x1="541.7125" y1="3074.988" x2="1052.2681" y2="3074.988" gradientTransform="matrix(1,0,0,1,0,0)" xlink:href="#uuid-4fbdc622-8467-4d5b-ac01-9cfd50364dfc"/><linearGradient id="uuid-8c51e926-2b99-416e-8480-681bf05f1bf2" x1="-459.13535" y1="3049.94415" x2="-30.1354" y2="3049.94415" gradientTransform="translate(511.5771) rotate(-180) scale(1 -1)" xlink:href="#uuid-4fbdc622-8467-4d5b-ac01-9cfd50364dfc"/><linearGradient id="uuid-0272b49e-1aef-4503-861e-46a84414dd8c" x1="-313.7958" y1="2851.6772" x2="-257.0306" y2="2851.6772" gradientTransform="translate(511.5771) rotate(-180) scale(1 -1)" xlink:href="#uuid-4fbdc622-8467-4d5b-ac01-9cfd50364dfc"/><linearGradient id="uuid-0ad630ec-0b78-4900-a763-dc4fc92f8920" x1="-3.62029" y1="2791.3149" x2="-107.694" y2="2655.70347" gradientTransform="translate(511.5771) rotate(-180) scale(1 -1)" xlink:href="#uuid-d7089d96-ccc7-426a-8628-7a0a8baa1990"/><linearGradient id="uuid-af92bf27-a46c-4667-bf3e-5cdd860679a9" x1="1353.1742" y1="2805.85015" x2="1389.308" y2="2805.85015" gradientTransform="matrix(1,0,0,1,0,0)" xlink:href="#uuid-58630a54-79af-4b3a-8a48-4f77db2d9569"/><linearGradient id="uuid-16984086-0acb-4f8e-83f3-ebc43b716344" x1="1295.44005" y1="2879.23577" x2="1304.11372" y2="2750.09611" gradientUnits="userSpaceOnUse"><stop offset=".09996" stop-color="#311944"/><stop offset=".26702" stop-color="#361b47"/><stop offset=".4803" stop-color="#462050"/><stop offset=".71863" stop-color="#602a5f"/><stop offset=".97356" stop-color="#843773"/><stop offset="1" stop-color="#893976"/></linearGradient><linearGradient id="uuid-0debe436-4229-4565-bd8d-6fbd5fac9ff1" x1="1246.81277" y1="2786.20321" x2="1346.02273" y2="2839.39265" xlink:href="#uuid-16984086-0acb-4f8e-83f3-ebc43b716344"/><linearGradient id="uuid-941d53af-d0d6-4c84-aaba-0914adcff7e6" x1="1212.6892" y1="2808.4986" x2="1244.57402" y2="2808.4986" gradientTransform="matrix(1,0,0,1,0,0)" xlink:href="#uuid-58630a54-79af-4b3a-8a48-4f77db2d9569"/><linearGradient id="uuid-ac7a4e9e-0b8f-4612-8d1e-88e70e6bd68f" x1="1105.80172" y1="2952.25314" x2="1049.09527" y2="2433.90171" gradientUnits="userSpaceOnUse"><stop offset=".09996" stop-color="#311944"/><stop offset=".68535" stop-color="#6d2e66"/><stop offset="1" stop-color="#893976"/></linearGradient><linearGradient id="uuid-935bda12-2762-4cce-9354-46c0d34fcc55" x1="1352.52439" y1="3167.34212" x2="977.00316" y2="2958.24466" gradientTransform="matrix(1,0,0,1,0,0)" xlink:href="#uuid-d7089d96-ccc7-426a-8628-7a0a8baa1990"/><linearGradient id="uuid-d957d3de-07ae-4b6b-b9a5-16f665ed5b26" x1="1013.66025" y1="2876.41024" x2="1126.90093" y2="3066.30619" gradientTransform="matrix(1,0,0,1,0,0)" xlink:href="#uuid-d7089d96-ccc7-426a-8628-7a0a8baa1990"/><linearGradient id="uuid-8e92af75-6fb4-4d0d-a2c0-628efb37883b" x1="1302.20003" y1="2649.88406" x2="1343.50117" y2="3204.19187" xlink:href="#uuid-ac7a4e9e-0b8f-4612-8d1e-88e70e6bd68f"/><linearGradient id="uuid-aa784e20-6554-4aed-8163-f27fae1310f1" x1="1228.83236" y1="2963.67286" x2="1532.95054" y2="3197.9938" gradientTransform="matrix(1,0,0,1,0,0)" xlink:href="#uuid-d7089d96-ccc7-426a-8628-7a0a8baa1990"/><linearGradient id="uuid-cf677046-3527-4f10-a573-198b93a6e7d3" x1="1150.49392" y1="2931.87565" x2="1278.5566" y2="2926.90235" xlink:href="#uuid-ac7a4e9e-0b8f-4612-8d1e-88e70e6bd68f"/><linearGradient id="uuid-6f6e0460-cd01-4efd-b706-ef39c813267c" x1="1349.82422" y1="3361.44447" x2="1305.35615" y2="2861.71198" xlink:href="#uuid-16984086-0acb-4f8e-83f3-ebc43b716344"/><linearGradient id="uuid-5b7fcf17-ee4e-4061-b823-de9a900d1701" x1="1371.50127" y1="3477.36316" x2="1296.08071" y2="2787.94693" gradientTransform="matrix(1,0,0,1,0,0)" xlink:href="#uuid-d7089d96-ccc7-426a-8628-7a0a8baa1990"/><linearGradient id="uuid-bc569cf4-d88a-4c1c-b1cd-ef21670c8ebb" x1="1477.84513" y1="3114.06171" x2="1250.4279" y2="2995.18448" gradientTransform="matrix(1,0,0,1,0,0)" xlink:href="#uuid-58630a54-79af-4b3a-8a48-4f77db2d9569"/><linearGradient id="uuid-6dc6e853-2b9c-4afe-b2e6-0bfa2fad6b71" x1="1273.96696" y1="3013.47132" x2="1506.06337" y2="3096.52543" gradientTransform="matrix(1,0,0,1,0,0)" xlink:href="#uuid-58630a54-79af-4b3a-8a48-4f77db2d9569"/></defs><g class="uuid-0747ba1d-2d60-42b3-bb18-2ea3c8ec5c86"><g id="uuid-c893654e-1402-4a59-9b10-e10a725e69b8"><path class="uuid-778964cf-e6fe-4dd8-99a3-63dc7f2253b7" d="M3218.5355,1650.8185c-76.3092-499.4795-389.1766-1113.1256-1007.2806-1177.3444,0,0-469.2938-57.0825-931.9142,29.4319-274.5657,51.3459-515.3195,204.1922-667.6583,423.8703-152.3407,219.6781-203.2271,487.5455-141.47,742.9242,40.1107,165.8707,67.2157,337.5406,59.7767,507.9824-12.9461,296.6382-5.4978,573.5286,282.3829,750.4351,257.0441,157.9582,580.5382,297.2714,889.1561,321.6722,209.7346,16.5826,444.9385-10.2519,647.0832-64.8563,1030.1734-278.2814,946.2333-1034.636,869.9242-1534.1154Z"/><path class="uuid-3acd99a5-3b6e-4385-aa7c-f2383c5b56c8" d="M1413.3707,1968.4196c26.8168,13.5335,60.4392.9655,75.0945-28.0738,14.6534-29.0392,4.793-63.5514-22.0257-77.0849-1.3902-.7018-2.8073-1.2905-4.2292-1.8533,4.9378-16.06,8.6503-32.2436,11.1278-48.4292,1.5351-.0086,3.0749-.0374,4.6397-.1822,30.5532-2.7977,54.738-30.9377,54.0209-62.8533-.7182-31.9167-26.0661-55.5205-56.6202-52.7217-1.5955.1467-3.165.4027-4.7231.6836-3.2321-15.8097-7.6426-31.2493-13.197-46.1904,1.4037-.8255,2.7997-1.6788,4.1641-2.6395,26.0996-18.3813,34.3721-54.554,18.4733-80.7945-15.8979-26.2396-49.945-32.6099-76.0437-14.2306-1.3385.9425-2.5964,1.9588-3.839,2.9915-10.3551-11.3906-21.7054-21.9422-33.9848-31.5677.8581-1.4142,1.6981-2.8476,2.4574-4.352,14.6553-29.0392,33.8199-60.767,6.7931-73.8796-62.5216-30.3327-89.2559-4.1708-103.9102,24.8685-.7585,1.5034-1.4124,3.0308-2.0404,4.561-15.0369-4.1583-30.2684-7.0223-45.5824-8.5851.091-1.6137.162-3.2283.1256-4.865-.7172-31.9147,8.7107-49.2096-21.9662-49.7312-66.8948-1.1371-89.3921,27.951-88.674,59.8648.0365,1.6693.1803,3.2993.35,4.9187-15.3178,4.4076-30.3605,10.031-44.9966,16.8222-.7-1.421-1.4267-2.8333-2.2561-4.2063-15.8979-26.2405-49.945-32.6118-76.0465-14.2296-26.0996,18.3822-34.3712,54.554-18.4723,80.7936.814,1.3452,1.7057,2.6021,2.6108,3.8419-11.5497,11.6072-22.3622,24.2069-32.349,37.7193-1.2983-.8092-2.6137-1.6012-4.0031-2.3011-26.8177-13.5355-60.4381-.9656-75.0944,28.0728-14.6543,29.0383-4.7921,63.5513,22.0247,77.0849,1.3903.7018,2.8083,1.2895,4.2293,1.8533-4.9369,16.0609-8.6503,32.2427-11.1269,48.4292-1.5351.0086-3.0759.0374-4.6397.1802-30.5542,2.7997-54.739,30.9396-54.0218,62.8563.7181,31.9157,26.0689,55.5176,56.6221,52.7198,1.5945-.1458,3.1631-.4008,4.7221-.6827,3.2312,15.8097,7.6417,31.2503,13.196,46.1903-1.4027.8256-2.7997,1.6799-4.1631,2.6406-26.0996,18.3793-34.3722,54.553-18.4723,80.7935,15.896,26.2396,68.3463,38.3205,94.4469,19.9403,1.3375-.9416-15.8088-7.6685-14.5662-8.7012,10.3561,11.3906,21.7073,21.9422,33.9848,31.5677-.8581,1.4152-1.698,2.8486-2.4574,4.352-14.6553,29.0383-4.794,63.5514,22.0237,77.0849,26.8187,13.5344,60.4391.9655,75.0935-28.0738.7594-1.5034,1.4123-3.0317,2.0422-4.561,15.035,4.1583,30.2675,7.0223,45.5815,8.5861-.092,1.6117-.163,3.2283-.1265,4.864.7191,31.9147,26.067,55.5195,56.6202,52.7207,30.5522-2.7997,54.739-30.9406,54.0199-62.8553-.0364-1.6673-.1803-3.2983-.35-4.9177,15.3188-4.4066,30.3615-10.03,44.9967-16.8231.6999,1.4219,1.4267,2.8351,2.2579,4.2053,15.898,26.2405,49.9431,32.6137,76.0446,14.2305,26.1006-18.3812,34.3712-54.553,18.4743-80.7945-.816-1.3423-1.7077-2.5993-2.6128-3.84,11.5498-11.6073,22.3631-24.2069,32.35-37.7193,1.2973.8102,2.6137,1.6002,4.003,2.3021ZM1079.4781,1973.4686c-97.3713-49.1386-133.1739-174.4436-79.9651-279.8765,53.2097-105.4348,175.2759-151.069,272.6481-101.9294,97.3703,49.1406,133.1739,174.4446,79.9642,279.8785-53.2069,105.4328-175.275,151.068-272.6472,101.9274Z"/><path class="uuid-3acd99a5-3b6e-4385-aa7c-f2383c5b56c8" d="M1477.9778,1812.7972c30.5532-2.7987,54.738-30.9406,54.0209-62.8543-.7182-31.9157-26.0661-55.5214-56.6202-52.7217-1.5955.1457-3.165.4027-4.7231.6826-3.2312-15.8097-7.6426-31.2483-13.197-46.1894,1.4037-.8245,2.7997-1.6788,4.1641-2.6405,26.0996-18.3803,58.3384-62.7182,39.8335-87.1878-35.1219-46.4444-71.3052-26.2156-97.4039-7.8363-1.3385.9425-2.5964,1.9579-3.839,2.9905-10.3551-11.3906-21.7054-21.9412-33.9848-31.5676.8581-1.4143,1.6981-2.8467,2.4574-4.3511,7.9763-15.803,8.6417-33.2081,3.3127-47.99-25.1456,44.5077-49.9498,89.2013-74.3073,134.1375,77.7225,56.6624,102.6965,168.6382,54.4342,264.273-40.8987,81.04-122.4756,126.6886-202.2538,121.187-3.5361,9.2371-7.006,18.5221-10.7942,27.6701-10.2793,24.8244-21.9652,49.1425-33.6684,73.428,7.4001,1.3778,14.8318,2.4574,22.2845,3.2187-.092,1.6127-.163,3.2293-.1265,4.864.7191,31.9157,20.1617,58.9856,75.5393,55.9136,30.6337-1.7,35.8199-34.1325,35.1008-66.0481-.0364-1.6664-.1803-3.2983-.349-4.9168,15.3178-4.4066,30.3605-10.031,44.9957-16.8231.6999,1.4219,1.4267,2.8351,2.2579,4.2053,15.898,26.2415,70.8537,37.2725,96.9542,18.8913,26.1015-18.3812,13.4607-59.2138-2.4353-85.4553-.816-1.3433-1.7077-2.6003-2.6128-3.8409,11.5498-11.6064,22.3631-24.2069,32.35-37.7184,1.2973.8111,2.6137,1.6012,4.003,2.3011,26.8168,13.5355,60.4392.9655,75.0945-28.0737,14.6534-29.0374,4.793-63.5514-22.0257-77.0849-1.3902-.7019-2.8073-1.2896-4.2292-1.8524,4.9378-16.06,8.6503-32.2446,11.1278-48.4282,1.5341-.0096,3.0749-.0393,4.6397-.1822Z"/><path class="uuid-a46b649d-1954-479f-8ba1-2dde891374d7" d="M1442.1876,1971.6249c26.8177,13.5344,60.4381.9645,75.0925-28.0728,14.6553-29.0393,4.794-63.5514-22.0228-77.0849-1.3893-.7019-2.8083-1.2906-4.2302-1.8534,4.9369-16.0609,8.6503-32.2436,11.1269-48.4291,1.535-.0087,3.0758-.0374,4.6406-.1822,30.5523-2.7988,54.7381-30.9387,54.0209-62.8544-.7172-31.9156-26.067-55.5204-56.6193-52.7217-1.5983.1477-3.1659.4027-4.7249.6846-3.2302-15.8097-7.6427-31.2502-13.197-46.1903,1.4046-.8255,2.8016-1.6798,4.165-2.6406,26.0996-18.3802,34.3712-54.553,18.4733-80.7935-15.897-26.2405-49.9441-32.6118-76.0446-14.2306-1.3375.9425-2.5955,1.9589-3.839,2.9915-10.3542-11.3915-21.7064-21.9432-33.9829-31.5676.8581-1.4152,1.698-2.8486,2.4574-4.352,14.6544-29.0393,4.794-63.5514-22.0247-77.0859-26.8186-13.5335-60.4391-.9645-75.0934,28.0747-.7584,1.5034-1.4133,3.0308-2.0413,4.561-15.035-4.1583-30.2675-7.0222-45.5815-8.586.092-1.6127.163-3.2293.1266-4.864-.7192-31.9148-26.068-55.5195-56.6212-52.7208-30.5523,2.7988-54.739,30.9396-54.0209,62.8543.0384,1.6684.1812,3.2993.3509,4.9187-15.3188,4.4067-30.3586,10.03-44.9966,16.8222-.699-1.4209-1.4257-2.8342-2.2561-4.2063-15.8969-26.2405-49.944-32.6117-76.0455-14.2296-26.1015,18.3822-34.3712,54.5531-18.4733,80.7936.814,1.3442,1.7048,2.6012,2.6118,3.8419-11.5507,11.6073-22.3631,24.2069-32.35,37.7184-1.2973-.8093-2.6128-1.6003-4.003-2.3012-26.8177-13.5344-60.4391-.9655-75.0925,28.0738-14.6553,29.0383-4.795,63.5514,22.0227,77.0849,1.3893.7009,2.8074,1.2896,4.2303,1.8534-4.9379,16.0599-8.6513,32.2426-11.126,48.4291-1.5369.0077-3.0758.0374-4.6425.1793-30.5523,2.7997-54.7371,30.9406-54.0209,62.8563.7181,31.9156,26.0689,55.5185,56.6212,52.7197,1.5973-.1447,3.165-.4007,4.723-.6817,3.2322,15.8088,7.6417,31.2494,13.197,46.1904-1.4047.8255-2.7997,1.6779-4.1641,2.6396-26.1005,18.3802-34.3721,54.5539-18.4742,80.7935,15.8989,26.2405,49.945,32.6108,76.0446,14.2306,1.3375-.9416,2.5964-1.9579,3.839-2.9905,10.3541,11.3905,21.7064,21.9422,33.9829,31.5676-.8572,1.4142-1.6971,2.8476-2.4565,4.352-14.6543,29.0383-4.793,63.5504,22.0237,77.0849,26.8187,13.5335,60.4401.9646,75.0935-28.0738.7594-1.5034,1.4133-3.0317,2.0423-4.561,15.0359,4.1583,30.2665,7.0223,45.5805,8.5851-.092,1.6127-.162,3.2283-.1256,4.865.7181,31.9147,26.0679,55.5176,56.6212,52.7198,30.5522-2.7987,54.739-30.9396,54.0199-62.8543-.0374-1.6684-.1812-3.2983-.35-4.9177,15.3198-4.4077,30.3586-10.031,44.9967-16.8232.6989,1.4209,1.4247,2.8342,2.256,4.2053,15.8989,26.2405,49.9441,32.6127,76.0446,14.2306,26.1015-18.3813,34.3712-54.5531,18.4742-80.7945-.814-1.3433-1.7047-2.6003-2.6108-3.84,11.5498-11.6073,22.3622-24.2079,32.3481-37.7194,1.2982.8093,2.6137,1.6003,4.004,2.3012ZM1108.2949,1976.6749c-97.3712-49.1396-133.172-174.4437-79.9651-279.8785,53.2078-105.4329,175.2778-151.0671,272.6472-101.9275,97.3722,49.1387,133.1729,174.4447,79.9651,279.8775-53.2078,105.4339-175.2769,151.0681-272.6472,101.9285Z"/><path class="uuid-3acd99a5-3b6e-4385-aa7c-f2383c5b56c8" d="M2366.3335,1505.7483c32.5949,16.4494,73.4579,1.1735,91.2686-34.1201,17.8114-35.2935,5.8263-77.2398-26.7679-93.6886-1.6885-.8531-3.4118-1.5675-5.1392-2.2526,5.9998-19.5196,10.5119-39.1882,13.5227-58.8608,1.866-.0103,3.7382-.0458,5.6404-.2206,37.1337-3.4015,66.5286-37.6022,65.657-76.3929-.8722-38.7907-31.6823-67.48-68.816-64.0785-1.9411.1789-3.8475.4897-5.7422.8312-3.9267-19.2136-9.2885-37.9806-16.0389-56.1389,1.7062-1.0041,3.4035-2.0409,5.0619-3.2089,31.7213-22.3392,41.7742-66.3038,22.4519-98.1959-19.3222-31.8927-60.703-39.6355-92.4243-17.2964-1.6263,1.1455-3.1542,2.3811-4.6657,3.6358-12.5842-13.8443-26.3807-26.6689-41.3036-38.3672,1.0437-1.7198,2.0641-3.4616,2.9869-5.2894,17.8114-35.2935,41.1048-73.856,8.2558-89.7925-75.9885-36.8666-108.4803-5.0695-126.293,30.2234-.9221,1.8285-1.7165,3.685-2.4808,5.5448-18.2751-5.0544-36.7866-8.5351-55.3992-10.4353.112-1.9603.1967-3.924.1537-5.9123-.8736-38.7886,10.5863-59.8096-26.6983-60.4434-81.3032-1.3825-108.647,33.9719-107.7754,72.7598.0458,2.0279.2206,4.0101.4255,5.9786-18.6173,5.3556-36.898,12.19-54.6875,20.4458-.8517-1.7281-1.7335-3.4452-2.7431-5.1138-19.3222-31.8921-60.7016-39.6343-92.4256-17.293-31.7227,22.3412-41.7741,66.3038-22.4519,98.1959.989,1.6345,2.073,3.1617,3.1734,4.6685-14.0377,14.108-27.1792,29.4222-39.3166,45.8443-1.5771-.9842-3.1775-1.9453-4.8659-2.797-32.5949-16.4494-73.4572-1.1735-91.2672,34.1201-17.8121,35.2935-5.827,77.2398,26.7672,93.6886,1.6885.8531,3.4118,1.5675,5.1405,2.2526-6.0004,19.5196-10.5139,39.1882-13.524,58.8608-1.866.0103-3.7389.0458-5.6384.2186-37.1357,3.4035-66.5299,37.6042-65.6584,76.3949.873,38.7907,31.6838,67.4779,68.8167,64.0765,1.9392-.1776,3.8462-.4877,5.7409-.8299,3.9261,19.2143,9.2879,37.9806,16.0382,56.1396-1.7055,1.0041-3.4035,2.0409-5.0605,3.2089-31.722,22.3392-41.7742,66.3038-22.4519,98.1959,19.3215,31.8927,83.0695,46.5758,114.7914,24.2359,1.6257-1.1454-19.2136-9.3206-17.7021-10.5753,12.5842,13.8443,26.3814,26.6689,41.3029,38.3672-1.0416,1.7198-2.0641,3.4609-2.9862,5.2894-17.8107,35.2935-5.8269,77.2398,26.768,93.6892,32.5948,16.4487,73.4571,1.1728,91.2692-34.1201.9221-1.8285,1.7165-3.685,2.4808-5.5448,18.2745,5.0544,36.786,8.5351,55.3985,10.4353-.1113,1.9603-.1967,3.924-.1523,5.9123.8723,38.7886,31.6824,67.4773,68.816,64.0758,37.1337-3.4015,66.5292-37.6043,65.657-76.3929-.0464-2.0272-.2206-4.0094-.4262-5.9779,18.6187-5.3556,36.9-12.19,54.6882-20.4458.8511,1.7281,1.7342,3.4452,2.7431,5.1118,19.3222,31.8921,60.7022,39.6363,92.4249,17.295,31.7234-22.3412,41.7755-66.3038,22.4533-98.1979-.9904-1.6325-2.0737-3.1597-3.1741-4.6665,14.0377-14.108,27.1785-29.4222,39.3166-45.8443,1.5778.9842,3.1775,1.9453,4.8652,2.797ZM1960.5226,1511.8867c-118.346-59.7242-161.8584-212.0195-97.1891-340.1628,64.6687-128.1441,213.0297-183.6082,331.375-123.884,118.3446,59.7242,161.8577,212.0195,97.1898,340.1628-64.6701,128.1441-213.0318,183.6082-331.3757,123.884Z"/><path class="uuid-3acd99a5-3b6e-4385-aa7c-f2383c5b56c8" d="M2444.8581,1316.6062c37.1337-3.4028,66.5286-37.6042,65.657-76.3942-.8722-38.79-31.6823-67.48-68.816-64.0771-1.9411.1776-3.8475.4897-5.7422.8305-3.9254-19.215-9.2885-37.9799-16.0389-56.1389,1.7062-1.0027,3.4035-2.0409,5.0619-3.2096,31.7213-22.3392,70.9034-76.2275,48.4125-105.9687-42.688-56.447-86.6636-31.862-118.3849-9.5229-1.6263,1.1455-3.1542,2.3804-4.6644,3.6345-12.5855-13.8444-26.382-26.6676-41.3049-38.3666,1.0437-1.7198,2.0641-3.4609,2.9869-5.288,9.6936-19.2088,10.5016-40.3623,4.0251-58.3287-30.5608,54.0946-60.7084,108.416-90.311,163.0305,94.4632,68.8679,124.815,204.9631,66.1577,321.1964-49.7062,98.4971-148.8576,153.9769-245.8186,147.2914-4.2976,11.2256-8.5153,22.512-13.1196,33.6304-12.4927,30.1722-26.6976,59.7276-40.9204,89.2441,8.9948,1.6734,18.0272,2.9855,27.0835,3.911-.1113,1.9617-.1967,3.9254-.1523,5.913.8723,38.7893,24.5044,71.6909,91.8102,67.9561,37.2314-2.0655,43.5344-41.4832,42.6628-80.2732-.0464-2.0265-.2199-4.0087-.4255-5.9772,18.618-5.3556,36.8993-12.1907,54.6875-20.4465.8511,1.7288,1.7342,3.4452,2.7437,5.1118,19.3223,31.8941,86.1158,45.3013,117.8392,22.9601,31.7233-22.3413,16.3606-71.9682-2.9616-103.8616-.9904-1.6338-2.0737-3.1611-3.1741-4.6685,14.0377-14.1074,27.1792-29.4216,39.3166-45.843,1.5778.9849,3.1775,1.946,4.8652,2.7956,32.5949,16.4515,73.4579,1.1735,91.2693-34.1201,17.8107-35.2921,5.8263-77.2398-26.7679-93.6878-1.6892-.8531-3.4125-1.5676-5.1399-2.252,5.9998-19.5196,10.5119-39.1895,13.5227-58.8601,1.866-.011,3.7382-.0472,5.6404-.2207Z"/><path class="uuid-a46b649d-1954-479f-8ba1-2dde891374d7" d="M2401.3573,1509.645c32.5949,16.4494,73.4586,1.1734,91.2693-34.1208,17.8107-35.2935,5.8269-77.2391-26.7687-93.6885-1.6884-.8525-3.4117-1.5683-5.1391-2.252,5.9997-19.5196,10.5125-39.1882,13.5233-58.8615,1.8654-.0096,3.7376-.0451,5.6398-.22,37.1336-3.4014,66.5285-37.6028,65.657-76.3935-.8722-38.7907-31.6824-67.4793-68.816-64.0778-1.9412.1789-3.8468.4897-5.7423.8312-3.9267-19.215-9.2885-37.9806-16.0389-56.1389,1.7062-1.0041,3.4036-2.0409,5.062-3.2089,31.7213-22.3392,41.7748-66.3038,22.4525-98.1966-19.3222-31.892-60.7029-39.6355-92.4249-17.2957-1.6256,1.1455-3.1549,2.3811-4.6651,3.6344-12.5848-13.8436-26.3814-26.6675-41.3035-38.3665,1.0423-1.7191,2.0634-3.4616,2.9869-5.2893,17.8107-35.2929,5.8262-77.2399-26.7687-93.6886-32.5949-16.4501-73.4565-1.1735-91.2679,34.1201-.9228,1.8285-1.7178,3.6849-2.4814,5.5448-18.2752-5.0544-36.7874-8.5358-55.3986-10.436.1107-1.9603.196-3.9233.1523-5.9116-.8736-38.7893-31.683-67.4773-68.8167-64.0765-37.1336,3.4008-66.5285,37.605-65.657,76.3929.0458,2.0279.2207,4.0094.4263,5.9779-18.6181,5.3563-36.8987,12.1907-54.6889,20.4465-.8504-1.7281-1.7329-3.4459-2.7424-5.1139-19.3216-31.892-60.7016-39.6355-92.4256-17.2943-31.7227,22.3419-41.7735,66.3052-22.4519,98.1973.9904,1.6338,2.0737,3.161,3.174,4.6685-14.0376,14.108-27.1798,29.4208-39.3173,45.8443-1.5771-.9843-3.1761-1.9453-4.8659-2.7977-32.5942-16.4494-73.4565-1.1728-91.2679,34.1208-17.8114,35.2929-5.8269,77.2391,26.768,93.6885,1.6891.8525,3.4124,1.5676,5.1405,2.2527-6.0004,19.5196-10.5139,39.1882-13.5233,58.8608-1.8654.0103-3.739.0458-5.6398.2179-37.133,3.4035-66.5292,37.6049-65.657,76.3956s31.683,67.4766,68.816,64.0758c1.9391-.1769,3.8461-.487,5.7409-.8299,3.926,19.215,9.2878,37.9806,16.0382,56.1403-1.7055,1.0034-3.4029,2.0402-5.0606,3.2082-31.7226,22.3392-41.7741,66.3045-22.4526,98.1966,19.3223,31.8927,60.7023,39.6349,92.4243,17.2963,1.6256-1.1461,3.1549-2.381,4.6651-3.6357,12.5862,13.8443,26.3821,26.6689,41.3036,38.3672-1.0417,1.7191-2.0635,3.4609-2.9856,5.2893-17.812,35.2936-5.8276,77.2392,26.7673,93.6893,32.5949,16.4487,73.4572,1.1728,91.2686-34.1215.9228-1.8278,1.7171-3.6836,2.4808-5.5435,18.2751,5.0545,36.788,8.5345,55.3999,10.4347-.1107,1.9603-.1974,3.9247-.153,5.913.8729,38.7879,31.6823,67.4773,68.816,64.0758,37.1336-3.4015,66.5299-37.6043,65.6563-76.3936-.0451-2.0272-.2193-4.0087-.4255-5.9772,18.6187-5.3563,36.9-12.1907,54.6888-20.4465.8504,1.7274,1.7343,3.4459,2.7438,5.1111,19.3222,31.8928,60.7016,39.6376,92.4236,17.2964,31.7233-22.3412,41.7755-66.3038,22.4539-98.1979-.9904-1.6325-2.0744-3.1604-3.1747-4.6672,14.0376-14.1073,27.1791-29.4215,39.3173-45.8443,1.5771.9836,3.1761,1.9453,4.8645,2.7977ZM1995.5464,1515.7827c-118.3446-59.7242-161.8585-212.0195-97.1891-340.1628,64.67-128.1434,213.0303-183.6075,331.3749-123.8833,118.3446,59.7235,161.8578,212.0195,97.1898,340.1628-64.67,128.1441-213.0304,183.6075-331.3756,123.8833Z"/><path class="uuid-293e7b5d-5119-4f68-bcc4-975afa026120" d="M1894.3746,1678.3391c28.4309-30.355-50.2759-144.3941-92.4025-194.3639-36.8026-43.6544-74.629-88.5247-121.0792-82.8437-40.7824,4.988-80.4663,47.9963-82.8436,89.2163-6.3959,110.889,255.907,231.1448,296.3253,187.9913Z"/><path class="uuid-7112d1e1-397f-41a1-b963-265ceeb61f53" d="M1553.0118,2850.193c-5.3519,4.3501-6.3363,15.214-6.9784,22.3153-.2895,3.1722-.4319,4.7591-.0776,5.8791,2.5858,8.1725,18.4362,9.0323,43.2913,11.5721,39.2783,4.013,50.967,7.1041,54.0409,1.2595,2.881-5.4776-4.0905-14.4467-4.8757-15.4357-4.2203-5.3162-9.4004-7.2501-19.4154-10.5463-18.5309-6.0996-31.0518-9.4395-34.8431-10.4504-23.6726-6.3201-27.627-7.4499-31.142-4.5936Z"/><path class="uuid-958983da-ec88-4b79-8933-60bc0dcccf61" d="M1576.3707,2814.3097l3.9309,44.7593c-1.116,2.1613-14.4197,8.6446-24.9873,3.0849l-10.0994-43.9966,31.1558-3.8476Z"/><path class="uuid-331886f1-a0cf-4ec6-9fd9-e531a74bce7d" d="M1864.5149,2844.4409c-6.4143,7.0835-7.8755,20.127-2.2985,26.5529,5.4827,6.3179,13.727,1.5795,37.1078,2.2773,25.0452.749,31.5848,6.6636,48.604,1.9677,6.8756-1.9005,19.0192-6.5103,18.7889-11.4204-.162-3.453-6.3443-5.2358-26.9935-12.1539-29.3104-9.818-29.1812-10.3544-35.4054-11.386-15.6333-2.5892-31.3316-5.1904-39.8033,4.1624Z"/><path class="uuid-541d0edd-200b-4a93-9629-f1a3edf903d4" d="M1880.5618,2803.5923l12.5617,41.7848c-.9494,2.2417-13.7196,9.718-24.6788,4.9819l-18.6562-40.5562,30.7733-6.2105Z"/><path class="uuid-6f6210fb-f9db-4a75-b362-6384eb6c4942" d="M1768.95,1888.4402c1.7995,140.4288,11.382,298.3243,34.3756,469.8687,22.7243,169.545,54.5711,322.7371,89.3102,457.4476-16.0273,4.3123-32.054,8.6239-48.0802,12.9362-40.6614-37.9142-91.9545-97.5976-116.7052-181.9396-15.361-52.3477-10.2418-79.2476-19.9857-143.6343-15.5145-102.518-46.9402-156.2287-79.4204-238.8988-29.1875-74.2874-63.6883-183.3117-82.1865-329.0423,74.2311-15.5788,148.4622-31.1587,222.6922-46.7375Z"/><path class="uuid-6f6210fb-f9db-4a75-b362-6384eb6c4942" d="M1624.2792,1875.0405c-9.8093,178.6021-17.8773,360.5279-23.9907,545.6764-4.5891,138.9349-7.9582,276.1082-10.1971,411.4758-16.3708,2.0212-32.7421,4.0435-49.1146,6.0635-15.8189-29.4523-36.8299-74.481-51.2232-132.1949-17.4815-70.0946-13.4335-111.7209-21.1-184.3685-8.6021-81.4801-21.096-99.2316-43.2298-202.0178-44.9231-208.6005-67.3854-312.9025-17.2731-377.7826,16.2662-21.0627,67.2631-73.8992,216.1285-66.8519Z"/><path class="uuid-2734a138-3aad-433c-8837-9f7ac21f1979" d="M1385.6811,1426.1653c38.3398-10.7814,94.5293-23.3901,163.3443-27.2796,98.1481-5.5476,147.2229-8.3212,181.9984,15.0513,80.3185,53.983,18.136,178.5752,51.0133,487.4287,4.6955,44.1064,5.7487,88.527,9.1482,132.752,5.6304,73.2241,6.9124,77.1996,1.8172,84.62-31.9501,46.5291-151.1514-23.6526-325.8655,4.0894-97.7561,15.5223-142.0919,51.2837-168.8736,25.4904-31.2328-30.08-4.4418-110.9859,18.6199-180.6336,26.4721-79.9451,42.8252-80.9739,57.8512-141.1821,15.7058-62.9305,6.2061-95.3325,3.7604-194.5697-1.17-47.484-.9211-118.15,7.1862-205.7668Z"/><path class="uuid-87af45f5-9bc9-45b7-b0c3-42113ed29731" d="M1623.2654,2005.9965c-45.6645-3.5733-75.2886,22.2434-114.7066,2.1241-54.0519-27.5892-71.4193-113.4297-67.9748-174.184,5.2338-92.3084,57.943-116.6404,48.8571-176.3084-4.9133-32.2682-27.9517-75.1089-110.6678-118.8777-1.103,36.8372-.893,68.2362-.2784,93.1816,2.4457,99.2372,11.9454,131.6392-3.7604,194.5697-15.026,60.2082-31.3791,61.237-57.8512,141.1821-23.0617,69.6477-49.8527,150.5536-18.6199,180.6336,26.7817,25.7933,71.1175-9.9681,168.8736-25.4904,150.5431-23.9042,259.8105,24.8331,307.619,9.0268-57.7703-95.4639-110.1683-122.6241-151.4906-125.8574Z"/><path class="uuid-a02ed38b-1c55-45ef-81ef-5ea0479e6cee" d="M1447.9694,1432.5021c-32.6128-26.7973-98.1901,3.5363-115.7194,11.6444-97.7545,45.2172-185.5238,167.065-163.7767,295.8333,3.2609,19.3127,18.3849,109.6413,94.8731,153.4097,69.0156,39.4918,162.207,29.3351,236.8733-26.5989,10.203-9.0552,20.4091-18.1077,30.6136-27.1625,10.0381-10.8506,20.0793-21.7019,30.1173-32.5541-15.7805-13.1263-42.5933-32.0621-80.2501-44.2133-49.6474-16.0205-85.7919,12.7257-108.8272-9.1291-15.8972-15.0828-15.933-41.7225-12.0077-57.8679,7.9129-32.5405,36.5973-41.6917,60.5396-64.7881,56.2502-54.2627,66.6135-166.4873,27.5642-198.5735Z"/><polygon class="uuid-569ad375-5df9-4d5d-9033-b3a2e24c8062" points="1910.7859 1851.8398 1515.8978 1845.9448 1620.9051 1896.6226 1911.7955 1877.5845 1910.7859 1851.8398"/><path class="uuid-6f6210fb-f9db-4a75-b362-6384eb6c4942" d="M1501.9618,1856.4388v.0015c0,7.3898,4.6244,13.991,11.5695,16.5167l126.1796,49.4664.5748-34.2941-124.3879-42.1845c-6.9799-2.0064-13.936,3.2328-13.936,10.494Z"/><path class="uuid-01104ba7-3e1a-4c6c-8015-efbadb94d4ab" d="M1531.3969,1832.0997c-2.6828-.5991,13.07-31.9875,25.4375-28.3656,12.3641,3.623,72.8493,38.6763,78.347,53.1098l5.4983,14.433s-26.3841,2.0625-42.7463-3.4352c-16.3633-5.4989-44.7203-30.8778-66.5365-35.742Z"/><path class="uuid-6f6210fb-f9db-4a75-b362-6384eb6c4942" d="M1650.7616,1647.509l-27.8351,253.4371c-.9604,8.745,11.2821,21.773,20.0696,21.3574l408.3348-25.0676c6.7101-.3191,12.2969-5.2568,13.4327-11.8772l51.2517-244.7762c1.529-8.9074-14.4833-18.1074-23.5178-17.8552l-427.909,12.0318c-7.1464.2023-13.0477,5.6423-13.8269,12.7499Z"/><path class="uuid-6f6210fb-f9db-4a75-b362-6384eb6c4942" d="M1660.0939,1654.8977l-27.8356,253.4398c-.9599,8.745,6.1197,16.2779,14.9072,15.8639l413.4993-19.5757c6.7085-.318,12.2954-5.2568,13.4321-11.8762l42.2453-245.8958c1.53-8.9095-5.4764-16.9898-14.5114-16.7351l-427.9099,12.0318c-7.1449.1993-13.0488,5.6424-13.827,12.7473Z"/><path class="uuid-92ca4d3b-a832-4dcb-90e7-0cd101c0c208" d="M1902.9001,1845.2386c-36.1054-15.3025-23.3617-44.4845-65.9976-80.8472-56.2461-47.9706-113.5765-27.1662-133.6466-64.3482-6.2499-11.5809-9.2353-29.5996,1.6514-58.7639l-30.9864.8711c-7.1449.1993-13.0488,5.6424-13.827,12.7473l-27.8356,253.4398c-.9588,8.7434,6.1212,16.2779,14.9072,15.8639l413.4993-19.5757c6.7085-.318,12.2954-5.2558,13.4321-11.8762l5.8297-33.9314c-12.546-6.9819-27.5383-13.3304-45.0314-16.8793-60.6639-12.3047-90.4275,20.9174-131.9951,3.2998Z"/><path class="uuid-0a7a9be1-9713-4779-b5ee-8826e4ca9680" d="M2090.987,1866.9027c.7444-2.2601-.8333-4.5885-3.2106-4.7092-9.6744-.4933-32.1121-.6938-44.4992,6.8917-16.091,9.8565-36.8976,27.8424-19.3758,36.9171l16.3611,8.4763c.7512.3895,1.5697.5101,2.3944.3297,5.8136-1.2785,30.2828-6.7067,32.9587-8.0547,2.4364-1.2268,11.7662-28.913,15.3714-39.8509Z"/><path class="uuid-a4292af6-826c-4799-87d3-5eb1a3656747" d="M1556.3537,1291.6539c.2441,29.0973-3.0021,52.1737-6.0732,67.977-3.5173,18.1071-6.0525,22.7846-9.2879,26.5805-4.8693,5.7137-12.2492,10.5061-53.9444,20.8462-22.6898,5.6246-25.6087,5.4718-26.1101,7.7233-2.4438,10.9839,59.4266,48.4203,123.347,39.3972,39.1203-5.5213,74.7141-27.8401,72.5293-39.5609-2.1992-11.7949-41.2759-5.4661-52.9226-26.805-8.1024-14.8448.9798-35.9195,11.7151-53.3724-10.3981-19.4821-48.8562-23.3044-59.2532-42.7859Z"/><path class="uuid-6f6210fb-f9db-4a75-b362-6384eb6c4942" d="M1628.9623,1303.1582c9.2322-12.2641,9.8019-33.6754-.8357-47.2095-9.1546-11.6462-23.5611-13.3066-32.1856-14.3043-24.9924-2.8855-56.5267,7.5476-67.4957,30.5499-6.4994,13.6317,7.5602,41.9553,9.7611,47.0475,2.4939,5.7574,7.0129,7.7326,11.1948,12.0862,5.7946,6.037,14.8671,15.6373,29.6751,31.6922,1.1504-4.7373,2.9005-10.6026,5.6792-16.9589,1.07-2.4473,5.3667-12.0034,11.8684-19.9278,13.0246-15.8843,23.5864-11.3527,32.3384-22.9753Z"/><path class="uuid-f766caa9-0835-4523-8595-c1b11a5493a8" d="M1557.9533,1349.5189s16.4299,26.9544,49.1422,24.8264c29.2886-1.9069,33.5784-67.5882,14.8712-81.526-6.2415-4.6494-18.7406-6.5804-28.9038-3.7327-6.0025,1.6828-8.0363,4.1767-17.8974,6.7337-9.0978,2.3612-11.6657,1.3526-14.4122,3.6621-3.4341,2.8918-5.9503,9.9776-.2149,29.1788-5.5884-5.6573-12.2951-7.829-17.0485-5.585-.757.3596-2.7684,1.7265-3.9004,3.8-4.0946,7.5016,2.7575,17.0829,18.3638,22.6427Z"/><path class="uuid-6f6210fb-f9db-4a75-b362-6384eb6c4942" d="M1559.4288,1295.5544c1.4123,1.0533-2.9057,6.323-3.2267,13.7816-.6272,14.4777,14.028,31.8565,28.9773,33.3303,8.8387.8707,11.2676-4.4564,25.8792-6.0003,9.046-.9551,16.5764.1953,21.3136,1.2303,4.5914,15.8791.2711,31.71-10.3423,39.0548-11.4262,7.9083-26.0228,3.1107-32.1248,1.1045-4.0825-1.3422-17.1639-5.6149-24.001-17.6114-7.1237-12.5013-.1327-20.0369-8.3052-28.4919-4.1221-4.2652-9.5366-6.1123-14.808-14.3686-1.4313-2.244-2.3864-4.2278-2.9711-5.5626,7.5573-8.0082,17.5637-17.9922,19.609-16.4667Z"/><path class="uuid-eb70c9b8-4288-4ed6-89ec-a4fbefdcd092" d="M1621.7404,1343.7822s-6.3259,3.3049-17.2565,2.6903c-.5312-.031-1.1182.1258-1.186.4009-.251,1.0367,6.7613,5.6861,13.2233,3.8706,4.5874-1.2912,8.157-5.6339,7.5401-6.7395-.2624-.4652-1.2997-.4043-2.3209-.2223Z"/><path class="uuid-e5998793-5db9-4efa-9cf0-7641b596a0eb" d="M2159.3047,2932.2935c-2.1438,0-3.9551-1.6346-4.155-3.7926l-75.7167-818.2745c-.2122-2.2967,1.4767-4.3311,3.7734-4.5446,2.2888-.1905,4.3324,1.478,4.5446,3.7755l67.3804,728.1755v-745.9004c0-2.3072,1.8704-4.1774,4.1773-4.1774s4.1774,1.8702,4.1774,4.1774v836.3837c0,2.2328-1.7542,4.0704-3.9856,4.1736-.0653.003-.1306.0038-.1958.0038Z"/><polygon class="uuid-3acd99a5-3b6e-4385-aa7c-f2383c5b56c8" points="3003.6174 2181.2407 2172.9683 2090.2314 577.1465 2162.7671 1412.935 2262.8488 3003.6174 2181.2407"/><polygon class="uuid-e5998793-5db9-4efa-9cf0-7641b596a0eb" points="1412.935 2262.85 3003.6174 2181.2394 3003.6174 2220.6578 1412.935 2302.2676 577.1465 2202.1843 577.1465 2162.7659 1412.935 2262.85"/><path class="uuid-e5998793-5db9-4efa-9cf0-7641b596a0eb" d="M1418.582,3217.6871c-.0552,0-.1103-.0009-.1655-.003-2.2415-.0877-4.014-1.9307-4.014-4.1744v-920.8308c0-2.3067,1.8702-4.1774,4.1774-4.1774,2.3067,0,4.1773,1.8707,4.1773,4.1774v813.8227l63.6618-814.1477c.1817-2.3001,2.1722-4.0153,4.4915-3.8398,2.2988.1804,4.0182,2.1906,3.839,4.4902l-72.0048,920.8308c-.1713,2.1814-1.9926,3.852-4.1627,3.852Z"/><path class="uuid-e5998793-5db9-4efa-9cf0-7641b596a0eb" d="M586.2753,3054.1062c-.0551,0-.1103-.0013-.1654-.0029-2.2416-.0878-4.014-1.9308-4.014-4.1745v-849.9188c0-2.3068,1.8702-4.1774,4.1773-4.1774,2.3068,0,4.1774,1.8706,4.1774,4.1774v743.3502l58.3911-743.6773c.1818-2.3001,2.2295-4.0224,4.4915-3.8369,2.3009.1805,4.0182,2.1906,3.839,4.4915l-66.7337,849.9188c-.1717,2.1802-1.9931,3.8499-4.1632,3.8499Z"/><path class="uuid-e5998793-5db9-4efa-9cf0-7641b596a0eb" d="M2995.746,3054.1062c-2.1622,0-3.9798-1.6572-4.1611-3.8307l-70.8602-849.9188c-.1917-2.2984,1.5177-4.3177,3.8161-4.5095,2.3071-.1867,4.3181,1.5173,4.5098,3.8161l62.5197,749.8823v-728.8873c0-2.3068,1.8706-4.1774,4.1773-4.1774,2.3072,0,4.1774,1.8706,4.1774,4.1774v829.2705c0,2.2395-1.7662,4.0805-4.004,4.1732-.0589.0029-.1182.0042-.175.0042Z"/><path class="uuid-6f6210fb-f9db-4a75-b362-6384eb6c4942" d="M2539.8246,2191.847l-570.7349-4.2467v12.5659c0,3.4108,2.4897,6.3108,5.8608,6.8275l161.3869,24.7454c1.9154.2937,3.8574.3714,5.7899.2319l391.4952-28.2135c3.4956-.2519,6.2021-3.1606,6.2021-6.665v-5.2455Z"/><path class="uuid-569ad375-5df9-4d5d-9033-b3a2e24c8062" d="M2332.7073,2171.0763l-357.7158,22.9885c-6.4006.411-11.6052-3.9602-11.6052-9.7642v-232.5479c0-5.804,5.2046-10.5094,11.6052-10.5094h357.7158c5.2735,0,9.5377,4.2534,9.5377,9.5006v210.2182c0,5.2472-4.2642,9.775-9.5377,10.1142Z"/><path class="uuid-6f6210fb-f9db-4a75-b362-6384eb6c4942" d="M2338.411,2171.0763l-357.7158,22.9885c-6.4014.411-11.6055-3.9602-11.6055-9.7642v-232.5479c0-5.804,5.2041-10.5094,11.6055-10.5094h357.7158c5.2735,0,9.5374,4.2534,9.5374,9.5006v210.2182c0,5.2472-4.2639,9.775-9.5374,10.1142Z"/><path class="uuid-c79da425-7333-4a35-9e14-67fdfe18e770" d="M2327.2675,2156.2555l-333.1748,19.9686c-5.2094.312-9.4428-3.2759-9.4428-8.0143v-203.5958c0-4.7384,4.2334-8.5953,9.4428-8.6154l333.1748-1.2536c4.3499-.0167,7.8689,3.4689,7.8689,7.7849v185.4394c0,4.3156-3.519,8.0255-7.8689,8.2862Z"/><path class="uuid-a46b649d-1954-479f-8ba1-2dde891374d7" d="M2172.1871,1947.6038c0,2.1605-1.8418,3.9175-4.1155,3.9238-2.2762.0063-4.1235-1.7441-4.1235-3.9096s1.8473-3.9225,4.1235-3.9242c2.2737-.0013,4.1155,1.749,4.1155,3.91Z"/><path class="uuid-21b249c0-d78a-4f33-910a-accb7f8473f5" d="M2253.6749,2107.41c-27.718-13.5016-49.5121,3.6067-70.5456-13.2736-12.7514-10.2341-6.4912-17.8653-22.1822-33.159-17.3778-16.9388-28.693-11.2451-46.1577-26.4903-22.0841-19.2761-11.0387-34.2732-30.0612-48.1132-23.0768-16.7897-47.9635-1.2499-69.9313-17.3515-9.4745-6.9449-14.6734-17.0416-17.3881-27.7791h-21.4937c-3.7667,0-6.8254,2.7638-6.8254,6.1729v241.2209c0,3.4096,3.0587,5.977,6.8254,5.7347l366.4373-23.549c1.7987-.1153,3.3932-1.0657,4.4163-2.4438-26.8241-.8852-43.3038-9.0269-53.8383-17.443-20.6073-16.4642-17.0332-32.7008-39.2555-43.526Z"/><path class="uuid-6f6210fb-f9db-4a75-b362-6384eb6c4942" d="M2352.6688,2170.4343l-383.5791,24.1969,167.2477,25.644c1.9154.2937,3.8574.3714,5.7899.2318l397.6973-28.66-181.0544-21.2486c-2.0243-.2372-4.067-.2928-6.1014-.1641Z"/><polygon class="uuid-4b36bb36-314b-4b11-b4a9-7addb0668c04" points="2025.0599 2194.8397 2344.401 2174.394 2443.2336 2185.8997 2126.6439 2207.7552 2025.0599 2194.8397"/><path class="uuid-71b9d510-1322-4fa5-a03d-77dc34d1d85e" d="M2425.3215,2926.459s-83.8986,5.8303-85.1317,11.3081c-1.234,5.479,56.947,26.6545,77.2749,27.4444,20.3287.7904,37.0515-5.2179,35.2109-13.8275-1.8401-8.6116-8.9558-30.2683-8.9558-30.2683l-18.3983,5.3433Z"/><path class="uuid-d06151bb-f40a-4219-a527-c778a8dd5541" d="M2421.358,2889.1819l-1.4893,39.5951s12.7623,7.2043,22.8937,3.0653l11.2655-41.7544-32.6699-.906Z"/><path class="uuid-a611e554-472a-45b0-8f59-e377025ad9eb" d="M2190.6849,2910.4923s-83.8985,5.8303-85.1317,11.3081c-1.234,5.479,56.9471,26.6545,77.2749,27.4444,20.3292.7904,37.0516-5.2179,35.2119-13.8275-1.841-8.612-8.9563-30.2683-8.9563-30.2683l-18.3988,5.3433Z"/><path class="uuid-0795fe1e-98e3-4068-ad90-d017aa51d9fd" d="M2186.7214,2873.2152l-1.4892,39.5947s12.7623,7.2042,22.8936,3.0657l11.2651-41.7544-32.6695-.906Z"/><path class="uuid-b94abd27-3378-480e-bd1c-683e6021bf39" d="M2412.4435,2894.7779c15.6768,1.7402,31.3536,3.4856,47.0304,5.2254,21.1729-23.4688,52.7818-64.3907,69.6746-121.928,32.5684-110.9315-14.5982-190.8715,15.6768-210.7683,42.8518-28.1592,135.725,133.9613,284.8,129.7969,61.1649-1.7094,141.0005-31.6644,171.6857-96.9023,4.6336-9.8494,27.3847-61.4059,5.2259-109.7372-22.8773-49.9031-136.3716-71.6171-362.4257-113.0181-97.0334-17.7692-146.0306-26.6332-165.7193-17.2333-139.5197,66.6056-81.3391,443.2193-65.9484,534.5649Z"/><path class="uuid-62fb3487-38f5-4913-91f6-7fc6336ce392" d="M2173.0836,2895.4462c16.2157,2.8218,32.431,5.6441,48.6466,8.4659,19.6955-29.0105,49.5047-74.4644,82.8384-132.1396,69.4862-120.2286,68.2167-144.6474,100.3293-160.1249,67.9657-32.7514,119.3176,55.731,287.4066,80.1289,54.9854,7.9817,177.0508,25.7045,226.441-40.0647,20.0225-26.6632,31.5232-71.6012,15.6768-109.7367-28.409-68.3663-121.9806-60.1553-430.2385-120.1882-120.2132-23.4128-136.6018-27.5873-165.7193-17.2328-162.6234,57.828-165.7915,411.9166-165.3809,490.8921Z"/><path class="uuid-0b6edc63-b65b-46e8-93cd-e9c841fc9bc0" d="M2509.8524,1953.95c16.0027-39.1356,50.3527-61.6403,68.165-73.311,8.9145-5.8433,17.1505-10.2211,25.5124-13.6357,64.5055-26.3366,128.9092-24.5249,140.3986-23.6627,27.8588,2.087,96.6662,7.2365,147.6459,51.4087,24.6752,21.3818,44.3995,51.2299,73.1581,219.474,40.1081,234.6403,7.5552,210.5895,39.1916,305.6959,16.7403,50.3268,42.8209,108.0684,15.2361,144.9432-8.9095,11.9109-21.6388,15.3297-47.5872,27.0058-96.9307,43.6162-183.8374,36.0995-236.6476,30.8686-58.1117-5.7564-87.4819-9.0477-102.8905-29.5824-24.613-32.7981.7235-74.4803,5.1445-146.617,3.1739-51.7918-8.6017-92.836-32.1536-174.9141-54.7519-190.8202-125.8338-242.7034-95.1733-317.6733Z"/><path class="uuid-fe9f1b08-c946-4745-89a8-5e1d794d6b67" d="M2236.7332,2187.6003l-61.9365-11.9117c-4.4497-.856-9.0168-.9011-13.4828-.1329l-53.5755,9.2128s34.8363,14.0129,64.4487,9.6192c29.6117-4.3938,61.9599,12.266,61.9599,12.266l2.5862-19.0534Z"/><path class="uuid-95053a97-78f5-46c4-8aed-ec03477e66b5" d="M2646.8624,1799.9629c-10.4159-15.7378,5.1753-46.0145,11.3432-57.991.2126-.4135.4841-.9549,1.0644-2.026,9.4738-17.4785,11.9004-19.8667,16.4208-22.8928l6.2831-3.8786s.3643-.1425.7474-.2803c4.0319-1.4341,17.775-1.8527,20.5593-1.2553,8.894,1.8977,18.3636,38.1301,15.6617,89.355.3689,1.9546.7244,3.9246,1.0682,5.9093,1.4006,8.0886,2.5135,16.0189,3.3736,23.7704.8229,7.4148,11.3382,7.2465,18.7848,6.7719,30.2236-1.9291,45.0148.6429,46.3006,5.1436,2.4099,8.4358-33.4394,36.0126-77.7065,42.2131-59.4087.4436-107.7354-5.8838-102.5416-15.2382,2.3063-4.154,48.337-16.1814,61.2823-28.1028,11.8532-10.9154,10.8874-22.183,11.8624-30.2508-6.1273.3267-26.5613.7553-34.5037-11.2475Z"/><path class="uuid-6f6210fb-f9db-4a75-b362-6384eb6c4942" d="M2663.5401,1698.6255c-4.8846,10.773,6.9653,32.4051,11.3407,35.5435.4912.3522,3.26,2.5357,5.7476,6.2769.3392.5101.6379,1.1075.9044,1.8773,3.4768,10.0023-12.4247,21.7704-9.3556,26.2456,2.2265,3.2508,13.0334-1.092,14.3187,1.7093,1.2106,2.6435-7.7711,8.1091-6.3955,11.2681,1.0372,2.3877,6.5651.2042,10.0511,3.8632,2.6944,2.8268,3.0077,6.8329,3.0683,8.833.4315,14.2172-31.8094,65.565-38.5261,88.733-7.1241,24.5713,5.6194,47.9586,51.9053,112.5845,65.8394,91.927,98.7591,137.8909,117.0618,151.0312,89.449,64.2124,194.6317,56.343,237.7633,49.643,51.8177-8.0477,158.8697-24.6786,193.3463-107.1243,39.6297-94.7697-38.395-224.4546-118.4466-246.4747-36.6079-10.0683-56.0982,5.2254-103.6403-11.3186-52.5066-18.2743-46.1453-50.582-94.7581-69.6621-64.8364-25.4497-106.6718,20.0447-150.8436-13.0797-24.0378-18.0291-20.0743-37.8189-49.643-52.2555-29.1705-14.2431-67.4961-11.8136-73.8987,2.3063Z"/><path class="uuid-fa7e4d13-bc6c-40c3-8a6b-10de7858467f" d="M2677.8818,1764.8409c3.8904-5.3445,10.725-.3229,10.7646,6.5923.041,6.9144-6.6599,14.104-13.1599,12.7388-6.5012-1.3655-2.8394-12.1377,2.3953-19.3311Z"/><path class="uuid-ab5f69f1-4408-4e64-92b1-e01dbd1fdb51" d="M2785.0846,2554.571c-17.0963-34.0409,24.7959-79.29-2.5729-131.185-23.2441-44.0753-65.4696-34.2009-84.884-74.5955-23.45-48.7899,27.5485-85.255,25.7222-159.4804-2.1831-88.7338-78.5344-177.5587-123.4682-169.7692-29.0724,5.0395-32.8074,48.4118-53.2622,95.8942,18.1001,39.6896,39.2471,89.4131,58.4062,156.1874,23.5519,82.081,35.3275,123.1215,32.1536,174.9136-4.421,72.1397-29.7575,113.8223-5.1445,146.6191,15.4086,20.5318,44.7788,23.8277,102.8905,29.5812,52.8102,5.2284,139.7169,12.7472,236.6476-30.8669,12.2693-5.5208,21.4549-9.656,28.9465-13.7352-151.436,22.7424-201.8751,3.438-215.4348-23.5633Z"/><path class="uuid-42d37f77-6f91-4aa7-8253-76614b07b9db" d="M2220.9595,2205.6707c1.7562-7.9048,3.5123-15.8042,5.2689-23.709,118.9959,21.3309,171.0312-2.6125,196.1672-30.5929,23.072-25.6791,13.2343-38.9468,50.1589-136.9723,35.17-93.3662,75.073-117.3613,95.1736-126.0415,11.2275-4.8482,18.9786-8.0627,28.2949-5.7873,42.8698,10.4768,57.0432,122.1941,45.0149,205.7827-6.777,47.0914-20.0656,139.437-95.8174,183.2729-1.3927.8063-3.5976,2.0816-6.5083,3.6385-9.5382,5.1027-47.4444,23.331-122.1043,9.8644-88.0283-15.881-173.909-66.3302-195.6484-79.4555Z"/><ellipse class="uuid-dbc44178-c5b2-4071-adde-e21f6d935225" cx="2771.93475" cy="3090.7718" rx="259.98825" ry="106.1078"/><path class="uuid-57b44f5d-3b14-4e0a-92ed-6171ee6fd78d" d="M3031.9223,3078.3286c0,55.3183-116.4,100.1631-259.9872,100.1631s-259.9886-44.8448-259.9886-100.1631,116.4001-145.8313,259.9886-145.8313,259.9872,90.5143,259.9872,145.8313Z"/><path class="uuid-5fba9ec8-2afa-4f0e-bf66-8c86dfd49351" d="M3031.9223,3078.3286c0-55.3179-116.4-145.8313-259.9872-145.8313-66.2985,0-126.7675,19.3162-172.6917,45.5354-3.2145,6.7343-4.7125,13.4302-4.103,19.7877,2.9814,31.1234,53.7426,50.2583,82.8809,56.5682,73.3754,15.8932,109.2075-27.9846,169.707-26.3116,37.4041,1.0335,89.2363,19.8241,150.7142,99.4029,21.2803-14.5218,33.4798-31.283,33.4798-49.1513Z"/><path class="uuid-a46b649d-1954-479f-8ba1-2dde891374d7" d="M2786.1744,2982.7426c-10.3878,2.5854-20.0801,2.4831-29.198.1659-8.2704-2.0996-13.9483-9.7516-13.9483-18.2864l.0009-293.1593h57.8117v292.8134c0,8.7963-6.1302,16.3423-14.6663,18.4664Z"/><path class="uuid-0433ce37-ee46-4aed-8206-6dca416cf68e" d="M2786.1744,2982.7426c-10.3878,2.5854-20.0801,2.4831-29.198.1659-8.2704-2.0996-13.9483-9.7516-13.9483-18.2864l.0009-293.1593h57.8117v292.8134c0,8.7963-6.1302,16.3423-14.6663,18.4664Z"/><path class="uuid-9672a2a3-7ebb-4a97-925f-099ccd7cfd2c" d="M2466.463,2548.0836l88.3174-55.8304c3.6744-20.8559,45.3043-239.0366,214.3153-307.5503,68.7306-27.8609,142.697-24.5558,183.2872-22.7412,81.0308,3.6189,138.83,6.2001,166.6282,44.8532,35.6968,49.6317-24.1739,94.6415-11.7768,236.6112,5.055,57.8949,17.9117,83.6082,1.8986,121.9614-19.1833,45.9439-63.668,71.4099-98.2565,85.7449-41.3463,24.0098-113.336,58.2233-208.4182,66.5558-160.1604,14.0364-279.7278-54.667-320.8456-80.9539-18.2843-5.7647-32.0223-20.9691-35.9102-39.7413-3.9409-19.0358,4.3298-38.5228,20.7606-48.9094Z"/><path class="uuid-0458cfdc-02b7-49bf-a7c2-8406ca13d802" d="M2507.072,2587.8396c3.2646-19.6316,57.9801-3.3578,109.7372-41.8046,77.3676-57.4709,37.2123-154.8226,104.5113-248.2146,61.7627-85.7065,186.101-129.3278,224.6998-96.6729,51.3791,43.4684-74.3679,206.0274,0,310.9214,36.1246,50.9546,91.163,48.5,91.4475,78.3836.4495,47.2238-136.5325,101.669-266.5044,99.2858-139.7281-2.5615-269.0726-70.739-263.8914-101.8987Z"/><g class="uuid-9f4197f7-a66f-4fb0-8010-bcdcda521b46"><polygon class="uuid-192744a0-45c8-4bce-8279-4c9e34385564" points="2424.1005 1026.0365 2068.2147 1616.3508 3022.9009 1616.3508 2683.9873 1038.2353 2424.1005 1026.0365"/></g><path class="uuid-5a03eb24-c8e0-4883-aeba-29e39c5629b3" d="M2549.8028,722.7891c-1.0348,0-1.8707-.8393-1.8707-1.8724v-27.6113c0-1.0331.8359-1.8724,1.8707-1.8724,1.0347,0,1.8706.8393,1.8706,1.8724v27.6113c0,1.0331-.8359,1.8724-1.8706,1.8724Z"/><path class="uuid-5a03eb24-c8e0-4883-aeba-29e39c5629b3" d="M2549.8028,920.2094c-1.0348,0-1.8707-.8393-1.8707-1.8724v-197.4203c0-1.033.8359-1.8723,1.8707-1.8723,1.0347,0,1.8706.8393,1.8706,1.8723v197.4203c0,1.0331-.8359,1.8724-1.8706,1.8724Z"/><path class="uuid-5a03eb24-c8e0-4883-aeba-29e39c5629b3" d="M2549.8028,947.8207c-1.0348,0-1.8707-.8392-1.8707-1.8723v-27.6114c0-1.033.8359-1.8723,1.8707-1.8723,1.0347,0,1.8706.8393,1.8706,1.8723v27.6114c0,1.0331-.8359,1.8723-1.8706,1.8723Z"/><path class="uuid-5a03eb24-c8e0-4883-aeba-29e39c5629b3" d="M2549.8028,637.8012c-1.0348,0-1.8707-.8393-1.8707-1.8724v-27.6113c0-1.0331.8359-1.8724,1.8707-1.8724,1.0347,0,1.8706.8393,1.8706,1.8724v27.6113c0,1.0331-.8359,1.8724-1.8706,1.8724Z"/><path class="uuid-5a03eb24-c8e0-4883-aeba-29e39c5629b3" d="M2549.8028,642.407c-1.0348,0-1.8707-.8393-1.8707-1.8723v-4.6059c0-1.033.8359-1.8723,1.8707-1.8723,1.0347,0,1.8706.8393,1.8706,1.8723v4.6059c0,1.033-.8359,1.8723-1.8706,1.8723Z"/><path class="uuid-5a03eb24-c8e0-4883-aeba-29e39c5629b3" d="M2549.8028,670.0184c-1.0348,0-1.8707-.8393-1.8707-1.8724v-27.6113c0-1.0331.8359-1.8724,1.8707-1.8724,1.0347,0,1.8706.8393,1.8706,1.8724v27.6113c0,1.0331-.8359,1.8724-1.8706,1.8724Z"/><path class="uuid-5a03eb24-c8e0-4883-aeba-29e39c5629b3" d="M2549.8028,588.7971c-1.0348,0-1.8707-.8393-1.8707-1.8724v-15.9813c0-1.0331.8359-1.8724,1.8707-1.8724,1.0347,0,1.8706.8393,1.8706,1.8724v15.9813c0,1.0331-.8359,1.8724-1.8706,1.8724Z"/><path class="uuid-5fe7bbf8-53da-4944-8d39-e15195050e11" d="M2691.806,1053.1578v-43.349c0-33.7076-27.5788-61.2864-61.2864-61.2864h-161.4374c-33.7076,0-61.2864,27.5788-61.2864,61.2864v43.349h284.0102Z"/><ellipse class="uuid-e06ea4be-43e2-4b64-a276-a5dfebee15fd" cx="2550.002" cy="1051.6633" rx="142.2062" ry="28.1461"/><path class="uuid-3060e549-a578-4957-8f27-19bc408e439b" d="M2550.0016,1015.2886c-61.2054,0-112.606-8.369-124.996-20.3512-.4416-.4281-.4517-1.1325-.027-1.5741.4314-.4432,1.1392-.4516,1.5774-.0269,11.8171,11.4294,63.7333,19.7243,123.4456,19.7243,55.5025,0,105.2313-7.2955,120.9346-17.7408.509-.3421,1.1999-.2005,1.5437.3101.3404.5123.2022,1.2033-.3101,1.5437-16.2864,10.8346-65.3815,18.1149-122.1682,18.1149Z"/><path class="uuid-9e0fb7d1-e92d-425e-824d-c69ead876a67" d="M2605.8655,950.7123c-.1996-13.1432-10.997-23.8378-24.1857-23.8378h-63.7578c-13.3126,0-24.2045,10.8919-24.2045,24.2043h.0291c-.0019.0385-.0291.0756-.0291.114,0,6.1362,25.1328,11.1105,56.1354,11.1105s56.1352-4.9743,56.1352-11.1105c0-.1621-.0878-.3199-.1226-.4805Z"/><g class="uuid-61b11ebd-e38d-4aa0-a69a-121eaa93cdd5"><polygon class="uuid-192744a0-45c8-4bce-8279-4c9e34385564" points="976.6708 1066.5261 620.785 1656.8404 1575.4712 1656.8404 1236.5576 1078.7249 976.6708 1066.5261"/></g><path class="uuid-5a03eb24-c8e0-4883-aeba-29e39c5629b3" d="M1102.3695,686.0891c-1.0347,0-1.8706-.8393-1.8706-1.8724v-27.6113c0-1.0331.8359-1.8724,1.8706-1.8724,1.0348,0,1.8707.8393,1.8707,1.8724v27.6113c0,1.0331-.8359,1.8724-1.8707,1.8724Z"/><path class="uuid-5a03eb24-c8e0-4883-aeba-29e39c5629b3" d="M1102.3695,960.6995c-1.0347,0-1.8706-.8392-1.8706-1.8723v-274.6105c0-1.033.8359-1.8723,1.8706-1.8723,1.0348,0,1.8707.8393,1.8707,1.8723v274.6105c0,1.0331-.8359,1.8723-1.8707,1.8723Z"/><path class="uuid-5a03eb24-c8e0-4883-aeba-29e39c5629b3" d="M1102.3695,988.3109c-1.0347,0-1.8706-.8392-1.8706-1.8723v-27.6114c0-1.0331.8359-1.8723,1.8706-1.8723,1.0348,0,1.8707.8392,1.8707,1.8723v27.6114c0,1.0331-.8359,1.8723-1.8707,1.8723Z"/><path class="uuid-5a03eb24-c8e0-4883-aeba-29e39c5629b3" d="M1102.3695,637.9781c-1.0347,0-1.8706-.8392-1.8706-1.8723v-43.7916c0-1.0331.8359-1.8723,1.8706-1.8723,1.0348,0,1.8707.8392,1.8707,1.8723v43.7916c0,1.0331-.8359,1.8723-1.8707,1.8723Z"/><path class="uuid-5a03eb24-c8e0-4883-aeba-29e39c5629b3" d="M1102.3695,576.1913c-1.0347,0-1.8706-.8393-1.8706-1.8724v-18.3424c0-1.033.8359-1.8723,1.8706-1.8723,1.0348,0,1.8707.8393,1.8707,1.8723v18.3424c0,1.0331-.8359,1.8724-1.8707,1.8724Z"/><path class="uuid-2f400b0f-0494-4966-bb85-5ade9c7db113" d="M1244.3763,1093.6474v-43.349c0-33.7076-27.5788-61.2864-61.2864-61.2864h-161.4374c-33.7076,0-61.2864,27.5788-61.2864,61.2864v43.349h284.0102Z"/><ellipse class="uuid-9ac1e803-f903-4b9a-8327-120f2e87994c" cx="1102.5723" cy="1092.1529" rx="142.2062" ry="28.1461"/><path class="uuid-3060e549-a578-4957-8f27-19bc408e439b" d="M1102.5717,1055.7788c-61.2054,0-112.606-8.369-124.996-20.3529-.4416-.4281-.4517-1.1325-.027-1.5741.4314-.4432,1.1393-.4516,1.5774-.0269,11.8171,11.4294,63.7334,19.726,123.4456,19.726,55.4992,0,105.228-7.2955,120.9346-17.7408.509-.3404,1.1999-.2006,1.5437.3101.3405.5123.2023,1.2033-.3101,1.5437-16.2897,10.8346-65.3848,18.1149-122.1682,18.1149Z"/><path class="uuid-380e0be0-5b22-442e-918e-5b8735b55b20" d="M1158.4358,991.2019c-.1996-13.1433-10.997-23.8378-24.1857-23.8378h-63.7578c-13.3126,0-24.2045,10.8919-24.2045,24.2043h.0291c-.0019.0385-.0291.0756-.0291.114,0,6.1362,25.1328,11.1105,56.1354,11.1105s56.1352-4.9743,56.1352-11.1105c0-.1622-.0878-.3199-.1226-.4805Z"/><path class="uuid-f746f47b-f3a3-42dc-bd7d-4ac36d8ac358" d="M2195.0774,1007.6462c0-116.341-99.0497-210.6543-221.2337-210.6543s-221.2335,94.3133-221.2335,210.6543c0,70.6046,36.4823,133.0936,92.4755,171.3149,23.7549,16.2151,38.1611,42.9412,38.1611,71.7027v16.1205c0,35.0261,28.3943,63.4203,63.4204,63.4203h54.353c35.0261,0,63.4202-28.3942,63.4202-63.4203v-16.1205c0-28.7615,14.4065-55.4876,38.1612-71.7027,55.9933-38.2213,92.4758-100.7103,92.4758-171.3149Z"/><ellipse class="uuid-1187a933-cac8-4374-b7cb-dfdcab39f853" cx="1973.84385" cy="1424.12755" rx="49.07555" ry="25.98205"/><path class="uuid-1909a3d0-dbb6-4f5e-acd1-6a5fe8b78624" d="M1908.6403,1377.7133v26.5333c0,8.977,5.1086,17.202,13.2112,21.0663,11.249,5.3645,29.9516,11.2519,57.1325,10.5552,22.0507-.5651,36.4297-4.1663,45.5713-7.9493,8.8313-3.655,14.4919-12.3879,14.4919-21.9456v-14.6807l-130.4069-13.5792Z"/><path class="uuid-010880cf-e88c-4153-b4dc-a97c13d09376" d="M1908.6403,1400.9541c1.9873,1.932,4.2894,3.5714,6.8747,4.804,12.6198,6.0185,95.2815,19.4655,115.2209,11.9735,2.5895-.9726,4.9192-2.2744,6.9593-3.8446.8725-2.5056,1.352-5.1725,1.352-7.914v-14.6806l-130.4069-13.5793v23.241Z"/><path class="uuid-cc2a4c2c-c2bd-4a5c-ab3d-affa7bff96da" d="M1914.4298,1359.6606c-7.3446-.7649-13.7363,4.9958-13.7363,12.3801v.7519c0,10.0711,5.7312,19.2987,14.8215,23.6338,12.6198,6.0184,95.2815,19.4657,115.2209,11.9735,10.0374-3.7715,16.2582-12.3892,16.2582-23.1119v-.6053c0-6.3754-4.817-11.72-11.1579-12.3802l-121.4064-12.6419Z"/><path class="uuid-54ac2817-1852-4ab5-947f-50f8f6a32187" d="M2035.8362,1372.3028l-121.4064-12.6421c-4.7899-.4989-9.1614,1.7871-11.6322,5.4793,2.4389,5.7469,6.8798,10.5537,12.7174,13.3377,12.6198,6.0183,98.8018,21.2187,115.2209,13.4824,6.3912-3.0123,11.4034-8.0963,14.0894-14.2768-2.0009-2.9343-5.2209-4.9881-8.9891-5.3805Z"/><path class="uuid-64867fb1-c138-4e2b-91a9-ac10026ae0c5" d="M1909.6798,1316.6728c-4.963,0-8.9863,4.0234-8.9863,8.9864v20.7808c0,10.0709,5.7312,19.2985,14.8215,23.6336,12.6198,6.0184,98.8018,21.2189,115.2209,13.4819,9.6997-4.5709,16.2582-13.8976,16.2582-24.6203v-33.276c0-4.963-4.0233-8.9864-8.9862-8.9864h-128.3281Z"/><path class="uuid-ce796e12-df20-49fd-a911-892f88c8afee" d="M2045.1846,1323.142c0,9.3154-31.9403,16.867-71.3407,16.867s-71.3409-7.5516-71.3409-16.867,31.9403-16.8667,71.3409-16.8667,71.3407,7.5515,71.3407,16.8667Z"/><path class="uuid-1d811451-2504-498d-8cc4-c367c97d8186" d="M2195.0774,1007.6462c0-116.341-99.0497-210.6543-221.2337-210.6543s-221.2335,94.3133-221.2335,210.6543c0,70.6046,36.4823,133.0936,92.4755,171.3149,23.7549,16.2151,38.1611,42.9412,38.1611,71.7027v16.1205c0,35.0261,28.3943,63.4203,63.4204,63.4203h54.353c35.0261,0,63.4202-28.3942,63.4202-63.4203v-16.1205c0-28.7615,14.4065-55.4876,38.1612-71.7027,55.9933-38.2213,92.4758-100.7103,92.4758-171.3149Z"/><ellipse class="uuid-16679977-4042-4c7e-889a-5dacd7fd7de4" cx="1973.84385" cy="1309.84223" rx="52.20185" ry="12.34188"/><path class="uuid-57897ab1-7a6b-491e-b91b-9d2448cde570" d="M1960.2402,1317.3845c-1.4949,0-2.7926-1.1106-2.9885-2.6323l-38.403-298.6512c-.2122-1.6525.9552-3.1639,2.6079-3.376,1.6557-.2224,3.1639.9545,3.3767,2.6071l38.4032,298.6512c.2121,1.6527-.9554,3.1641-2.6081,3.3762-.1304.0176-.2599.025-.3882.025Z"/><path class="uuid-1fb16c68-1f5d-4cb3-b752-417ea974a71e" d="M1984.0931,1317.3845c-.1281,0-.2578-.0074-.3881-.025-1.6526-.2121-2.82-1.7235-2.6079-3.3762l38.4038-298.6512c.2127-1.6526,1.7226-2.831,3.3767-2.6071,1.6526.2121,2.8201,1.7235,2.6079,3.376l-38.4038,298.6512c-.1958,1.5217-1.4934,2.6323-2.9886,2.6323Z"/><path class="uuid-b12a9e83-1474-4a4f-8d3d-524aa358df8d" d="M2015.3692,1015.8594c-.9803,0-1.9423-.4772-2.5218-1.3565l-10.5989-16.0791c-.1091-.165-.2769-.2609-.4302-.2417-.2629.0061-.3741.1929-.4101.2534l-6.9976,11.7206c-1.1598,1.9415-3.1925,3.1344-5.4383,3.1905-2.2315.0722-4.3409-1.0355-5.5994-2.9209l-9.6083-14.4058c-.1046-.1561-.2445-.2372-.4154-.2387-.204.0384-.2997.0722-.402.2195l-8.4411,12.2007c-1.2189,1.7631-3.2177,2.8179-5.347,2.8222h-.0132c-2.1285,0-4.1311-1.0486-5.3588-2.809l-12.1691-17.4328c-.1097-.1575-.2643-.212-.4293-.2282-.1739.0073-.31.0958-.4058.2606l-11.1071,19.1739c-.8345,1.4406-2.6816,1.9326-4.1222,1.0975-1.4421-.8353-1.9333-2.6809-1.0981-4.1229l11.1071-19.1739c1.1297-1.9489,3.1382-3.1684,5.3728-3.2627,2.2168-.1133,4.3402.9545,5.6305,2.8031l12.1682,17.4328c.1055.1502.2439.2283.4111.2283h.0007c.1634-.0014.2976-.0752.3991-.221l8.4409-12.2008c1.2352-1.7837,3.2688-2.8456,5.4149-2.8206,2.1616.0192,4.1744,1.1121,5.3837,2.9253l9.6075,14.4043c.1083.162.2702.2976.4301.2372.2615-.0059.3719-.1917.4082-.2519l6.9973-11.7205c1.1643-1.9488,3.2044-3.1419,5.4573-3.1921,2.2303-.0499,4.3499,1.0548,5.6012,2.9535l10.5989,16.0791c.9169,1.3904.5324,3.2611-.8589,4.1788-.511.3373-1.087.4978-1.6569.4978Z"/><path class="uuid-39e4d63c-2d56-4533-9307-7504df3c4cb5" d="M1977.8588,1173.8035c4.7393-81.1932,141.6161-100.1948,141.0296-172.705-.3611-44.6585-54.7526-77.8243-66.3669-84.4667-85.5823-48.9484-190.921,7.5761-212.6758-32.4295-5.4166-9.9602-2.877-20.8029-1.4306-26.9776,2.1859-9.3322,7.135-18.0244,14.4769-25.9748-60.3807,37.6142-100.2818,102.5634-100.2818,176.3963,0,70.6046,36.4823,133.0939,92.4755,171.3149,23.7551,16.2155,38.1611,42.9416,38.1611,71.7029v16.1205c0,35.0261,28.3944,63.4201,63.4204,63.4201h54.353c35.0259,0,63.4202-28.394,63.4202-63.4201v-12.8888c-7.4808,5.733-16.0725,9.7314-25.4939,9.6541-32.6901-.2688-63.4463-49.3422-61.0877-89.7463Z"/><ellipse class="uuid-86216fb4-b67a-4d21-8d61-5030b09822c4" cx="1977.38227" cy="1015.8594" rx="190.37567" ry="183.5967"/><path class="uuid-c3bd6d61-eb64-4142-aca1-8e7c868263a7" d="M1170.1981,2934.2062l-24.9559,1.2444c8.6455-15.7188-1.7494-58.4723-1.7494-58.4723l26.9481.7912s-.6633,12.4121-2.3064,30.8496c-.5627,6.3116.4746,15.8193,2.0636,25.5871Z"/><path class="uuid-85cb4c21-7bd3-4e22-b1b8-74015b43dfc7" d="M1186.5072,2880.3958c-15.3924,1.7088-30.7852,3.4225-46.178,5.1308-20.7894-23.0437-51.8256-63.2245-68.4124-119.7191-31.774-108.2253,17.9732-179.2611-15.3927-206.9499-38.4681-31.923-114.4538,54.3255-282.1995,78.6772-53.9896,7.8363-173.844,25.2385-222.339-39.3388-19.6598-26.1802-30.9517-70.3045-15.3928-107.7487,27.8943-67.1278,119.7707-59.0655,422.4441-118.0108,116.5952-22.7085,135.0171-30.144,162.717-16.9214,136.9921,65.3992,79.8655,435.1901,64.7533,524.8807Z"/><path class="uuid-3b9ed492-b55b-43c0-a399-b8f8f8867f6c" d="M1196.5038,2934.1668c-1.3519-7.4491-25.4087-14.1922-37.32-4.2141-5.915,4.9541-9.988,14.9966-6.5655,19.5323,1.2448,1.6497-3.8544,4.552,1.0311,4.609,16.2058.1891,44.2002-12.5249,42.8544-19.9272Z"/><path class="uuid-852459e3-84c8-4527-962d-93a04e0377f4" d="M1173.4835,2933.8305s-29.7864-6.8634-33.0079-.9553c-3.2231,5.9097-5.7243,21.7295,13.1738,21.2188,18.8989-.5098,21.5129-15.2537,19.8341-20.2635Z"/><path class="uuid-58a63182-628a-40b6-8d27-32369a4cc2e2" d="M1348.4473,2964.5082c-2.3822-7.1858-27.1461-10.4958-37.5443,1.0508-5.162,5.7325-7.7903,16.2468-3.7666,20.2578,1.4639,1.4611-3.178,5.0484,1.6669,4.4204,16.0717-2.0808,42.0103-18.5888,39.644-25.729Z"/><path class="uuid-832e1047-7069-4a11-b8b4-9329ac59f9a6" d="M1319.1826,2971.4298l-24.5182,4.8117c6.301-16.7964-10.1205-57.6164-10.1205-57.6164l26.7828-3.0832s1.1247,12.3793,2.1431,30.8615c.3495,6.3268,2.7391,15.5888,5.7128,25.0264Z"/><path class="uuid-df605539-6d18-4ae7-a476-69672885d10f" d="M1325.6055,2967.3966s-30.4542-2.6255-32.8168,3.6763c-2.363,6.3002-2.6263,22.3148,16.0146,19.1643,18.6405-3.1497,19.166-18.1151,16.8022-22.8406Z"/><path class="uuid-6f6210fb-f9db-4a75-b362-6384eb6c4942" d="M1195.327,2221.1517l105.2258-246.4885c5.2571-12.3149-1.8023-26.4029-14.8145-29.5633l-192.7499-46.8108c-10.4174-2.5295-21.1183,2.938-25.1728,12.8616l-96.7845,236.9062c-4.8195,11.7968,1.5332,25.186,13.7188,28.9148l184.3087,56.3928c10.591,3.2403,21.9198-2.0271,26.2684-12.2128Z"/><path class="uuid-c79da425-7333-4a35-9e14-67fdfe18e770" d="M1190.5646,2209.2962l98.2886-230.2372c4.9101-11.5032-1.6842-24.663-13.8383-27.6146l-180.0425-43.7247c-9.73-2.3626-19.7254,2.744-23.5121,12.0138l-90.4039,221.287c-4.502,11.0195,1.4315,23.5256,12.8145,27.0083l172.1574,52.675c9.892,3.0267,20.4744-1.8933,24.5363-11.4076Z"/><path class="uuid-941ab9fc-7866-411a-9c42-d923c67a00d4" d="M1251.2436,2141.614l3.1571-29.0449,16.7352-31.9024c2.2794-4.3445,3.4697-9.1771,3.4697-14.0836v-31.6785l-20.2049,46.7251s-13.2599-11.997-18.3116-14.5232c-5.0512-2.5254-4.4195,7.5775-.6312,11.3662,3.7883,3.7883-1.8942,34.7273,1.8941,37.8843l-1.2629,18.9428,15.1545,6.3142Z"/><path class="uuid-c463650c-01ff-4073-8fa7-057f06ecd18d" d="M1090.8637,1956.6092c-15.7127-38.4233-49.4404-60.5215-66.93-71.9812-41.3818-27.1137-67.8742-22.1634-162.9052-36.6223-126.6485-19.2697-141.8083-37.5283-184.3727-22.7307-55.9133,19.4379-85.1181,70.1917-98.5011,93.4495-67.471,117.2543,11.413,176.851-8.8399,410.42-8.2711,95.39-29.4784,178.285,21.4682,227.3091,10.7271,10.3227,22.7262,15.7213,46.7247,26.5198,95.175,42.824,180.5072,35.4418,232.3607,30.3078,57.0589-5.6493,85.897-8.8855,101.0265-29.0453,24.1671-32.2023-.7104-73.1301-5.0512-143.9629-3.1165-50.8539,8.4457-91.1508,31.571-171.7444,53.7599-187.3644,123.5542-238.3044,93.449-311.9194Z"/><path class="uuid-a32251d0-03b7-4ee7-810a-3771ff166377" d="M878.8753,1778.8895c5.7653-20.5416-4.315-39.5648-6.5369-43.664-9.3022-17.1606-11.6848-19.5052-16.1233-22.4777l-6.1693-3.8059s-.3577-.1432-.7338-.2777c-3.9589-1.4089-17.4531-1.8187-20.1868-1.235-8.7329,1.8646-18.031,37.4418-15.3781,87.7403-.3621,1.9163-.7112,3.8494-1.0488,5.7994-1.3753,7.9429-2.4679,15.7287-3.3125,23.341-.808,7.2813-11.1328,7.1144-18.4444,6.6476-29.6761-1.8937-44.1989.6317-45.4618,5.0512-2.3663,8.283,32.8335,35.3598,76.2986,41.4512,58.3325.4336,105.7836-5.7776,100.684-14.9633-2.2645-4.0775-47.4614-15.8875-60.1721-27.5929-11.6385-10.7193-10.6902-21.784-11.6475-29.706,3.5278-1.8314,23.9883-11.1746,28.2327-26.3082Z"/><path class="uuid-6f6210fb-f9db-4a75-b362-6384eb6c4942" d="M868.1457,1694.6545c-.0521,15.5823-7.3941,32.2245-11.1353,34.8983-.4823.3458-3.2009,2.4931-5.6435,6.1653-.333.4992-.6263,1.0845-.888,1.8416-3.4138,9.8195,12.1997,21.3751,9.1862,25.7726-2.1862,3.189-12.7973-1.0763-14.0594,1.6788-1.1886,2.5914,7.6304,7.9593,6.2797,11.0634-1.0185,2.3446-6.4462.1998-9.8691,3.7904-1.7059,1.7887-1.205,3.2059-3.0126,8.6726-1.0222,3.0914-2.4516,6.4745-3.5599,8.3564-5.3859,9.1492-20.638,12.4916-23.5736,8.8301-.8162-1.0205-.1148-1.8778-.9495-5.3023,0,0-.7732-3.1735-2.9815-6.8424-3.1551-5.2428-10.7711-8.9921-18.4564-14.5257-14.2312-10.2481-18.0995-18.9838-19.2598-21.935-.4131-1.0512-.6698-1.8449-.8548-2.4167-3.701-11.4855-3.7174-28.3566,1.4462-38.7318,8.6496-17.3796,28.1634-9.1283,44.1349-26.3492,18.4281-19.8677,7.4528-47.0258,17.4527-50.0245,11.0224-3.3076,35.8389,26.245,35.7437,55.0581Z"/><path class="uuid-0c81bf9e-fcb6-4739-bbc2-4dc96bd3c7e4" d="M854.0638,1759.6703c-3.8199-5.2481-10.5307-.3171-10.5696,6.4724-.0402,6.7891,6.5393,13.8489,12.9215,12.5081,6.3834-1.3404,2.7879-11.9174-2.3519-18.9805Z"/><path class="uuid-df54423d-4d98-4466-97fa-6acabaf8a54a" d="M820.6179,2546.3511c16.7865-33.4242-24.3472-77.854,2.5262-128.8088,22.823-43.2768,64.2836-33.5813,83.3462-73.2441,23.0252-47.906-27.0494-83.7104-25.2561-156.5912,2.1435-87.1263,77.1116-174.342,121.2313-166.6931,28.5457,4.9482,32.2126,47.5344,52.2973,94.1565-17.7722,38.9709-38.5361,87.7933-57.3481,153.3582-23.1253,80.5936-34.6875,120.8905-31.571,171.7444,4.3408,70.8328,29.2183,111.7606,5.0512,143.9629-15.1295,20.1598-43.9676,23.396-101.0265,29.0453-51.8535,5.134-137.1857,12.5162-232.3607-30.3078-12.0466-5.4208-21.0658-9.481-28.4218-13.4863,148.6926,22.3304,198.2179,3.3757,211.532-23.136Z"/><path class="uuid-81a024d7-3df5-467d-bbb5-ef4a64bb3168" d="M1256.9261,2135.9311c-9.2608-3.9991-18.5216-7.9983-27.7824-11.9966-15.6516,16.0072-35.6149,31.5731-52.4076,26.519-25.0313-7.5327-18.7725-53.5823-49.2501-134.4913-34.5329-91.6734-73.7129-115.2363-93.4494-123.7572-11.0241-4.7595-18.6348-7.9191-27.7824-5.6828-42.0931,10.2894-56.0097,119.9787-44.1993,202.0525,6.6542,46.2424,19.7021,136.9142,94.0811,179.9539,10.566,6.114,68.7249,39.7679,126.283,13.2595,49.1714-22.6462,79.5558-80.7485,74.5071-145.857Z"/><path class="uuid-5aca5a09-02a6-4d58-b805-3fc68ff3a7f2" d="M1323.8996,2923.9323c-15.3928,1.7083-30.7856,3.422-46.178,5.1308-20.789-23.0441-51.826-63.2246-68.4119-119.7195-31.775-108.2249,17.9731-179.2607-15.3928-206.9499-38.4681-31.923-114.4542,54.3255-282.1999,78.6772-53.9892,7.8367-173.8436,25.2385-222.3386-39.3384-19.6598-26.1807-30.9521-70.3049-15.3928-107.7492,27.8939-67.1273,119.7708-59.0654,422.4441-118.0107,116.5953-22.7081,135.0171-30.1441,162.717-16.9211,136.9913,65.3989,79.8655,435.1897,64.7529,524.8808Z"/><ellipse class="uuid-7b62020f-36e7-4ea2-ad09-4b5f2bd57f51" cx="796.99" cy="3109.6262" rx="255.2781" ry="104.1855"/><path class="uuid-4c85f304-fef2-4818-b2b3-d7e932e5a4e2" d="M541.7125,3097.4084c0,54.3161,114.2913,98.3485,255.2772,98.3485s255.2784-44.0324,255.2784-98.3485-114.2913-143.1893-255.2784-143.1893-255.2772,88.8744-255.2772,143.1893Z"/><path class="uuid-6185f020-2a57-4135-94a2-5e8078fe03ba" d="M541.7125,3097.4084c0-54.3157,114.2913-143.1893,255.2772-143.1893,65.0974,0,124.4705,18.9662,169.5631,44.7104,3.1559,6.6123,4.6271,13.1869,4.0287,19.4293-2.9278,30.5595-52.7694,49.3477-81.3798,55.5433-72.0461,15.6053-107.2287-27.4776-166.6321-25.8349-36.7264,1.0148-87.6201,19.465-147.9842,97.602-20.8943-14.2587-32.8729-30.7162-32.8729-48.2608Z"/><path class="uuid-a46b649d-1954-479f-8ba1-2dde891374d7" d="M783.0079,3003.5541c10.1997,2.5386,19.7168,2.4381,28.6695.1629,8.1201-2.0615,13.6955-9.575,13.6955-17.9551l-.0012-287.8483h-56.764v287.5087c0,8.6369,6.0188,16.0461,14.4002,18.1318Z"/><path class="uuid-13913a15-e28a-4534-a679-74438e0be90c" d="M783.0079,3003.5541c10.1997,2.5386,19.7168,2.4381,28.6695.1629,8.1201-2.0615,13.6955-9.575,13.6955-17.9551l-.0012-287.8483h-56.764v287.5087c0,8.6369,6.0188,16.0461,14.4002,18.1318Z"/><path class="uuid-7139d4f6-1de5-4aaa-90ae-d40b37aa5333" d="M1096.9273,2576.7696l-86.7174-54.819c-3.6074-20.478-44.4831-234.706-210.4327-301.9785-67.485-27.3562-140.1114-24.1109-179.9662-22.3291-79.5628,3.5532-136.3149,6.0877-163.6095,44.0405-35.0506,48.7325,23.736,92.9269,11.5634,232.3246-4.9638,56.8461-17.5872,82.0936-1.8642,119.7519,18.8358,45.1115,62.5146,70.1162,96.4765,84.1916,40.5972,23.5748,111.2827,57.1684,204.6423,65.35,157.2585,13.7821,274.6597-53.6767,315.033-79.4873,17.9531-5.6603,31.4423-20.5892,35.2593-39.0214,3.8699-18.6909-4.2514-37.8249-20.3845-48.0233Z"/><path class="uuid-0458cfdc-02b7-49bf-a7c2-8406ca13d802" d="M1057.054,2615.8053c-3.2051-19.2758-56.9293-3.2969-107.7487-41.0471-75.9661-56.4298-36.5382-152.0178-102.6184-243.7179-60.6433-84.1538-182.7291-126.9848-220.6286-94.9215-50.4487,42.6809,73.0206,202.2949,0,305.2886-35.4706,50.0315-89.5119,47.6213-89.7908,76.9635-.4413,46.3683,134.0586,99.8272,261.6759,97.4872,137.1967-2.5152,264.1979-69.4575,259.1106-100.0528Z"/><path class="uuid-9f839e11-f438-4328-a5b0-f45d8a2692cf" d="M1355.5947,2775.4877s30.4819,10.2336,33.7133,60.7249c-4.9722-.4484-16.5798-.18-16.5798-.18,0,0,2.1512-36.7015-19.554-44.1451,1.7489-4.2625,2.4205-16.3998,2.4205-16.3998Z"/><path class="uuid-9a5f661d-0807-4fc1-b4aa-7514f2c5698c" d="M1242.5183,2770.6735c.7752,9.2996,1.5497,18.5979,2.3246,27.8952,15.3391-3.9567,32.0727-8.5505,50.0143-9.1799,23.2544-.8159,44.4958,2.0466,63.3556,6.7515.8374-1.1505,2.6115-3.92,3.4297-8.4591,1.3177-7.3123-.8894-13.4319-1.2984-14.5226-9.5972-3.5324-20.0206-6.5362-31.2076-8.651-32.1863-6.084-61.4073-1.0455-86.6182,6.1659Z"/><path class="uuid-222e53f2-8b60-42e8-b0fe-d0c926782e14" d="M1241.0704,2778.6991c.0457-3.3592.3026-7.5504,1.4479-8.0256,1.0785-.4474,2.5282,2.6123,3.1514,4.3094.2595.7064.8315,2.4172,1.1891,7.8414.461,6.9927-.0765,10.4096-.5688,12.5175-.296,1.2674-.7583,3.1879-1.4471,3.2269-.5528.0314-1.0338-1.1918-1.75-3.5572-.9647-3.1868-2.1286-8.4973-2.0225-16.3124Z"/><path class="uuid-cfd42c5c-39dd-4c5c-8907-aa3f390caf59" d="M1212.6892,2837.0937c6.4668,1.2723,22.1643,5.034,22.1643,5.034,0,0-10.2305-32.7779,9.0457-47.5908.4985-2.4576,1.0046-6.3629.3964-11.0743-.4704-3.645-1.4523-6.5664-2.2999-8.5931-8.1792,4.4755-26.0191,19.7075-29.3065,62.2242Z"/><path class="uuid-aeabff5a-5498-4467-8da3-09d7d97451f3" d="M1077.4989,2844.3595s.808-17.3406,28.2868-17.0303c4.317,3.2034,4.5328,17.3579,4.5328,17.3579l-32.8196-.3276Z"/><path class="uuid-ef382804-cd57-488f-996e-83ce5c6f204c" d="M1053.0008,3185.8191l75.2167,44.3752,45.162-167.5854-74.5795-224.296-21.3012,6.0465-32.4514,323.8053c-.7365,7.348,2.4431,14.4035,7.9534,17.6544Z"/><path class="uuid-8cb3b9d9-07be-44dd-9f19-beafd7e0451b" d="M1173.3796,3062.6088l-74.5796-224.2959-21.3011,6.0466c5.2513,19.9143,7.768,52.2751,8.9517,70.2826,5.0354,76.5959,21.7308,97.8598,13.6481,151.2648-6.728,44.4553-21.4445,50.6371-20.1569,80.5328,1.4024,32.5535,20.3259,59.5022,42.7548,80.4976l5.5209,3.2569,45.1621-167.5854Z"/><polygon class="uuid-c3f7ea04-9558-4221-af03-f053795c58b1" points="1098.8 2838.3129 1498.8663 2842.4966 1559.6646 3187.0623 1128.2175 3230.1943 1098.8 2838.3129"/><g class="uuid-3c0aaa37-b347-4bb6-892e-1a79adb2dde4"><path class="uuid-2bb785a0-99e6-4beb-b6f7-0dbadccab3d1" d="M1498.8663,2842.4962l-132.0536-1.3809c-2.4572,7.1287-6.2156,16.9932-11.7054,28.1509-60.0444,122.0331-199.6073,137.7887-197.0597,158.1305,3.8065,30.3908,310.3258-13.6355,317.9661,27.1286,3.6846,19.6614-59.7407,65.1017-126.6879,82.9502-81.0729,21.6146-141.2966-3.6527-181.6581,43.5064-13.7225,16.0333-19.7891,34.6775-22.7464,47.274l414.7432-41.1935-60.7982-344.5662Z"/></g><path class="uuid-50c89913-23e2-49e7-b040-c8f8bb1142c3" d="M1105.7856,2827.3292c-4.6439-.0525-11.1417-.7073-18.2161,3.3798-1.5114.873-2.8462,1.8375-4.0176,2.8196l3.2596-1.1264c5.2405-1.4839,12.4599.6452,15.154,5.9438,3.3095,6.5089,4.5003,21.5004,5.2235,28.9266,2.0567,21.1199,14.6844,152.3821,14.6844,152.3821.945,11.0565,9.2897,19.3933,19.1382,19.1341l370.5921-21.1372c2.735-.0695,5.4365-.9615,7.6914-2.7602,4.702-3.7507,6.8251-10.2379,5.7354-16.3937l-18.2366-151.6646c-1.5448-8.7355-8.1696-15.0689-15.8619-15.1557l-385.1464-4.3482Z"/><path class="uuid-d525368f-ad1e-4b2e-884d-bcc42a149b57" d="M1109.8869,2827.3753c-4.6411-.0523-10.1497-.752-16.2949.8343-1.658.428-4.3119,1.2175-5.4825,2.1989,0,0,13.0322-2.98,17.9596,7.9804,3.006,6.687,4.4976,21.4938,5.2203,28.9176,2.0554,21.1134,14.6753,152.3351,14.6753,152.3351.9445,11.0531,9.2839,19.3873,19.1264,19.1283l374.4216-9.8546c2.7314-.0718,5.4297-.9657,7.6818-2.7652,4.6964-3.7526,6.8167-10.2376,5.7285-16.3887l-22.272-162.8892c-1.5437-8.7328-8.1647-15.0644-15.8524-15.1512l-384.9117-4.3457Z"/><path class="uuid-34d12350-1481-4fcb-9f51-e0bd30a2bd68" d="M1532.923,3009.7614l-22.2719-162.8892c-1.5438-8.7328-8.1646-15.0644-15.8523-15.1512l-384.9119-4.3457c-4.6409-.0523-10.1496-.7521-16.2952.8343-1.6577.428-4.3116,1.2175-5.4822,2.1989,0,0,13.0322-2.98,17.9597,7.9804.4739,1.054.9061,2.3265,1.307,3.7231,37.5545,1.8748,74.8966,1.1793,112.0283,3.9784,72.7912,5.3623,145.5857,6.0617,212.8004,36.0676,21.3535,9.5327,35.9521,43.2764,30.1789,58.805-4.1657,11.2049-18.4022,10.288-23.3777,25.0196-5.2366,15.5055,7.3127,26.0295,2.0517,36.9137-5.5185,11.4173-22.3075,6.0243-49.5787,14.2609-15.0748,4.5528-26.6612,11.246-33.908,16.0203l161.9416-4.2622c2.7314-.072,5.4297-.9657,7.6818-2.7652,4.6964-3.7526,6.8167-10.2377,5.7285-16.3887Z"/><path class="uuid-26a20611-8ed8-489e-913b-17ddd49ca4c2" d="M1356.7882,3060.2688l-46.8876,11.8062-4.9716.4496c-5.0129.4533-9.3303-3.9163-9.5494-9.7145l-2.07-54.8233c-.219-5.8002,3.7526-10.6155,8.7805-10.6999l4.9994-.0837,47.1524,6.0202c4.4867-.0776,8.2636-2.5196,8.4667,2.8912l1.9209,51.1436c.2031,5.409-3.3678,2.6087-7.8413,3.0106Z"/><path class="uuid-c76f628a-0428-438a-b989-f473ef339418" d="M1360.3396,3067.8015l-51.9394,4.6978c-5.0103.4531-9.3255-3.9153-9.5442-9.7119l-2.0691-54.8088c-.2188-5.7986,3.7506-10.6126,8.776-10.697l52.0943-.8738c4.4843-.0752,8.289,4.2897,8.492,9.6992l1.9198,51.13c.2032,5.4077-3.2584,10.16-7.7294,10.5645Z"/></g></g></svg>