<?xml version="1.0" encoding="utf-8"?>
<!-- Generator: Adobe Illustrator 28.2.0, SVG Export Plug-In . SVG Version: 6.00 Build 0)  -->
<svg version="1.1" id="Ebene_1" xmlns="http://www.w3.org/2000/svg" xmlns:xlink="http://www.w3.org/1999/xlink" x="0px" y="0px"
	 viewBox="0 0 486.6 608.7" style="enable-background:new 0 0 486.6 608.7;" xml:space="preserve">
<style type="text/css">
	.st0{fill-rule:evenodd;clip-rule:evenodd;fill:#0F2B46;}
</style>
<path class="st0" d="M469.2,125.3L260.7,4.7c-10.8-6.3-24-6.3-34.8,0l-208.5,121C6.6,132,0,143.5,0,155.7v241.6
	c0,12.5,6.6,24.1,17.4,30.3l208.5,120.7c0.5,0.3,1.1,0.6,1.6,0.9l102.7,59.5l-0.3-52.3l0.2-29l0.1,0.5v-9.8c0-5.8,3-11,7.5-14.2
	l6.7-3.8l3.2-1.8h-0.2l121.8-70.5c10.8-6.3,17.4-17.8,17.4-30.3V155.6C486.6,143.1,480,131.6,469.2,125.3L469.2,125.3z M219.3,371
	c3.1,12.2-0.3,25.7-10.1,35.1c-13.9,13.6-36.1,13.6-50,0c-15-14.3-15-38,0-52.3c13.9-13.6,36.1-13.6,50,0c0.6,0.6,1.2,1.2,1.8,1.9
	l84.4-48.6l17.4,9.8L219.3,371L219.3,371z M365.7,309.8c-13.9,13.6-36.2,13.6-50,0c-10.5-10-13.6-24.7-9.4-37.5l-0.3,0.2l-95.2-55.1
	c-0.5,0.5-0.9,1-1.4,1.4c-13.9,13.6-36.1,13.6-50,0c-15-14.3-15-38,0-52.3c13.9-13.6,36.1-13.6,50,0c10,9.6,13.3,23.3,9.9,35.7
	l95.9,55.8c0.2-0.2,0.3-0.3,0.5-0.5c13.9-13.6,36.2-13.6,50,0C380.6,271.8,380.6,295.5,365.7,309.8L365.7,309.8z"/>
</svg>
