<?xml version="1.0" encoding="utf-8"?>
<!-- Generator: Adobe Illustrator 28.2.0, SVG Export Plug-In . SVG Version: 6.00 Build 0)  -->
<svg version="1.1" id="Layer_1" xmlns="http://www.w3.org/2000/svg" xmlns:xlink="http://www.w3.org/1999/xlink" x="0px" y="0px"
	 viewBox="0 0 512 512" style="enable-background:new 0 0 512 512;" xml:space="preserve">
<style type="text/css">
	.st0{fill:url(#SVGID_1_);}
	.st1{fill:url(#SVGID_00000032616524399055148810000000694466690651104442_);}
	.st2{fill:url(#SVGID_00000053529311426210773820000016210798327459030186_);}
	.st3{fill:url(#SVGID_00000077321283233641072130000007837431661483934132_);}
	.st4{fill:url(#SVGID_00000072987675324071747180000016954189717763095735_);}
	.st5{fill:url(#SVGID_00000156550373091722629670000012774499185987266479_);}
	.st6{fill:url(#SVGID_00000135652981581223198990000016272072697711850648_);}
	.st7{fill:url(#SVGID_00000052801550537962632850000015680626974529846681_);}
	.st8{fill:url(#SVGID_00000103243258311491013360000006089671829938996387_);}
	.st9{fill:url(#SVGID_00000142169164806882770650000006173526995564018319_);}
	.st10{fill:url(#SVGID_00000167382795644910438590000018163442407902662275_);}
	.st11{fill:url(#SVGID_00000167398355972049420530000016263543464902331067_);}
	.st12{fill:url(#SVGID_00000172420044721036056450000006931734071990191256_);}
	.st13{fill:url(#SVGID_00000067944718877009331380000009717852573295186342_);}
	.st14{fill:url(#SVGID_00000008862413881897666380000004818386675966333843_);}
	.st15{fill:url(#SVGID_00000081633182769038925210000000046656113188175520_);}
	.st16{fill:url(#SVGID_00000142151133734711981510000004057303058371073189_);}
	.st17{fill:url(#SVGID_00000002373230679951250080000002865937286152387233_);}
	.st18{fill:url(#SVGID_00000147210033946776301520000011969994200759600038_);}
	.st19{fill:url(#SVGID_00000008842659586279306680000015246440308870547367_);}
	.st20{fill:url(#SVGID_00000096737321592482045820000001392029854760668561_);}
	.st21{fill:url(#SVGID_00000100375856235583676290000014092814095241525395_);}
	.st22{fill:url(#SVGID_00000078729713591689679490000010225398409632063156_);}
	.st23{fill:url(#SVGID_00000101085608526891005290000002815299105951825040_);}
	.st24{fill:url(#SVGID_00000060746177631788331230000010325578989420648618_);}
	.st25{fill:url(#SVGID_00000049929383828763375140000002166909414960276390_);}
	.st26{fill:url(#SVGID_00000114063408015216880300000012597672347059123126_);}
	.st27{fill:url(#SVGID_00000062188524134464390120000016592910596424393639_);}
</style>
<linearGradient id="SVGID_1_" gradientUnits="userSpaceOnUse" x1="122.2304" y1="455.5495" x2="157.9628" y2="455.5495">
	<stop  offset="0" style="stop-color:#6AA2BC"/>
	<stop  offset="1" style="stop-color:#38668D"/>
</linearGradient>
<path class="st0" d="M152.3,451.2c-7.6-0.3-15.2-1.4-22.6-3.1c-3.2-0.8-6.5,1.2-7.2,4.4c-0.8,3.2,1.2,6.5,4.4,7.2
	c8.2,1.9,16.5,3.1,24.9,3.4c0.1,0,0.2,0,0.3,0c3.3,0,6-2.7,6-6C158,454,155.4,451.3,152.3,451.2L152.3,451.2z"/>
<linearGradient id="SVGID_00000025424906912452972820000011695742907123672997_" gradientUnits="userSpaceOnUse" x1="353.6823" y1="455.595" x2="389.4535" y2="455.595">
	<stop  offset="0" style="stop-color:#6AA2BC"/>
	<stop  offset="1" style="stop-color:#38668D"/>
</linearGradient>
<path style="fill:url(#SVGID_00000025424906912452972820000011695742907123672997_);" d="M382.1,448.1c-7.4,1.7-15,2.7-22.6,3.1
	c-3.3,0.1-5.9,2.9-5.8,6.2c0.1,3.2,2.8,5.8,6,5.8c0.1,0,0.2,0,0.3,0c8.4-0.3,16.7-1.5,24.9-3.4c3.2-0.8,5.2-4,4.5-7.2
	C388.5,449.4,385.3,447.4,382.1,448.1L382.1,448.1z"/>
<linearGradient id="SVGID_00000036219508892252794850000003704452317715151804_" gradientUnits="userSpaceOnUse" x1="5" y1="256" x2="507" y2="256">
	<stop  offset="0" style="stop-color:#6AA2BC"/>
	<stop  offset="1" style="stop-color:#38668D"/>
</linearGradient>
<path style="fill:url(#SVGID_00000036219508892252794850000003704452317715151804_);" d="M432.3,148.3c-14.9-8.7-30.5-16-46.8-21.8
	c-5.8-16.2-13.1-31.9-21.8-46.8c-3.9-6.6-8.1-12.9-12.6-19c6.8-0.1,13.5,0.3,20.2,1.2c3.3,0.5,6.3-1.8,6.8-5.1
	c0.5-3.3-1.8-6.3-5.1-6.8c0,0-0.1,0-0.1,0c-8.3-1.1-16.6-1.5-24.9-1.2c-1.8,0.1-3.4,0.9-4.5,2.3C318.2,21.1,287.9,5,256,5
	c-31.8,0-62,16.1-87.3,45.8c-1.1-1.3-2.7-2-4.4-2.1c-8.3-0.3-16.7,0.1-24.9,1.2c-3.3,0.4-5.6,3.4-5.2,6.7c0.4,3.3,3.4,5.6,6.7,5.2
	c0,0,0.1,0,0.1,0c6.6-0.9,13.3-1.3,19.9-1.2c-4.5,6.1-8.7,12.5-12.6,19c-8.7,14.9-16,30.5-21.8,46.8c-16.2,5.8-31.9,13.1-46.8,21.8
	C31.5,176.8,5,215.1,5,256c0,31.8,16,62,45.8,87.3c-1.3,1.1-2,2.7-2.1,4.4c-0.1,1.8-0.1,3.6-0.1,5.4c0,6.5,0.4,13.1,1.3,19.6
	c0.5,3.3,3.5,5.5,6.8,5.1c3.2-0.5,5.5-3.4,5.1-6.7c-0.8-6-1.2-12-1.2-18c0-0.6,0-1.3,0-1.9c6.1,4.5,12.5,8.7,19,12.6
	c14.9,8.7,30.5,16,46.8,21.8c5.8,16.2,13.1,31.9,21.8,46.8C176.8,480.5,215.1,507,256,507s79.2-26.5,107.7-74.7
	c8.7-14.9,16-30.5,21.8-46.8c16.2-5.8,31.9-13.1,46.8-21.8c6.6-3.9,12.9-8.1,19-12.6c0,0.6,0,1.3,0,1.9c0,6.1-0.4,12.2-1.2,18.3
	c-0.5,3.3,1.8,6.3,5.1,6.8c3.3,0.5,6.3-1.8,6.8-5.1c0,0,0-0.1,0-0.1c0.9-6.6,1.3-13.3,1.3-19.9c0-1.7,0-3.3-0.1-5
	c-0.1-1.8-0.9-3.4-2.3-4.5c29.9-25.3,46-55.6,46-87.5C507,215.1,480.5,176.8,432.3,148.3L432.3,148.3z M158.6,85.8
	c6.6-11.3,14.3-21.9,23.1-31.6c-1.5,2.9-0.4,6.6,2.6,8.1c0.6,0.3,1.2,0.5,1.8,0.6c7.7,1.3,15.3,2.9,22.8,5c3.2,0.9,6.5-0.9,7.4-4.1
	c0.9-3.2-0.9-6.5-4.1-7.4c-0.1,0-0.1,0-0.2,0c-7.9-2.2-16-4-24.1-5.3c-1.4-0.2-2.9,0.1-4.1,0.8C205.5,29.2,230.2,17,256,17
	c25.6,0,50.2,12,71.7,34.5c-1.1-0.5-2.2-0.6-3.3-0.4c-8.1,1.3-16.2,3.1-24.1,5.3c-3.2,0.9-5.1,4.2-4.2,7.4c0.9,3.2,4.2,5.1,7.4,4.2
	c7.5-2.1,15.1-3.7,22.8-5c3.3-0.5,5.5-3.6,5-6.9c0,0,0,0,0,0c-0.1-0.4-0.1-0.7-0.3-1c8.5,9.5,16,19.9,22.4,30.8
	c6.7,11.4,12.6,23.4,17.5,35.7c-17.9-5.5-36.2-9.6-54.7-12.2c-0.8-0.3-1.6-0.4-2.4-0.3c-5.2-0.7-10.4-1.4-15.7-1.9
	c2.9-1.5,4.1-5.2,2.5-8.1c-0.5-0.9-1.2-1.7-2-2.2c-6.9-4.5-13.9-8.8-20.8-12.7c-2.9-1.6-6.6-0.5-8.2,2.4c-1.6,2.9-0.6,6.5,2.3,8.1
	c6.6,3.7,13.2,7.7,19.7,12c-11.7-1-23.5-1.5-35.5-1.5c-12,0-23.8,0.5-35.5,1.5c6.6-4.3,13.3-8.4,20-12.1c2.9-1.6,3.9-5.3,2.3-8.2
	s-5.3-3.9-8.2-2.3c0,0,0,0,0,0c-7,3.9-14,8.2-20.9,12.7c-2.8,1.8-3.6,5.5-1.8,8.3c0.6,1,1.5,1.7,2.5,2.2c-5.2,0.5-10.3,1.1-15.4,1.8
	c-1.2-0.2-2.5,0-3.6,0.5c-18.4,2.7-36.6,6.8-54.4,12.2C146.1,109.2,151.9,97.3,158.6,85.8L158.6,85.8z M85.8,353.4
	c-11.3-6.6-21.9-14.3-31.6-23.1c2.9,1.5,6.6,0.4,8.1-2.5c0.3-0.6,0.5-1.2,0.6-1.8c1.3-7.7,2.9-15.3,5-22.8c0.9-3.2-1-6.5-4.2-7.4
	c-3.2-0.9-6.5,1-7.4,4.2c0,0,0,0,0,0c-2.2,7.9-4,16-5.3,24.1c-0.2,1.4,0.1,2.9,0.8,4.1C29.2,306.5,17,281.8,17,256
	c0-25.3,11.7-49.6,33.7-71c0.7,4.9,1.6,9.9,2.7,14.9c0.8,3.2,4,5.2,7.2,4.5c3.2-0.7,5.2-3.9,4.5-7c-1.6-7.2-2.8-14.6-3.6-21.9
	c7.7-6.2,15.8-11.8,24.3-16.8c11.4-6.7,23.4-12.6,35.7-17.5c-5.5,17.9-9.6,36.2-12.2,54.7c-0.3,0.8-0.4,1.6-0.3,2.4
	c-0.7,5.2-1.4,10.4-1.9,15.7c-1.5-2.9-5.2-4.1-8.1-2.5c-0.9,0.5-1.7,1.2-2.2,2c-4.5,6.9-8.8,13.9-12.7,20.8
	c-1.6,2.9-0.7,6.5,2.2,8.2c2.9,1.6,6.5,0.7,8.2-2.2c0,0,0-0.1,0-0.1c3.7-6.6,7.7-13.2,12-19.7c-1,11.7-1.5,23.5-1.5,35.5
	c0,14.1,0.7,28.2,2.1,42.3c-3.3,0.4-5.6,3.4-5.2,6.7c0.1,1,0.5,1.9,1,2.7c2.1,3,4.3,6,6.5,9c2.7,18.3,6.7,36.4,12.2,54.2
	C109.2,365.9,97.3,360.1,85.8,353.4z M353.4,426.2c-5,8.5-10.6,16.6-16.8,24.3c-7.5-0.8-14.9-2-22.2-3.6c-3.2-0.7-6.4,1.4-7.1,4.6
	c-0.7,3.2,1.3,6.3,4.5,7.1c5.1,1.1,10.2,2.1,15.2,2.8c-21.3,21.9-45.7,33.7-71,33.7s-49.6-11.7-71-33.7c4.9-0.7,9.9-1.6,14.9-2.7
	c3.2-0.8,5.2-4,4.5-7.2c-0.7-3.2-3.9-5.2-7-4.5c-7.2,1.6-14.6,2.8-21.9,3.6c-6.2-7.7-11.8-15.8-16.8-24.3
	c-6.7-11.4-12.6-23.4-17.5-35.7c17.7,5.4,35.8,9.5,54.2,12.2c2.9,2.1,5.8,4.2,8.7,6.3c2.7,1.9,6.4,1.2,8.3-1.5
	c0.5-0.8,0.9-1.6,1-2.6c14.2,1.4,28.4,2.1,42.6,2.1c14.1,0,28.2-0.7,42.3-2.1c0.4,3.3,3.4,5.6,6.7,5.2c1-0.1,1.9-0.5,2.7-1
	c3-2.1,6-4.3,9-6.5c18.3-2.7,36.4-6.7,54.2-12.2C365.9,402.8,360.1,414.7,353.4,426.2z M376.1,376.1c-15.3,5.2-30.9,9.3-46.8,12.2
	c-0.8-3.2-4.1-5.1-7.3-4.3c-0.8,0.2-1.6,0.6-2.2,1.1c-2.6,2.1-5.2,4.1-7.8,6c-18.5,2.6-37.2,3.9-55.9,3.8c-18.7,0-37.4-1.3-55.9-3.8
	c-2.7-2-5.4-4.1-8.1-6.2c-2.6-2.1-6.4-1.6-8.4,0.9c-0.6,0.7-1,1.5-1.2,2.4c-15.8-2.9-31.3-7-46.5-12.2c-5.2-15.3-9.3-31-12.2-46.8
	c0.8-0.2,1.6-0.6,2.2-1.1c2.6-2.1,3-5.8,1-8.4c0,0,0,0,0,0c-2.1-2.6-4.1-5.2-6-7.8c-5.1-37.1-5.1-74.8,0-111.9
	c4.3-5.8,8.9-11.5,13.6-17.1c2.2-2.5,1.9-6.3-0.6-8.5s-6.3-1.9-8.5,0.6c0,0,0,0.1-0.1,0.1c-0.1,0.1-0.1,0.2-0.2,0.2
	c2.8-13.4,6.4-26.6,10.8-39.6c13-4.4,26.2-8,39.6-10.8c-2.5,2.2-2.8,6-0.6,8.5c2.1,2.5,5.8,2.8,8.4,0.7c5.5-4.6,11.2-9.1,16.9-13.4
	c37.1-5.1,74.8-5.1,111.9,0c5.8,4.3,11.5,8.9,17.1,13.6c2.5,2.2,6.3,1.9,8.5-0.6c2.2-2.5,1.9-6.3-0.6-8.5c0,0-0.1,0-0.1-0.1
	l-0.2-0.2c13.4,2.8,26.6,6.4,39.6,10.8c4.4,13,8,26.2,10.8,39.6c-2.2-2.5-6-2.8-8.5-0.6c-2.5,2.1-2.8,5.8-0.7,8.4
	c4.6,5.5,9.1,11.2,13.4,16.9c2.6,18.5,3.9,37.2,3.8,55.9c0,18.7-1.3,37.4-3.8,55.9c-2,2.7-4.1,5.4-6.2,8.1c-2.1,2.6-1.6,6.4,1,8.4
	c0.7,0.6,1.5,0.9,2.4,1.1C385.3,345.4,381.3,360.9,376.1,376.1L376.1,376.1z M460.5,327.7c0.5-1.1,0.6-2.2,0.4-3.3
	c-1.3-8.1-3.1-16.2-5.3-24.1c-0.9-3.2-4.2-5.1-7.4-4.2c-3.2,0.9-5.1,4.2-4.2,7.4c2.1,7.5,3.7,15.1,5,22.8c0.5,2.9,3,5,5.9,5.1
	c0.7,0,1.4-0.1,2-0.3c-9.5,8.5-19.9,16-30.9,22.4c-11.4,6.7-23.4,12.6-35.7,17.5c5.4-17.7,9.5-35.8,12.2-54.2
	c2.1-2.9,4.2-5.8,6.3-8.7c1.9-2.7,1.2-6.4-1.5-8.3c-0.8-0.5-1.6-0.9-2.6-1c1.4-14.2,2.1-28.4,2.1-42.6c0-12-0.5-23.8-1.5-35.5
	c4.3,6.6,8.4,13.3,12.1,20c1.6,2.9,5.3,3.9,8.2,2.3c2.9-1.6,3.9-5.3,2.3-8.1c-3.9-7-8.2-14-12.7-20.9c-1.8-2.8-5.5-3.6-8.3-1.7
	c-1,0.6-1.7,1.5-2.2,2.5c-0.5-5.2-1.1-10.3-1.8-15.3c0.2-1.2,0-2.5-0.5-3.6c-2.7-18.4-6.8-36.6-12.2-54.4
	c12.3,4.9,24.3,10.7,35.7,17.5c8.5,5,16.6,10.6,24.3,16.8c-0.8,7.5-2,14.9-3.6,22.2c-0.8,3.2,1.2,6.5,4.5,7.2s6.5-1.2,7.2-4.5
	c0,0,0-0.1,0-0.1c1.1-5.1,2.1-10.2,2.8-15.2c21.9,21.3,33.6,45.7,33.6,71C495,281.6,483,306.2,460.5,327.7L460.5,327.7z"/>
<linearGradient id="SVGID_00000078724073251705035890000012897116491437995954_" gradientUnits="userSpaceOnUse" x1="55.126" y1="404.9758" x2="77.7121" y2="404.9758">
	<stop  offset="0" style="stop-color:#6AA2BC"/>
	<stop  offset="1" style="stop-color:#38668D"/>
</linearGradient>
<path style="fill:url(#SVGID_00000078724073251705035890000012897116491437995954_);" d="M66.8,392.2c-1.1-3.1-4.5-4.7-7.7-3.6
	c-3.1,1.1-4.7,4.5-3.7,7.6c2.8,8.1,6.5,15.7,11.2,22.8c1.8,2.8,5.5,3.6,8.3,1.8c2.8-1.8,3.6-5.5,1.8-8.3c0-0.1-0.1-0.1-0.1-0.2
	C72.5,406.1,69.2,399.3,66.8,392.2z"/>
<linearGradient id="SVGID_00000121271118174150330350000001091830942221752496_" gradientUnits="userSpaceOnUse" x1="80.6929" y1="439.5825" x2="112.6088" y2="439.5825">
	<stop  offset="0" style="stop-color:#6AA2BC"/>
	<stop  offset="1" style="stop-color:#38668D"/>
</linearGradient>
<path style="fill:url(#SVGID_00000121271118174150330350000001091830942221752496_);" d="M109.3,440.8c-6.7-3.3-13-7.4-18.6-12.4
	c-2.5-2.2-6.3-2-8.5,0.5c-2.2,2.5-2,6.3,0.5,8.5c0,0,0,0,0,0c6.4,5.6,13.6,10.4,21.2,14.2c3,1.5,6.6,0.2,8-2.7
	C113.5,445.9,112.2,442.3,109.3,440.8z"/>
<linearGradient id="SVGID_00000127029530247627957680000016871966046129770673_" gradientUnits="userSpaceOnUse" x1="432.1136" y1="232.3741" x2="452.6031" y2="232.3741">
	<stop  offset="0" style="stop-color:#6AA2BC"/>
	<stop  offset="1" style="stop-color:#38668D"/>
</linearGradient>
<path style="fill:url(#SVGID_00000127029530247627957680000016871966046129770673_);" d="M448.5,215.4c-3.1-1-6.5,0.7-7.6,3.8
	c-2.4,7.2-5.1,14.6-8.3,22c-1.3,3,0,6.6,3.1,7.9s6.6,0,7.9-3.1c0-0.1,0-0.1,0.1-0.2c3.3-7.7,6.2-15.4,8.6-22.9
	C453.3,219.8,451.6,216.4,448.5,215.4z"/>
<linearGradient id="SVGID_00000144302652688554516960000005157500407892551581_" gradientUnits="userSpaceOnUse" x1="335.0918" y1="358.1782" x2="380.8033" y2="358.1782">
	<stop  offset="0" style="stop-color:#6AA2BC"/>
	<stop  offset="1" style="stop-color:#38668D"/>
</linearGradient>
<path style="fill:url(#SVGID_00000144302652688554516960000005157500407892551581_);" d="M370.3,337.3c-5.1,5.8-10.5,11.5-16,17
	c-5.6,5.6-11.4,11-17.2,16.2c-2.5,2.2-2.7,6-0.5,8.5s6,2.7,8.5,0.5c6-5.4,12-11,17.7-16.7c5.7-5.7,11.2-11.5,16.5-17.5
	c2.2-2.5,2-6.3-0.5-8.5C376.3,334.7,372.5,334.9,370.3,337.3L370.3,337.3z"/>
<linearGradient id="SVGID_00000080193828674585213630000015423050400627977390_" gradientUnits="userSpaceOnUse" x1="388.4642" y1="66.5088" x2="421.884" y2="66.5088">
	<stop  offset="0" style="stop-color:#6AA2BC"/>
	<stop  offset="1" style="stop-color:#38668D"/>
</linearGradient>
<path style="fill:url(#SVGID_00000080193828674585213630000015423050400627977390_);" d="M392.5,66.9c7.1,2.5,13.8,5.8,20.1,9.9
	c2.8,1.8,6.5,1,8.3-1.7c1.8-2.7,1.1-6.4-1.6-8.3c-7.1-4.7-14.8-8.5-22.8-11.3c-3.1-1.1-6.6,0.5-7.7,3.7
	C387.7,62.3,389.3,65.8,392.5,66.9C392.5,66.9,392.5,66.9,392.5,66.9L392.5,66.9z"/>
<linearGradient id="SVGID_00000104679067175539846180000013311426888794128032_" gradientUnits="userSpaceOnUse" x1="427.1669" y1="96.9287" x2="452.3685" y2="96.9287">
	<stop  offset="0" style="stop-color:#6AA2BC"/>
	<stop  offset="1" style="stop-color:#38668D"/>
</linearGradient>
<path style="fill:url(#SVGID_00000104679067175539846180000013311426888794128032_);" d="M441,109.5c1.5,3,5,4.2,8,2.8s4.2-5,2.8-8
	c-3.7-7.7-8.5-14.8-14.1-21.3c-2.2-2.5-6-2.7-8.5-0.6c-2.5,2.2-2.7,6-0.6,8.5C433.6,96.5,437.7,102.8,441,109.5z"/>
<linearGradient id="SVGID_00000087405288166639375030000011109992947148138147_" gradientUnits="userSpaceOnUse" x1="447.989" y1="140.4202" x2="463.1991" y2="140.4202">
	<stop  offset="0" style="stop-color:#6AA2BC"/>
	<stop  offset="1" style="stop-color:#38668D"/>
</linearGradient>
<path style="fill:url(#SVGID_00000087405288166639375030000011109992947148138147_);" d="M448.1,129.9c1.7,7.4,2.7,15,3.1,22.6
	c0.1,3.2,2.8,5.7,6,5.7c0.1,0,0.2,0,0.3,0c3.3-0.1,5.9-3,5.7-6.3c0,0,0,0,0,0c-0.3-8.4-1.5-16.7-3.4-24.9c-0.8-3.2-4-5.2-7.2-4.5
	C449.4,123.5,447.4,126.7,448.1,129.9L448.1,129.9z"/>
<linearGradient id="SVGID_00000096777222736151079860000010634349496633079723_" gradientUnits="userSpaceOnUse" x1="139.2069" y1="153.4377" x2="168.24" y2="153.4377">
	<stop  offset="0" style="stop-color:#6AA2BC"/>
	<stop  offset="1" style="stop-color:#38668D"/>
</linearGradient>
<path style="fill:url(#SVGID_00000096777222736151079860000010634349496633079723_);" d="M145.2,167.9c1.7,0,3.2-0.7,4.4-1.9
	c2.6-2.8,5.4-5.6,8.1-8.4c2.8-2.8,5.7-5.6,8.6-8.4c2.4-2.2,2.6-6,0.4-8.5s-6-2.6-8.5-0.4c0,0-0.1,0.1-0.1,0.1c-3,2.8-6,5.7-8.8,8.6
	c-2.8,2.8-5.6,5.7-8.4,8.6c-2.3,2.4-2.2,6.2,0.2,8.5C142.2,167.4,143.7,167.9,145.2,167.9L145.2,167.9z"/>
<linearGradient id="SVGID_00000179630724017203878020000014333689887462510760_" gradientUnits="userSpaceOnUse" x1="434.1349" y1="405.2219" x2="456.7864" y2="405.2219">
	<stop  offset="0" style="stop-color:#6AA2BC"/>
	<stop  offset="1" style="stop-color:#38668D"/>
</linearGradient>
<path style="fill:url(#SVGID_00000179630724017203878020000014333689887462510760_);" d="M452.8,388.8c-3.1-1.1-6.6,0.6-7.6,3.7
	c0,0,0,0,0,0c-2.5,7.1-5.8,13.8-9.9,20.1c-1.9,2.7-1.2,6.5,1.6,8.3c2.7,1.9,6.5,1.2,8.3-1.6c0,0,0-0.1,0.1-0.1
	c4.7-7.1,8.5-14.8,11.3-22.8C457.5,393.3,455.9,389.9,452.8,388.8C452.8,388.8,452.8,388.8,452.8,388.8z"/>
<linearGradient id="SVGID_00000138540283808364800570000009255906532860362660_" gradientUnits="userSpaceOnUse" x1="399.0975" y1="439.7677" x2="431.0451" y2="439.7677">
	<stop  offset="0" style="stop-color:#6AA2BC"/>
	<stop  offset="1" style="stop-color:#38668D"/>
</linearGradient>
<path style="fill:url(#SVGID_00000138540283808364800570000009255906532860362660_);" d="M421.1,428.7c-5.6,4.9-11.9,9.1-18.6,12.3
	c-3,1.5-4.2,5-2.8,8c1.5,3,5,4.2,8,2.8c7.7-3.7,14.8-8.5,21.3-14.1c2.5-2.2,2.7-6,0.6-8.5C427.4,426.7,423.6,426.5,421.1,428.7
	L421.1,428.7L421.1,428.7z"/>
<linearGradient id="SVGID_00000035519327185652839180000004164609023393388464_" gradientUnits="userSpaceOnUse" x1="226.2115" y1="73.9488" x2="286.0705" y2="73.9488">
	<stop  offset="0" style="stop-color:#6AA2BC"/>
	<stop  offset="1" style="stop-color:#38668D"/>
</linearGradient>
<path style="fill:url(#SVGID_00000035519327185652839180000004164609023393388464_);" d="M230.2,74.9c7.2,2.7,14.4,5.8,21.6,9.2
	c1.4,0.7,3.1,0.8,4.6,0.2c1.4,0.4,2.8,0.3,4.1-0.4c7.2-3.4,14.5-6.5,21.6-9.2c3.1-1.1,4.7-4.6,3.6-7.7c-1.1-3.1-4.6-4.7-7.7-3.6
	c0,0-0.1,0-0.1,0c-7.3,2.7-14.6,5.8-21.9,9.3c-7.2-3.4-14.5-6.5-21.6-9.1c-3.1-1.2-6.6,0.3-7.8,3.4c-1.2,3.1,0.3,6.6,3.4,7.8
	C230.1,74.9,230.1,74.9,230.2,74.9z"/>
<linearGradient id="SVGID_00000176738487215558443770000009769350805209732543_" gradientUnits="userSpaceOnUse" x1="344.0514" y1="153.7229" x2="373.0722" y2="153.7229">
	<stop  offset="0" style="stop-color:#6AA2BC"/>
	<stop  offset="1" style="stop-color:#38668D"/>
</linearGradient>
<path style="fill:url(#SVGID_00000176738487215558443770000009769350805209732543_);" d="M354.3,157.7c2.8,2.8,5.6,5.7,8.4,8.6
	c2.2,2.4,6,2.6,8.5,0.4c2.4-2.2,2.6-6,0.4-8.5c0,0-0.1-0.1-0.1-0.1c-2.8-3-5.7-6-8.6-8.8c-2.8-2.8-5.7-5.6-8.6-8.4
	c-2.4-2.3-6.2-2.2-8.5,0.2c-2.3,2.4-2.2,6.2,0.2,8.5C348.7,152.2,351.6,155,354.3,157.7z"/>
<linearGradient id="SVGID_00000056403203164582014720000009985994181949220280_" gradientUnits="userSpaceOnUse" x1="130.9803" y1="357.9475" x2="176.6633" y2="357.9475">
	<stop  offset="0" style="stop-color:#6AA2BC"/>
	<stop  offset="1" style="stop-color:#38668D"/>
</linearGradient>
<path style="fill:url(#SVGID_00000056403203164582014720000009985994181949220280_);" d="M157.7,354.3c-5.6-5.6-11-11.4-16.2-17.2
	c-2.2-2.5-6-2.7-8.5-0.5c-2.5,2.2-2.7,6-0.5,8.5l0,0c5.4,6,11,12,16.7,17.7c5.7,5.7,11.5,11.2,17.5,16.5c2.5,2.2,6.3,2,8.5-0.5
	c2.2-2.5,2-6.3-0.5-8.5l0,0C168.9,365.2,163.2,359.8,157.7,354.3z"/>
<linearGradient id="SVGID_00000062872345417405611020000017017840136559614648_" gradientUnits="userSpaceOnUse" x1="59.2862" y1="232.0232" x2="79.7251" y2="232.0232">
	<stop  offset="0" style="stop-color:#6AA2BC"/>
	<stop  offset="1" style="stop-color:#38668D"/>
</linearGradient>
<path style="fill:url(#SVGID_00000062872345417405611020000017017840136559614648_);" d="M73.7,249.3c3.3,0,6-2.7,6-6
	c0-0.8-0.2-1.6-0.5-2.3c-3.1-7.3-5.9-14.7-8.2-22c-1-3.2-4.4-4.9-7.5-3.9c-3.2,1-4.9,4.4-3.9,7.5c0,0,0,0,0,0
	c2.5,7.6,5.4,15.3,8.6,23C69.1,247.8,71.3,249.3,73.7,249.3L73.7,249.3z"/>
<linearGradient id="SVGID_00000130627162795636990620000009139245778579004092_" gradientUnits="userSpaceOnUse" x1="63.2967" y1="271.3469" x2="101.2855" y2="271.3469">
	<stop  offset="0" style="stop-color:#6AA2BC"/>
	<stop  offset="1" style="stop-color:#38668D"/>
</linearGradient>
<path style="fill:url(#SVGID_00000130627162795636990620000009139245778579004092_);" d="M88.8,261.3c-0.8-1.6-2.4-2.8-4.2-3.1
	c0.3-3.3-2.1-6.2-5.4-6.5c-2.5-0.2-4.9,1.1-6,3.4c-3.5,7.5-6.8,15.1-9.6,22.5c-1.2,3.1,0.3,6.6,3.4,7.8c3.1,1.2,6.6-0.3,7.8-3.4
	c0,0,0-0.1,0-0.1c1.5-4,3.1-8,4.8-12c3.2,6.1,6.7,12.2,10.4,18.3c1.7,2.8,5.4,3.8,8.2,2.1c2.8-1.7,3.8-5.4,2.1-8.2c0,0,0-0.1,0-0.1
	C96.3,275.1,92.4,268.2,88.8,261.3L88.8,261.3z"/>
<linearGradient id="SVGID_00000022521745373104279730000016414315291822561409_" gradientUnits="userSpaceOnUse" x1="258.0735" y1="431.695" x2="296.9583" y2="431.695">
	<stop  offset="0" style="stop-color:#6AA2BC"/>
	<stop  offset="1" style="stop-color:#38668D"/>
</linearGradient>
<path style="fill:url(#SVGID_00000022521745373104279730000016414315291822561409_);" d="M292.8,440.9c-7.2-2.4-14.6-5.1-22-8.3
	c-0.3-0.1-0.7-0.3-1.1-0.3c6.2-3.2,12.3-6.7,18.4-10.4c2.8-1.7,3.7-5.4,1.9-8.3c-1.7-2.8-5.4-3.7-8.2-2c-6.8,4.1-13.7,8-20.6,11.5
	c-2.9,1.5-4.1,5.1-2.6,8.1c1,1.9,2.9,3.1,5,3.2c-2,2.6-1.6,6.4,1,8.4c0.4,0.3,0.9,0.6,1.4,0.8c7.7,3.3,15.4,6.2,22.9,8.6
	c3.1,1.1,6.5-0.6,7.6-3.8c1.1-3.1-0.6-6.5-3.8-7.6C292.8,440.9,292.8,440.9,292.8,440.9L292.8,440.9z"/>
<linearGradient id="SVGID_00000150087613517231997550000000980646868969633975_" gradientUnits="userSpaceOnUse" x1="410.5476" y1="271.6287" x2="448.8098" y2="271.6287">
	<stop  offset="0" style="stop-color:#6AA2BC"/>
	<stop  offset="1" style="stop-color:#38668D"/>
</linearGradient>
<path style="fill:url(#SVGID_00000150087613517231997550000000980646868969633975_);" d="M438.9,255.4c-1.4-3-5-4.3-8-2.8
	c-2.3,1.1-3.6,3.4-3.4,5.9c-1.9,0.3-3.6,1.5-4.4,3.2c-3.5,6.9-7.4,13.8-11.6,20.5c-1.7,2.8-0.9,6.5,1.9,8.3c2.8,1.7,6.5,0.9,8.3-1.9
	c0,0,0,0,0-0.1c3.7-6.1,7.3-12.3,10.5-18.5c1.8,4.1,3.4,8.2,5,12.3c1.1,3.1,4.6,4.7,7.7,3.6c3.1-1.1,4.7-4.6,3.6-7.7
	c0,0,0-0.1,0-0.1C445.6,270.5,442.4,262.9,438.9,255.4L438.9,255.4z"/>
<linearGradient id="SVGID_00000071544546791532967520000005589889979812293530_" gradientUnits="userSpaceOnUse" x1="48.8163" y1="140.1012" x2="64.0851" y2="140.1012">
	<stop  offset="0" style="stop-color:#6AA2BC"/>
	<stop  offset="1" style="stop-color:#38668D"/>
</linearGradient>
<path style="fill:url(#SVGID_00000071544546791532967520000005589889979812293530_);" d="M54.5,158c0.1,0,0.2,0,0.3,0
	c3.2,0,5.8-2.5,6-5.7c0.3-7.6,1.4-15.2,3.1-22.6c0.8-3.2-1.2-6.5-4.4-7.2c-3.2-0.8-6.5,1.2-7.2,4.4c-1.9,8.2-3.1,16.5-3.4,24.9
	C48.7,155,51.2,157.8,54.5,158z"/>
<linearGradient id="SVGID_00000135674268119618047630000017268086709098929546_" gradientUnits="userSpaceOnUse" x1="59.7751" y1="96.6517" x2="85.0582" y2="96.6517">
	<stop  offset="0" style="stop-color:#6AA2BC"/>
	<stop  offset="1" style="stop-color:#38668D"/>
</linearGradient>
<path style="fill:url(#SVGID_00000135674268119618047630000017268086709098929546_);" d="M63.1,112c3,1.5,6.6,0.2,8-2.7c0,0,0,0,0,0
	c3.3-6.7,7.4-13,12.4-18.6c2.2-2.5,2-6.3-0.5-8.5c-2.5-2.2-6.3-2-8.5,0.5c0,0,0,0,0,0c-5.6,6.4-10.4,13.6-14.2,21.2
	C58.9,106.9,60.2,110.5,63.1,112C63.1,112,63.1,112,63.1,112z"/>
<linearGradient id="SVGID_00000012465007637694846770000003284444918600806784_" gradientUnits="userSpaceOnUse" x1="90.349" y1="66.391" x2="123.7839" y2="66.391">
	<stop  offset="0" style="stop-color:#6AA2BC"/>
	<stop  offset="1" style="stop-color:#38668D"/>
</linearGradient>
<path style="fill:url(#SVGID_00000012465007637694846770000003284444918600806784_);" d="M96.4,77.7c1.2,0,2.3-0.3,3.3-1
	c6.3-4.1,13-7.4,20.1-9.9c3.1-1.1,4.7-4.5,3.6-7.7c-1.1-3.1-4.5-4.7-7.6-3.7c-8.1,2.8-15.7,6.5-22.8,11.2c-2.8,1.8-3.5,5.6-1.7,8.3
	C92.5,76.6,94.3,77.7,96.4,77.7L96.4,77.7z"/>
<linearGradient id="SVGID_00000115502784276511668600000006581354261606623933_" gradientUnits="userSpaceOnUse" x1="214.7771" y1="431.6289" x2="253.6209" y2="431.6289">
	<stop  offset="0" style="stop-color:#6AA2BC"/>
	<stop  offset="1" style="stop-color:#38668D"/>
</linearGradient>
<path style="fill:url(#SVGID_00000115502784276511668600000006581354261606623933_);" d="M250.4,423c-6.9-3.5-13.8-7.4-20.5-11.6
	c-2.8-1.7-6.5-0.9-8.3,1.9s-0.9,6.5,1.9,8.3c0,0,0,0,0.1,0c6.2,3.8,12.5,7.3,18.8,10.7c-0.5,0.1-1,0.2-1.5,0.4
	c-7.3,3.1-14.7,5.9-22,8.2c-3.2,1-4.9,4.4-3.9,7.5c1,3.2,4.4,4.9,7.5,3.9c0,0,0,0,0,0c7.6-2.5,15.3-5.4,23-8.6
	c3-1.3,4.5-4.8,3.2-7.9c-0.2-0.6-0.6-1.1-1-1.6c3.3-0.1,5.9-2.9,5.8-6.2C253.6,426,252.3,424,250.4,423L250.4,423z"/>
<linearGradient id="SVGID_00000091697850779497375350000017153027173985588395_" gradientUnits="userSpaceOnUse" x1="232.5989" y1="170.1737" x2="249.0518" y2="170.1737">
	<stop  offset="0" style="stop-color:#E1C495"/>
	<stop  offset="1" style="stop-color:#EE8A66"/>
</linearGradient>
<path style="fill:url(#SVGID_00000091697850779497375350000017153027173985588395_);" d="M238.6,176.6c0.4,0,0.8,0,1.2-0.1
	c1.4-0.3,2.7-0.5,4.1-0.7c3.3-0.5,5.5-3.5,5.1-6.8c-0.5-3.3-3.5-5.5-6.8-5.1c0,0,0,0,0,0c-1.6,0.2-3.2,0.5-4.7,0.8
	c-3.2,0.7-5.3,3.8-4.7,7.1C233.3,174.6,235.7,176.6,238.6,176.6L238.6,176.6z"/>
<linearGradient id="SVGID_00000050649897896145676020000016870746482030351759_" gradientUnits="userSpaceOnUse" x1="162.827" y1="215.8736" x2="227.8957" y2="215.8736">
	<stop  offset="0" style="stop-color:#E1C495"/>
	<stop  offset="1" style="stop-color:#EE8A66"/>
</linearGradient>
<path style="fill:url(#SVGID_00000050649897896145676020000016870746482030351759_);" d="M227.4,173.4c-1.3-3-4.8-4.5-7.9-3.2
	c0,0,0,0,0,0c-34.4,14.6-56.8,48.4-56.7,85.8c0,3.3,2.7,6,6,6s6-2.7,6-6c0-32.6,19.4-62,49.4-74.7
	C227.3,180,228.7,176.5,227.4,173.4C227.4,173.4,227.4,173.4,227.4,173.4L227.4,173.4z"/>
<g>
	
		<linearGradient id="SVGID_00000005975778259005908380000015264547046278841728_" gradientUnits="userSpaceOnUse" x1="214.9997" y1="259.7991" x2="297.011" y2="259.7991">
		<stop  offset="0" style="stop-color:#E1C495"/>
		<stop  offset="1" style="stop-color:#EE8A66"/>
	</linearGradient>
	<path style="fill:url(#SVGID_00000005975778259005908380000015264547046278841728_);" d="M291,242h-19.9l12-42.8
		c0.5-1.9,0.1-3.9-1-5.6c-1.1-1.6-2.9-2.6-4.8-2.7h-35.9c-2.7,0.1-5.1,2-5.8,4.6L215.2,270c-0.5,1.9-0.1,3.9,1,5.4
		c1.1,1.5,2.9,2.5,4.8,2.6h16.5l-2.6,44.3c-0.2,3.2,2.3,6,5.5,6.2c0.2,0,0.3,0,0.5,0c2,0,3.9-1,5-2.7l50.2-74.8
		c1.8-2.6,1.2-6.2-1.5-8.1C293.5,242.3,292.2,242,291,242L291,242z M248.1,301.1l1.7-28.9c0.1-1.6-0.5-3.2-1.6-4.4
		c-1.1-1.2-2.7-1.8-4.4-1.8h-14.9l17.2-63h23.4l-12,42.8c-0.5,1.9-0.1,3.9,1,5.5c1.1,1.6,2.9,2.6,4.8,2.7h16.6L248.1,301.1z"/>
	
		<linearGradient id="SVGID_00000177447008804059201840000001113553984907279260_" gradientUnits="userSpaceOnUse" x1="133.63" y1="256" x2="378.37" y2="256">
		<stop  offset="0" style="stop-color:#E1C495"/>
		<stop  offset="1" style="stop-color:#EE8A66"/>
	</linearGradient>
	<path style="fill:url(#SVGID_00000177447008804059201840000001113553984907279260_);" d="M378.4,256c0-67.6-54.8-122.4-122.4-122.4
		S133.6,188.4,133.6,256S188.4,378.4,256,378.4h0C323.6,378.3,378.3,323.6,378.4,256z M256,366.4c-61,0-110.4-49.4-110.4-110.4
		S195,145.6,256,145.6S366.4,195,366.4,256l0,0C366.3,316.9,316.9,366.3,256,366.4z"/>
</g>
</svg>
