<?xml version="1.0" encoding="utf-8"?>
<!-- Generator: Adobe Illustrator 28.2.0, SVG Export Plug-In . SVG Version: 6.00 Build 0)  -->
<svg version="1.1" id="Layer_1" xmlns="http://www.w3.org/2000/svg" xmlns:xlink="http://www.w3.org/1999/xlink" x="0px" y="0px"
	 viewBox="0 0 512 512" style="enable-background:new 0 0 512 512;" xml:space="preserve">
<style type="text/css">
	.st0{fill:url(#SVGID_1_);}
	.st1{fill:url(#SVGID_00000023275480958553727500000010145454270065573038_);}
	.st2{fill:url(#SVGID_00000020367199582903583330000017157885998003207582_);}
	.st3{fill:url(#SVGID_00000166662542079872206830000006646511989533590688_);}
	.st4{fill:url(#SVGID_00000119822816367074094110000012548399014466939548_);}
	.st5{fill:url(#SVGID_00000127745183621228124830000015109570347271204520_);}
	.st6{fill:url(#SVGID_00000069372617273262296490000013723264954640564131_);}
	.st7{fill:url(#SVGID_00000007389514386911812470000014427341142582541236_);}
	.st8{fill:url(#SVGID_00000002365318017124153130000005718514806966476457_);}
	.st9{fill:url(#SVGID_00000075163813912513801710000006970361860108988344_);}
	.st10{fill:url(#SVGID_00000087372710069536710830000015606050446199699592_);}
	.st11{fill:url(#SVGID_00000106122945132679049820000006717763648581664166_);}
	.st12{fill:url(#SVGID_00000160153441472083829880000016446732930891435677_);}
	.st13{fill:url(#SVGID_00000093147311665654606180000004922774718864769693_);}
	.st14{fill:url(#SVGID_00000000929882042161473090000014484341238312318853_);}
	.st15{fill:url(#SVGID_00000070810115024562943160000010835990811724996794_);}
	.st16{fill:url(#SVGID_00000085966317815533902050000012843221844380131771_);}
	.st17{fill:url(#SVGID_00000013878023984062483350000008693767810736697746_);}
	.st18{fill:url(#SVGID_00000172426910532023132060000011689158901677254533_);}
	.st19{fill:url(#SVGID_00000133495066527489443240000004424983759653420696_);}
	.st20{fill:url(#SVGID_00000042004448843603264710000006565748483071196079_);}
</style>
<linearGradient id="SVGID_1_" gradientUnits="userSpaceOnUse" x1="73.9461" y1="209.9999" x2="483.582" y2="209.9999">
	<stop  offset="0" style="stop-color:#E1C495"/>
	<stop  offset="1" style="stop-color:#EE8A66"/>
</linearGradient>
<path class="st0" d="M361.4,257.8c77-58.7,122.2-150,122.2-246.8c0-3.3-2.7-6-6-6C408.5,5,341.4,28.1,287,70.5
	c-21,16.4-39.9,35.3-56.1,56.5c-11.7,7.2-26.9,5.4-36.7-4.3c-16.3-16.3-42.7-16.3-59,0l-59.4,58.6c-2.4,2.3-2.4,6.1-0.1,8.5
	c0,0,0,0,0.1,0.1l34.4,34c17.8,17.5,44.6,21.9,67.1,11.1c0,0.1,0,0.1-0.1,0.2c-0.6,2.1,0,4.3,1.6,5.8l17.3,17.3l-42.3,9
	c-3.2,0.7-5.3,3.9-4.6,7.1c0.2,1.1,0.8,2.2,1.6,3l21.3,21.3c-4.8-2.9-10-5-15.5-6.2c-1.7-0.4-3.5-0.7-5.2-0.9
	c-2.1-0.3-4.2-0.4-6.3-0.4c-14.2-0.1-27.8,5.5-37.8,15.5c-10.3,10.2-16.1,24-16.1,38.5c0,3.3,2.6,5.9,5.8,6l4.5,0.1
	c-8.8,12.1-12.4,27.2-10.3,42c0.6,2.8,3,4.8,5.9,4.8h16.4c3.3,0,6-2.7,6-6s-2.7-6-6-6h-10.9c-0.2-8,1.6-23.2,16.1-36
	c2.5-2.2,2.7-6,0.5-8.5c-1.1-1.3-2.7-2-4.3-2l-11.4-0.3c1.3-9.2,5.6-17.7,12.2-24.2c7.7-7.7,18.1-12.1,29-12.1h0.3
	c1,0,1.9,0.1,2.9,0.1c-7.4,4.4-12.4,12-13.4,20.5l-3.4,27.8c-0.4,3.3,1.9,6.3,5.2,6.7c0.2,0,0.5,0,0.7,0c0.2,0,0.5,0,0.7,0l27.8-3.4
	c8.6-1.1,16.2-6,20.5-13.5c0.1,1.1,0.1,2.2,0.1,3.3c0,11-4.3,21.6-12.2,29.4c-2.4,2.3-2.4,6.1-0.1,8.5c2.3,2.4,6.1,2.4,8.5,0.1
	c0,0,0.1-0.1,0.1-0.1c11.7-11.7,17.3-28.1,15.3-44.5c-0.2-1.7-0.5-3.4-0.9-5.1c-1.2-5.5-3.4-10.9-6.3-15.7l20.8,20.8
	c2.3,2.3,6.1,2.3,8.5,0c0.8-0.8,1.3-1.7,1.6-2.8l10.2-41.3l15.6,15.6c1.5,1.5,3.7,2.1,5.8,1.6c0.4-0.1,0.7-0.2,1.1-0.3
	c-11.2,22.6-6.9,49.8,10.7,67.8l34,34.6c1.1,1.2,2.6,1.9,4.3,2c1.6-0.1,3.2-0.8,4.3-2l58.5-59.5c16.3-16.3,16.3-42.8,0-59.1
	C356.1,284.6,354.3,269.6,361.4,257.8L361.4,257.8z M471.5,17.1c-0.4,18.2-2.4,36.4-6.1,54.3c-20.3-11.2-37-27.9-48.4-48.2
	C435,19.5,453.2,17.4,471.5,17.1z M118.5,215.2l-30.1-29.7l55.1-54.3c11.6-11.6,30.5-11.6,42.1,0c8.8,8.8,21.1,13.2,33.5,12
	c-15.4,22.8-27.7,47.6-36.6,73.7C164.1,233.3,136.1,232.5,118.5,215.2L118.5,215.2z M177.1,331.4c-1.7,6.1-7,10.6-13.3,11.4
	l-20.2,2.5l2.5-20.2c0.8-6.5,5.5-11.8,11.8-13.4c8.5-2.2,17.1,3,19.3,11.4C177.9,325.9,177.9,328.7,177.1,331.4L177.1,331.4z
	 M212.3,321.9l-45.3-45.3l39.2-8.3l15.6,15.6L212.3,321.9z M253.2,298.4l-63.6-63.6c1.1-3.8,2.2-7.5,3.4-11.2c0,0,0.1-0.1,0.1-0.1
	l-0.1-0.1c29.3-88.7,98-158.7,186.1-189.8c8.5-3,17.1-5.6,25.8-7.7c13,24.6,33.1,44.7,57.7,57.5C437,185.9,358.1,269.4,253.2,298.4
	L253.2,298.4z M357.2,344.9L303,400L273.3,370c-17.6-17.9-18-46.4-1-64.8c25.8-8.7,50.4-20.7,73-35.8c-1.2,12.4,3.2,24.6,12,33.5
	C368.9,314.5,368.9,333.3,357.2,344.9L357.2,344.9z"/>
<linearGradient id="SVGID_00000133494477085550816430000006189439716543950227_" gradientUnits="userSpaceOnUse" x1="129.048" y1="391.3558" x2="161.6039" y2="391.3558">
	<stop  offset="0" style="stop-color:#E1C495"/>
	<stop  offset="1" style="stop-color:#EE8A66"/>
</linearGradient>
<path style="fill:url(#SVGID_00000133494477085550816430000006189439716543950227_);" d="M154.2,384.9c-3.2,0.8-6.4,1.1-9.7,1.1H135
	c-3.3,0-6,2.7-6,6s2.7,6,6,6h9.5c4.2,0,8.4-0.5,12.5-1.5c3.2-0.8,5.2-4,4.4-7.2C160.7,386.1,157.4,384.1,154.2,384.9L154.2,384.9z"
	/>
<linearGradient id="SVGID_00000087371652977928521200000002877017943250134181_" gradientUnits="userSpaceOnUse" x1="389.6519" y1="249.4908" x2="414.0589" y2="249.4908">
	<stop  offset="0" style="stop-color:#6AA2BC"/>
	<stop  offset="1" style="stop-color:#38668D"/>
</linearGradient>
<path style="fill:url(#SVGID_00000087371652977928521200000002877017943250134181_);" d="M395.7,260.9c1.4,0,2.7-0.5,3.8-1.4
	c4.3-3.5,8.5-7.2,12.6-11c2.5-2.2,2.6-6,0.4-8.5s-6-2.6-8.5-0.4c0,0-0.1,0.1-0.1,0.1c-3.9,3.6-8,7.2-12.1,10.6
	c-2.6,2.1-2.9,5.9-0.8,8.4C392.2,260.1,393.9,260.9,395.7,260.9L395.7,260.9z"/>
<linearGradient id="SVGID_00000067212960696614763800000014833736589786762376_" gradientUnits="userSpaceOnUse" x1="420.9452" y1="166.8287" x2="499.0154" y2="166.8287">
	<stop  offset="0" style="stop-color:#6AA2BC"/>
	<stop  offset="1" style="stop-color:#38668D"/>
</linearGradient>
<path style="fill:url(#SVGID_00000067212960696614763800000014833736589786762376_);" d="M494.8,102.9c-3.2-1-6.5,0.8-7.5,4
	c0,0,0,0,0,0c-5.1,16.7-11.6,32.9-19.5,48.5c-2.9,5.7-6,11.3-9.2,16.8c-4,6.7-8.3,13.4-12.8,19.8c-7.2,10.2-14.9,19.9-23.3,29.1
	c-2.2,2.5-2,6.2,0.4,8.5c2.5,2.2,6.2,2,8.5-0.4c8.7-9.6,16.8-19.7,24.2-30.2c4.7-6.7,9.2-13.6,13.3-20.6c3.4-5.7,6.6-11.6,9.6-17.5
	c8.2-16.2,15-33.1,20.2-50.4C499.7,107.2,497.9,103.8,494.8,102.9L494.8,102.9z"/>
<linearGradient id="SVGID_00000127011144866570772120000011794156316865761408_" gradientUnits="userSpaceOnUse" x1="14.9873" y1="242.2415" x2="31.5285" y2="242.2415">
	<stop  offset="0" style="stop-color:#6AA2BC"/>
	<stop  offset="1" style="stop-color:#38668D"/>
</linearGradient>
<path style="fill:url(#SVGID_00000127011144866570772120000011794156316865761408_);" d="M21,250.5c1.6,0,3.1-0.6,4.2-1.8l4.6-4.6
	c2.3-2.4,2.3-6.2-0.1-8.5c-2.3-2.3-6-2.3-8.4,0l-4.6,4.6c-2.3,2.3-2.3,6.1,0,8.5C17.9,249.9,19.4,250.5,21,250.5L21,250.5z"/>
<linearGradient id="SVGID_00000141452148496027737630000013985610757772292763_" gradientUnits="userSpaceOnUse" x1="32.5853" y1="216.6333" x2="65.1507" y2="216.6333">
	<stop  offset="0" style="stop-color:#6AA2BC"/>
	<stop  offset="1" style="stop-color:#38668D"/>
</linearGradient>
<path style="fill:url(#SVGID_00000141452148496027737630000013985610757772292763_);" d="M42.9,231.1l20.5-20.5
	c2.3-2.3,2.3-6.1,0-8.5c-2.3-2.3-6.1-2.3-8.5,0l-20.5,20.5c-2.4,2.3-2.4,6.1-0.1,8.5C36.6,233.5,40.4,233.5,42.9,231.1
	C42.8,231.2,42.8,231.1,42.9,231.1z"/>
<linearGradient id="SVGID_00000072990440208582547900000001741823680433739698_" gradientUnits="userSpaceOnUse" x1="24.0287" y1="254.8703" x2="60.1622" y2="254.8703">
	<stop  offset="0" style="stop-color:#6AA2BC"/>
	<stop  offset="1" style="stop-color:#38668D"/>
</linearGradient>
<path style="fill:url(#SVGID_00000072990440208582547900000001741823680433739698_);" d="M25.8,271.2c2.3,2.3,6.1,2.3,8.5,0
	L58.4,247c2.3-2.3,2.3-6.1,0-8.5c-2.3-2.3-6.1-2.3-8.5,0l0,0l-24.1,24.1C23.4,265,23.4,268.8,25.8,271.2
	C25.8,271.2,25.8,271.2,25.8,271.2z"/>
<linearGradient id="SVGID_00000125572622712979264370000017002664205769019272_" gradientUnits="userSpaceOnUse" x1="59.9623" y1="226.5221" x2="80.9177" y2="226.5221">
	<stop  offset="0" style="stop-color:#6AA2BC"/>
	<stop  offset="1" style="stop-color:#38668D"/>
</linearGradient>
<path style="fill:url(#SVGID_00000125572622712979264370000017002664205769019272_);" d="M66,237c1.6,0,3.1-0.6,4.2-1.8l8.9-8.9
	c2.4-2.3,2.4-6.1,0.1-8.5c-2.3-2.4-6.1-2.4-8.5-0.1c0,0,0,0-0.1,0.1l-8.9,8.9c-2.3,2.3-2.3,6.1,0,8.5C62.8,236.4,64.4,237,66,237z"
	/>
<linearGradient id="SVGID_00000056415086032021338860000010146577125938311847_" gradientUnits="userSpaceOnUse" x1="13.0175" y1="296.0835" x2="51.6755" y2="296.0835">
	<stop  offset="0" style="stop-color:#6AA2BC"/>
	<stop  offset="1" style="stop-color:#38668D"/>
</linearGradient>
<path style="fill:url(#SVGID_00000056415086032021338860000010146577125938311847_);" d="M41.4,278.5l-26.7,26.7
	c-2.3,2.4-2.3,6.2,0.1,8.5c2.3,2.3,6.1,2.3,8.4,0L49.9,287c2.4-2.3,2.4-6.1,0.1-8.5C47.6,276.2,43.8,276.2,41.4,278.5
	C41.4,278.5,41.4,278.5,41.4,278.5L41.4,278.5z"/>
<linearGradient id="SVGID_00000044157214296337615430000010606528175097014171_" gradientUnits="userSpaceOnUse" x1="53.3483" y1="253.447" x2="96.6112" y2="253.447">
	<stop  offset="0" style="stop-color:#6AA2BC"/>
	<stop  offset="1" style="stop-color:#38668D"/>
</linearGradient>
<path style="fill:url(#SVGID_00000044157214296337615430000010606528175097014171_);" d="M94.9,233.6c-2.3-2.3-6.1-2.3-8.5,0
	l-31.2,31.2c-2.4,2.3-2.4,6.1-0.1,8.5c2.3,2.4,6.1,2.4,8.5,0.1c0,0,0,0,0.1-0.1l31.2-31.2C97.2,239.7,97.2,235.9,94.9,233.6
	L94.9,233.6z"/>
<linearGradient id="SVGID_00000149377891990294603960000012307853565959479979_" gradientUnits="userSpaceOnUse" x1="206.5428" y1="433.7801" x2="223.1025" y2="433.7801">
	<stop  offset="0" style="stop-color:#6AA2BC"/>
	<stop  offset="1" style="stop-color:#38668D"/>
</linearGradient>
<path style="fill:url(#SVGID_00000149377891990294603960000012307853565959479979_);" d="M212.9,427.2l-4.6,4.6
	c-2.3,2.3-2.3,6.1,0,8.5c2.3,2.3,6.1,2.3,8.5,0l0,0l4.6-4.6c2.3-2.4,2.3-6.2-0.1-8.5C219,424.9,215.2,424.9,212.9,427.2L212.9,427.2
	z"/>
<linearGradient id="SVGID_00000057861500593763274270000002994387033596276410_" gradientUnits="userSpaceOnUse" x1="224.115" y1="408.2265" x2="256.645" y2="408.2265">
	<stop  offset="0" style="stop-color:#6AA2BC"/>
	<stop  offset="1" style="stop-color:#38668D"/>
</linearGradient>
<path style="fill:url(#SVGID_00000057861500593763274270000002994387033596276410_);" d="M246.5,393.7l-20.5,20.5
	c-2.4,2.3-2.4,6.1-0.1,8.5c2.3,2.4,6.1,2.4,8.5,0.1c0,0,0.1-0.1,0.1-0.1l20.5-20.5c2.3-2.4,2.3-6.2-0.1-8.5
	C252.5,391.4,248.8,391.4,246.5,393.7z"/>
<linearGradient id="SVGID_00000049933937547371376650000010540777125467138458_" gradientUnits="userSpaceOnUse" x1="215.5818" y1="446.3944" x2="251.773" y2="446.3944">
	<stop  offset="0" style="stop-color:#6AA2BC"/>
	<stop  offset="1" style="stop-color:#38668D"/>
</linearGradient>
<path style="fill:url(#SVGID_00000049933937547371376650000010540777125467138458_);" d="M217.3,462.7c2.3,2.3,6.1,2.3,8.5,0
	l24.1-24.1c2.4-2.3,2.4-6.1,0.1-8.5c-2.3-2.4-6.1-2.4-8.5-0.1c0,0-0.1,0.1-0.1,0.1l-24.1,24.1C215,456.6,215,460.4,217.3,462.7
	L217.3,462.7z"/>
<linearGradient id="SVGID_00000082367913680042658990000007479573122923966357_" gradientUnits="userSpaceOnUse" x1="251.5133" y1="418.0963" x2="272.435" y2="418.0963">
	<stop  offset="0" style="stop-color:#6AA2BC"/>
	<stop  offset="1" style="stop-color:#38668D"/>
</linearGradient>
<path style="fill:url(#SVGID_00000082367913680042658990000007479573122923966357_);" d="M253.3,426.8c2.3,2.3,6.1,2.3,8.5,0
	c0,0,0,0,0,0l8.9-8.9c2.3-2.3,2.3-6.1,0-8.5s-6.1-2.3-8.5,0l-8.9,8.9C250.9,420.7,250.9,424.5,253.3,426.8
	C253.3,426.8,253.3,426.8,253.3,426.8L253.3,426.8z"/>
<linearGradient id="SVGID_00000062178850510204730080000016897312419448275619_" gradientUnits="userSpaceOnUse" x1="204.5" y1="487.6713" x2="243.2285" y2="487.6713">
	<stop  offset="0" style="stop-color:#6AA2BC"/>
	<stop  offset="1" style="stop-color:#38668D"/>
</linearGradient>
<path style="fill:url(#SVGID_00000062178850510204730080000016897312419448275619_);" d="M233,470.1l-26.7,26.7
	c-2.4,2.3-2.4,6.1-0.1,8.5c2.3,2.4,6.1,2.4,8.5,0.1c0,0,0,0,0.1-0.1l26.7-26.7c2.4-2.3,2.4-6.1,0.1-8.5
	C239.2,467.7,235.4,467.7,233,470.1C233,470.1,233,470.1,233,470.1L233,470.1z"/>
<linearGradient id="SVGID_00000093172693944596161670000002142328766964516027_" gradientUnits="userSpaceOnUse" x1="244.9005" y1="444.984" x2="288.2015" y2="444.984">
	<stop  offset="0" style="stop-color:#6AA2BC"/>
	<stop  offset="1" style="stop-color:#38668D"/>
</linearGradient>
<path style="fill:url(#SVGID_00000093172693944596161670000002142328766964516027_);" d="M277.9,425.1l-31.2,31.2
	c-2.4,2.3-2.4,6.1-0.1,8.5c2.3,2.4,6.1,2.4,8.5,0.1c0,0,0,0,0.1-0.1l31.2-31.2c2.4-2.3,2.4-6.1,0.1-8.5S280.4,422.7,277.9,425.1
	C278,425.1,277.9,425.1,277.9,425.1z"/>
<linearGradient id="SVGID_00000065778811184441325700000002681809036041963155_" gradientUnits="userSpaceOnUse" x1="390.074" y1="358" x2="451.926" y2="358">
	<stop  offset="0" style="stop-color:#6AA2BC"/>
	<stop  offset="1" style="stop-color:#38668D"/>
</linearGradient>
<path style="fill:url(#SVGID_00000065778811184441325700000002681809036041963155_);" d="M447.8,352.3c-10-3.4-17.8-11.2-21.1-21.2
	c-1-3.1-4.4-4.8-7.6-3.8c-1.8,0.6-3.2,2-3.8,3.8c-3.3,10-11.2,17.8-21.1,21.2c-3.1,1.1-4.8,4.5-3.8,7.6c0.6,1.8,2,3.2,3.8,3.8
	c10,3.4,17.8,11.2,21.1,21.2c1,3.1,4.4,4.8,7.6,3.8c1.8-0.6,3.2-2,3.8-3.8c3.3-10,11.2-17.8,21.1-21.2c3.1-1.1,4.8-4.5,3.8-7.6
	C451,354.3,449.6,352.9,447.8,352.3z M421,369.7c-3.2-4.6-7.1-8.5-11.7-11.7c4.6-3.2,8.5-7.1,11.7-11.7c3.2,4.6,7.1,8.5,11.7,11.7
	C428.1,361.2,424.2,365.1,421,369.7z"/>
<linearGradient id="SVGID_00000043429570516435770430000004144492381707346597_" gradientUnits="userSpaceOnUse" x1="18.074" y1="117" x2="79.926" y2="117">
	<stop  offset="0" style="stop-color:#6AA2BC"/>
	<stop  offset="1" style="stop-color:#38668D"/>
</linearGradient>
<path style="fill:url(#SVGID_00000043429570516435770430000004144492381707346597_);" d="M22.2,122.7c10,3.4,17.8,11.2,21.1,21.2
	c1,3.1,4.4,4.8,7.6,3.8c1.8-0.6,3.2-2,3.8-3.8c3.3-10,11.2-17.8,21.1-21.2c3.1-1.1,4.8-4.5,3.8-7.6c-0.6-1.8-2-3.2-3.8-3.8
	c-10-3.4-17.8-11.2-21.1-21.2c-1-3.1-4.4-4.8-7.6-3.8c-1.8,0.6-3.2,2-3.8,3.8c-3.3,10-11.2,17.8-21.1,21.2c-3.1,1.1-4.8,4.5-3.8,7.6
	C19,120.7,20.4,122.1,22.2,122.7z M49,105.3c3.2,4.6,7.1,8.5,11.7,11.7c-4.6,3.2-8.5,7.1-11.7,11.7c-3.2-4.6-7.1-8.5-11.7-11.7
	C41.9,113.8,45.8,109.9,49,105.3z"/>
<linearGradient id="SVGID_00000109717055576711421300000013162498265814916992_" gradientUnits="userSpaceOnUse" x1="116.053" y1="54" x2="138.023" y2="54">
	<stop  offset="0" style="stop-color:#6AA2BC"/>
	<stop  offset="1" style="stop-color:#38668D"/>
</linearGradient>
<ellipse style="fill:url(#SVGID_00000109717055576711421300000013162498265814916992_);" cx="127" cy="54" rx="11" ry="11"/>
<linearGradient id="SVGID_00000093157656430728487070000009610302936674203824_" gradientUnits="userSpaceOnUse" x1="391.053" y1="445" x2="413.023" y2="445">
	<stop  offset="0" style="stop-color:#6AA2BC"/>
	<stop  offset="1" style="stop-color:#38668D"/>
</linearGradient>
<ellipse style="fill:url(#SVGID_00000093157656430728487070000009610302936674203824_);" cx="402" cy="445" rx="11" ry="11"/>
<linearGradient id="SVGID_00000054235611504731173980000001299339858593228709_" gradientUnits="userSpaceOnUse" x1="292.9086" y1="151.828" x2="380.6144" y2="151.828">
	<stop  offset="0" style="stop-color:#6AA2BC"/>
	<stop  offset="1" style="stop-color:#38668D"/>
</linearGradient>
<path style="fill:url(#SVGID_00000054235611504731173980000001299339858593228709_);" d="M336.7,108c-24.2,0-43.8,19.7-43.8,43.9
	s19.7,43.8,43.9,43.8c11.6,0,22.8-4.6,31-12.8c17.1-17.1,17.1-44.9,0-62C359.5,112.6,348.4,108,336.7,108L336.7,108z M359.3,174.4
	c-12.4,12.4-32.6,12.4-45.1,0c-12.4-12.4-12.4-32.6,0-45.1s32.6-12.4,45.1,0c0,0,0,0,0,0C371.7,141.8,371.7,161.9,359.3,174.4z"/>
</svg>
