<?xml version="1.0" encoding="utf-8"?>
<!-- Generator: Adobe Illustrator 28.2.0, SVG Export Plug-In . SVG Version: 6.00 Build 0)  -->
<svg version="1.1" id="Capa_1" xmlns="http://www.w3.org/2000/svg" xmlns:xlink="http://www.w3.org/1999/xlink" x="0px" y="0px"
	 viewBox="0 0 440 440" style="enable-background:new 0 0 440 440;" xml:space="preserve">
<style type="text/css">
	.st0{fill:url(#SVGID_1_);}
	.st1{fill:url(#SVGID_00000130646367887872079870000012432557929778280125_);}
	.st2{fill:url(#SVGID_00000113336828376483769290000017832989920785467535_);}
	.st3{fill:url(#SVGID_00000071525013961996101130000010857221263095092395_);}
	.st4{fill:url(#SVGID_00000032621521359619255780000012518286627877282494_);}
	.st5{fill:url(#SVGID_00000021826566689229072230000013518601241309918125_);}
	.st6{fill:url(#SVGID_00000062181232880456376710000010882076544057771392_);}
</style>
<linearGradient id="SVGID_1_" gradientUnits="userSpaceOnUse" x1="-460.0343" y1="39.2578" x2="-458.1173" y2="37.3438" gradientTransform="matrix(8 0 0 8 3829 -278)">
	<stop  offset="0" style="stop-color:#FF5F6D"/>
	<stop  offset="1" style="stop-color:#FFC371"/>
</linearGradient>
<path class="st0" d="M157.6,44.8c2.4,4,7.2,4.8,11.2,2.4s4.8-7.2,2.4-11.2l-16-24c-2.4-4-7.2-4.8-11.2-2.4s-4.8,7.2-2.4,11.2
	L157.6,44.8z"/>
<linearGradient id="SVGID_00000168832704015753994120000013639755270906279598_" gradientUnits="userSpaceOnUse" x1="-452.5812" y1="38.7078" x2="-449.6672" y2="35.7907" gradientTransform="matrix(8 0 0 8 3829 -278)">
	<stop  offset="0" style="stop-color:#FF5F6D"/>
	<stop  offset="1" style="stop-color:#FFC371"/>
</linearGradient>
<path style="fill:url(#SVGID_00000168832704015753994120000013639755270906279598_);" d="M220,40c4.8,0,8-3.2,8-8V8c0-4.8-3.2-8-8-8
	s-8,3.2-8,8v24C212,36.8,215.2,40,220,40z"/>
<linearGradient id="SVGID_00000168839929992864574290000013944427982694071462_" gradientUnits="userSpaceOnUse" x1="-445.0955" y1="40.1964" x2="-441.1775" y2="36.2824" gradientTransform="matrix(8 0 0 8 3829 -278)">
	<stop  offset="0" style="stop-color:#FF5F6D"/>
	<stop  offset="1" style="stop-color:#FFC371"/>
</linearGradient>
<path style="fill:url(#SVGID_00000168839929992864574290000013944427982694071462_);" d="M276,48c2.4,0,4.8-1.6,6.4-3.2l16-24
	c2.4-4,1.6-8.8-2.4-11.2S287.2,8,284.8,12l-16,24c-2.4,4-1.6,8.8,2.4,11.2C272.8,47.2,274.4,48,276,48z"/>
<linearGradient id="SVGID_00000160905882754194676810000001756808792182394781_" gradientUnits="userSpaceOnUse" x1="-465.3377" y1="78.6364" x2="-436.9407" y2="50.2424" gradientTransform="matrix(8 0 0 8 3829 -278)">
	<stop  offset="0" style="stop-color:#6AA2BC"/>
	<stop  offset="1" style="stop-color:#38668D"/>
</linearGradient>
<path style="fill:url(#SVGID_00000160905882754194676810000001756808792182394781_);" d="M132,320h32v72c0,22.4,17.6,40,40,40
	c0,4.8,3.2,8,8,8h16c4.8,0,8-3.2,8-8c22.4,0,40-17.6,40-40v-72h32c4.8,0,8-3.2,8-8V136c0-40-32-72-72-72h-48c-40,0-72,32-72,72v176
	C124,316.8,127.2,320,132,320z M260,392c0,13.6-10.4,24-24,24h-32c-13.6,0-24-10.4-24-24v-72h80V392z M140,136c0-31.2,24.8-56,56-56
	h48c31.2,0,56,24.8,56,56v168H140V136z"/>
<linearGradient id="SVGID_00000090284566071239813610000010960467218770465687_" gradientUnits="userSpaceOnUse" x1="-453.0742" y1="69.2198" x2="-446.1562" y2="62.3047" gradientTransform="matrix(8 0 0 8 3829 -278)">
	<stop  offset="0" style="stop-color:#FF5F6D"/>
	<stop  offset="1" style="stop-color:#FFC371"/>
</linearGradient>
<path style="fill:url(#SVGID_00000090284566071239813610000010960467218770465687_);" d="M193.6,255.2L232,268l-10.4,15.2
	c-2.4,4-1.6,8.8,2.4,11.2c4,2.4,8.8,1.6,11.2-2.4l16-24c2.4-4,1.6-8.8-2.4-11.2c-0.8,0-1.6-0.8-1.6-0.8l-36-12l31.2-31.2
	c3.2-3.2,3.2-8,0-11.2s-8-3.2-11.2,0l-40,40c-3.2,3.2-3.2,8,0,11.2C191.2,254.4,192,255.2,193.6,255.2L193.6,255.2z"/>
<linearGradient id="SVGID_00000183227615437939936890000004108177052498260371_" gradientUnits="userSpaceOnUse" x1="-452.8335" y1="80.4585" x2="-449.4165" y2="77.0415" gradientTransform="matrix(8 0 0 8 3829 -278)">
	<stop  offset="0" style="stop-color:#FF5F6D"/>
	<stop  offset="1" style="stop-color:#FFC371"/>
</linearGradient>
<path style="fill:url(#SVGID_00000183227615437939936890000004108177052498260371_);" d="M204,360h32c4.8,0,8-3.2,8-8s-3.2-8-8-8
	h-32c-4.8,0-8,3.2-8,8S199.2,360,204,360z"/>
<linearGradient id="SVGID_00000096750206337244489550000008684823428113670290_" gradientUnits="userSpaceOnUse" x1="-452.8335" y1="85.4585" x2="-449.4165" y2="82.0415" gradientTransform="matrix(8 0 0 8 3829 -278)">
	<stop  offset="0" style="stop-color:#FF5F6D"/>
	<stop  offset="1" style="stop-color:#FFC371"/>
</linearGradient>
<path style="fill:url(#SVGID_00000096750206337244489550000008684823428113670290_);" d="M204,400h32c4.8,0,8-3.2,8-8s-3.2-8-8-8
	h-32c-4.8,0-8,3.2-8,8S199.2,400,204,400z"/>
</svg>
