<?xml version="1.0" encoding="utf-8"?>
<!-- Generator: Adobe Illustrator 28.2.0, SVG Export Plug-In . SVG Version: 6.00 Build 0)  -->
<svg version="1.1" id="Warstwa_1" xmlns="http://www.w3.org/2000/svg" xmlns:xlink="http://www.w3.org/1999/xlink" x="0px" y="0px"
	 viewBox="0 0 480 480" style="enable-background:new 0 0 480 480;" xml:space="preserve">
<style type="text/css">
	.st0{fill:url(#SVGID_1_);}
	.st1{fill:url(#SVGID_00000109708830754584665180000009261237767778752640_);}
	.st2{fill:url(#SVGID_00000176744637621925088630000007654023605991542204_);}
	.st3{fill:url(#SVGID_00000141432083281281015270000015902998113938651267_);}
	.st4{fill:url(#SVGID_00000015320835234147733830000017261575275773185178_);}
	.st5{fill:url(#SVGID_00000002369962454173918560000014489906685443934646_);}
	.st6{fill:url(#SVGID_00000039130970704600289980000000949806727490650030_);}
	.st7{fill:url(#SVGID_00000031904326534744633380000012958759921260763326_);}
	.st8{fill:url(#SVGID_00000148640021372333215690000017007373417789083071_);}
	.st9{fill:url(#SVGID_00000173148746975297982670000012868638809513421475_);}
	.st10{fill:url(#SVGID_00000013153302892739041000000000433690029864540079_);}
	.st11{fill:url(#SVGID_00000119085252351417321440000006666765355899793821_);}
	.st12{fill:url(#SVGID_00000018924218762286456360000007496124769443572153_);}
	.st13{fill:url(#SVGID_00000129190292106624298440000015595813263735173268_);}
	.st14{fill:url(#SVGID_00000131356299303054986940000009469552453617858441_);}
</style>
<linearGradient id="SVGID_1_" gradientUnits="userSpaceOnUse" x1="0" y1="382" x2="192" y2="382" gradientTransform="matrix(1 0 0 -1 0 482)">
	<stop  offset="0" style="stop-color:#E1C495"/>
	<stop  offset="1" style="stop-color:#EE8A66"/>
</linearGradient>
<path class="st0" d="M8,96h16.6c3.7,29,26.5,51.8,55.4,55.4V192c0,4.4,3.6,8,8,8s8-3.6,8-8v-40.6c29-3.7,51.8-26.5,55.4-55.4H184
	c4.4,0,8-3.6,8-8s-3.6-8-8-8h-32.6C147.8,51,125,28.2,96,24.6V8c0-4.4-3.6-8-8-8s-8,3.6-8,8v16.6C51,28.2,28.2,51,24.6,80H8
	c-4.4,0-8,3.6-8,8S3.6,96,8,96z M88,40c26.5,0,48,21.5,48,48s-21.5,48-48,48s-48-21.5-48-48C40,61.5,61.5,40,88,40z"/>
<linearGradient id="SVGID_00000124124979549477245160000002289289040989393058_" gradientUnits="userSpaceOnUse" x1="255.989" y1="354.0055" x2="336" y2="354.0055" gradientTransform="matrix(1 0 0 -1 0 482)">
	<stop  offset="0" style="stop-color:#E1C495"/>
	<stop  offset="1" style="stop-color:#EE8A66"/>
</linearGradient>
<path style="fill:url(#SVGID_00000124124979549477245160000002289289040989393058_);" d="M280,150.9v9.1c0,4.4,3.6,8,8,8s8-3.6,8-8
	v-9.1c11.2-2.9,19.9-11.7,22.9-22.9h9.1c4.4,0,8-3.6,8-8s-3.6-8-8-8h-9.1c-3.9-15.1-18.1-25.2-33.6-23.9
	c-15.5,1.3-27.9,13.6-29.2,29.2C254.8,132.8,264.9,147,280,150.9z M288,104c8.8,0,16,7.2,16,16s-7.2,16-16,16s-16-7.2-16-16
	S279.2,104,288,104z"/>
<linearGradient id="SVGID_00000147189983449825694790000017324542657657090195_" gradientUnits="userSpaceOnUse" x1="64" y1="174.0039" x2="208" y2="174.0039" gradientTransform="matrix(1 0 0 -1 0 482)">
	<stop  offset="0" style="stop-color:#E1C495"/>
	<stop  offset="1" style="stop-color:#EE8A66"/>
</linearGradient>
<path style="fill:url(#SVGID_00000147189983449825694790000017324542657657090195_);" d="M200,312h-16.7
	c-3.4-20.1-19.2-35.8-39.3-39.3V256c0-4.4-3.6-8-8-8s-8,3.6-8,8v16.7c-20.1,3.4-35.8,19.2-39.3,39.3H72c-4.4,0-8,3.6-8,8s3.6,8,8,8
	h16.7c3.9,23.1,23.9,40,47.3,40s43.4-16.9,47.3-40H200c4.4,0,8-3.6,8-8S204.4,312,200,312z M136,352c-17.7,0-32-14.3-32-32
	s14.3-32,32-32s32,14.3,32,32S153.7,352,136,352z"/>
<linearGradient id="SVGID_00000124129862115653780290000005374679563100529314_" gradientUnits="userSpaceOnUse" x1="255.9881" y1="90" x2="336" y2="90" gradientTransform="matrix(1 0 0 -1 0 482)">
	<stop  offset="0" style="stop-color:#E1C495"/>
	<stop  offset="1" style="stop-color:#EE8A66"/>
</linearGradient>
<path style="fill:url(#SVGID_00000124129862115653780290000005374679563100529314_);" d="M328,384h-9.1
	c-2.9-11.3-11.8-20.1-23.1-22.9c0.1-0.4,0.2-0.7,0.2-1.1v-16c0-4.4-3.6-8-8-8s-8,3.6-8,8v16c0,0.4,0.1,0.7,0.2,1.1
	c-14.2,3.5-24.2,16.2-24.2,30.8s9.8,27.4,24,31V440c0,4.4,3.6,8,8,8s8-3.6,8-8v-17.1c11.2-2.9,19.9-11.7,22.9-22.9h9.1
	c4.4,0,8-3.6,8-8S332.4,384,328,384z M288,408c-8.8,0-16-7.2-16-16s7.2-16,16-16s16,7.2,16,16S296.8,408,288,408z"/>
<linearGradient id="SVGID_00000105393071798058048380000010594579157986076070_" gradientUnits="userSpaceOnUse" x1="328" y1="226.0078" x2="408" y2="226.0078" gradientTransform="matrix(1 0 0 -1 0 482)">
	<stop  offset="0" style="stop-color:#E1C495"/>
	<stop  offset="1" style="stop-color:#EE8A66"/>
</linearGradient>
<path style="fill:url(#SVGID_00000105393071798058048380000010594579157986076070_);" d="M400,248h-9.5c-2.4-6.8-7.8-12.1-14.5-14.5
	V224c0-4.4-3.6-8-8-8s-8,3.6-8,8v9.5c-6.8,2.4-12.1,7.7-14.5,14.5H336c-4.4,0-8,3.6-8,8s3.6,8,8,8h9.5c2.4,6.8,7.8,12.1,14.5,14.5
	v9.5c0,4.4,3.6,8,8,8s8-3.6,8-8v-9.5c6.8-2.4,12.1-7.8,14.5-14.5h9.5c4.4,0,8-3.6,8-8S404.4,248,400,248L400,248z M368,264
	c-4.4,0-8-3.6-8-8s3.6-8,8-8s8,3.6,8,8S372.4,264,368,264z"/>
<linearGradient id="SVGID_00000093877019893677479620000005125335983003917445_" gradientUnits="userSpaceOnUse" x1="128" y1="26" x2="176" y2="26" gradientTransform="matrix(1 0 0 -1 0 482)">
	<stop  offset="0" style="stop-color:#6AA2BC"/>
	<stop  offset="1" style="stop-color:#38668D"/>
</linearGradient>
<path style="fill:url(#SVGID_00000093877019893677479620000005125335983003917445_);" d="M152,432c-13.3,0-24,10.7-24,24
	s10.7,24,24,24s24-10.7,24-24S165.3,432,152,432z M152,464c-4.4,0-8-3.6-8-8s3.6-8,8-8s8,3.6,8,8S156.4,464,152,464z"/>
<linearGradient id="SVGID_00000171697043221791745230000015725462293609075598_" gradientUnits="userSpaceOnUse" x1="0" y1="26" x2="48" y2="26" gradientTransform="matrix(1 0 0 -1 0 482)">
	<stop  offset="0" style="stop-color:#6AA2BC"/>
	<stop  offset="1" style="stop-color:#38668D"/>
</linearGradient>
<path style="fill:url(#SVGID_00000171697043221791745230000015725462293609075598_);" d="M40,448h-8v-8c0-4.4-3.6-8-8-8s-8,3.6-8,8
	v8H8c-4.4,0-8,3.6-8,8s3.6,8,8,8h8v8c0,4.4,3.6,8,8,8s8-3.6,8-8v-8h8c4.4,0,8-3.6,8-8S44.4,448,40,448z"/>
<linearGradient id="SVGID_00000075127549862477922110000001123953713657620147_" gradientUnits="userSpaceOnUse" x1="432" y1="458" x2="480" y2="458" gradientTransform="matrix(1 0 0 -1 0 482)">
	<stop  offset="0" style="stop-color:#6AA2BC"/>
	<stop  offset="1" style="stop-color:#38668D"/>
</linearGradient>
<path style="fill:url(#SVGID_00000075127549862477922110000001123953713657620147_);" d="M440,32h8v8c0,4.4,3.6,8,8,8s8-3.6,8-8v-8
	h8c4.4,0,8-3.6,8-8s-3.6-8-8-8h-8V8c0-4.4-3.6-8-8-8s-8,3.6-8,8v8h-8c-4.4,0-8,3.6-8,8S435.6,32,440,32z"/>
<linearGradient id="SVGID_00000109720986637952248390000009198539640090415533_" gradientUnits="userSpaceOnUse" x1="409.376" y1="41.9961" x2="470.624" y2="41.9961" gradientTransform="matrix(1 0 0 -1 0 482)">
	<stop  offset="0" style="stop-color:#E1C495"/>
	<stop  offset="1" style="stop-color:#EE8A66"/>
</linearGradient>
<path style="fill:url(#SVGID_00000109720986637952248390000009198539640090415533_);" d="M461.6,450.3c4.4-9.1,2.6-20.1-4.6-27.2
	c-7.2-7.2-18.1-9-27.2-4.6l-6.7-6.7c-2-2.1-5-2.9-7.8-2.2c-2.8,0.7-5,2.9-5.7,5.7c-0.7,2.8,0.1,5.8,2.2,7.8l6.7,6.7
	c-4.4,9.1-2.6,20.1,4.6,27.3c7.2,7.2,18.1,9,27.3,4.6l6.7,6.7c2,2.1,5,2.9,7.8,2.2c2.8-0.7,5-2.9,5.7-5.7c0.7-2.8-0.1-5.8-2.2-7.8
	L461.6,450.3z M434.3,445.7c-3.1-3.1-3.1-8.2,0-11.3c3.1-3.1,8.2-3.1,11.3,0c3.1,3.1,3.1,8.2,0,11.3
	C442.5,448.8,437.5,448.8,434.3,445.7z"/>
<linearGradient id="SVGID_00000121993807526390021920000008521607425944245632_" gradientUnits="userSpaceOnUse" x1="200" y1="265.9496" x2="232" y2="265.9496" gradientTransform="matrix(1 0 0 -1 0 482)">
	<stop  offset="0" style="stop-color:#6AA2BC"/>
	<stop  offset="1" style="stop-color:#38668D"/>
</linearGradient>
<path style="fill:url(#SVGID_00000121993807526390021920000008521607425944245632_);" d="M229.7,202.3c-3.1-3.1-8.2-3.1-11.3,0
	l-2.3,2.3l-2.3-2.3c-3.1-3-8.1-3-11.2,0.1s-3.1,8.1-0.1,11.2l2.3,2.3l-2.3,2.3c-2.1,2-2.9,5-2.2,7.8c0.7,2.8,2.9,5,5.7,5.7
	c2.8,0.7,5.8-0.1,7.8-2.2l2.3-2.3l2.3,2.3c3.1,3,8.1,3,11.2-0.1s3.1-8.1,0.1-11.2l-2.3-2.3l2.3-2.3
	C232.8,210.5,232.8,205.5,229.7,202.3z"/>
<linearGradient id="SVGID_00000159449746555327764510000003906052919150665407_" gradientUnits="userSpaceOnUse" x1="432" y1="154" x2="480" y2="154" gradientTransform="matrix(1 0 0 -1 0 482)">
	<stop  offset="0" style="stop-color:#6AA2BC"/>
	<stop  offset="1" style="stop-color:#38668D"/>
</linearGradient>
<path style="fill:url(#SVGID_00000159449746555327764510000003906052919150665407_);" d="M456,304c-13.3,0-24,10.7-24,24
	s10.7,24,24,24s24-10.7,24-24S469.3,304,456,304z M456,336c-4.4,0-8-3.6-8-8s3.6-8,8-8s8,3.6,8,8S460.4,336,456,336z"/>
<linearGradient id="SVGID_00000003814827957563901780000016028556755789584266_" gradientUnits="userSpaceOnUse" x1="416" y1="346.1286" x2="464" y2="346.1286" gradientTransform="matrix(1 0 0 -1 0 482)">
	<stop  offset="0" style="stop-color:#6AA2BC"/>
	<stop  offset="1" style="stop-color:#38668D"/>
</linearGradient>
<path style="fill:url(#SVGID_00000003814827957563901780000016028556755789584266_);" d="M438.4,159.9c0.5,0,1.1,0.1,1.6,0.1
	c13.2,0,23.9-10.5,24.2-23.7s-10.1-24.1-23.3-24.6c-13.2-0.5-24.3,9.7-24.9,22.9C415.3,147.8,425.3,159,438.4,159.9z M434.7,130
	c1.5-1.3,3.3-2,5.3-2h0.5c2.1,0.1,4.1,1.1,5.5,2.7c1.4,1.6,2.1,3.7,2,5.8c-0.2,3.6-2.9,6.6-6.4,7.3c-3.6,0.7-7.1-1.1-8.7-4.3
	S432,132.3,434.7,130L434.7,130z"/>
<linearGradient id="SVGID_00000155832418515933876700000010914764928515356573_" gradientUnits="userSpaceOnUse" x1="336" y1="442" x2="384" y2="442" gradientTransform="matrix(1 0 0 -1 0 482)">
	<stop  offset="0" style="stop-color:#6AA2BC"/>
	<stop  offset="1" style="stop-color:#38668D"/>
</linearGradient>
<path style="fill:url(#SVGID_00000155832418515933876700000010914764928515356573_);" d="M360,64c13.3,0,24-10.7,24-24
	s-10.7-24-24-24s-24,10.7-24,24S346.7,64,360,64z M360,32c4.4,0,8,3.6,8,8s-3.6,8-8,8s-8-3.6-8-8S355.6,32,360,32z"/>
<linearGradient id="SVGID_00000135652079734832250910000007901442728086105023_" gradientUnits="userSpaceOnUse" x1="0" y1="242" x2="48" y2="242" gradientTransform="matrix(1 0 0 -1 0 482)">
	<stop  offset="0" style="stop-color:#6AA2BC"/>
	<stop  offset="1" style="stop-color:#38668D"/>
</linearGradient>
<path style="fill:url(#SVGID_00000135652079734832250910000007901442728086105023_);" d="M24,216c-13.3,0-24,10.7-24,24
	s10.7,24,24,24s24-10.7,24-24S37.3,216,24,216z M24,248c-4.4,0-8-3.6-8-8s3.6-8,8-8s8,3.6,8,8S28.4,248,24,248z"/>
<linearGradient id="SVGID_00000145771834975691286690000016447148812797795227_" gradientUnits="userSpaceOnUse" x1="200" y1="458" x2="248" y2="458" gradientTransform="matrix(1 0 0 -1 0 482)">
	<stop  offset="0" style="stop-color:#6AA2BC"/>
	<stop  offset="1" style="stop-color:#38668D"/>
</linearGradient>
<path style="fill:url(#SVGID_00000145771834975691286690000016447148812797795227_);" d="M224,0c-13.3,0-24,10.7-24,24
	s10.7,24,24,24s24-10.7,24-24S237.3,0,224,0z M224,32c-4.4,0-8-3.6-8-8s3.6-8,8-8s8,3.6,8,8S228.4,32,224,32z"/>
</svg>
