<?xml version="1.0" encoding="utf-8"?>
<!-- Generator: Adobe Illustrator 28.2.0, SVG Export Plug-In . SVG Version: 6.00 Build 0)  -->
<svg version="1.1" id="Warstwa_1" xmlns="http://www.w3.org/2000/svg" xmlns:xlink="http://www.w3.org/1999/xlink" x="0px" y="0px"
	 viewBox="0 0 491 491" style="enable-background:new 0 0 491 491;" xml:space="preserve">
<style type="text/css">
	.st0{fill:url(#SVGID_1_);}
	.st1{fill:url(#SVGID_00000057863057708338407230000015054499081634629802_);}
	.st2{fill:url(#SVGID_00000137121231080170562380000013912631965394853263_);}
	.st3{fill:url(#SVGID_00000016041156845253141480000009940283592579012001_);}
	.st4{fill:url(#SVGID_00000054239192146534602220000004753814553594404231_);}
	.st5{fill:url(#SVGID_00000012469332733140035190000005730917039489766274_);}
	.st6{fill:url(#SVGID_00000062880517427585986790000015378743350426404502_);}
	.st7{fill:url(#SVGID_00000068645985087928143030000016987575254448471968_);}
	.st8{fill:url(#SVGID_00000106134670251686130180000015823201936345489030_);}
	.st9{fill:url(#SVGID_00000095315892201757298710000000856364568355161509_);}
	.st10{fill:url(#SVGID_00000082352810254870889440000004736515913920230319_);}
</style>
<linearGradient id="SVGID_1_" gradientUnits="userSpaceOnUse" x1="90.4591" y1="173.3" x2="490.9818" y2="173.3" gradientTransform="matrix(1 0 0 -1 0 492)">
	<stop  offset="0" style="stop-color:#6AA2BC"/>
	<stop  offset="1" style="stop-color:#38668D"/>
</linearGradient>
<path class="st0" d="M436.4,187.5c-1.1-1.7-3-2.7-5-2.7s-3.9,1-5,2.7l-53.7,81.8c-1.2,1.8-1.3,4.2-0.3,6.1s3.1,3.1,5.3,3.1h45.8
	c-6.3,45.7-29.1,87.4-64.2,117.4c-33.1,28.4-74.7,44.7-114.1,44.7c-25.7,0-52.6-6.9-77.7-20c-26.1-13.6-48.8-33.1-66.2-56.8
	c-2-2.7-5.7-3.2-8.4-1.3s-3.2,5.7-1.3,8.4c18.5,25.2,42.6,45.8,70.3,60.3c26.8,14,55.6,21.4,83.3,21.4c42.2,0,86.7-17.3,121.9-47.6
	c37.7-32.2,62.1-77.3,68.5-126.5H485c2.2,0,4.2-1.2,5.3-3.1c1-1.9,0.9-4.3-0.3-6.1L436.4,187.5z M388.8,266.6l42.6-64.9l42.6,64.9
	H388.8z"/>
<linearGradient id="SVGID_00000019652700753202548210000010483729221799963301_" gradientUnits="userSpaceOnUse" x1="1.818164e-02" y1="319.2" x2="400.5409" y2="319.2" gradientTransform="matrix(1 0 0 -1 0 492)">
	<stop  offset="0" style="stop-color:#6AA2BC"/>
	<stop  offset="1" style="stop-color:#38668D"/>
</linearGradient>
<path style="fill:url(#SVGID_00000019652700753202548210000010483729221799963301_);" d="M118.6,216.1c-1-1.9-3.1-3.1-5.3-3.1H67.5
	c6.3-45.7,29.1-87.4,64.2-117.4c33.1-28.4,74.7-44.7,114.1-44.7c25.7,0,52.6,6.9,77.7,20c26.1,13.6,48.8,33.1,66.2,56.8
	c2,2.7,5.7,3.2,8.4,1.3c2.7-2,3.2-5.7,1.3-8.4c-18.5-25.2-42.6-45.8-70.3-60.3c-26.8-14-55.6-21.4-83.3-21.4
	c-42.2,0-86.7,17.3-121.9,47.6C86.2,118.7,61.8,163.8,55.5,213H6c-2.2,0-4.2,1.2-5.3,3.1c-1,1.9-0.9,4.3,0.3,6.1L54.7,304
	c1.1,1.7,3,2.7,5,2.7s3.9-1,5-2.7l53.7-81.8C119.5,220.4,119.6,218.1,118.6,216.1z M59.6,289.9L17.1,225h85.1L59.6,289.9z"/>
<linearGradient id="SVGID_00000181804197723891746740000006639785757354450082_" gradientUnits="userSpaceOnUse" x1="157.7271" y1="154.1324" x2="216.9812" y2="154.1324" gradientTransform="matrix(1 0 0 -1 0 492)">
	<stop  offset="0" style="stop-color:#E1C495"/>
	<stop  offset="1" style="stop-color:#EE8A66"/>
</linearGradient>
<path style="fill:url(#SVGID_00000181804197723891746740000006639785757354450082_);" d="M171.6,362.9c4.7,3,10.2,4.6,15.8,4.6
	c2.2,0,4.4-0.2,6.6-0.7c7.7-1.7,14.4-6.4,18.5-13.1c8.7-13.8,4.6-32.2-9.2-40.9s-32.2-4.6-40.9,9.2S157.7,354.1,171.6,362.9
	L171.6,362.9z M172.4,328.4c5.2-8.3,16.1-10.7,24.4-5.5c8.3,5.2,10.7,16.1,5.5,24.4s-16.1,10.7-24.4,5.5
	C169.7,347.5,167.2,336.6,172.4,328.4z"/>
<linearGradient id="SVGID_00000091735240954587787720000009763986441679615651_" gradientUnits="userSpaceOnUse" x1="274.0604" y1="338.1791" x2="333.1172" y2="338.1791" gradientTransform="matrix(1 0 0 -1 0 492)">
	<stop  offset="0" style="stop-color:#E1C495"/>
	<stop  offset="1" style="stop-color:#EE8A66"/>
</linearGradient>
<path style="fill:url(#SVGID_00000091735240954587787720000009763986441679615651_);" d="M310.2,182.6c15.3-3.5,25.1-18.3,22.5-33.7
	s-16.8-26.1-32.4-24.4s-27,15.3-26.2,30.9c0.9,15.6,13.8,27.8,29.4,27.9C305.8,183.4,308,183.1,310.2,182.6z M288.7,144.3
	c5.2-8.3,16.1-10.7,24.4-5.5s10.7,16.1,5.5,24.4c-5.2,8.3-16.1,10.7-24.4,5.5C285.9,163.4,283.5,152.5,288.7,144.3z"/>
<linearGradient id="SVGID_00000016789021116293582600000015189383132950890374_" gradientUnits="userSpaceOnUse" x1="307.8087" y1="188.2509" x2="367.1162" y2="188.2509" gradientTransform="matrix(1 0 0 -1 0 492)">
	<stop  offset="0" style="stop-color:#E1C495"/>
	<stop  offset="1" style="stop-color:#EE8A66"/>
</linearGradient>
<path style="fill:url(#SVGID_00000016789021116293582600000015189383132950890374_);" d="M321.7,328.9c13.8,8.7,32.1,4.5,40.8-9.3
	c8.7-13.8,4.6-32.1-9.2-40.9c-9-5.7-20.3-6.2-29.7-1.2s-15.5,14.5-15.9,25.1C307.4,313.3,312.7,323.3,321.7,328.9z M322.6,294.4
	c5.2-8.3,16.1-10.7,24.4-5.5s10.7,16.1,5.5,24.4s-16.1,10.7-24.4,5.5C319.9,313.6,317.4,302.7,322.6,294.4z"/>
<linearGradient id="SVGID_00000091731726435161374840000012000290722019745178_" gradientUnits="userSpaceOnUse" x1="123.803" y1="304.3748" x2="183.1679" y2="304.3748" gradientTransform="matrix(1 0 0 -1 0 492)">
	<stop  offset="0" style="stop-color:#E1C495"/>
	<stop  offset="1" style="stop-color:#EE8A66"/>
</linearGradient>
<path style="fill:url(#SVGID_00000091731726435161374840000012000290722019745178_);" d="M137.6,212.7c12,7.6,27.6,5.6,37.3-4.7
	s10.9-26,2.7-37.5c-8.2-11.6-23.3-15.7-36.3-10c-12.9,5.8-20,19.8-16.9,33.6C126.3,201.9,131,208.5,137.6,212.7z M138.5,178.2
	c5.2-8.3,16.1-10.7,24.4-5.5c8.3,5.2,10.7,16.1,5.5,24.4c-5.2,8.3-16.1,10.7-24.4,5.5C135.8,197.4,133.3,186.5,138.5,178.2z"/>
<linearGradient id="SVGID_00000126309214589973274310000017531371242864715438_" gradientUnits="userSpaceOnUse" x1="321.9666" y1="270.25" x2="381.3334" y2="270.25" gradientTransform="matrix(1 0 0 -1 0 492)">
	<stop  offset="0" style="stop-color:#6AA2BC"/>
	<stop  offset="1" style="stop-color:#38668D"/>
</linearGradient>
<path style="fill:url(#SVGID_00000126309214589973274310000017531371242864715438_);" d="M380.6,215.2c-3.6-16-19.5-26-35.5-22.4
	s-26,19.5-22.4,35.5s19.5,26,35.5,22.4C374.2,247.1,384.2,231.2,380.6,215.2z M355.6,239c-9.5,2.1-19-3.8-21.1-13.3
	c-2.2-9.5,3.8-19,13.3-21.1c9.5-2.2,19,3.8,21.1,13.3C371.1,227.4,365.1,236.9,355.6,239z"/>
<linearGradient id="SVGID_00000159441217894174936830000008728779239296155536_" gradientUnits="userSpaceOnUse" x1="109.6666" y1="222.25" x2="169.0334" y2="222.25" gradientTransform="matrix(1 0 0 -1 0 492)">
	<stop  offset="0" style="stop-color:#6AA2BC"/>
	<stop  offset="1" style="stop-color:#38668D"/>
</linearGradient>
<path style="fill:url(#SVGID_00000159441217894174936830000008728779239296155536_);" d="M110.4,276.3c3.6,16,19.5,26,35.5,22.4
	s26-19.5,22.4-35.5s-19.5-26-35.5-22.4C116.8,244.5,106.8,260.3,110.4,276.3z M135.4,252.5c9.5-2.2,19,3.8,21.1,13.3
	c2.2,9.5-3.8,19-13.3,21.1c-9.5,2.2-19-3.8-21.1-13.3C119.9,264.1,125.9,254.7,135.4,252.5z"/>
<linearGradient id="SVGID_00000015351153621692034970000018063934404724493499_" gradientUnits="userSpaceOnUse" x1="239.8395" y1="140.0143" x2="299.0996" y2="140.0143" gradientTransform="matrix(1 0 0 -1 0 492)">
	<stop  offset="0" style="stop-color:#6AA2BC"/>
	<stop  offset="1" style="stop-color:#38668D"/>
</linearGradient>
<path style="fill:url(#SVGID_00000015351153621692034970000018063934404724493499_);" d="M269.5,381.6c9,0,17.5-4.1,23.2-11.1
	c5.6-7,7.7-16.3,5.8-25c-3.4-15.1-17.9-25.1-33.3-22.8c-15.4,2.3-26.3,16-25.2,31.5C241.1,369.6,254,381.6,269.5,381.6L269.5,381.6z
	 M265.6,334.7c9.5-2.2,19,3.8,21.1,13.3c2.2,9.5-3.8,19-13.3,21.1c-9.5,2.2-19-3.8-21.1-13.3c-1-4.6-0.2-9.4,2.3-13.3
	C257,338.5,261,335.7,265.6,334.7z"/>
<linearGradient id="SVGID_00000149382294828230270400000003095164370251710595_" gradientUnits="userSpaceOnUse" x1="191.8666" y1="352.35" x2="251.2334" y2="352.35" gradientTransform="matrix(1 0 0 -1 0 492)">
	<stop  offset="0" style="stop-color:#6AA2BC"/>
	<stop  offset="1" style="stop-color:#38668D"/>
</linearGradient>
<path style="fill:url(#SVGID_00000149382294828230270400000003095164370251710595_);" d="M215,110.7c-16,3.6-26,19.5-22.4,35.5
	s19.5,26,35.5,22.4s26-19.5,22.4-35.5C246.8,117.1,230.9,107.1,215,110.7z M225.4,156.8c-9.5,2.2-19-3.8-21.1-13.3
	c-2.2-9.5,3.8-19,13.3-21.1s19,3.8,21.1,13.3C240.9,145.2,234.9,154.7,225.4,156.8z"/>
<linearGradient id="SVGID_00000178194309448516756710000011358149373988513162_" gradientUnits="userSpaceOnUse" x1="193.8482" y1="246.2556" x2="297.0413" y2="246.2556" gradientTransform="matrix(1 0 0 -1 0 492)">
	<stop  offset="0" style="stop-color:#E1C495"/>
	<stop  offset="1" style="stop-color:#EE8A66"/>
</linearGradient>
<path style="fill:url(#SVGID_00000178194309448516756710000011358149373988513162_);" d="M265.3,293.4
	c24.5-10.2,37.2-37.3,29.5-62.7s-33.5-40.7-59.5-35.5s-43.8,29.3-41.2,55.7s24.9,46.5,51.4,46.4C252.4,297.3,259.1,296,265.3,293.4z
	 M208.9,261c-8.4-20.2,1.1-43.4,21.3-51.8c20.2-8.4,43.4,1.1,51.8,21.3s-1.1,43.4-21.3,51.8C240.5,290.7,217.4,281.2,208.9,261z"/>
</svg>
