<?xml version="1.0" encoding="utf-8"?>
<!-- Generator: Adobe Illustrator 28.2.0, SVG Export Plug-In . SVG Version: 6.00 Build 0)  -->
<svg version="1.1" id="Layer_1" xmlns="http://www.w3.org/2000/svg" xmlns:xlink="http://www.w3.org/1999/xlink" x="0px" y="0px"
	 viewBox="0 0 512 512" style="enable-background:new 0 0 512 512;" xml:space="preserve">
<style type="text/css">
	.st0{fill:url(#SVGID_1_);}
	.st1{fill:url(#SVGID_00000011712250399727880940000017194653384438397887_);}
	.st2{fill:url(#SVGID_00000175311868910848475980000017966185572826820490_);}
	.st3{fill:url(#SVGID_00000012439111263606859280000000685753884070045855_);}
	.st4{fill:url(#SVGID_00000100356695143154387280000002697956645905190068_);}
	.st5{fill:url(#SVGID_00000069368902929062593980000016561202149177897146_);}
	.st6{fill:url(#SVGID_00000114796397464583698250000012119280791559566987_);}
	.st7{fill:url(#SVGID_00000041999172987929642990000000493023988850063776_);}
	.st8{fill:url(#SVGID_00000117642440447564534980000012923815064404445833_);}
	.st9{fill:url(#SVGID_00000057863517531299356440000015312321526190863490_);}
	.st10{fill:url(#SVGID_00000137113117342521622480000007883823462796921501_);}
</style>
<linearGradient id="SVGID_1_" gradientUnits="userSpaceOnUse" x1="161.5" y1="254.3661" x2="350.1573" y2="254.3661" gradientTransform="matrix(1 0 0 -1 0 514)">
	<stop  offset="0" style="stop-color:#6AA2BC"/>
	<stop  offset="1" style="stop-color:#38668D"/>
</linearGradient>
<path class="st0" d="M347.9,204.1c-1.6-1.2-3.7-1.5-5.6-0.8l-48.9,17.2c-15.8,5.6-28,19.9-32.7,38.5c-2.2,9.2-3.8,18.5-4.8,27.9
	c-2.8,3.6-5.2,7.4-7.4,11.4c-2.2-7.5-4.9-14.9-8.1-22.1l0.3-11.1c1.5-49.7-31.2-91.6-72.9-93.4c-3.3-0.1-6.1,2.4-6.3,5.7
	c0,0.3,0,0.7,0,1l5,39.6c2,18.7,10.5,34.7,24.5,46.3c11.1,8.9,24.4,14.8,38.5,17.2c5.2,12,9.1,24.5,11.5,37.3
	c-1.7,7.8-1.9,15.9-0.5,23.7c0.5,3.3,3.6,5.5,6.9,5c3.3-0.5,5.5-3.6,5-6.9c0-0.1,0-0.2-0.1-0.3c-1.6-8.6-0.6-18,2.9-27.7
	c2.3-6.5,5.7-12.6,9.9-18.1l5.2,0.3c3.3,0.4,6.6,0.7,9.9,0.7c14.5,0.2,28.5-4.8,39.6-14.1c18-15,29-41.3,30.3-72.1
	C350.4,207.2,349.5,205.2,347.9,204.1L347.9,204.1z M224.4,247.5L206,221c-1.9-2.7-5.6-3.5-8.3-1.6s-3.5,5.6-1.6,8.3l0.1,0.1
	l18.4,26.5c2.9,4.2,5.6,8.6,8.1,13.1c-20.9-6.3-41-22-44.1-50.9l-4-32.1c28.7,5.3,51,34,53.9,69.4
	C227.2,251.6,225.8,249.5,224.4,247.5L224.4,247.5z M312.3,272c-10.1,8.4-22.2,12.1-36.2,11.1L309,253c2.4-2.2,2.6-6,0.4-8.5
	c-2.2-2.4-6-2.6-8.5-0.4L270,272.4c0.7-3.8,1.4-7.3,2.3-10.6c3.7-14.6,13.1-25.9,25.1-30.1l40.2-14.2C335,241.1,326,260.6,312.3,272
	L312.3,272z"/>
<linearGradient id="SVGID_00000067945045126470744840000002869280587826389403_" gradientUnits="userSpaceOnUse" x1="120" y1="257.95" x2="392.1" y2="257.95" gradientTransform="matrix(1 0 0 -1 0 514)">
	<stop  offset="0" style="stop-color:#6AA2BC"/>
	<stop  offset="1" style="stop-color:#38668D"/>
</linearGradient>
<path style="fill:url(#SVGID_00000067945045126470744840000002869280587826389403_);" d="M351.7,77.2C347.4,68,338.2,62.1,328,62
	h-66V11c0-3.3-2.7-6-6-6c-3.3,0-6,2.7-6,6v51h-66c-10.1,0.1-19.3,6-23.6,15.2l-36,77c-2.9,6.2-4.3,12.8-4.4,19.6v297.1
	c0,20,16.2,36.1,36.2,36.2h199.7c20,0,36.1-16.2,36.2-36.2V173.8c0-6.8-1.5-13.5-4.4-19.6L351.7,77.2z M256,110.9
	c15,0,27.2,12.2,27.2,27.2S271,165.3,256,165.3s-27.2-12.2-27.2-27.2C228.8,123,241,110.9,256,110.9z M380,470.8
	c0,13.3-10.8,24.1-24.2,24.2H156.2c-13.3,0-24.1-10.8-24.2-24.2V458h248V470.8z M380,446H132V173.8c0-5,1.1-10,3.2-14.5l36-77
	c2.3-5,7.3-8.2,12.8-8.2h66v25.3c-21.4,3.3-36,23.3-32.7,44.7s23.3,36,44.7,32.7s36-23.3,32.7-44.7c-2.6-16.9-15.8-30.1-32.7-32.7
	V74h66c5.5,0.1,10.5,3.3,12.8,8.2l36,77c2.1,4.6,3.2,9.5,3.2,14.5V446z"/>
<linearGradient id="SVGID_00000141436664541438537580000006411779728944726198_" gradientUnits="userSpaceOnUse" x1="234.7" y1="375.9" x2="277.3" y2="375.9" gradientTransform="matrix(1 0 0 -1 0 514)">
	<stop  offset="0" style="stop-color:#6AA2BC"/>
	<stop  offset="1" style="stop-color:#38668D"/>
</linearGradient>
<path style="fill:url(#SVGID_00000141436664541438537580000006411779728944726198_);" d="M256,159.4c11.8,0,21.3-9.5,21.3-21.3
	s-9.5-21.3-21.3-21.3s-21.3,9.5-21.3,21.3l0,0C234.7,149.8,244.2,159.3,256,159.4z M256,128.7c5.1,0,9.3,4.2,9.3,9.3
	s-4.2,9.3-9.3,9.3c-5.1,0-9.3-4.2-9.3-9.3C246.7,132.9,250.9,128.7,256,128.7z"/>
<linearGradient id="SVGID_00000121261274813120628800000005315386165748287363_" gradientUnits="userSpaceOnUse" x1="224.5" y1="144" x2="341.8" y2="144" gradientTransform="matrix(1 0 0 -1 0 514)">
	<stop  offset="0" style="stop-color:#E1C495"/>
	<stop  offset="1" style="stop-color:#EE8A66"/>
</linearGradient>
<path style="fill:url(#SVGID_00000121261274813120628800000005315386165748287363_);" d="M335.8,364H230.5c-3.3,0-6,2.7-6,6
	s2.7,6,6,6h105.3c3.3,0,6-2.7,6-6S339.1,364,335.8,364z"/>
<linearGradient id="SVGID_00000166657191215630529500000015905472774285113222_" gradientUnits="userSpaceOnUse" x1="170.2" y1="144" x2="209.6" y2="144" gradientTransform="matrix(1 0 0 -1 0 514)">
	<stop  offset="0" style="stop-color:#E1C495"/>
	<stop  offset="1" style="stop-color:#EE8A66"/>
</linearGradient>
<path style="fill:url(#SVGID_00000166657191215630529500000015905472774285113222_);" d="M176.2,376h27.4c3.3,0,6-2.7,6-6
	s-2.7-6-6-6h-27.4c-3.3,0-6,2.7-6,6S172.9,376,176.2,376z"/>
<linearGradient id="SVGID_00000044139915261107167310000010843384526314403246_" gradientUnits="userSpaceOnUse" x1="265.1" y1="119" x2="341.8" y2="119" gradientTransform="matrix(1 0 0 -1 0 514)">
	<stop  offset="0" style="stop-color:#E1C495"/>
	<stop  offset="1" style="stop-color:#EE8A66"/>
</linearGradient>
<path style="fill:url(#SVGID_00000044139915261107167310000010843384526314403246_);" d="M335.8,389h-64.7c-3.3,0-6,2.7-6,6
	s2.7,6,6,6h64.7c3.3,0,6-2.7,6-6S339.1,389,335.8,389z"/>
<linearGradient id="SVGID_00000158730034164247397000000018255145391069275540_" gradientUnits="userSpaceOnUse" x1="170.2" y1="119" x2="250.2" y2="119" gradientTransform="matrix(1 0 0 -1 0 514)">
	<stop  offset="0" style="stop-color:#E1C495"/>
	<stop  offset="1" style="stop-color:#EE8A66"/>
</linearGradient>
<path style="fill:url(#SVGID_00000158730034164247397000000018255145391069275540_);" d="M176.2,401h68c3.3,0,6-2.7,6-6s-2.7-6-6-6
	h-68c-3.3,0-6,2.7-6,6S172.9,401,176.2,401z"/>
<linearGradient id="SVGID_00000010282788490350368350000002388795840908378268_" gradientUnits="userSpaceOnUse" x1="235.1" y1="94" x2="341.8" y2="94" gradientTransform="matrix(1 0 0 -1 0 514)">
	<stop  offset="0" style="stop-color:#E1C495"/>
	<stop  offset="1" style="stop-color:#EE8A66"/>
</linearGradient>
<path style="fill:url(#SVGID_00000010282788490350368350000002388795840908378268_);" d="M335.8,414h-94.7c-3.3,0-6,2.7-6,6
	s2.7,6,6,6h94.7c3.3,0,6-2.7,6-6S339.1,414,335.8,414z"/>
<linearGradient id="SVGID_00000062908774260082917120000006175489582781586853_" gradientUnits="userSpaceOnUse" x1="170.18" y1="94" x2="221.28" y2="94" gradientTransform="matrix(1 0 0 -1 0 514)">
	<stop  offset="0" style="stop-color:#E1C495"/>
	<stop  offset="1" style="stop-color:#EE8A66"/>
</linearGradient>
<path style="fill:url(#SVGID_00000062908774260082917120000006175489582781586853_);" d="M215.2,414h-39.1c-3.3,0-6,2.7-6,6
	s2.7,6,6,6h39.1c3.3,0,6-2.7,6-6S218.6,414,215.2,414z"/>
<linearGradient id="SVGID_00000170999893426836399260000007165580666885079217_" gradientUnits="userSpaceOnUse" x1="142" y1="289.25" x2="154" y2="289.25" gradientTransform="matrix(1 0 0 -1 0 514)">
	<stop  offset="0" style="stop-color:#E1C495"/>
	<stop  offset="1" style="stop-color:#EE8A66"/>
</linearGradient>
<path style="fill:url(#SVGID_00000170999893426836399260000007165580666885079217_);" d="M148,217.4c-3.3,0-6,2.7-6,6v2.7
	c0,3.3,2.7,6,6,6s6-2.7,6-6v-2.7C154,220.1,151.3,217.4,148,217.4z"/>
<linearGradient id="SVGID_00000010286756577491684500000000029205854859541413_" gradientUnits="userSpaceOnUse" x1="142" y1="214.4" x2="154" y2="214.4" gradientTransform="matrix(1 0 0 -1 0 514)">
	<stop  offset="0" style="stop-color:#E1C495"/>
	<stop  offset="1" style="stop-color:#EE8A66"/>
</linearGradient>
<path style="fill:url(#SVGID_00000010286756577491684500000000029205854859541413_);" d="M148,239.7c-3.3,0-6,2.7-6,6v107.8
	c0,3.3,2.7,6,6,6s6-2.7,6-6V245.7C154,242.4,151.3,239.7,148,239.7L148,239.7z"/>
</svg>
